<svg width="25" height="24" viewBox="0 0 25 24" fill="none" xmlns="http://www.w3.org/2000/svg">
<path fill-rule="evenodd" clip-rule="evenodd" d="M15.667 2H17.667C19.5526 2 20.4954 2 21.0812 2.58579C21.667 3.17157 21.667 4.11438 21.667 6V21.25H22.667C23.0812 21.25 23.417 21.5858 23.417 22C23.417 22.4142 23.0812 22.75 22.667 22.75H2.66699C2.25278 22.75 1.91699 22.4142 1.91699 22C1.91699 21.5858 2.25278 21.25 2.66699 21.25H3.66699V9C3.66699 7.11438 3.66699 6.17157 4.25278 5.58579C4.83856 5 5.78137 5 7.66699 5H11.667C13.5526 5 14.4954 5 15.0812 5.58579C15.667 6.17157 15.667 7.11438 15.667 9V21.25H17.167V9L17.167 8.91051C17.1671 8.04488 17.1672 7.25121 17.0804 6.60559C16.9848 5.89462 16.7599 5.14317 16.1419 4.52513C15.5238 3.90708 14.7724 3.68219 14.0614 3.5866C13.4249 3.50102 12.6444 3.49991 11.793 3.49999C11.8773 3.11275 12.018 2.82059 12.2528 2.58579C12.8386 2 13.7814 2 15.667 2ZM5.91699 8C5.91699 7.58579 6.25278 7.25 6.66699 7.25H12.667C13.0812 7.25 13.417 7.58579 13.417 8C13.417 8.41421 13.0812 8.75 12.667 8.75H6.66699C6.25278 8.75 5.91699 8.41421 5.91699 8ZM5.91699 11C5.91699 10.5858 6.25278 10.25 6.66699 10.25H12.667C13.0812 10.25 13.417 10.5858 13.417 11C13.417 11.4142 13.0812 11.75 12.667 11.75H6.66699C6.25278 11.75 5.91699 11.4142 5.91699 11ZM5.91699 14C5.91699 13.5858 6.25278 13.25 6.66699 13.25H12.667C13.0812 13.25 13.417 13.5858 13.417 14C13.417 14.4142 13.0812 14.75 12.667 14.75H6.66699C6.25278 14.75 5.91699 14.4142 5.91699 14ZM9.66699 18.25C10.0812 18.25 10.417 18.5858 10.417 19V21.25H8.91699V19C8.91699 18.5858 9.25278 18.25 9.66699 18.25Z" fill="#848484"/>
</svg>
