<svg width="25" height="24" viewBox="0 0 25 24" fill="none" xmlns="http://www.w3.org/2000/svg">
<path d="M16.8892 12.9062L16.4337 13.359C16.4337 13.359 15.3511 14.4355 12.3961 11.4972C9.44112 8.55901 10.5237 7.48257 10.5237 7.48257L10.8105 7.19738C11.5171 6.49484 11.5837 5.36691 10.9672 4.54348L9.70626 2.85908C8.94329 1.83992 7.46897 1.70529 6.59446 2.57483L5.02486 4.13552C4.59124 4.56668 4.30066 5.12559 4.3359 5.74561C4.42604 7.33182 5.14372 10.7447 9.14837 14.7266C13.3951 18.9492 17.3798 19.117 19.0093 18.9651C19.5247 18.9171 19.9729 18.6546 20.3341 18.2954L21.7547 16.883C22.7136 15.9295 22.4432 14.2949 21.2163 13.628L19.3058 12.5894C18.5003 12.1515 17.5188 12.2801 16.8892 12.9062Z" fill="#848484"/>
</svg>
