<svg width="19" height="18" viewBox="0 0 19 18" fill="none" xmlns="http://www.w3.org/2000/svg">
<g id="Bold / Shopping, Ecommerce / Shop">
<path id="Vector" d="M3.33343 2.74113C3.19765 3.0118 3.13087 3.3457 2.99732 4.01349L2.54887 6.2557C2.26493 7.67542 3.35083 9 4.79866 9C5.97738 9 6.96433 8.10682 7.08162 6.93395L7.13338 6.41636C7.01106 7.80286 8.1039 9 9.49985 9C10.9053 9 12.0035 7.7865 11.8636 6.38803L11.9184 6.93395C12.0357 8.10682 13.0226 9 14.2014 9C15.6492 9 16.7351 7.67542 16.4511 6.2557L16.0027 4.01349C15.8691 3.34571 15.8024 3.0118 15.6666 2.74113C15.3805 2.17079 14.8657 1.74876 14.2503 1.58006C13.9583 1.5 13.6178 1.5 12.9367 1.5H11.3748H6.06328C5.38226 1.5 5.04175 1.5 4.74971 1.58006C4.13434 1.74876 3.61954 2.17079 3.33343 2.74113Z" fill="#072948"/>
<path id="Vector_2" d="M14.2014 10.125C14.8142 10.125 15.3836 9.96571 15.875 9.68919V10.5C15.875 13.3284 15.875 14.7426 14.9963 15.6213C14.289 16.3286 13.2347 16.4666 11.375 16.4935V13.875C11.375 13.174 11.375 12.8236 11.2243 12.5625C11.1255 12.3915 10.9835 12.2495 10.8125 12.1507C10.5514 12 10.201 12 9.5 12C8.79904 12 8.44856 12 8.1875 12.1507C8.01648 12.2495 7.87446 12.3915 7.77572 12.5625C7.625 12.8236 7.625 13.174 7.625 13.875V16.4935C5.76532 16.4666 4.71099 16.3286 4.00368 15.6213C3.125 14.7426 3.125 13.3284 3.125 10.5V9.68917C3.61643 9.96571 4.18579 10.125 4.79868 10.125C5.69648 10.125 6.51963 9.77728 7.13326 9.20395C7.75376 9.77405 8.58237 10.125 9.49986 10.125C10.4174 10.125 11.2461 9.77398 11.8666 9.2038C12.4803 9.77722 13.3035 10.125 14.2014 10.125Z" fill="#072948"/>
</g>
</svg>
