<svg width="32" height="32" viewBox="0 0 32 32" fill="none" xmlns="http://www.w3.org/2000/svg">
<g id="Outline / Essentional, UI / Hamburger Menu">
<path id="Vector" fill-rule="evenodd" clip-rule="evenodd" d="M27.6667 9.33325C27.6667 9.88554 27.2189 10.3333 26.6667 10.3333L5.33333 10.3333C4.78105 10.3333 4.33333 9.88554 4.33333 9.33325C4.33333 8.78097 4.78105 8.33325 5.33333 8.33325L26.6667 8.33325C27.2189 8.33325 27.6667 8.78097 27.6667 9.33325Z" fill="#072948"/>
<path id="Vector_2" fill-rule="evenodd" clip-rule="evenodd" d="M27.6667 16C27.6667 16.5523 27.2189 17 26.6667 17L5.33333 17C4.78105 17 4.33333 16.5523 4.33333 16C4.33333 15.4477 4.78105 15 5.33333 15L26.6667 15C27.2189 15 27.6667 15.4477 27.6667 16Z" fill="#072948"/>
<path id="Vector_3" fill-rule="evenodd" clip-rule="evenodd" d="M27.6667 22.6667C27.6667 23.219 27.2189 23.6667 26.6667 23.6667L5.33333 23.6667C4.78105 23.6667 4.33333 23.219 4.33333 22.6667C4.33333 22.1145 4.78105 21.6667 5.33333 21.6667L26.6667 21.6667C27.2189 21.6667 27.6667 22.1145 27.6667 22.6667Z" fill="#072948"/>
</g>
</svg>
