<svg xmlns="http://www.w3.org/2000/svg" width="18" height="17" viewBox="0 0 18 17" fill="none">
  <path fill-rule="evenodd" clip-rule="evenodd" d="M17.3334 8.50008C17.3334 13.1025 13.6024 16.8334 9.00002 16.8334C4.39765 16.8334 0.666687 13.1025 0.666687 8.50008C0.666687 3.89771 4.39765 0.166748 9.00002 0.166748C13.6024 0.166748 17.3334 3.89771 17.3334 8.50008ZM9.00002 4.95841C8.48225 4.95841 8.06252 5.37815 8.06252 5.89591C8.06252 6.24109 7.7827 6.52092 7.43752 6.52092C7.09234 6.52092 6.81252 6.24109 6.81252 5.89591C6.81252 4.68779 7.7919 3.70841 9.00002 3.70841C10.2081 3.70841 11.1875 4.68779 11.1875 5.89591C11.1875 6.48828 10.9512 7.02673 10.5692 7.42005C10.4923 7.4992 10.4189 7.57247 10.349 7.64238C10.1691 7.82209 10.0115 7.97953 9.87327 8.15716C9.69075 8.39168 9.62502 8.56405 9.62502 8.70842V9.33342C9.62502 9.67859 9.3452 9.95842 9.00002 9.95842C8.65484 9.95842 8.37502 9.67859 8.37502 9.33342V8.70842C8.37502 8.16242 8.6292 7.72045 8.88683 7.38942C9.07745 7.14449 9.31705 6.90537 9.5115 6.7113C9.57016 6.65276 9.62471 6.59832 9.67256 6.54906C9.83717 6.37961 9.93752 6.15012 9.93752 5.89591C9.93752 5.37815 9.51779 4.95841 9.00002 4.95841ZM9.00002 12.6667C9.46026 12.6667 9.83335 12.2937 9.83335 11.8334C9.83335 11.3732 9.46026 11.0001 9.00002 11.0001C8.53978 11.0001 8.16669 11.3732 8.16669 11.8334C8.16669 12.2937 8.53978 12.6667 9.00002 12.6667Z" fill="#F9F9F9"/>
</svg>