<svg width="24" height="25" viewBox="0 0 24 25" fill="none" xmlns="http://www.w3.org/2000/svg">
<g id="Outline / Essentional, UI / Home ">
<g id="Vector">
<path d="M9 17.8938C8.58579 17.8938 8.25 18.2296 8.25 18.6438C8.25 19.058 8.58579 19.3938 9 19.3938H15C15.4142 19.3938 15.75 19.058 15.75 18.6438C15.75 18.2296 15.4142 17.8938 15 17.8938H9Z" fill="#050505"/>
<path fill-rule="evenodd" clip-rule="evenodd" d="M12 1.8938C11.2919 1.8938 10.6485 2.09662 9.95055 2.43604C9.27585 2.76414 8.49642 3.24789 7.52286 3.85212L5.45628 5.1347C4.53509 5.70641 3.79744 6.1642 3.2289 6.59961C2.64015 7.05049 2.18795 7.50969 1.86131 8.10643C1.53535 8.70192 1.38857 9.33554 1.31819 10.0845C1.24999 10.8103 1.24999 11.6979 1.25 12.811V14.4237C1.24999 16.3275 1.24998 17.8304 1.4027 19.0054C1.55937 20.2108 1.88856 21.1839 2.63236 21.9532C3.37958 22.7262 4.33046 23.0715 5.50761 23.2352C6.64849 23.3938 8.10556 23.3938 9.94185 23.3938H14.0581C15.8944 23.3938 17.3515 23.3938 18.4924 23.2352C19.6695 23.0715 20.6204 22.7262 21.3676 21.9532C22.1114 21.1839 22.4406 20.2108 22.5973 19.0054C22.75 17.8304 22.75 16.3275 22.75 14.4237V12.811C22.75 11.6979 22.75 10.8103 22.6818 10.0845C22.6114 9.33554 22.4646 8.70192 22.1387 8.10643C21.8121 7.50969 21.3599 7.05049 20.7711 6.59961C20.2026 6.1642 19.4649 5.70642 18.5437 5.13471L16.4771 3.85211C15.5036 3.24789 14.7241 2.76414 14.0494 2.43604C13.3515 2.09662 12.7081 1.8938 12 1.8938ZM8.27953 5.14792C9.29529 4.51751 10.0095 4.07533 10.6065 3.78499C11.1882 3.50212 11.6002 3.3938 12 3.3938C12.3998 3.3938 12.8118 3.50212 13.3935 3.78499C13.9905 4.07533 14.7047 4.51751 15.7205 5.14792L17.7205 6.38917C18.6813 6.98549 19.3559 7.40515 19.8591 7.7905C20.3487 8.16544 20.6303 8.47486 20.8229 8.82665C21.0162 9.17969 21.129 9.59245 21.1884 10.2248C21.2492 10.8724 21.25 11.6896 21.25 12.8477V14.3688C21.25 16.3397 21.2485 17.745 21.1098 18.8121C20.9736 19.8601 20.717 20.4682 20.2892 20.9107C19.8649 21.3496 19.2871 21.6102 18.2858 21.7495C17.2602 21.8921 15.9075 21.8938 14 21.8938H10C8.09247 21.8938 6.73983 21.8921 5.71422 21.7495C4.71286 21.6102 4.13514 21.3496 3.71079 20.9107C3.28301 20.4682 3.02642 19.8601 2.89019 18.8121C2.75149 17.745 2.75 16.3397 2.75 14.3688V12.8477C2.75 11.6896 2.75076 10.8724 2.81161 10.2248C2.87103 9.59245 2.98385 9.17969 3.17709 8.82665C3.36965 8.47486 3.65133 8.16544 4.14092 7.7905C4.6441 7.40515 5.31869 6.98549 6.27953 6.38917L8.27953 5.14792Z" fill="#050505"/>
</g>
</g>
</svg>
