<svg xmlns="http://www.w3.org/2000/svg" width="24" height="25" viewBox="0 0 24 25" fill="none">
  <path fill-rule="evenodd" clip-rule="evenodd" d="M2.5192 8.46654C2 9.41507 2 10.5593 2 12.8477V14.3688C2 18.2696 2 20.2201 3.17157 21.4319C4.34315 22.6438 6.22876 22.6438 10 22.6438H14C17.7712 22.6438 19.6569 22.6438 20.8284 21.4319C22 20.2201 22 18.2696 22 14.3688V12.8477C22 10.5593 22 9.41507 21.4808 8.46654C20.9616 7.51801 20.0131 6.92931 18.116 5.75192L16.116 4.51067C14.1106 3.26609 13.1079 2.6438 12 2.6438C10.8921 2.6438 9.88939 3.26609 7.88403 4.51067L5.88403 5.75193C3.98695 6.92931 3.0384 7.51801 2.5192 8.46654ZM9 17.8938C8.58579 17.8938 8.25 18.2296 8.25 18.6438C8.25 19.058 8.58579 19.3938 9 19.3938H15C15.4142 19.3938 15.75 19.058 15.75 18.6438C15.75 18.2296 15.4142 17.8938 15 17.8938H9Z" fill="#072948"/>
</svg>