<svg xmlns="http://www.w3.org/2000/svg" width="24" height="25" viewBox="0 0 24 25" fill="none">
  <path d="M9.5 20.6438V22.6438C9.5 23.058 9.83579 23.3938 10.25 23.3938C10.6642 23.3938 11 23.058 11 22.6438V20.6438H9.5Z" fill="#072948"/>
  <path d="M15 20.6438H13.5V22.6438C13.5 23.058 13.8358 23.3938 14.25 23.3938C14.6642 23.3938 15 23.058 15 22.6438V20.6438Z" fill="#072948"/>
  <path fill-rule="evenodd" clip-rule="evenodd" d="M17.3846 7.22851L17.6407 7.17724C18.0564 7.09401 18.4863 7.13375 18.8814 7.29193C19.5717 7.56833 20.3266 7.61996 21.0458 7.43998L21.1073 7.4246C21.6309 7.29355 22 6.80679 22 6.24715V4.11664C22 3.37883 21.3358 2.83524 20.6454 3.00801C20.249 3.10722 19.8329 3.07876 19.4523 2.92641L19.3793 2.89715C18.7422 2.64208 18.0491 2.57801 17.3787 2.71221L16.93 2.80203C16.3901 2.91012 16 3.40102 16 3.97226V10.9245C16 11.3218 16.31 11.6438 16.6923 11.6438C17.0747 11.6438 17.3846 11.3218 17.3846 10.9245V7.22851Z" fill="#072948"/>
  <path d="M14.5 6.6438V10.9245C14.5 12.0956 15.428 13.1438 16.6923 13.1438C17.9566 13.1438 18.8846 12.0956 18.8846 10.9245V8.87175C19.6455 9.07715 20.4446 9.10115 21.22 8.93875C21.7122 9.78051 22 10.7979 22 11.8938V18.0691C22 19.4911 21.0119 20.6438 19.7931 20.6438H12.5V11.8938C12.5 9.86394 11.6679 7.91983 10.2826 6.6438H14.5Z" fill="#072948"/>
  <path fill-rule="evenodd" clip-rule="evenodd" d="M2 11.8938C2 8.9943 4.01472 6.6438 6.5 6.6438C8.98528 6.6438 11 8.9943 11 11.8938V20.6438H4.23256C2.99955 20.6438 2 19.4777 2 18.0391V11.8938ZM4.25 16.6438C4.25 16.2296 4.58579 15.8938 5 15.8938H8C8.41421 15.8938 8.75 16.2296 8.75 16.6438C8.75 17.058 8.41421 17.3938 8 17.3938H5C4.58579 17.3938 4.25 17.058 4.25 16.6438Z" fill="#072948"/>
</svg>