<svg width="24" height="25" viewBox="0 0 24 25" fill="none" xmlns="http://www.w3.org/2000/svg">
<g id="Outline / Messages, Conversation  / Mailbox">
<path id="Vector" fill-rule="evenodd" clip-rule="evenodd" d="M18.3715 3.67335C17.9435 3.50841 17.4778 3.46698 17.0274 3.55376L16.75 3.60721V5.26242C17.4742 5.12411 18.2228 5.19131 18.9109 5.45648C19.338 5.62108 19.8019 5.66241 20.25 5.57702V3.91872C19.6437 3.99807 19.025 3.92521 18.4506 3.70386L18.3715 3.67335ZM16.75 6.79001L17.0274 6.73656C17.4778 6.64977 17.9435 6.69121 18.3715 6.85614C19.1193 7.14434 19.9371 7.19818 20.7163 7.01051L20.7829 6.99447C21.3502 6.85783 21.75 6.35028 21.75 5.76675V3.54525C21.75 2.77593 21.0305 2.20914 20.2825 2.38929C19.8531 2.49274 19.4023 2.46306 18.99 2.3042L18.9109 2.27369C18.2207 2.00773 17.4698 1.94092 16.7436 2.08085L16.2575 2.17451C15.6726 2.28721 15.25 2.79907 15.25 3.39471V6.89385H7C6.95339 6.89385 6.90777 6.8981 6.86352 6.90623C6.74341 6.89802 6.62219 6.89385 6.5 6.89385C3.6005 6.89385 1.25 9.24435 1.25 12.1438V17.4113C1.25 19.0585 2.58534 20.3938 4.23256 20.3938H9.75V22.6438C9.75 23.0581 10.0858 23.3938 10.5 23.3938C10.9142 23.3938 11.25 23.0581 11.25 22.6438V20.3938H13.75V22.6438C13.75 23.0581 14.0858 23.3938 14.5 23.3938C14.9142 23.3938 15.25 23.0581 15.25 22.6438V20.3938H19.7931C21.4261 20.3938 22.75 19.07 22.75 17.4369V12.1438C22.75 9.24435 20.3995 6.89385 17.5 6.89385H16.75V6.79001ZM15.25 8.39385V11.6438C15.25 12.0581 15.5858 12.3938 16 12.3938C16.4142 12.3938 16.75 12.0581 16.75 11.6438V8.39385H17.5C19.5711 8.39385 21.25 10.0728 21.25 12.1438V17.4369C21.25 18.2416 20.5977 18.8938 19.7931 18.8938H11.75V12.1438C11.75 10.6748 11.1466 9.34673 10.1742 8.39385H15.25ZM10.25 18.8938V12.1438C10.25 10.0728 8.57107 8.39385 6.5 8.39385C4.42893 8.39385 2.75 10.0728 2.75 12.1438V17.4113C2.75 18.2301 3.41376 18.8938 4.23256 18.8938H10.25ZM4.25 16.6438C4.25 16.2296 4.58579 15.8938 5 15.8938H8C8.41421 15.8938 8.75 16.2296 8.75 16.6438C8.75 17.0581 8.41421 17.3938 8 17.3938H5C4.58579 17.3938 4.25 17.0581 4.25 16.6438Z" fill="#050505"/>
</g>
</svg>
