<svg width="24" height="25" viewBox="0 0 24 25" fill="none" xmlns="http://www.w3.org/2000/svg">
<g id="Outline / Security / QR Code">
<g id="Vector">
<path d="M5.12911 5.93873C5 6.12069 5 6.37839 5 6.8938C5 7.40921 5 7.66691 5.12911 7.84887C5.17467 7.91308 5.23073 7.96914 5.29493 8.01469C5.47689 8.1438 5.73459 8.1438 6.25 8.1438C6.76541 8.1438 7.02311 8.1438 7.20507 8.01469C7.26928 7.96914 7.32534 7.91308 7.37089 7.84887C7.5 7.66691 7.5 7.40921 7.5 6.8938C7.5 6.37839 7.5 6.12069 7.37089 5.93873C7.32534 5.87452 7.26928 5.81846 7.20507 5.77291C7.02311 5.6438 6.76541 5.6438 6.25 5.6438C5.73459 5.6438 5.47689 5.6438 5.29493 5.77291C5.23073 5.81846 5.17467 5.87452 5.12911 5.93873Z" fill="#050505"/>
<path fill-rule="evenodd" clip-rule="evenodd" d="M8.70415 1.93401C9.14651 1.97607 9.55876 2.06733 9.93687 2.29904C10.3069 2.52579 10.618 2.8369 10.8448 3.20693C11.0765 3.58505 11.1677 3.99729 11.2098 4.43965C11.25 4.86279 11.25 5.38375 11.25 6.00801L11.25 7.19579C11.25 8.09426 11.2501 8.8435 11.1701 9.43828C11.0857 10.0661 10.9 10.6329 10.4445 11.0883C9.98908 11.5438 9.42228 11.7295 8.79448 11.8139C8.19971 11.8939 7.4505 11.8938 6.55203 11.8938L5.3643 11.8938C4.74004 11.8938 4.21899 11.8938 3.79585 11.8536C3.35349 11.8115 2.94125 11.7203 2.56313 11.4886C2.1931 11.2618 1.88199 10.9507 1.65524 10.5807C1.42353 10.2026 1.33227 9.79031 1.29021 9.34795C1.24997 8.9248 1.24999 8.4038 1.25 7.77951V7.70615C1.24999 6.75609 1.24998 5.98986 1.30863 5.37307C1.36911 4.73698 1.49721 4.18278 1.8026 3.68443C2.11181 3.17985 2.53605 2.75561 3.04063 2.4464C3.53898 2.14101 4.09318 2.01291 4.72927 1.95243C5.34607 1.89378 6.11227 1.89379 7.06233 1.8938H7.13569C7.75999 1.89379 8.281 1.89377 8.70415 1.93401ZM8.56217 3.42727C8.21845 3.39459 7.76921 3.3938 7.1 3.3938C6.10345 3.3938 5.4087 3.39459 4.87125 3.44569C4.34496 3.49573 4.04744 3.58867 3.82438 3.72536C3.52163 3.91089 3.26709 4.16543 3.08156 4.46818C2.94487 4.69123 2.85193 4.98876 2.80189 5.51505C2.75079 6.0525 2.75 6.74725 2.75 7.7438C2.75 8.41301 2.75079 8.86225 2.78347 9.20597C2.81509 9.53853 2.87119 9.6941 2.9342 9.79692C3.03727 9.96512 3.17868 10.1065 3.34688 10.2096C3.4497 10.2726 3.60527 10.3287 3.93783 10.3603C4.28155 10.393 4.73079 10.3938 5.4 10.3938H6.5C7.46401 10.3938 8.11157 10.3922 8.59461 10.3273C9.05607 10.2652 9.25357 10.158 9.38389 10.0277C9.5142 9.89737 9.62142 9.69987 9.68347 9.23841C9.74841 8.75537 9.75 8.10781 9.75 7.1438V6.0438C9.75 5.37459 9.74921 4.92535 9.71653 4.58163C9.68491 4.24907 9.62881 4.0935 9.5658 3.99068C9.46273 3.82248 9.32132 3.68107 9.15312 3.578C9.0503 3.51499 8.89473 3.45889 8.56217 3.42727Z" fill="#050505"/>
<path d="M16.6291 5.93873C16.5 6.12069 16.5 6.37839 16.5 6.8938C16.5 7.40921 16.5 7.66691 16.6291 7.84887C16.6747 7.91308 16.7307 7.96914 16.7949 8.01469C16.9769 8.1438 17.2346 8.1438 17.75 8.1438C18.2654 8.1438 18.5231 8.1438 18.7051 8.01469C18.7693 7.96914 18.8253 7.91308 18.8709 7.84887C19 7.66691 19 7.40921 19 6.8938C19 6.37839 19 6.12069 18.8709 5.93873C18.8253 5.87452 18.7693 5.81846 18.7051 5.77291C18.5231 5.6438 18.2654 5.6438 17.75 5.6438C17.2346 5.6438 16.9769 5.6438 16.7949 5.77291C16.7307 5.81846 16.6747 5.87452 16.6291 5.93873Z" fill="#050505"/>
<path fill-rule="evenodd" clip-rule="evenodd" d="M16.8643 1.8938H16.9377C17.8877 1.89379 18.6539 1.89378 19.2707 1.95243C19.9068 2.01291 20.461 2.14101 20.9594 2.4464C21.464 2.75561 21.8882 3.17985 22.1974 3.68443C22.5028 4.18278 22.6309 4.73698 22.6914 5.37307C22.75 5.98987 22.75 6.75607 22.75 7.70614V7.7795C22.75 8.4038 22.75 8.92479 22.7098 9.34795C22.6677 9.79031 22.5765 10.2026 22.3448 10.5807C22.118 10.9507 21.8069 11.2618 21.4369 11.4886C21.0588 11.7203 20.6465 11.8115 20.2042 11.8536C19.781 11.8938 19.2601 11.8938 18.6359 11.8938L17.448 11.8938C16.5495 11.8938 15.8003 11.8939 15.2055 11.8139C14.5777 11.7295 14.0109 11.5438 13.5555 11.0883C13.1 10.6329 12.9143 10.0661 12.8299 9.43828C12.7499 8.8435 12.75 8.09428 12.75 7.1958V6.00811C12.75 5.38381 12.75 4.86281 12.7902 4.43965C12.8323 3.99729 12.9235 3.58505 13.1552 3.20693C13.382 2.8369 13.6931 2.52579 14.0631 2.29904C14.4412 2.06733 14.8535 1.97607 15.2959 1.93401C15.719 1.89377 16.24 1.89379 16.8643 1.8938ZM15.4378 3.42727C15.1053 3.45889 14.9497 3.51499 14.8469 3.578C14.6787 3.68107 14.5373 3.82248 14.4342 3.99068C14.3712 4.0935 14.3151 4.24907 14.2835 4.58163C14.2508 4.92535 14.25 5.37459 14.25 6.0438V7.1438C14.25 8.10781 14.2516 8.75537 14.3165 9.23841C14.3786 9.69987 14.4858 9.89737 14.6161 10.0277C14.7464 10.158 14.9439 10.2652 15.4054 10.3273C15.8884 10.3922 16.536 10.3938 17.5 10.3938H18.6C19.2692 10.3938 19.7184 10.393 20.0622 10.3603C20.3947 10.3287 20.5503 10.2726 20.6531 10.2096C20.8213 10.1065 20.9627 9.96512 21.0658 9.79692C21.1288 9.6941 21.1849 9.53853 21.2165 9.20597C21.2492 8.86225 21.25 8.41301 21.25 7.7438C21.25 6.74725 21.2492 6.0525 21.1981 5.51505C21.1481 4.98876 21.0551 4.69123 20.9184 4.46818C20.7329 4.16543 20.4784 3.91089 20.1756 3.72536C19.9526 3.58867 19.655 3.49573 19.1288 3.44569C18.5913 3.39459 17.8966 3.3938 16.9 3.3938C16.2308 3.3938 15.7816 3.39459 15.4378 3.42727Z" fill="#050505"/>
<path d="M5 18.3938C5 17.8784 5 17.6207 5.12911 17.4387C5.17467 17.3745 5.23073 17.3185 5.29493 17.2729C5.47689 17.1438 5.73459 17.1438 6.25 17.1438C6.76541 17.1438 7.02311 17.1438 7.20507 17.2729C7.26928 17.3185 7.32534 17.3745 7.37089 17.4387C7.5 17.6207 7.5 17.8784 7.5 18.3938C7.5 18.9092 7.5 19.1669 7.37089 19.3489C7.32534 19.4131 7.26928 19.4691 7.20507 19.5147C7.02311 19.6438 6.76541 19.6438 6.25 19.6438C5.73459 19.6438 5.47689 19.6438 5.29493 19.5147C5.23073 19.4691 5.17467 19.4131 5.12911 19.3489C5 19.1669 5 18.9092 5 18.3938Z" fill="#050505"/>
<path fill-rule="evenodd" clip-rule="evenodd" d="M8.79448 13.4737C9.42228 13.5581 9.98908 13.7438 10.4445 14.1993C10.9 14.6547 11.0857 15.2215 11.1701 15.8493C11.2501 16.4441 11.25 17.1933 11.25 18.0918L11.25 19.2795C11.25 19.9037 11.25 20.4248 11.2098 20.848C11.1677 21.2903 11.0765 21.7026 10.8448 22.0807C10.618 22.4507 10.3069 22.7618 9.93687 22.9886C9.55876 23.2203 9.14651 23.3115 8.70415 23.3536C8.281 23.3938 7.76 23.3938 7.1357 23.3938H7.06234C6.11227 23.3938 5.34607 23.3938 4.72927 23.3352C4.09318 23.2747 3.53898 23.1466 3.04063 22.8412C2.53605 22.532 2.11181 22.1078 1.8026 21.6032C1.49721 21.1048 1.36911 20.5506 1.30863 19.9145C1.24998 19.2977 1.24999 18.5315 1.25 17.5815V17.5081C1.24999 16.8838 1.24997 16.3628 1.29021 15.9396C1.33227 15.4973 1.42353 15.085 1.65524 14.7069C1.88199 14.3369 2.1931 14.0258 2.56313 13.799C2.94125 13.5673 3.35349 13.4761 3.79585 13.434C4.21901 13.3938 4.74001 13.3938 5.36431 13.3938H6.552C7.45048 13.3938 8.1997 13.3937 8.79448 13.4737ZM8.59461 14.9603C8.11157 14.8954 7.46401 14.8938 6.5 14.8938H5.4C4.73079 14.8938 4.28155 14.8946 3.93783 14.9273C3.60527 14.9589 3.4497 15.015 3.34688 15.078C3.17868 15.1811 3.03727 15.3225 2.9342 15.4907C2.87119 15.5935 2.81509 15.7491 2.78347 16.0816C2.75079 16.4254 2.75 16.8746 2.75 17.5438C2.75 18.5404 2.75079 19.2351 2.80189 19.7726C2.85193 20.2988 2.94487 20.5964 3.08156 20.8194C3.26709 21.1222 3.52163 21.3767 3.82438 21.5622C4.04744 21.6989 4.34496 21.7919 4.87125 21.8419C5.4087 21.893 6.10345 21.8938 7.1 21.8938C7.76921 21.8938 8.21845 21.893 8.56217 21.8603C8.89473 21.8287 9.0503 21.7726 9.15312 21.7096C9.32132 21.6065 9.46273 21.4651 9.5658 21.2969C9.62881 21.1941 9.68491 21.0385 9.71653 20.706C9.74921 20.3622 9.75 19.913 9.75 19.2438V18.1438C9.75 17.1798 9.74841 16.5322 9.68347 16.0492C9.62142 15.5877 9.5142 15.3902 9.38389 15.2599C9.25357 15.1296 9.05607 15.0224 8.59461 14.9603Z" fill="#050505"/>
<path d="M16.9617 13.3938L19 13.3938V14.8938H17C16.2822 14.8938 15.8002 14.8947 15.4328 14.9321C15.078 14.9682 14.914 15.032 14.8055 15.1045C14.6691 15.1957 14.5519 15.3128 14.4607 15.4493C14.3882 15.5578 14.3244 15.7218 14.2883 16.0766C14.2509 16.444 14.25 16.926 14.25 17.6438H12.75L12.75 17.6055C12.75 16.9359 12.75 16.3771 12.796 15.9248C12.8442 15.4513 12.9489 15.012 13.2135 14.616C13.4141 14.3157 13.6719 14.0579 13.9722 13.8573C14.3682 13.5927 14.8075 13.4879 15.281 13.4398C15.7333 13.3938 16.2921 13.3938 16.9617 13.3938Z" fill="#050505"/>
<path d="M12.75 22.6438V19.6438H14.25V22.6438C14.25 23.058 13.9142 23.3938 13.5 23.3938C13.0858 23.3938 12.75 23.058 12.75 22.6438Z" fill="#050505"/>
<path d="M22.75 14.1438C22.75 13.7296 22.4142 13.3938 22 13.3938C21.5858 13.3938 21.25 13.7296 21.25 14.1438V17.6438H22.75V14.1438Z" fill="#050505"/>
<path d="M21.25 19.6438C21.25 20.12 21.2496 20.4396 21.2327 20.6871C21.2163 20.9278 21.1868 21.045 21.1549 21.1222C21.028 21.4284 20.7846 21.6718 20.4784 21.7986C20.4012 21.8306 20.284 21.8601 20.0433 21.8765C19.7958 21.8934 19.4762 21.8938 19 21.8938H17V23.3938H19.0253C19.4697 23.3938 19.8408 23.3938 20.1454 23.373C20.4625 23.3514 20.762 23.3048 21.0524 23.1845C21.7262 22.9054 22.2616 22.37 22.5407 21.6962C22.661 21.4058 22.7076 21.1063 22.7292 20.7892C22.75 20.4846 22.75 20.1136 22.75 19.6691V19.6438H21.25Z" fill="#050505"/>
<path d="M16.1685 17.0882C16 17.3405 16 17.6916 16 18.3938C16 19.096 16 19.4471 16.1685 19.6994C16.2415 19.8086 16.3352 19.9023 16.4444 19.9753C16.6967 20.1438 17.0478 20.1438 17.75 20.1438C18.4522 20.1438 18.8033 20.1438 19.0556 19.9753C19.1648 19.9023 19.2585 19.8086 19.3315 19.6994C19.5 19.4471 19.5 19.096 19.5 18.3938C19.5 17.6916 19.5 17.3405 19.3315 17.0882C19.2585 16.979 19.1648 16.8853 19.0556 16.8123C18.8033 16.6438 18.4522 16.6438 17.75 16.6438C17.0478 16.6438 16.6967 16.6438 16.4444 16.8123C16.3352 16.8853 16.2415 16.979 16.1685 17.0882Z" fill="#050505"/>
</g>
</g>
</svg>
