<svg xmlns="http://www.w3.org/2000/svg" width="24" height="25" viewBox="0 0 24 25" fill="none">
  <path fill-rule="evenodd" clip-rule="evenodd" d="M16.5249 2.6438H16.5932C17.477 2.64379 18.1897 2.64378 18.7635 2.69834C19.3552 2.7546 19.8707 2.87376 20.3343 3.15785C20.8037 3.44548 21.1983 3.84012 21.486 4.3095C21.77 4.77309 21.8892 5.28862 21.9455 5.88033C22 6.45409 22 7.16684 22 8.05063V8.11897C22 8.69967 22 9.18428 21.9626 9.57789C21.9235 9.98939 21.8386 10.3729 21.623 10.7246C21.4121 11.0688 21.1227 11.3582 20.7785 11.5692C20.4267 11.7847 20.0433 11.8696 19.6318 11.9087C19.2382 11.9461 18.7535 11.9461 18.1728 11.9461L17.0679 11.9461C16.2321 11.9462 15.5352 11.9462 14.9819 11.8718C14.3979 11.7933 13.8706 11.6206 13.4469 11.1969C13.0232 10.7732 12.8505 10.2459 12.772 9.66192C12.6976 9.10864 12.6976 8.41169 12.6977 7.57589L12.6977 6.47105C12.6977 5.89034 12.6976 5.40565 12.7351 5.01203C12.7742 4.60053 12.8591 4.21705 13.0746 3.86532C13.2856 3.5211 13.575 3.2317 13.9192 3.02077C14.2709 2.80522 14.6544 2.72033 15.0659 2.6812C15.4595 2.64378 15.9442 2.64379 16.5249 2.6438ZM17.3488 8.45775C16.8694 8.45775 16.6297 8.45775 16.4604 8.33765C16.4007 8.29527 16.3485 8.24313 16.3061 8.1834C16.186 8.01414 16.186 7.77441 16.186 7.29497C16.186 6.81553 16.186 6.57579 16.3061 6.40652C16.3485 6.3468 16.4007 6.29465 16.4604 6.25227C16.6297 6.13217 16.8694 6.13217 17.3488 6.13217C17.8283 6.13217 18.068 6.13217 18.2373 6.25227C18.297 6.29465 18.3491 6.3468 18.3915 6.40652C18.5116 6.57579 18.5116 6.81551 18.5116 7.29496C18.5116 7.77441 18.5116 8.01413 18.3915 8.1834C18.3491 8.24313 18.297 8.29527 18.2373 8.33765C18.068 8.45775 17.8283 8.45775 17.3488 8.45775Z" fill="#072948"/>
  <path fill-rule="evenodd" clip-rule="evenodd" d="M10.0808 3.02077C9.72907 2.80522 9.34559 2.72033 8.9341 2.6812C8.54047 2.64378 8.05583 2.64379 7.4751 2.6438H7.40684C6.52307 2.64379 5.81029 2.64378 5.23653 2.69834C4.64482 2.7546 4.12929 2.87376 3.6657 3.15785C3.19632 3.44548 2.80168 3.84012 2.51405 4.3095C2.22996 4.77309 2.1108 5.28862 2.05454 5.88033C1.99999 6.45409 1.99999 7.16682 2 8.05059V8.11886C1.99999 8.69959 1.99998 9.18427 2.0374 9.57789C2.07653 9.98939 2.16142 10.3729 2.37697 10.7246C2.5879 11.0688 2.87731 11.3582 3.22152 11.5692C3.57325 11.7847 3.95674 11.8696 4.36823 11.9087C4.76183 11.9461 5.24643 11.9461 5.82711 11.9461L6.93209 11.9461C7.76787 11.9462 8.46484 11.9462 9.01812 11.8718C9.60212 11.7933 10.1294 11.6206 10.5531 11.1969C10.9768 10.7732 11.1495 10.2459 11.228 9.66192C11.3024 9.10864 11.3024 8.4117 11.3023 7.57592L11.3023 6.47106C11.3023 5.89038 11.3024 5.40563 11.2649 5.01203C11.2258 4.60053 11.1409 4.21705 10.9254 3.86532C10.7144 3.5211 10.425 3.2317 10.0808 3.02077ZM5.76273 8.33765C5.93199 8.45775 6.17171 8.45775 6.65116 8.45775C7.13061 8.45775 7.37034 8.45775 7.5396 8.33765C7.59933 8.29527 7.65148 8.24313 7.69385 8.1834C7.81395 8.01413 7.81395 7.77441 7.81395 7.29496C7.81395 6.81551 7.81395 6.57579 7.69385 6.40652C7.65148 6.3468 7.59933 6.29465 7.5396 6.25227C7.37034 6.13217 7.13061 6.13217 6.65116 6.13217C6.17171 6.13217 5.93199 6.13217 5.76273 6.25227C5.703 6.29465 5.65085 6.3468 5.60847 6.40652C5.48837 6.57579 5.48837 6.81551 5.48837 7.29496C5.48837 7.77441 5.48837 8.01413 5.60847 8.1834C5.65085 8.24313 5.703 8.29527 5.76273 8.33765Z" fill="#072948"/>
  <path fill-rule="evenodd" clip-rule="evenodd" d="M9.01812 13.4158C9.60212 13.4943 10.1294 13.667 10.5531 14.0907C10.9768 14.5144 11.1495 15.0417 11.228 15.6257C11.3024 16.179 11.3024 16.8759 11.3023 17.7117L11.3023 18.8166C11.3023 19.3973 11.3024 19.882 11.2649 20.2756C11.2258 20.6871 11.1409 21.0705 10.9254 21.4223C10.7144 21.7665 10.425 22.0559 10.0808 22.2668C9.72907 22.4824 9.34559 22.5673 8.9341 22.6064C8.54048 22.6438 8.05577 22.6438 7.47507 22.6438H7.40683C6.52304 22.6438 5.8103 22.6438 5.23653 22.5893C4.64482 22.533 4.12929 22.4138 3.6657 22.1298C3.19632 21.8421 2.80168 21.4475 2.51405 20.9781C2.22996 20.5145 2.1108 19.999 2.05454 19.4073C1.99999 18.8335 1.99999 18.1207 2 17.237V17.1687C1.99999 16.588 1.99998 16.1033 2.0374 15.7097C2.07653 15.2982 2.16142 14.9147 2.37697 14.563C2.5879 14.2188 2.87731 13.9294 3.22152 13.7184C3.57325 13.5029 3.95674 13.418 4.36823 13.3789C4.76184 13.3414 5.24648 13.3415 5.82717 13.3415L6.93209 13.3415C7.76789 13.3414 8.46484 13.3414 9.01812 13.4158ZM6.65116 19.1554C6.17171 19.1554 5.93199 19.1554 5.76273 19.0353C5.703 18.9929 5.65085 18.9408 5.60847 18.8811C5.48837 18.7118 5.48837 18.4721 5.48837 17.9926C5.48837 17.5132 5.48837 17.2735 5.60847 17.1042C5.65085 17.0445 5.703 16.9923 5.76273 16.9499C5.93199 16.8298 6.17171 16.8298 6.65115 16.8298C7.13059 16.8298 7.37034 16.8298 7.5396 16.9499C7.59933 16.9923 7.65148 17.0445 7.69385 17.1042C7.81395 17.2735 7.81395 17.5132 7.81395 17.9926C7.81395 18.4721 7.81395 18.7118 7.69385 18.8811C7.65148 18.9408 7.59933 18.9929 7.5396 19.0353C7.37034 19.1554 7.13061 19.1554 6.65116 19.1554Z" fill="#072948"/>
  <path d="M12.6977 17.2593V17.295H14.093C14.093 16.6272 14.0939 16.1789 14.1286 15.8371C14.1622 15.507 14.2216 15.3545 14.289 15.2536C14.3738 15.1266 14.4828 15.0176 14.6098 14.9328C14.7107 14.8654 14.8632 14.806 15.1933 14.7724C15.5351 14.7377 15.9834 14.7368 16.6512 14.7368H18.5116V13.3415H16.6155C15.9926 13.3415 15.4729 13.3414 15.0521 13.3842C14.6117 13.4291 14.203 13.5265 13.8346 13.7726C13.5553 13.9592 13.3154 14.1991 13.1288 14.4784C12.8827 14.8468 12.7853 15.2555 12.7404 15.6959C12.6976 16.1167 12.6977 16.6364 12.6977 17.2593Z" fill="#072948"/>
  <path d="M22 19.1789V19.1554H20.6046C20.6046 19.5984 20.6043 19.8957 20.5886 20.1259C20.5733 20.3498 20.5459 20.4589 20.5161 20.5306C20.3981 20.8156 20.1718 21.0419 19.8868 21.1599C19.8151 21.1897 19.706 21.2171 19.4821 21.2324C19.2519 21.2481 18.9546 21.2484 18.5116 21.2484H16.6512V22.6438H18.5351C18.9486 22.6438 19.2937 22.6438 19.5771 22.6245C19.8721 22.6044 20.1507 22.561 20.4208 22.4491C21.0476 22.1894 21.5456 21.6914 21.8053 21.0646C21.9172 20.7945 21.9606 20.5159 21.9807 20.2209C22 19.9375 22 19.5924 22 19.1789Z" fill="#072948"/>
  <path d="M14.093 21.9461C14.093 22.3314 13.7807 22.6438 13.3953 22.6438C13.01 22.6438 12.6977 22.3314 12.6977 21.9461V19.1554H14.093V21.9461Z" fill="#072948"/>
  <path d="M21.3023 13.3415C20.917 13.3415 20.6046 13.6538 20.6046 14.0391V17.295H22V14.0391C22 13.6538 21.6876 13.3415 21.3023 13.3415Z" fill="#072948"/>
  <path d="M16.0761 17.2611C16 17.4449 16 17.6779 16 18.1438C16 18.6097 16 18.8427 16.0761 19.0265C16.1776 19.2715 16.3723 19.4662 16.6173 19.5677C16.8011 19.6438 17.0341 19.6438 17.5 19.6438C17.9659 19.6438 18.1989 19.6438 18.3827 19.5677C18.6277 19.4662 18.8224 19.2715 18.9239 19.0265C19 18.8427 19 18.6097 19 18.1438C19 17.6779 19 17.4449 18.9239 17.2611C18.8224 17.0161 18.6277 16.8214 18.3827 16.7199C18.1989 16.6438 17.9659 16.6438 17.5 16.6438C17.0341 16.6438 16.8011 16.6438 16.6173 16.7199C16.3723 16.8214 16.1776 17.0161 16.0761 17.2611Z" fill="#072948"/>
</svg>