<svg width="20" height="21" viewBox="0 0 20 21" fill="none" xmlns="http://www.w3.org/2000/svg">
<g id="vuesax/bold/tick-circle">
<g id="tick-circle">
<path id="Vector" d="M10 2.40649C5.40835 2.40649 1.66669 6.14816 1.66669 10.7398C1.66669 15.3315 5.40835 19.0732 10 19.0732C14.5917 19.0732 18.3334 15.3315 18.3334 10.7398C18.3334 6.14816 14.5917 2.40649 10 2.40649ZM13.9834 8.82316L9.25835 13.5482C9.14169 13.6648 8.98335 13.7315 8.81669 13.7315C8.65002 13.7315 8.49169 13.6648 8.37502 13.5482L6.01669 11.1898C5.77502 10.9482 5.77502 10.5482 6.01669 10.3065C6.25835 10.0648 6.65835 10.0648 6.90002 10.3065L8.81669 12.2232L13.1 7.93983C13.3417 7.69816 13.7417 7.69816 13.9834 7.93983C14.225 8.18149 14.225 8.57316 13.9834 8.82316Z" fill="#03395A"/>
</g>
</g>
</svg>
