<svg width="24" height="25" viewBox="0 0 24 25" fill="none" xmlns="http://www.w3.org/2000/svg">
<g id="Outline / Users / User">
<g id="Vector">
<path fill-rule="evenodd" clip-rule="evenodd" d="M12 1.8938C9.37666 1.8938 7.25001 4.02045 7.25001 6.6438C7.25001 9.26715 9.37666 11.3938 12 11.3938C14.6234 11.3938 16.75 9.26715 16.75 6.6438C16.75 4.02045 14.6234 1.8938 12 1.8938ZM8.75001 6.6438C8.75001 4.84887 10.2051 3.3938 12 3.3938C13.7949 3.3938 15.25 4.84887 15.25 6.6438C15.25 8.43872 13.7949 9.8938 12 9.8938C10.2051 9.8938 8.75001 8.43872 8.75001 6.6438Z" fill="#050505"/>
<path fill-rule="evenodd" clip-rule="evenodd" d="M12 12.8938C9.68646 12.8938 7.55494 13.4197 5.97546 14.3081C4.4195 15.1834 3.25001 16.5099 3.25001 18.1438L3.24995 18.2458C3.24882 19.4076 3.2474 20.8658 4.52642 21.9073C5.15589 22.4199 6.03649 22.7844 7.22622 23.0253C8.41927 23.2667 9.97424 23.3938 12 23.3938C14.0258 23.3938 15.5808 23.2667 16.7738 23.0253C17.9635 22.7844 18.8441 22.4199 19.4736 21.9073C20.7526 20.8658 20.7512 19.4076 20.7501 18.2458L20.75 18.1438C20.75 16.5099 19.5805 15.1834 18.0246 14.3081C16.4451 13.4197 14.3136 12.8938 12 12.8938ZM4.75001 18.1438C4.75001 17.2925 5.37139 16.3689 6.71085 15.6155C8.02681 14.8753 9.89529 14.3938 12 14.3938C14.1047 14.3938 15.9732 14.8753 17.2892 15.6155C18.6286 16.3689 19.25 17.2925 19.25 18.1438C19.25 19.4516 19.2097 20.1878 18.5264 20.7442C18.1559 21.046 17.5365 21.3405 16.4762 21.5551C15.4193 21.769 13.9742 21.8938 12 21.8938C10.0258 21.8938 8.58075 21.769 7.5238 21.5551C6.46354 21.3405 5.84413 21.046 5.4736 20.7442C4.79033 20.1878 4.75001 19.4516 4.75001 18.1438Z" fill="#050505"/>
</g>
</g>
</svg>
