<svg width="40" height="41" viewBox="0 0 40 41" fill="none" xmlns="http://www.w3.org/2000/svg">
<g id="Bold Duotone / Hands / Hand Heart">
<path id="Vector" d="M11.6667 8.7886C11.6667 11.3682 14.5432 14.0857 16.9163 15.8885C18.2481 16.9004 18.914 17.4063 20 17.4063C21.086 17.4063 21.7519 16.9004 23.0838 15.8886C25.4568 14.0857 28.3334 11.3683 28.3334 8.78857C28.3334 4.1383 23.7499 2.4021 20 5.99441C16.2502 2.4021 11.6667 4.1383 11.6667 8.7886Z" fill="#072948"/>
<path id="Vector_2" opacity="0.5" d="M10.4332 36.3871H10C8.42867 36.3871 7.643 36.3871 7.15484 35.8989C6.66669 35.4107 6.66669 34.6251 6.66669 33.0537V31.2005C6.66669 30.3363 6.66669 29.9042 6.88865 29.5183C7.11062 29.1325 7.44547 28.9377 8.11519 28.5482C12.5243 25.9838 18.7859 24.5403 22.9651 27.0329C23.2459 27.2004 23.4985 27.4025 23.7143 27.645C24.6444 28.6897 24.5766 30.2666 23.5046 31.2022C23.2782 31.3998 23.0369 31.5497 22.7939 31.6017C22.9936 31.5786 23.185 31.5521 23.3676 31.5229C24.8866 31.2807 26.1617 30.4689 27.3291 29.5871L30.3411 27.3118C31.4029 26.5097 32.9789 26.5096 34.0409 27.3115C34.997 28.0334 35.2894 29.2221 34.6849 30.191C33.98 31.3209 32.9869 32.7664 32.0332 33.6496C31.0783 34.5341 29.6565 35.3237 28.4958 35.884C27.2101 36.5045 25.7897 36.8621 24.3449 37.096C21.4148 37.5703 18.361 37.4979 15.4606 36.9004C13.8209 36.5626 12.118 36.3871 10.4332 36.3871Z" fill="#072948"/>
</g>
</svg>
