<svg width="48" height="48" viewBox="0 0 48 48" fill="none" xmlns="http://www.w3.org/2000/svg">
<g id="Frame" clip-path="url(#clip0_220_9235)">
<g id="Group">
<g id="Group_2">
<path id="Vector" d="M28.151 0.442871C28.1497 0.461591 28.151 0.479665 28.1542 0.49774C27.7004 0.675902 27.246 0.675902 26.7922 0.49774C26.7954 0.479665 26.7967 0.461591 26.7954 0.442871C27.2479 0.442871 27.6991 0.442871 28.151 0.442871Z" fill="#B9BBBF"/>
<g id="Group_3">
<path id="Vector_2" d="M26.7959 0.442871C26.8172 0.477729 26.8121 0.508714 26.7804 0.53518C26.2266 0.671384 25.654 0.675257 25.095 0.781121C23.6135 1.06063 22.2438 1.59124 21.0489 2.52659C20.2381 3.16114 19.6623 3.96416 19.3919 4.96342C19.3099 5.26487 19.1556 5.46627 18.8935 5.63604C18.3042 6.01883 17.8394 6.52169 17.6186 7.20723C17.3837 7.93601 17.6716 8.56668 18.0563 9.14958C18.3842 9.64598 18.8148 10.0694 19.3318 10.3644C20.0296 10.7627 20.2304 11.3676 20.2459 12.1183C20.2588 12.7348 20.1194 13.3106 19.9419 13.8877C19.7043 14.6603 19.7166 15.4395 19.9444 16.2083C20.2937 17.3876 20.7881 18.5083 21.3814 19.585C21.475 19.7548 21.5692 19.9239 21.6518 20.0988C21.821 20.4564 21.7842 20.5868 21.4304 20.7734C20.6584 21.1794 19.8844 21.5945 19.2098 22.1432C18.1848 22.9772 16.9796 23.3219 15.7312 23.5827C15.1715 23.6995 15.0514 23.6182 14.9197 23.063C14.7306 22.2658 14.4285 21.5047 14.1755 20.7282C13.7339 19.372 13.6461 17.9931 13.8398 16.5885C13.9831 15.5499 13.9889 14.5274 13.4525 13.5765C12.9006 12.5986 12.0549 12.0893 10.9395 12.0195C9.15142 11.9072 7.64285 13.1427 7.0877 14.9844C6.80755 15.9133 6.8153 16.8486 7.0096 17.7905C7.02057 17.8434 7.03542 17.895 7.0451 17.948C7.13483 18.4502 7.0167 18.589 6.50545 18.6019C5.39645 18.6303 4.35588 18.8756 3.45216 19.5624C2.59879 20.2105 2.16565 21.0955 1.97974 22.1251C1.90873 22.5189 1.90034 22.9158 1.91132 23.3141C1.91842 23.5614 1.85193 23.775 1.6912 23.9687C0.959826 24.844 0.780373 25.8671 1.02567 26.9413C1.17866 27.6107 1.18705 28.2465 1.05859 28.9133C0.887528 29.7996 1.03277 30.6478 1.52013 31.4212C1.65634 31.6374 1.72799 31.8666 1.71572 32.1228C1.6118 34.3544 2.83634 35.79 4.60763 36.8667C5.81668 37.6013 7.17743 37.8886 8.56658 38.0403C10.9563 38.3011 13.2246 37.7717 15.4465 36.9603C16.0933 36.7241 16.7265 36.4562 17.3643 36.1973C17.7897 36.025 18.0453 36.1689 18.0305 36.6156C17.9853 37.9828 18.1873 39.3397 18.1738 40.705C18.1648 41.579 18.0737 42.4433 17.8788 43.2935C17.8181 43.5588 17.8904 43.7118 18.1105 43.8564C19.8573 45.0015 21.6989 45.9414 23.7317 46.4649C24.607 46.6902 25.4985 46.8335 26.4028 46.8845C26.51 46.8903 26.6191 46.8825 26.7153 46.9439C26.7469 46.9703 26.7514 47.0013 26.7307 47.0368" fill="#FEFEFE"/>
<path id="Vector_3" d="M27.9573 47.0371C27.936 47.0035 27.9399 46.9738 27.9689 46.9474C28.4808 46.8202 29.0101 46.8208 29.5285 46.7337C31.0893 46.4716 32.576 45.9881 33.9819 45.2613C34.1962 45.1502 34.4196 45.1025 34.659 45.0767C36.0482 44.9256 37.1391 44.2652 37.8886 43.0878C38.1126 42.736 38.3378 42.5275 38.7807 42.4655C40.3499 42.2467 41.8895 41.8891 43.3535 41.2623C44.6058 40.7265 45.7238 40.0023 46.5804 38.9165C47.1478 38.1974 47.4725 37.3789 47.6152 36.4803C47.6468 36.2796 47.6546 36.073 47.743 35.8845C47.7701 35.8555 47.7998 35.8516 47.8334 35.8729" fill="#FEFEFE"/>
<path id="Vector_4" d="M27.9598 46.9821C27.9573 47.0002 27.9566 47.0189 27.9579 47.037C27.5493 47.037 27.1407 47.037 26.7321 47.037C26.7308 47.0189 26.7301 47.0015 26.7295 46.9834C27.1387 46.8046 27.5493 46.8072 27.9598 46.9821Z" fill="#D0D1D3"/>
<path id="Vector_5" d="M47.8333 35.8722L47.8056 35.876L47.7778 35.8754C47.6061 35.5507 47.6055 35.2253 47.7785 34.9007C47.7972 34.8968 47.8152 34.8981 47.8333 34.9039C47.8333 35.2273 47.8333 35.55 47.8333 35.8722Z" fill="#BDBEC2"/>
<path id="Vector_6" d="M47.7791 34.9012C47.7791 35.2259 47.7785 35.5506 47.7785 35.8759C47.6487 37.7995 46.7385 39.2662 45.1738 40.3603C43.8195 41.3073 42.2909 41.8211 40.7036 42.1916C39.9729 42.3627 39.2409 42.5292 38.4901 42.5912C38.2958 42.6073 38.1842 42.7268 38.0964 42.8849C37.3076 44.3031 36.0946 45.0519 34.4834 45.1687C34.3382 45.1791 34.2155 45.2417 34.0916 45.3056C32.1654 46.2945 30.1256 46.8677 27.9605 46.982C27.5499 46.9826 27.14 46.9833 26.7295 46.9833C23.8363 46.889 21.2368 45.8937 18.8045 44.3915C18.4572 44.1772 18.0118 44.0184 17.8059 43.706C17.5929 43.3833 17.8988 42.9462 17.9511 42.5544C18.1299 41.2163 18.1002 39.8794 17.9873 38.538C17.9356 37.9286 17.9524 37.3135 17.9395 36.7009C17.9285 36.1464 17.8401 36.0838 17.3372 36.2987C15.9739 36.8816 14.5932 37.4135 13.1491 37.766C10.7065 38.3624 8.28066 38.3728 5.88322 37.5459C4.32753 37.0094 3.07006 36.0831 2.21475 34.6552C1.76612 33.9071 1.56149 33.0937 1.62346 32.221C1.64347 31.9428 1.59248 31.6955 1.44272 31.4561C0.867564 30.5375 0.78171 29.5447 1.0354 28.5106C1.13481 28.1052 1.12448 27.7185 1.00893 27.3086C0.742334 26.361 0.757826 25.4192 1.21808 24.5194C1.29102 24.3767 1.36138 24.2198 1.47306 24.1114C1.8055 23.788 1.8339 23.3981 1.82809 22.9637C1.81066 21.7191 2.19023 20.614 3.10944 19.7387C3.8279 19.0544 4.71355 18.7207 5.67988 18.5787C6.01942 18.529 6.36219 18.4877 6.7069 18.5122C6.96252 18.5303 7.03095 18.3921 6.9948 18.1714C6.94961 17.8964 6.88958 17.6246 6.84827 17.349C6.61265 15.7752 6.94832 14.3351 8.01471 13.1473C9.76341 11.1991 12.8774 11.571 13.7746 14.0581C14.0638 14.8592 14.0606 15.6868 13.9386 16.5079C13.694 18.1501 13.8779 19.7354 14.4466 21.2885C14.6861 21.9425 14.9224 22.6002 15.0534 23.2884C15.096 23.5111 15.2232 23.6001 15.4439 23.5498C16.6556 23.2742 17.8801 23.0611 18.902 22.2478C19.6411 21.6591 20.457 21.1724 21.3078 20.7521C21.7564 20.5307 21.7777 20.4733 21.5408 20.0459C20.9031 18.8982 20.3466 17.7163 19.9296 16.4678C19.6114 15.5157 19.5869 14.5739 19.929 13.6289C20.2124 12.8465 20.213 12.0551 20.0394 11.2508C19.9851 11.0003 19.8554 10.8306 19.643 10.695C19.024 10.3006 18.4417 9.86228 18.0105 9.25291C16.9557 7.76242 17.4941 6.47784 18.86 5.55475C19.0795 5.40629 19.2215 5.26556 19.2906 5.00284C19.6798 3.52461 20.6668 2.53439 21.9585 1.80431C23.2211 1.09101 24.5832 0.698541 26.0233 0.563629C26.2796 0.539745 26.5358 0.518443 26.7928 0.49585C27.2466 0.49585 27.701 0.49585 28.1548 0.49585C29.7647 0.604942 31.3294 0.885095 32.7315 1.74492C33.4461 2.18258 33.9928 2.77516 34.2936 3.57109C34.3479 3.71504 34.4092 3.86802 34.5693 3.90546C35.697 4.16948 36.1734 5.02414 36.4613 6.02146C36.826 7.28732 36.8325 8.58093 36.6892 9.88229C36.6433 10.2986 36.5788 10.7105 36.4923 11.1197C36.46 11.2734 36.4974 11.4122 36.5639 11.5535C37.5367 13.6172 36.724 16.0605 34.6971 17.085C34.2865 17.2928 34.0199 17.5226 33.9844 18.0035C33.967 18.2443 33.8553 18.4773 33.7889 18.7149C33.6959 19.0447 33.7462 19.139 34.0819 19.2203C35.7428 19.6225 37.3069 20.2512 38.7554 21.1665C40.5287 22.2865 41.9785 23.7357 43.0959 25.5018C43.4819 26.1118 43.9977 26.5908 44.4547 27.1292C46.2131 29.2 47.3563 31.549 47.7075 34.2595C47.7359 34.4745 47.7559 34.6882 47.7791 34.9012Z" fill="#000515"/>
<path id="Vector_7" d="M24.7175 44.7951C23.1495 44.502 21.6777 43.9579 20.3215 43.1109C20.2408 42.9754 20.2305 42.8288 20.2421 42.6746C20.328 41.5365 20.3034 40.3998 20.2466 39.2604C20.1724 37.7686 20.1175 36.2736 20.1756 34.7799C20.2634 32.5174 20.5849 30.2852 21.1297 28.0866C21.2046 27.7845 21.1994 27.4649 21.3311 27.1757C21.3963 27.0221 21.4337 26.8581 21.4931 26.7026C21.5028 26.6632 21.5241 26.629 21.5409 26.5922C21.5538 26.5651 21.5583 26.5347 21.5687 26.5063C21.5461 26.5257 21.5545 26.5573 21.5402 26.5819C21.437 26.7858 21.3692 27.0027 21.2775 27.21C21.0652 27.6424 20.9109 28.0988 20.7243 28.5416C20.6811 28.643 20.6811 28.7831 20.5268 28.8024C20.5662 28.2383 20.674 27.6838 20.7708 27.128C20.8405 26.729 20.9102 26.3314 20.8547 25.9241C20.8386 25.806 20.814 25.6936 20.6824 25.582C20.5855 26.4147 20.1627 27.1151 19.9445 27.8852C19.7767 27.8826 19.7761 27.7335 19.7496 27.6347C19.4894 26.649 18.9337 25.8737 18.0951 25.2992C18.4753 25.7408 18.7561 26.2481 18.9847 26.7826C19.0428 26.9182 19.199 27.0951 18.9743 27.2416C18.6638 26.8117 18.3391 26.3953 17.9112 26.0687C18.485 26.9711 18.9072 27.9362 19.1299 28.98C19.3029 29.7901 19.3894 30.6092 19.2416 31.4355C19.2035 31.6479 18.9304 31.8118 18.7193 31.7621C18.5535 31.7234 18.6451 31.6046 18.6483 31.5297C18.7039 30.3246 18.5489 29.1536 18.0674 28.0407C17.6271 27.0247 16.9416 26.1984 16.0579 25.5355C15.9662 25.4664 15.85 25.4309 15.7448 25.3799C16.0986 25.1314 16.5214 25.123 16.9229 25.0404C17.1256 25.1269 17.1856 25.3993 17.4296 25.4322C17.4232 25.234 17.2398 25.1734 17.1353 25.0513C16.9429 24.8364 16.941 24.8099 17.1152 24.7305C17.3089 24.788 17.4935 24.7196 17.6814 24.6905C18.5031 24.6498 19.1957 24.2942 19.8542 23.8294C20.5713 23.3227 21.3066 22.8411 22.0812 22.4235C22.1806 22.3699 22.2703 22.2718 22.4027 22.3357C21.9211 23.2852 21.5448 24.2735 21.304 25.3121C21.2485 25.5523 21.1904 25.7918 21.1297 26.0306C21.0735 26.2501 21.1329 26.312 21.3531 26.223C22.2226 25.8712 23.1308 25.6691 24.0558 25.5381C24.2876 25.5051 24.5212 25.4916 24.8104 25.4632C23.7666 27.3636 23.4019 29.3763 23.4723 31.471C23.5284 31.4116 23.5355 31.3167 23.5465 31.2218C23.5588 31.1179 23.5304 31.0043 23.6136 30.9152C23.7092 30.8229 23.6091 30.688 23.6847 30.5912L23.6827 30.5963C23.7492 30.4498 23.7266 30.3013 23.6943 30.1522C23.6814 30.0948 23.693 30.0451 23.7395 30.0063C23.8415 29.9179 23.7356 29.781 23.8144 29.6874L23.8118 29.692C23.8964 29.4589 23.8357 29.1872 24.0029 28.9761C23.9642 28.8082 24.0629 28.6598 24.0694 28.4978C24.1649 28.1873 24.2243 27.8658 24.3579 27.5669C24.5864 26.8143 24.9441 26.1203 25.3204 25.4341C25.363 25.3567 25.4256 25.2992 25.5166 25.2792C25.6135 25.2844 25.6644 25.3418 25.6877 25.4303C25.6929 25.5478 25.6812 25.6691 25.7064 25.7821C25.7723 26.0751 25.9769 26.1855 26.2609 26.0842C26.3706 26.0448 26.4894 25.9977 26.5708 25.9196C26.8612 25.6401 27.1846 25.6865 27.5281 25.7776C28.954 26.1558 30.3218 26.6897 31.649 27.3268C31.8091 27.4036 31.8704 27.3984 31.9808 27.2545C33.0343 25.8808 33.696 24.3406 33.9884 22.6365C34.0355 22.3608 33.9645 22.0775 34.0658 21.8096C34.488 22.0252 34.9521 22.1285 35.3898 22.3034C36.8403 22.8831 38.1519 23.6822 39.3223 24.7157C39.7302 25.0294 40.0614 25.4238 40.4338 25.775C40.7398 26.0409 40.9509 26.396 41.264 26.6555C41.2975 26.6832 41.3253 26.7161 41.3472 26.7536C41.3866 26.8407 41.4376 26.9208 41.5048 26.9898C41.5228 27.0105 41.5383 27.0324 41.5532 27.0557C41.6003 27.1409 41.6687 27.2061 41.7494 27.259C41.8178 27.3074 41.8637 27.3765 41.9121 27.452C41.9979 27.3539 41.9928 27.1945 42.1445 27.1673C42.7293 27.5831 43.1676 28.1317 43.5607 28.7224C43.542 28.8876 43.4142 28.8044 43.3393 28.8089C41.3866 28.9257 39.7238 29.6623 38.3914 31.1108C38.3695 31.1347 38.3521 31.1618 38.3282 31.1837C38.2578 31.247 38.1797 31.3516 38.0848 31.2857C37.9912 31.2199 38.0545 31.105 38.0951 31.0198C38.4218 30.3407 38.9466 29.8133 39.4436 29.2646C39.9458 28.7095 40.5707 28.4209 41.3305 28.3919C40.1492 28.1324 38.3927 28.3267 37.3638 29.3886C37.0572 29.7055 36.7654 30.0347 36.4749 30.3652C36.187 30.6932 36.1076 30.6886 35.8378 30.3336C35.4066 29.7649 35.2252 29.0981 35.171 28.4087C35.1064 27.5953 35.1225 26.7775 35.2652 25.968C35.2917 25.8189 35.3362 25.6762 35.3769 25.56C35.158 26.0325 34.8953 26.5134 34.7327 27.0408C34.4899 27.8264 34.3724 28.6294 34.3505 29.4499C34.346 29.6235 34.4163 29.8863 34.2014 29.9256C34 29.9618 34.011 29.6887 33.9464 29.5441C33.818 29.2575 33.7528 28.9528 33.7173 28.6139C33.6766 28.816 33.6753 29.0096 33.501 29.1252C33.2576 30.7222 33.0117 32.3192 32.7748 33.9169C32.7322 34.206 32.6373 34.3332 32.3242 34.2086C31.9808 34.0718 31.6251 34.2119 31.2753 34.2093C30.542 34.2028 29.8151 34.2338 29.1154 34.4681C28.2046 34.7735 27.4274 35.2402 27.2059 36.2717C27.1052 36.7423 27.1427 37.2161 27.3551 37.655C27.4474 37.8455 27.4525 38.0017 27.368 38.1979C27.0491 38.9377 27.2143 39.6006 27.8243 40.1396C27.9012 40.2074 27.9954 40.2597 27.9767 40.3991C27.8579 41.2886 28.302 41.8657 29.0347 42.2782C29.0482 42.4628 28.8933 42.5009 28.7771 42.5622C28.1891 42.876 27.5403 42.9928 26.8961 43.1012C26.024 43.2471 25.1442 43.251 24.2656 43.1322C24.174 43.12 24.0829 43.0987 24.052 43.0877C24.7265 43.282 25.463 43.4731 26.2189 43.577C26.2932 43.5873 26.3687 43.5957 26.4417 43.6125C26.5198 43.6306 26.6405 43.619 26.6372 43.7319C26.6347 43.832 26.5185 43.8423 26.4397 43.8636C26.166 43.9391 25.8839 43.9223 25.6064 43.9049C24.1262 43.812 22.737 43.3956 21.4318 42.6952C21.375 42.6649 21.3234 42.6262 21.273 42.5855C21.8178 43.0432 22.3755 43.4789 23.0004 43.83C23.5271 44.1257 24.101 44.3135 24.6297 44.6001C24.6949 44.6356 24.7891 44.644 24.8188 44.7131C24.8698 44.8274 24.8111 44.8435 24.7175 44.7951Z" fill="#7A8A9A"/>
<path id="Vector_8" d="M21.6306 8.40718C21.6913 8.19029 21.8359 8.11993 22.0579 8.11089C22.8248 8.07926 23.5807 8.14962 24.3269 8.31746C25.1035 8.49239 25.8833 8.4769 26.6656 8.37233C27.08 8.39427 27.4919 8.47174 27.9102 8.38911C28.2207 8.32779 28.517 8.25291 28.7526 8.02246C28.9178 7.86108 29.0657 7.89529 29.1567 8.10185C29.9087 9.79892 30.8686 11.403 31.4192 13.1917C31.549 13.6133 31.5935 14.0464 31.671 14.4925C31.8136 14.2788 31.8795 14.0561 31.9272 13.8256C31.953 13.7004 31.964 13.5674 32.075 13.4784C32.2681 13.4564 32.3378 13.2699 32.463 13.164C32.6024 13.0471 32.7483 12.9497 32.9 12.8548C33.0059 12.8212 33.1324 12.8141 33.1472 12.6624C33.1614 12.634 33.1808 12.6114 33.2066 12.5927C33.5216 12.5443 33.5939 12.6088 33.5352 12.8838C33.4093 13.071 33.2996 13.2692 33.1711 13.4545C32.993 13.712 32.9103 13.9961 32.9458 14.3085C32.9755 14.5712 32.942 14.823 32.8458 15.0837C33.0846 14.7997 33.3932 14.7035 33.7443 14.719C34.1426 14.925 34.2065 14.9017 34.4234 14.5015C34.6035 14.1697 34.5112 13.8586 34.366 13.5494C34.3001 13.4099 34.1736 13.4416 34.0574 13.4474C33.8922 13.3789 33.7153 13.2782 33.7728 13.0846C33.8296 12.8935 34.0445 12.8503 34.2285 12.8554C34.4815 12.8619 34.6681 13.0071 34.803 13.2143C34.9379 13.4209 35.0528 13.6378 35.0547 13.8947C35.0586 13.9967 35.0515 14.098 35.0134 14.1923C35.058 14.2104 35.0373 14.2052 35.0354 14.1774C35.0309 14.1058 35.0618 14.0341 35.0573 13.9599C35.0606 13.8792 35.0741 13.805 35.1638 13.7746C35.3097 13.8224 35.3433 13.7475 35.3562 13.6178C35.4162 13.0284 34.9476 12.3745 34.3666 12.239C34.2298 12.2073 34.1168 12.2783 33.9922 12.2945C33.8431 12.3138 33.665 12.4565 33.5462 12.2325C33.7366 12.0208 33.9303 11.8252 34.2291 11.7568C34.4208 11.7129 34.5938 11.6735 34.7791 11.7768C34.8579 11.8207 34.956 11.8523 35.0547 11.8174C35.5305 12.0976 35.7403 12.5327 35.7829 13.0659C35.8416 13.8056 35.7093 14.4944 35.2355 15.0902C35.0741 15.1225 34.9902 15.2509 34.8895 15.3613C34.672 15.6008 34.4267 15.7996 34.131 15.9429C33.5643 16.2173 33.0085 16.1185 32.4501 15.9287C32.1118 15.6918 31.9033 15.3265 31.589 15.065C31.467 14.963 31.3798 14.8191 31.201 14.7455C31.1533 14.8953 31.1817 15.0457 31.172 15.1864C31.0926 16.3044 30.5465 17.2314 29.9526 18.1274C29.1664 19.3125 28.1271 20.2395 26.8683 20.9031C26.2118 21.2491 25.4979 21.4027 24.7517 21.3646C24.6122 21.3575 24.4747 21.3659 24.336 21.362C24.2675 21.3575 24.1939 21.3646 24.1488 21.2955C23.3567 20.7352 22.9823 19.8573 22.4769 19.0821C21.8398 18.1054 21.4118 17.03 21.0219 15.9358C20.814 15.3529 20.7275 14.7836 20.9121 14.1768C21.0548 13.7075 21.1187 13.2169 21.3621 12.7773C21.5028 12.5236 21.3582 12.2506 21.3537 11.9859C21.3505 11.5263 21.284 11.0532 21.6338 10.6697C21.8456 10.4916 22.1038 10.498 22.3587 10.4922C22.433 10.4903 22.5072 10.4928 22.5815 10.4896C22.9675 10.4709 22.9862 10.436 22.7932 10.0881C22.5305 9.64076 22.2548 9.52715 21.7384 9.65884C21.6254 9.68789 21.5196 9.75437 21.3976 9.69692C21.2336 9.46002 21.3634 9.22892 21.4286 9.00622C21.4873 8.80482 21.5809 8.6131 21.6306 8.40718Z" fill="#EFEFEF"/>
<path id="Vector_9" d="M39.8348 34.1234C40.4983 33.9485 41.1658 33.953 41.8358 34.0847C41.8985 34.097 41.9637 34.1402 42.0211 34.1305C42.1676 34.1054 42.0282 34.0557 42.023 34.0156C41.8255 33.8194 41.6428 33.6064 41.4111 33.4476C40.8366 33.0538 40.2124 33.0261 39.5669 33.2165C39.2557 33.3082 39.1298 33.2313 39.1808 32.9066C39.2699 32.3392 39.5152 31.8474 39.9768 31.482C40.9302 30.6557 42.0495 30.3033 43.2992 30.2962C43.7614 30.2936 44.0868 30.4356 44.3153 30.87C44.8685 31.9209 45.2823 33.0203 45.31 34.2074C45.3313 35.1227 44.9634 35.9212 44.2191 36.5144C43.5826 37.0218 42.8706 37.3956 42.1296 37.7138C40.55 38.3922 38.9491 39.0164 37.3069 39.529C37.1217 39.5993 37.0055 39.7201 37.01 39.9311C36.9461 40.1706 37.0009 40.4424 36.8183 40.6496C36.735 40.6612 36.664 40.6735 36.6039 40.7568C36.1476 41.3907 35.4833 41.6398 34.7416 41.6902C34.0245 41.7392 33.306 41.7115 32.5998 41.5449C32.2183 41.4552 31.873 41.29 31.5554 41.0634C31.2578 40.9511 31.161 40.7393 31.2526 40.4392C31.2739 40.3701 31.2384 40.3172 31.2229 40.2571C31.2191 40.1745 31.2952 40.1203 31.3023 40.0415C31.3172 40.0241 31.3327 40.0073 31.3475 39.9899C31.647 39.8666 31.9633 39.8524 32.2835 39.8259C31.9995 39.8395 31.7226 39.8343 31.476 39.6529C31.3662 39.5722 31.2584 39.6807 31.1584 39.7407C31.0641 39.7975 30.9789 39.9357 30.8556 39.8492C30.7498 39.7749 30.7827 39.6374 30.7988 39.5206C30.8576 39.345 30.8337 39.1623 30.8492 38.9829C30.8692 38.7511 30.7853 38.6653 30.558 38.7305C30.489 38.7014 30.4774 38.6433 30.4819 38.5775C30.5858 38.4923 30.6891 38.4077 30.793 38.3225C31.0351 38.0107 31.3972 37.981 31.7452 37.9165C31.9375 37.9204 32.1312 37.9107 32.3119 37.9326C31.7949 37.6312 31.4844 37.6241 30.9286 37.8849C30.8066 37.9423 30.671 38.1327 30.5367 37.9739C30.4315 37.8494 30.6007 37.7254 30.6562 37.6041C30.731 37.3349 30.9253 37.0993 30.8711 36.7939C30.855 36.7023 30.9079 36.6338 30.9873 36.5861C31.0977 36.5202 31.028 36.4692 30.9699 36.4189C30.935 36.386 30.9105 36.3479 30.9053 36.2995C31.0409 36.0761 31.3101 36.0716 31.4992 35.936C31.8103 35.8495 32.1267 35.8076 32.4501 35.8405C32.115 35.7876 31.7787 35.7547 31.4405 35.7359C31.1048 35.7172 31.1029 35.7127 31.19 35.3886C31.2055 35.3318 31.1842 35.2834 31.1642 35.2331C31.1564 35.2014 31.1584 35.1711 31.1694 35.1408C31.7232 34.7554 32.259 34.9019 32.7806 35.2073C33.4512 35.5997 34.1413 35.9599 34.7855 36.3976C34.8456 36.4383 34.9127 36.4776 34.9914 36.4757C35.0315 36.4918 35.0721 36.508 35.1122 36.5241C35.1464 36.506 35.1987 36.6429 35.22 36.5118C35.1961 36.457 35.0592 36.4337 35.1722 36.3408C35.6641 36.1846 36.1056 35.9238 36.5555 35.6785C37.4218 35.206 38.2578 34.6741 39.1931 34.3352C39.4068 34.259 39.6327 34.2274 39.8348 34.1234Z" fill="#EFEFEF"/>
<path id="Vector_10" d="M10.296 21.2778C10.5749 21.447 10.7492 21.7019 10.8802 21.9924C10.7627 22.1816 10.8228 22.4101 10.7317 22.6121C10.3464 23.4668 9.61178 23.7121 8.76615 23.7611C7.34085 23.8431 5.97236 23.55 4.62775 23.1111C4.51608 23.0749 4.40828 23.0272 4.25464 23.0065C4.29596 23.2789 4.40376 23.5229 4.45734 23.7779C4.57998 23.9651 4.82657 24.0271 4.92469 24.2388C6.41196 25.1858 8.03672 25.5105 9.77832 25.3188C9.90097 25.3052 10.0443 25.1845 10.1521 25.3549C10.2282 26.6201 9.55885 27.5161 8.31881 27.7627C7.56162 27.9131 6.79539 27.9499 6.01948 27.9137C5.19581 27.875 4.37084 27.8731 3.54845 27.7511C3.66787 27.8737 3.83635 27.8692 3.98353 27.917C4.29983 28.0758 4.57998 28.2952 4.90274 28.4463C6.31965 29.1092 7.77464 29.2938 9.28773 28.8278C9.38004 28.7994 9.47235 28.7684 9.57111 28.7768C9.69957 28.7929 9.75637 28.8794 9.76864 28.9956C9.82351 29.5146 9.7596 29.9929 9.38714 30.408C8.81069 31.0509 8.05157 31.2343 7.24661 31.3156C6.16989 31.424 5.10543 31.3085 4.04679 31.1129C3.97449 31.0993 3.88154 31.0658 3.84926 31.1574C3.80472 31.2827 3.86217 31.3918 3.96739 31.4641C4.09649 31.5519 4.28305 31.5615 4.34244 31.7429C5.83487 32.8694 7.42542 32.6699 9.04308 32.0902C9.17347 32.0437 9.30064 31.9863 9.42974 31.9346C9.65696 31.8636 9.68278 32.0315 9.70667 32.1799C9.83706 32.9843 9.28321 33.9383 8.49762 34.2198C7.61391 34.5367 6.69534 34.5974 5.7658 34.5128C5.55278 34.4935 5.3404 34.4547 5.12738 34.425C5.04476 34.4134 4.93889 34.385 4.88596 34.4638C4.81818 34.5645 4.92404 34.6381 4.96988 34.7168C5.00215 34.7723 5.04476 34.822 5.07639 34.8776C5.12351 34.997 5.21324 35.0731 5.33136 35.1196C5.47209 35.21 5.65541 35.219 5.77548 35.3494C5.77031 35.638 5.60442 35.485 5.48435 35.454C5.4198 35.4372 5.34105 35.3159 5.30619 35.4818C4.89177 35.2694 4.51737 35.0034 4.20171 34.6587C3.95061 34.3011 3.62333 33.9977 3.45356 33.5807C3.32381 33.2605 3.21407 32.9442 3.20762 32.5898C3.19406 31.8701 3.14371 31.1594 2.85323 30.4777C2.65248 30.0071 2.65829 29.4881 2.71703 28.9827C2.78029 28.4443 2.78803 27.9118 2.66668 27.3812C2.43752 26.3787 2.56598 25.4433 3.16695 24.5855C3.39353 24.2614 3.48132 23.8889 3.47422 23.4861C3.46131 22.7793 3.41806 22.0667 3.69305 21.3882C3.78729 21.1603 3.94222 20.9828 4.13974 20.8395C4.38246 20.7556 4.57095 20.5574 4.83174 20.5123C5.39269 20.3257 5.9743 20.3405 6.5501 20.3715C7.40928 20.4174 8.25039 20.5839 9.06115 20.8802C9.48461 21.0351 9.89129 21.2249 10.2353 21.538C10.2767 21.4476 10.1824 21.3372 10.296 21.2778Z" fill="#EFEFEF"/>
<path id="Vector_11" d="M16.4632 26.7239C17.0913 27.3287 17.4993 28.0711 17.7478 28.8947C18.0402 29.8643 18.1493 30.8584 18.0099 31.8699C17.6503 32.0791 17.2398 32.0294 16.8525 32.081C16.1398 32.1765 15.4201 32.172 14.7023 32.1559C13.9929 32.1398 13.2925 32.0403 12.6044 31.8693C12.2048 31.7699 12.1609 31.6789 12.3532 31.3064C12.6624 30.7067 12.9065 30.0754 13.2453 29.4899C13.827 28.8141 14.0716 27.9807 14.3311 27.1551C15.0418 27.0156 15.7357 26.7852 16.4632 26.7239Z" fill="#EFEFEF"/>
<path id="Vector_12" d="M17.8156 33.2887C17.8492 33.8252 17.6174 34.1479 17.1281 34.4152C14.5015 35.8495 11.7161 36.5602 8.719 36.3756C8.19807 36.3433 7.67198 36.3104 7.16912 36.1426C7.16202 36.1012 7.13878 36.0632 7.13684 36.0206C7.1078 35.4331 7.1078 35.4331 7.71974 35.4654C7.61646 35.4325 7.52157 35.4725 7.43636 35.4325C7.44088 35.2537 7.58612 35.2937 7.68811 35.2737C8.68931 35.0807 9.68469 34.8606 10.6084 34.4126C11.1733 34.1389 11.6122 33.7219 11.8956 33.1525C11.953 33.0376 12.0092 32.9195 12.1299 32.853C12.2396 32.782 12.3526 32.7329 12.4907 32.7471C14.0832 32.9124 15.6706 32.8827 17.2527 32.6284C17.4193 32.6019 17.6065 32.5361 17.7588 32.6122C17.9834 32.7246 17.7104 32.9137 17.7872 33.0686C17.8188 33.1312 17.7801 33.2184 17.8156 33.2887Z" fill="#7A8A9A"/>
<path id="Vector_13" d="M33.5152 29.1761C33.5785 28.9315 33.6411 28.6868 33.7043 28.4422C33.8573 28.9541 33.9535 29.4724 34.2285 29.9578C34.2788 28.3369 34.5332 26.7761 35.4866 25.4121C35.229 26.3442 35.2174 27.2964 35.2562 28.2472C35.2891 29.038 35.4885 29.7881 35.983 30.4349C36.1173 30.6111 36.2051 30.6408 36.3626 30.4465C36.7466 29.9733 37.1411 29.5098 37.6233 29.1232C38.1306 28.7159 38.6916 28.4493 39.3281 28.3531C39.9736 28.2556 40.6236 28.1801 41.2736 28.3253C41.3827 28.3499 41.4886 28.3918 41.6022 28.4635C39.6889 28.5074 38.9788 29.994 38.0938 31.2682C39.585 29.6938 41.3834 28.8107 43.5743 28.7727C43.6672 28.8972 43.8512 29.0167 43.7802 29.1716C43.7247 29.2917 43.5246 29.2129 43.3903 29.22C42.0186 29.2878 40.8121 29.8003 39.718 30.6001C39.0724 31.072 38.5263 31.6394 38.1377 32.3469C38.1171 32.3843 38.0919 32.4231 38.0583 32.4476C37.9912 32.496 37.9835 32.6316 37.8815 32.6083C37.793 32.5883 37.7911 32.476 37.7595 32.3979C37.6181 32.0467 37.5987 31.6684 37.5122 31.3057C37.4664 31.1133 37.6123 30.9887 37.7078 30.8861C38.1029 30.4613 38.1158 30.4717 38.2184 29.6796C38.2307 29.5873 38.3107 29.5034 38.2288 29.3478C37.9718 29.7448 37.7233 30.1128 37.4916 30.4904C37.2024 30.961 36.93 31.4419 36.6447 31.9144C36.502 32.1506 36.3645 32.1571 36.1909 31.926C35.7622 31.3567 35.4395 30.7331 35.2452 30.0437C35.0748 29.4382 34.9392 28.8262 34.845 28.1465C34.6681 29.1161 34.8688 30.8454 35.3549 32.6425C34.6545 32.2927 34.2272 31.7537 33.958 31.0662C33.7373 30.502 33.6669 29.9075 33.5752 29.3168C33.5668 29.2633 33.5675 29.2097 33.5152 29.1761Z" fill="#01284D"/>
<path id="Vector_14" d="M11.2455 13.7451C11.922 13.9504 12.3661 14.5798 12.4178 15.4047C12.4823 15.6055 12.3984 15.7914 12.3345 15.9663C12.0356 16.7823 11.8749 17.6421 11.538 18.4451C11.3617 18.8647 11.1532 19.2694 10.711 19.4708C10.1591 19.7226 9.61754 19.7549 9.12179 19.3275C9.0482 19.2643 8.96751 19.212 8.87649 19.1765C8.70479 18.979 8.70995 18.7188 8.64475 18.4864C8.36654 17.5014 8.35233 16.5157 8.71447 15.5442C9.04304 14.6637 9.76472 14.1492 10.6123 14.1647C10.9789 14.1718 11.2636 14.3454 11.5405 14.5752C11.5386 14.2557 11.2139 14.0634 11.2455 13.7451Z" fill="#EFEFEF"/>
<path id="Vector_15" d="M30.8641 22.3189C31.4173 21.7469 31.9286 21.1453 32.2242 20.3914C32.5405 20.423 32.7606 20.6554 32.8529 21.0511C32.9349 21.4022 32.9343 21.7599 32.8684 22.1078C32.6864 23.0696 32.3501 23.9694 31.7149 24.7337C31.5716 24.9061 31.4309 25.0036 31.2288 25.0965C31.3043 25.1094 31.3566 25.0675 31.3947 25.0326C31.9163 24.5523 32.4547 24.0869 32.7012 23.3846C32.7542 23.2336 32.8226 22.9482 32.9627 22.9986C33.1673 23.0722 33.0285 23.3278 32.9788 23.4834C32.6122 24.6395 31.9466 25.509 30.6866 25.7724C30.3399 25.8447 29.9881 25.8647 29.6357 25.8047C28.9108 25.6659 28.1846 25.531 27.4609 25.387C26.9891 25.2934 26.5088 25.2418 26.0479 25.0978C26.0821 24.9629 26.2099 24.9713 26.3042 24.9422C27.4403 24.5917 28.5196 24.1186 29.5117 23.4582C29.7131 23.3272 29.9049 23.1832 30.0856 23.0251L30.083 23.0276C30.1824 22.9708 30.2664 22.8947 30.3529 22.8204C30.4077 22.7604 30.4626 22.6997 30.5181 22.6397C30.6788 22.5822 30.7711 22.4506 30.8641 22.3189Z" fill="#7A8A9A"/>
<path id="Vector_16" d="M17.8156 33.2889C17.7129 33.1411 17.7491 32.9758 17.7814 32.8248C17.8181 32.6518 17.7691 32.6595 17.6219 32.6763C16.8395 32.766 16.0578 32.8557 15.2729 32.9255C14.4118 33.0016 13.5694 32.8628 12.7179 32.8745C12.5249 32.877 12.33 32.786 12.1383 32.8887C12.0085 32.7454 12.1738 32.6124 12.1544 32.4755C12.1189 32.7208 11.9988 32.9345 11.8491 33.1217C11.4308 33.6452 10.9531 34.1009 10.3166 34.3566C10.2224 34.3946 10.1062 34.4824 10.0294 34.3695C9.96674 34.2772 10.07 34.1894 10.1352 34.1261C10.4502 33.824 10.509 33.3876 10.7188 33.0313C10.802 32.7163 10.7143 32.42 10.6219 32.1237C10.6284 32.0476 10.6432 31.9753 10.7007 31.9184C11.2229 31.4014 11.3591 30.7223 11.4585 30.04C11.6199 28.9349 11.5683 27.833 11.3301 26.7408C11.2713 26.4703 11.1196 26.2237 11.1242 25.9371C11.059 25.7228 11.026 25.4904 10.9202 25.2987C10.7736 25.0327 10.8698 24.912 11.1106 24.8262C11.4902 25.0489 11.7006 25.4213 11.8639 25.7951C12.4087 27.0403 12.521 28.3513 12.3771 29.6934C12.3584 29.8651 12.2506 30.0129 12.2641 30.1898C12.3435 30.3363 12.4061 30.1988 12.4552 30.1672C12.7496 29.9793 12.9936 29.7308 13.2434 29.49C13.3273 29.7598 13.0891 29.9174 13.0065 30.1252C12.8212 30.59 12.5921 31.0393 12.3577 31.4821C12.2674 31.6525 12.2977 31.7022 12.4688 31.7455C13.7469 32.0663 15.0392 32.1302 16.3509 32.0217C16.9041 31.9759 17.4541 31.8991 18.0086 31.8707C18.035 32.3555 17.844 32.8112 17.8156 33.2889Z" fill="#7A8A9A"/>
<path id="Vector_17" d="M24.7291 44.8441C24.7394 44.8422 24.751 44.8415 24.7607 44.8377C24.791 44.826 24.824 44.797 24.7756 44.7834C24.4244 44.6847 24.1216 44.4781 23.7873 44.3438C22.8829 43.9811 22.0818 43.4556 21.3692 42.7972C21.2485 42.6855 21.0574 42.6397 20.9967 42.4047C22.7564 43.4014 24.5813 44.0037 26.5965 43.7997C25.6296 43.6499 24.6755 43.4459 23.7085 43.0864C23.9409 42.976 24.1074 43.0857 24.2759 43.1051C25.6664 43.2684 27.029 43.1587 28.3582 42.7094C28.6086 42.6248 28.8642 42.539 29.0495 42.3298C29.2729 42.3744 29.3929 42.5009 29.4194 42.7365C29.533 43.7648 30.4128 44.1586 31.2365 44.1986C31.3579 44.2044 31.4799 44.2096 31.6038 44.2457C31.2714 44.5123 30.8679 44.5814 30.4897 44.6924C29.1308 45.0913 27.732 45.1727 26.3287 45.0868C25.7948 45.0546 25.2481 45.0203 24.7291 44.8441Z" fill="#01294D"/>
<path id="Vector_18" d="M12.2654 30.189C12.126 30.0108 12.2706 29.8353 12.2899 29.6674C12.4397 28.3454 12.3009 27.0634 11.7955 25.8305C11.6412 25.4535 11.3391 25.1611 11.1119 24.8254C11.8349 24.2444 11.9394 23.4511 11.8768 22.6003C11.8245 22.1769 11.7729 21.7528 11.6896 21.3345C11.4605 20.1874 11.7193 19.1107 12.1395 18.054C12.297 18.0656 12.2351 18.1889 12.2402 18.2676C12.259 18.5407 12.2164 18.8157 12.2654 19.0881C12.401 20.2907 12.8632 21.4113 13.1453 22.5764C13.612 24.5039 13.7333 26.434 13.122 28.3583C12.9161 29.0058 12.6295 29.6158 12.2654 30.189Z" fill="#EFEFEF"/>
<path id="Vector_19" d="M21.4563 27.1628C21.2562 28.0743 21.0419 28.9838 20.8579 29.8985C20.2124 33.1035 20.1865 36.3388 20.3834 39.5864C20.4557 40.7774 20.4344 41.9696 20.3337 43.1593C19.8657 42.987 19.6824 42.7152 19.7411 42.1613C19.9361 40.3152 19.6275 38.4722 19.6159 36.6241C19.5985 34.0233 19.9522 31.4742 20.5293 28.9483C20.5364 28.9173 20.5358 28.8844 20.5384 28.8521C20.7985 28.3202 20.9302 27.7341 21.2271 27.2177C21.2994 27.1834 21.3607 27.1008 21.4563 27.1628Z" fill="#F5F8FA"/>
<path id="Vector_20" d="M37.2482 39.4849C37.9719 39.2267 38.7032 38.9859 39.4185 38.7051C40.6004 38.241 41.8043 37.8324 42.9281 37.2224C43.3509 36.9932 43.755 36.7505 44.1391 36.4646C44.7498 36.0095 45.077 35.3904 45.1848 34.6545C45.3101 33.796 45.09 32.9833 44.7988 32.1867C44.6226 31.7039 44.4264 31.2307 44.1682 30.7821C44.0165 30.5187 43.8157 30.3999 43.5278 30.3883C42.4149 30.3438 41.384 30.5975 40.441 31.2043C40.286 31.3043 40.2176 31.5012 40.0227 31.5431C39.9794 31.5076 39.8761 31.538 39.8987 31.4302C41.0548 30.438 42.4078 29.9939 43.9177 29.9849C44.0158 29.9842 44.0823 30.0255 44.1339 30.0985C45.0047 31.3398 45.6412 32.6838 45.9059 34.1878C45.9098 34.2085 45.9046 34.2304 45.9039 34.2517C45.9427 34.3214 45.9362 34.3963 45.9207 34.4693C45.9085 34.5261 45.8594 34.5312 45.8278 34.4983C45.802 34.4712 45.789 34.4221 45.7994 34.4086C45.8555 34.7378 45.7529 35.0715 45.6341 35.3982C45.5115 35.7364 45.4217 36.094 45.1558 36.3626C45.0254 36.4407 44.917 36.5446 44.8169 36.6569C44.1875 37.3592 43.3922 37.8272 42.5498 38.212C41.1284 38.862 39.6379 39.2951 38.0932 39.5366C37.8124 39.5817 37.5206 39.6444 37.2482 39.4849Z" fill="#7A8A9A"/>
<path id="Vector_21" d="M45.1228 36.3239C45.4979 35.7094 45.6993 35.0361 45.7819 34.2892C45.8193 34.3661 45.84 34.4087 45.8774 34.4874C45.8884 34.3861 45.8949 34.3189 45.902 34.2524C46.2873 36.0173 45.8206 37.6569 44.2249 38.8195C43.072 39.6593 41.7655 40.166 40.3938 40.5178C39.2796 40.8038 38.1564 41.0323 37.0022 41.0723C36.928 40.8277 37.0016 40.6798 37.2695 40.6437C38.2184 40.5152 39.1279 40.237 40.0142 39.8846C41.4731 39.3042 42.8952 38.6555 44.0526 37.5536C44.3773 37.2444 44.7187 36.9468 44.9311 36.5376C44.9756 36.453 45.0363 36.3749 45.1228 36.3239Z" fill="#7A8A9A"/>
<path id="Vector_22" d="M4.39789 23.8676C4.30752 23.5519 4.21715 23.2369 4.11322 22.8761C4.81425 23.073 5.45589 23.2899 6.11496 23.4299C7.30917 23.683 8.51241 23.8457 9.72275 23.4893C10.1417 23.366 10.7704 22.6799 10.7323 22.2061C10.7252 22.1176 10.6516 21.9375 10.8802 21.9924C11.4411 23.0342 11.0867 24.1213 10.0649 24.4854C9.99645 24.5099 9.91963 24.5118 9.84604 24.5241C9.16438 24.5577 8.48271 24.5648 7.80105 24.5196C7.09937 24.5047 6.41836 24.3563 5.74508 24.1813C5.51334 24.1206 5.25385 24.1536 5.04857 23.9941C4.81554 24.038 4.62382 23.8637 4.39789 23.8676Z" fill="#7A8A9A"/>
<path id="Vector_23" d="M45.1228 36.324C44.7323 37.2019 44.0073 37.7828 43.2585 38.3089C41.8752 39.2804 40.335 39.9324 38.7115 40.4049C38.2739 40.5327 37.8388 40.6373 37.3908 40.6986C37.1655 40.7296 37.0138 40.8245 37.0035 41.0724C36.9783 41.0788 36.9532 41.0853 36.928 41.0911C36.8247 40.9491 36.8337 40.7968 36.8776 40.6367C36.9448 40.392 36.9641 40.1428 36.9357 39.8904C36.9151 39.6587 37.0442 39.5425 37.2488 39.4851C38.4998 39.5141 39.6675 39.1384 40.8392 38.766C41.3381 38.6072 41.8287 38.4413 42.3071 38.225C43.2108 37.8171 44.0654 37.3458 44.7484 36.6074C44.8536 36.4937 44.9388 36.3395 45.1228 36.324Z" fill="#7A8A9A"/>
<path id="Vector_24" d="M24.336 21.3622C24.4386 21.2906 24.5548 21.2815 24.6749 21.288C26.0402 21.3584 27.1517 20.7716 28.1736 19.944C29.4795 18.8873 30.3838 17.5498 30.9609 15.9825C31.0958 15.6165 31.0881 15.2305 31.0887 14.8483C31.0887 14.7677 31.0151 14.6682 31.1042 14.6153C31.1849 14.5675 31.2714 14.6405 31.3302 14.6986C31.6265 14.9936 31.9227 15.2892 32.2055 15.5971C32.292 15.6914 32.363 15.7985 32.4747 15.867C32.7232 16.0832 33.0446 16.0851 33.3403 16.1665C33.4888 16.2071 33.634 16.2807 33.3829 16.4086C33.3745 16.4124 33.3668 16.4247 33.3661 16.4337C33.3655 16.4389 33.3797 16.4453 33.3874 16.4512C33.0634 16.5486 32.7316 16.5809 32.4282 16.4144C32.1177 16.2439 32.1254 15.8399 31.8763 15.581C31.8866 15.7275 31.895 15.8515 31.904 15.9754C31.9389 16.0897 31.9298 16.2013 31.9066 16.3279C31.7129 16.2762 31.7788 16.0826 31.6652 15.987C31.6374 17.0063 31.243 17.8642 30.5723 18.6014C30.2999 18.9009 30.1347 19.3005 29.7628 19.5057C29.098 19.8724 28.5506 20.4288 27.8276 20.6993C27.6578 20.7626 27.9644 20.791 27.8308 20.8387C26.7509 21.2441 25.6716 21.6527 24.4812 21.4171C24.4309 21.4074 24.3844 21.381 24.336 21.3622Z" fill="#7A8A9A"/>
<path id="Vector_25" d="M25.6954 22.3137C26.2834 22.2072 26.8812 22.1555 27.457 21.9748C28.8022 21.552 30.0216 20.8974 31.128 20.0266C31.2158 19.9576 31.2862 19.8491 31.4321 19.8472C31.5186 20.4669 31.2036 20.9542 30.8905 21.4184C30.1346 22.539 29.0572 23.2639 27.8327 23.7906C27.7036 23.6105 27.8411 23.4633 27.903 23.3149C28.0373 22.9915 28.1819 22.6732 28.282 22.2963C27.9489 22.3505 27.7003 22.508 27.4266 22.5893C26.9954 22.7178 26.5662 22.7623 26.1266 22.6487C25.9355 22.5996 25.7554 22.5332 25.6954 22.3137Z" fill="#7A8A9A"/>
<path id="Vector_26" d="M23.6259 21.8779C23.8705 21.9451 23.9783 22.1006 24.0229 22.3563C24.1668 23.187 24.7129 23.7893 25.2371 24.4C25.3113 24.4865 25.4727 24.5652 25.4243 24.6737C25.361 24.8137 25.2106 24.906 25.0363 24.919C24.4489 24.9628 23.8628 25.0171 23.2889 25.161C23.0294 25.2262 22.7686 25.2882 22.5149 25.3721C22.3336 25.4321 22.2767 25.3708 22.2832 25.2004C22.3794 24.9667 22.2348 24.7247 22.3064 24.4903C22.3232 23.5363 22.7757 22.7726 23.3606 22.0651C23.438 21.9877 23.5148 21.9083 23.6259 21.8779Z" fill="#7A8A9A"/>
<path id="Vector_27" d="M25.6954 22.3137C26.206 22.7513 26.7844 22.6784 27.3627 22.5164C27.6493 22.4363 27.9217 22.3033 28.2013 22.1968C28.2568 22.1755 28.3149 22.1103 28.3749 22.1723C28.4291 22.2285 28.3826 22.2917 28.3633 22.3518C28.2368 22.75 28.0799 23.1367 27.905 23.5156C27.8649 23.6028 27.8107 23.6867 27.8327 23.7906C27.222 24.1276 26.5565 24.3354 25.9207 24.613C25.8012 24.6653 25.7173 24.6395 25.6399 24.5446C25.0718 23.8532 24.5341 23.1477 24.4921 22.1988C24.5373 22.1426 24.6025 22.1575 24.6238 22.2007C24.831 22.6209 25.2274 22.903 25.4372 23.32C25.4636 23.3839 25.4772 23.4543 25.5282 23.5234C25.5856 23.3943 25.5172 23.3052 25.4688 23.2116C25.4488 22.8959 25.2564 22.5958 25.3842 22.2678C25.4882 22.2833 25.5921 22.2988 25.6954 22.3137Z" fill="#7A8A9A"/>
<path id="Vector_28" d="M32.1577 13.4856C32.046 13.5598 32.0363 13.676 32.0202 13.7955C31.9744 14.1389 31.8298 14.4423 31.5767 14.805C31.5877 13.8368 31.2966 13.0292 30.9758 12.2294C30.6524 11.4238 30.3386 10.6157 29.901 9.85975C29.5898 9.32204 29.3265 8.75592 29.1025 8.17302C29.0695 8.08781 29.0605 7.85285 28.8591 8.02972C28.1994 8.60874 27.4519 8.61197 26.6656 8.37249C26.9929 8.27501 27.3234 8.18722 27.6468 8.07813C28.0032 7.95807 28.3375 7.79281 28.6435 7.56817C28.9469 7.34547 29.1967 7.0679 29.5156 6.729C29.3278 7.61594 29.5053 8.36539 29.881 9.07933C30.0914 9.47954 30.3554 9.84426 30.6227 10.2058C31.3114 11.1385 31.8466 12.141 32.0718 13.2913C32.0815 13.3397 32.077 13.4023 32.1519 13.4088C32.1661 13.4249 32.1725 13.4417 32.1693 13.4591C32.1654 13.4766 32.1622 13.4856 32.1577 13.4856Z" fill="#7A8A9A"/>
<path id="Vector_29" d="M21.7681 5.73049C21.3452 5.73501 20.9424 5.55427 20.5138 5.59881C20.4344 5.6072 20.406 5.54523 20.468 5.47422C20.9618 5.50069 21.1484 5.08433 21.4169 4.79966C21.5486 4.66087 21.6596 4.50272 21.7623 4.43171C21.7171 4.46657 21.6183 4.54597 21.5253 4.63376C21.4511 4.70348 21.3556 4.82483 21.2581 4.74608C21.1484 4.65764 21.2671 4.55178 21.3246 4.4698C21.5299 4.17803 21.7771 3.91982 22.0598 3.70745C22.9552 3.03482 23.9415 2.5978 25.0867 2.60491C25.1196 2.60491 25.1499 2.5991 25.1757 2.57715C25.7696 2.66494 26.3209 2.88506 26.8715 3.10905C24.8762 2.90636 23.4929 3.20911 22.8209 4.03085C23.4322 4.11348 24.0454 3.96307 24.6374 4.19416C23.5852 4.21288 22.6544 4.56405 21.81 5.1818C22.6731 5.08885 23.5226 5.16373 24.3721 5.28573C24.0235 5.29735 23.682 5.33737 23.3451 5.41483C23.2669 5.43291 23.154 5.45292 23.3108 5.54071C23.2321 5.71758 23.0681 5.65948 22.9358 5.66659C22.5466 5.68724 22.1534 5.63237 21.7681 5.73049Z" fill="#011D3C"/>
<path id="Vector_30" d="M10.7201 33.0313C10.6788 33.5625 10.3974 33.9724 10.0578 34.3585C11.0565 33.9692 11.8065 33.3243 12.1926 32.2799C12.2681 32.5039 12.1416 32.6905 12.1383 32.888C11.6039 34.13 10.5697 34.6832 9.32131 34.9704C8.68806 35.1157 8.07417 35.3435 7.42285 35.4139C7.00197 35.5578 6.56689 35.5236 6.1344 35.5107C5.99303 35.5062 5.86199 35.4649 5.76 35.359C5.61088 35.2841 5.42304 35.3029 5.29781 35.1699C5.28361 35.0718 5.35655 35.0524 5.42433 35.0279C6.42553 35.055 7.39315 34.88 8.32721 34.5237C8.83201 34.3314 9.31937 34.1119 9.65568 33.6529C9.90485 33.3134 10.0056 32.9487 9.94358 32.5317C9.92422 32.4 9.85644 32.2586 9.96037 32.1295C10.032 32.0495 10.1108 31.9488 10.227 32.0191C10.4129 32.1314 10.571 32.2825 10.5943 32.5142C10.6117 32.6943 10.6304 32.8705 10.7201 33.0313Z" fill="#0A0C22"/>
<path id="Vector_31" d="M3.96989 27.989C3.79431 27.9477 3.61808 27.9077 3.44315 27.8631C3.3631 27.8425 3.30307 27.7895 3.31727 27.7024C3.33341 27.601 3.42637 27.6004 3.49608 27.6172C4.41852 27.8418 5.36614 27.8199 6.3002 27.8412C7.17746 27.8612 8.07989 27.8496 8.91518 27.4829C9.704 27.1363 9.9919 26.4598 10.0765 25.6606C10.0881 25.5528 10.0874 25.4463 10.1526 25.354C10.7459 26.4398 10.354 27.6611 9.2431 28.1943C9.17339 28.304 9.05784 28.3363 8.94294 28.3628C8.41878 28.4841 7.88688 28.5622 7.34916 28.5377C6.3286 28.4912 5.32741 28.3021 4.33073 28.0858C4.20808 28.0587 4.11319 27.9335 3.96989 27.989Z" fill="#7A8A9A"/>
<path id="Vector_32" d="M4.34368 31.7413C4.2391 31.6929 4.15196 31.6187 4.02608 31.6006C3.72915 31.5574 3.71817 31.2979 3.70785 31.0823C3.7001 30.9215 3.86406 30.9564 3.95637 30.9841C4.75294 31.2269 5.58307 31.2559 6.39706 31.2675C7.26464 31.2804 8.15738 31.2294 8.92361 30.7072C9.53104 30.2934 9.78796 29.7215 9.69694 28.9908C9.68596 28.9043 9.65821 28.8488 9.57106 28.8313C9.62658 28.6596 9.74729 28.6674 9.88349 28.7177C10.4012 29.5924 10.1675 30.582 9.30769 31.1262C8.5873 31.5819 7.77395 31.7284 6.94511 31.7956C6.11885 31.8627 5.29259 31.8485 4.47407 31.6942C4.42243 31.6852 4.36692 31.669 4.34368 31.7413Z" fill="#7A8A9A"/>
<path id="Vector_33" d="M11.1261 25.937C11.6683 27.0621 11.6702 28.2693 11.6186 29.4719C11.5915 30.107 11.4785 30.7442 11.2177 31.34C11.0822 31.6498 10.8608 31.8925 10.6239 32.1243C10.5386 31.9093 10.478 31.6808 10.3256 31.4994C10.1991 31.349 10.3347 31.2645 10.4031 31.1689C10.8582 30.5305 11.1061 29.8101 10.7781 29.0839C10.529 28.532 10.5399 28.1337 10.8659 27.6289C11.1842 27.1332 11.1448 26.5186 11.1261 25.937Z" fill="#7A8A9A"/>
<path id="Vector_34" d="M3.69369 21.3867C3.54329 22.1504 3.56717 22.9237 3.5704 23.6957C3.57169 24.0546 3.44065 24.3838 3.24183 24.6563C2.65376 25.4612 2.53886 26.3436 2.74478 27.2854C2.87001 27.8599 2.87259 28.4267 2.80998 29.0096C2.75059 29.5648 2.76479 30.1283 3.01654 30.6499C3.26184 31.1592 3.29799 31.7137 3.28895 32.2527C3.27475 33.1099 3.58912 33.8129 4.11198 34.4545C4.15782 34.5107 4.27272 34.5456 4.20429 34.6572C3.43936 34.0356 3.08884 33.2119 3.05205 32.2462C3.03333 31.7556 2.92682 31.298 2.6912 30.8635C2.41105 30.3478 2.32391 29.7984 2.45301 29.2155C2.62859 28.4228 2.52466 27.6431 2.33359 26.8639C2.15865 26.1513 2.26452 25.4606 2.71638 24.8809C3.17534 24.2915 3.27023 23.6234 3.30703 22.9211C3.33414 22.386 3.38062 21.8515 3.69369 21.3867Z" fill="#FAFAFA"/>
<path id="Vector_35" d="M29.6356 25.8046C30.1075 25.7252 30.591 25.7485 31.0551 25.5852C32.1015 25.2172 32.6005 24.3929 32.9226 23.4124C32.9613 23.2942 32.9704 23.1658 32.9684 23.0257C32.6166 23.9836 32.0434 24.7447 31.1184 25.1998C32.1267 24.4504 32.4862 23.3375 32.7741 22.1962C32.8619 21.8496 32.8509 21.4758 32.7883 21.1176C32.7296 20.7825 32.5527 20.523 32.2228 20.3907C32.3313 20.0202 32.4901 19.9711 32.7877 20.2067C33.1911 20.5256 33.2834 20.9885 33.2989 21.4468C33.346 22.8437 33.031 24.1418 32.1893 25.294C31.7129 25.9454 31.0758 26.0925 30.3418 25.977C30.1062 25.9402 29.8486 25.9512 29.6356 25.8046Z" fill="#000515"/>
<path id="Vector_36" d="M9.95969 32.1293C10.203 33.1873 9.90934 33.8651 8.92751 34.3505C7.834 34.8908 6.67595 35.1781 5.44366 35.0903C5.31391 35.0503 5.15512 35.1103 5.05312 34.976C5.02149 34.9328 4.98599 34.8921 4.95888 34.8463C4.86657 34.6862 4.61353 34.5319 4.7252 34.368C4.81235 34.2402 5.08669 34.3137 5.27583 34.348C6.37127 34.5468 7.45702 34.5042 8.50211 34.1207C9.25543 33.8438 9.74279 32.9808 9.62467 32.1106C9.60917 31.9944 9.53881 31.9447 9.43036 31.9337C9.75183 31.7407 9.75183 31.7407 9.95969 32.1293Z" fill="#7A8A9A"/>
<path id="Vector_37" d="M9.88344 28.7184C9.77241 28.7371 9.66268 28.7591 9.57101 28.832C7.55959 29.513 5.70244 29.1645 3.97052 27.989C4.06089 27.8657 4.16547 27.9561 4.26036 27.9748C5.14213 28.1497 6.01939 28.3459 6.92182 28.4066C7.70999 28.4602 8.48267 28.4053 9.24374 28.1942C9.26052 28.608 9.6588 28.5577 9.88344 28.7184Z" fill="#08081C"/>
<path id="Vector_38" d="M41.313 26.8121C41.3034 26.7992 41.2924 26.7863 41.2808 26.7747C40.9728 26.4862 40.7476 26.124 40.4474 25.829C40.1311 25.4172 39.7819 25.0363 39.4036 24.6813C39.0144 24.2759 38.6135 23.8828 38.1771 23.5271C38.1035 23.4671 38.0203 23.4154 37.9912 23.316C37.9757 22.9855 37.6381 23.0204 37.4716 22.8616C37.4419 22.8332 37.398 22.8196 37.3586 22.8022C37.2573 22.7583 37.0823 22.7441 37.134 22.5943C37.1811 22.4588 37.3347 22.5272 37.447 22.5524C37.4677 22.5569 37.4877 22.5659 37.5071 22.573C37.5329 22.5827 37.5568 22.5956 37.58 22.6098C37.6478 22.6647 37.7265 22.6363 37.8014 22.6357C37.8143 22.6344 37.8272 22.6324 37.8402 22.6311C38.383 22.8816 38.8239 23.2779 39.2693 23.6614C40.4435 24.6735 41.3608 25.8974 42.1587 27.2175C42.0418 27.3298 42.0696 27.5216 41.9321 27.6319C41.8643 27.539 41.7985 27.4473 41.732 27.3557C41.6422 27.2808 41.579 27.1833 41.508 27.0929L41.5119 27.0975C41.4531 26.9974 41.3563 26.9232 41.313 26.8121Z" fill="#7A8A9A"/>
<path id="Vector_39" d="M21.433 11.9989C21.526 12.4075 21.4492 12.7619 21.2775 13.1647C20.8133 14.2511 20.8172 15.3285 21.2891 16.4775C21.9094 17.988 22.7157 19.3707 23.6291 20.7069C23.7795 20.9264 24.0332 21.049 24.1481 21.2963C23.5678 21.0826 23.1675 20.6462 22.8215 20.1672C21.8487 18.8213 21.1432 17.347 20.7682 15.7229C20.6294 15.1206 20.7191 14.5332 20.8921 13.9516C21.1438 13.104 21.1955 12.2448 21.0051 11.3792C20.9586 11.1668 21.0457 11.0339 21.1858 10.9067C21.2213 10.8118 21.2884 10.7763 21.3872 10.8002C21.4253 10.8221 21.4679 10.8583 21.4434 10.8983C21.2181 11.2637 21.4259 11.6316 21.433 11.9989Z" fill="#FAF8F6"/>
<path id="Vector_40" d="M12.1492 18.0649C12.1215 18.571 11.9059 19.0332 11.7974 19.5212C11.6309 20.2668 11.7271 20.9833 11.8491 21.7076C11.8994 22.0071 11.8839 22.3027 11.8775 22.601C11.6845 21.7624 11.2487 21.0853 10.5464 20.5792C10.1849 20.3184 9.75307 20.2087 9.3677 20.0015C9.34639 19.8982 9.12627 19.9479 9.19147 19.7859C9.23795 19.6703 9.36124 19.6729 9.46452 19.6503C9.63365 19.6129 9.80213 19.6284 9.97319 19.6432C10.9182 19.7265 11.3126 19.4909 11.7025 18.6175C11.7942 18.4129 11.8684 18.1998 11.9982 18.0152C12.0317 17.9675 12.0737 17.8997 12.1499 17.9533C12.1918 17.983 12.1763 18.0275 12.1492 18.0649Z" fill="#7A8A9A"/>
<path id="Vector_41" d="M27.8301 20.8388C27.6429 20.7562 27.7107 20.6697 27.8385 20.6129C28.2987 20.4083 28.7216 20.141 29.0992 19.8124C29.289 19.6478 29.5439 19.613 29.7221 19.4316C30.5509 18.5898 31.3294 17.7184 31.5418 16.4964C31.5638 16.3712 31.5579 16.2408 31.5715 16.1136C31.5831 16.002 31.5321 15.8806 31.616 15.7754C31.7929 15.951 31.7929 15.951 31.8755 16.2957C31.8872 16.1614 31.8949 16.0685 31.9033 15.9755C31.9808 16.2886 31.9814 16.6017 31.9014 16.9141C31.8601 16.8708 31.8381 16.8269 31.8639 16.8031C31.8678 16.8818 31.8368 16.9851 31.8852 17.091C31.8207 17.6945 31.5818 18.2316 31.1848 18.6789C30.2714 19.7098 29.1386 20.4141 27.8301 20.8388Z" fill="#7A8A9A"/>
<path id="Vector_42" d="M11.2455 13.7451C11.4204 14.0769 11.6735 14.3771 11.6929 14.8502C11.3707 14.5288 11.0835 14.2848 10.6697 14.2467C9.76535 14.1647 9.09917 14.8076 8.80547 15.548C8.42655 16.5015 8.4698 17.4788 8.71832 18.4561C8.77835 18.693 8.84871 18.928 8.91391 19.1636C9.04237 19.394 9.19923 19.6212 8.99718 19.8891C8.94231 19.8807 8.8868 19.8653 8.87583 19.8033C8.72478 18.9828 8.39104 18.2056 8.30906 17.3684C8.22127 16.4782 8.29809 15.6158 8.73962 14.8173C9.24248 13.9091 10.1591 13.4611 11.0699 13.6709C11.1306 13.6864 11.1868 13.7206 11.2455 13.7451Z" fill="#FBF9F7"/>
<path id="Vector_43" d="M31.1848 35.2273C31.4191 35.2221 31.3772 35.3306 31.2777 35.4577C31.2371 35.51 31.1157 35.5242 31.179 35.623C31.2261 35.6972 31.3132 35.6462 31.3843 35.6507C31.7664 35.6753 32.1479 35.7121 32.5288 35.7534C32.5952 35.7605 32.6779 35.7824 32.7056 35.9251C32.2899 35.9089 31.8845 35.9218 31.485 35.9935C30.4057 36.1994 29.4419 36.6745 28.522 37.2555C28.4678 37.2897 28.4136 37.3265 28.3432 37.3039C28.2419 37.2439 28.2509 37.1354 28.2283 37.0405C28.3129 36.2227 28.6828 35.7643 29.4445 35.5326C29.9648 35.4764 30.4825 35.408 30.9737 35.2111C31.0434 35.1834 31.1183 35.1679 31.1848 35.2273Z" fill="#7A8A9A"/>
<path id="Vector_44" d="M38.006 23.2975C38.5024 23.7229 39.0259 24.1186 39.4526 24.6208C39.4914 24.7409 39.5301 24.861 39.3248 24.8338C37.986 23.7113 36.5239 22.8005 34.8604 22.2363C34.6687 22.1711 34.4757 22.1046 34.2788 22.0601C34.1588 22.033 34.0806 21.9936 34.0781 21.8619C34.0819 21.7631 34.0852 21.6644 34.089 21.5656C34.1884 21.4384 34.3092 21.5191 34.4131 21.5443C35.2942 21.7586 36.1495 22.0588 36.9196 22.5339C37.2921 22.763 37.7362 22.9134 38.006 23.2975Z" fill="#EFF6FA"/>
<path id="Vector_45" d="M30.988 36.3872C31.0745 36.3969 31.1823 36.4117 31.1991 36.4995C31.2165 36.5944 31.1294 36.6415 31.0325 36.6525C30.9531 36.6609 30.9073 36.7313 30.9338 36.7881C31.09 37.1218 30.7698 37.3329 30.733 37.615C30.0229 37.8125 29.491 38.2443 29.1012 38.8608C29.0327 38.9686 28.9895 39.0932 28.901 39.1868C28.8171 39.2759 28.8952 39.314 28.9443 39.3643C28.7713 39.5541 28.5976 39.6684 28.4169 39.3727C28.1606 38.6588 28.4698 38.1146 28.9759 37.6627C29.5278 37.1696 30.1637 36.7894 30.804 36.4208C30.8608 36.3885 30.9209 36.3665 30.988 36.3872Z" fill="#7A8A9A"/>
<path id="Vector_46" d="M20.5972 6.37648C20.7508 6.25835 20.9296 6.31386 21.0936 6.31903C21.8152 6.34226 22.5305 6.43135 23.2451 6.53334C22.6092 6.65599 21.9553 6.64178 21.3324 6.82898C20.5804 7.05556 20.0136 7.49322 19.7948 8.27429C19.7276 8.51249 19.758 8.77844 19.7425 9.05666C19.4991 8.96951 19.3455 8.79587 19.1802 8.63836C18.9543 7.8418 19.2913 7.15239 20.1253 6.7186C20.5081 6.51914 20.9154 6.41069 21.335 6.41456C21.1026 6.36357 20.8392 6.56432 20.5972 6.37648Z" fill="#011E3C"/>
<path id="Vector_47" d="M8.99655 19.8898C9.06562 19.6368 8.91199 19.4096 8.91328 19.1643C9.04432 19.0758 9.10629 19.1972 9.17858 19.2592C9.68983 19.7007 10.58 19.6529 11.0222 19.1494C11.4063 18.7118 11.5786 18.1663 11.7381 17.6267C11.9362 16.9534 12.1176 16.2769 12.3836 15.6256C12.4107 15.5584 12.4075 15.479 12.4184 15.4048C12.5217 15.754 12.4946 16.1116 12.4352 16.4576C12.2854 17.3297 12.2183 18.205 12.2654 19.0887C12.157 18.8777 12.2312 18.6504 12.2067 18.4316C12.1925 18.309 12.2512 18.174 12.1499 18.065C12.1325 17.9501 12.0976 17.9681 12.0563 18.0533C11.9111 18.3503 11.7774 18.6537 11.6193 18.9435C11.141 19.8208 10.6749 19.7723 9.87445 19.7207C9.70145 19.7097 9.45938 19.7226 9.23539 19.802C9.3703 19.875 9.40581 19.9292 9.36837 20.0015C9.22893 20.0138 9.11145 19.9557 8.99655 19.8898Z" fill="#7A8A9A"/>
<path id="Vector_48" d="M39.8981 31.4309C39.9394 31.4683 39.9807 31.5058 40.022 31.5439C39.5876 31.8976 39.3668 32.3734 39.2564 32.9078C39.2384 32.9969 39.2112 33.1144 39.2874 33.1841C39.3836 33.2726 39.4559 33.1493 39.5411 33.1222C40.428 32.8407 41.5835 33.0989 42.0218 34.0156C41.3718 33.687 40.6901 33.5056 39.9542 33.5495C39.5973 33.5708 39.2558 33.656 38.9233 33.7722C38.6994 33.8509 38.6258 33.7612 38.6077 33.5663C38.5845 33.319 38.5883 33.0757 38.7194 32.8491C39.0324 32.3095 39.3952 31.8124 39.8981 31.4309Z" fill="#7A8A9A"/>
<path id="Vector_49" d="M25.1757 2.57763C24.7729 2.66155 24.363 2.72093 23.968 2.8339C22.8596 3.14956 21.9236 3.72729 21.2839 4.72849C21.5215 4.54129 21.759 4.35473 21.9966 4.16753C22.0172 4.19077 22.0379 4.21401 22.0585 4.2379C21.626 4.62456 21.3026 5.10676 20.8824 5.50052C20.783 5.59348 20.6003 5.58444 20.4673 5.4747C21.118 3.9132 22.2128 2.87134 23.9215 2.59248C24.3301 2.52534 24.7574 2.57892 25.1757 2.57763Z" fill="#013457"/>
<path id="Vector_50" d="M38.006 23.2975C37.2681 22.8089 36.5187 22.3428 35.6834 22.0323C35.1625 21.8387 34.6383 21.6599 34.089 21.5656C34.0735 21.0085 34.0774 20.9963 34.6151 21.1518C35.6879 21.4623 36.7207 21.869 37.6496 22.5048C37.6477 22.5636 37.6277 22.6133 37.5735 22.6436C37.4373 22.6752 37.3159 22.5294 37.1597 22.641C37.4302 22.6456 37.5696 22.9057 37.8452 22.9335C38.004 22.9489 38.0815 23.1168 38.006 23.2975Z" fill="#7A8A9A"/>
<path id="Vector_51" d="M10.296 21.2777C10.2528 21.4456 10.4529 21.5617 10.3993 21.716C8.68868 20.5489 6.80249 20.2501 4.78719 20.5767C4.71812 20.6187 4.66196 20.6335 4.6626 20.5205C5.21968 20.1945 5.83873 20.1261 6.46101 20.1339C7.6649 20.1474 8.82747 20.363 9.89128 20.9659C10.0397 21.0499 10.1869 21.1402 10.296 21.2777Z" fill="#F9FAF7"/>
<path id="Vector_52" d="M30.8621 39.4865C30.8737 39.5981 30.8298 39.715 30.8892 39.826C31.0002 39.8105 31.0422 39.7118 31.1164 39.6562C31.2972 39.5213 31.4695 39.4064 31.6522 39.6582C31.7316 39.7673 31.8633 39.7343 31.9782 39.7447C32.128 39.7582 32.2939 39.693 32.4727 39.8454C32.0712 39.9254 31.7187 40.0197 31.3475 39.99C31.1681 39.8706 31.1061 40.0552 31.0235 40.1326C30.6523 40.4793 30.4212 40.9305 30.1411 41.3456C29.9526 41.6244 29.8228 41.6438 29.5072 41.4559C29.4813 41.3953 29.4265 41.3494 29.4149 41.281C29.5233 40.955 29.6731 40.6516 29.8796 40.3753C30.1482 40.0164 30.4412 39.673 30.6317 39.2605C30.6704 39.1773 30.6956 39.0488 30.8195 39.0824C30.9447 39.1166 30.8795 39.2457 30.8912 39.3335C30.8976 39.3858 30.9008 39.4413 30.8621 39.4865Z" fill="#7A8A9A"/>
<path id="Vector_53" d="M28.9449 39.3643C28.8687 39.3327 28.7654 39.4482 28.7151 39.3417C28.6757 39.2597 28.7809 39.2203 28.8267 39.1674C28.9881 38.9808 29.0746 38.7491 29.2199 38.5496C29.5736 38.0636 30.0829 37.806 30.5845 37.5291C30.6807 37.4762 30.7226 37.5188 30.733 37.6149C30.6729 37.7253 30.6129 37.8357 30.5212 38.0042C30.9008 37.8267 31.2055 37.6182 31.5857 37.6104C31.9723 37.6033 32.2661 37.806 32.5707 38.0248C32.2945 37.9706 32.0195 38.0184 31.7458 37.9913C31.5005 37.9196 31.2971 38.0513 31.0854 38.1326C30.9686 38.1778 30.8601 38.2437 30.731 38.2508C30.1668 38.4502 29.7111 38.8266 29.2373 39.1732C29.1437 39.2423 29.0423 39.301 28.9449 39.3643Z" fill="#7A8A9A"/>
<path id="Vector_54" d="M22.4142 22.3862C21.3491 22.9381 20.3737 23.6333 19.3757 24.2924C18.8645 24.63 18.31 24.7656 17.7116 24.7772C17.6335 24.792 17.5386 24.8656 17.5057 24.7191C18.1919 24.6629 18.747 24.3292 19.2899 23.9322C20.2298 23.2454 21.198 22.5973 22.2689 22.1241C22.3903 22.0705 22.5071 21.9808 22.6782 22.0124C22.5846 22.1448 22.4994 22.2655 22.4142 22.3862Z" fill="#F0F6F9"/>
<path id="Vector_55" d="M31.5703 40.973C32.6928 41.7353 33.9496 41.6972 35.2065 41.5346C35.7777 41.4603 36.269 41.1492 36.5866 40.636C36.6815 40.483 36.7299 40.5088 36.7835 40.6528C36.8951 40.8206 36.8061 40.9342 36.6789 41.0375C36.5595 41.2047 36.4904 41.4061 36.3342 41.5488C36.2658 41.5436 36.2683 41.357 36.127 41.5023C35.9146 41.7205 35.6209 41.8231 35.3259 41.8935C34.5222 42.0852 33.7147 42.0987 32.9071 41.9161C32.6974 41.8683 32.4637 41.929 32.2862 41.7211C32.2016 41.6211 32.108 41.7882 32.0163 41.8296C31.8775 41.8676 31.8014 41.7947 31.7478 41.6804C31.742 41.6508 31.7497 41.6236 31.7678 41.601C31.7827 41.5888 31.7994 41.5759 31.8169 41.5636C31.7814 41.5216 31.7543 41.5914 31.7187 41.5701C31.5438 41.4087 31.4418 41.2202 31.487 40.9743C31.5148 40.9433 31.5425 40.9433 31.5703 40.973Z" fill="#7A8A9A"/>
<path id="Vector_56" d="M18.9866 27.2913C19.0673 27.1041 18.9691 26.9447 18.8956 26.7884C18.6664 26.3037 18.4198 25.8286 18.0635 25.42C18.0293 25.3812 18.0131 25.327 17.9602 25.2244C18.3675 25.369 18.6212 25.6317 18.8684 25.8944C19.3468 26.4024 19.6779 26.9937 19.8393 27.6786C19.86 27.7658 19.8683 27.8729 19.9561 27.9355C19.9193 28.1879 19.8625 28.4339 19.736 28.6843C19.4791 28.2066 19.2325 27.749 18.9866 27.2913Z" fill="#01274A"/>
<path id="Vector_57" d="M29.2483 3.2821C28.6989 2.79667 28.1625 2.29381 27.4873 1.9646C27.892 2.03173 28.2987 2.06272 28.668 2.24927C28.8274 2.47843 29.0785 2.59785 29.3154 2.69597C29.735 2.86961 30.1662 3.02066 30.6013 3.15687C30.9356 3.33697 31.4843 4.05413 31.616 4.51826C31.2423 4.14063 30.9795 3.7133 30.5012 3.48221C30.5174 3.75139 30.773 3.86112 30.8588 4.09803C30.6807 4.09545 30.6258 3.96182 30.5341 3.89017C30.1675 3.60485 29.7389 3.43444 29.3238 3.23949C29.3083 3.23239 29.2734 3.2679 29.2476 3.28339C29.2476 3.28274 29.2483 3.2821 29.2483 3.2821Z" fill="#012040"/>
<path id="Vector_58" d="M31.9562 41.8135C32.1215 41.5766 32.2867 41.3584 32.4797 41.7928C32.4862 41.8077 32.5088 41.8238 32.5249 41.8251C33.5978 41.9252 34.6784 42.1182 35.7209 41.6708C35.9378 41.5779 36.1243 41.4133 36.3238 41.2822C36.42 41.3881 36.2115 41.4643 36.3335 41.5482C36.0533 41.9594 35.6344 42.1162 35.169 42.206C34.6609 42.3041 34.1439 42.2447 33.6352 42.3183C33.0781 42.4138 32.5559 42.3176 32.0724 42.0239C32.0001 41.9794 31.9362 41.9161 31.9562 41.8135Z" fill="#7A8A9A"/>
<path id="Vector_59" d="M21.3685 10.8268C21.3072 10.8532 21.2465 10.8797 21.1852 10.9055C21.058 10.8978 20.916 10.9139 21.0167 10.7035C21.1336 10.4582 21.1052 10.1903 21.109 9.92822C21.2594 9.90563 21.3298 9.73457 21.4873 9.7236C22.0941 9.5506 22.5298 9.66356 22.8526 10.0773C22.9417 10.2071 23.1276 10.3381 23.0585 10.484C23.0017 10.6047 22.7848 10.5447 22.6383 10.5589C22.322 10.5899 21.9934 10.5344 21.6965 10.697C21.6042 10.7829 21.4867 10.8055 21.3685 10.8268Z" fill="#0A0D25"/>
<path id="Vector_60" d="M20.5972 6.37665C20.8754 6.37665 21.153 6.37665 21.4312 6.37665C20.8915 6.53415 20.3461 6.63098 19.88 6.98472C19.3442 7.3914 19.0589 7.87295 19.2242 8.55913C19.2293 8.58108 19.1958 8.61207 19.1809 8.63853C18.8704 8.25768 18.5922 7.85939 18.8097 7.33846C18.9802 6.9305 19.3307 6.69037 19.7251 6.54254C20.0001 6.43991 20.2931 6.35922 20.5972 6.37665Z" fill="#013559"/>
<path id="Vector_61" d="M29.4387 35.6101C28.8093 35.8522 28.3407 36.2318 28.2787 36.9625C28.2761 36.9902 28.2458 37.0154 28.2284 37.0419C28.0831 36.4093 28.4091 35.9903 28.8816 35.656C29.5517 35.1821 30.3301 35.0466 31.1261 34.9775C31.2009 34.9711 31.2855 34.9891 31.3494 34.9601C31.9775 34.6786 32.5139 34.9149 33.0368 35.2448C33.6888 35.656 34.3414 36.0665 34.9934 36.477C34.8436 36.559 34.7429 36.4325 34.6493 36.3705C33.9876 35.9329 33.2705 35.5946 32.5862 35.197C32.1421 34.9381 31.6586 34.8768 31.1842 35.1621C30.7207 35.3539 30.2075 35.3384 29.7382 35.5107C29.6407 35.5462 29.5323 35.5585 29.4387 35.6101Z" fill="#F6EAE5"/>
<path id="Vector_62" d="M28.3433 37.3044C29.26 36.6453 30.2515 36.1541 31.374 35.9579C31.4153 35.9508 31.4592 35.9482 31.485 35.994C31.3295 36.1593 31.0919 36.1786 30.9189 36.3129C30.7931 36.4865 30.5891 36.5414 30.4128 36.6318C29.868 36.9106 29.3761 37.2599 28.9307 37.6775C28.8565 37.7472 28.7978 37.8531 28.6661 37.8021C28.5602 37.6349 28.3653 37.5258 28.3433 37.3044Z" fill="#0B0C1F"/>
<path id="Vector_63" d="M31.9562 41.8134C32.2732 42.1529 32.7012 42.2039 33.1259 42.2613C33.295 42.2839 33.4654 42.2994 33.6352 42.3181C33.5855 42.5376 33.5055 42.7319 33.2492 42.7771C33.2221 42.7584 33.1924 42.7455 33.1601 42.7403C32.8328 42.7177 32.5223 42.8139 32.2086 42.8778C31.8891 42.943 31.5689 42.9288 31.2481 42.923C31.1835 42.9217 31.1196 42.9107 31.0609 42.8823C31.0041 42.8539 30.9357 42.8262 30.9357 42.7519C30.9357 42.6719 31.0118 42.6564 31.0706 42.639C31.2552 42.5835 31.4424 42.5344 31.6199 42.4582C31.9498 42.3162 31.9524 42.2904 31.7787 41.9741C31.7213 41.8689 31.5496 41.7436 31.7652 41.6184C31.7961 41.7152 31.8704 41.7701 31.9562 41.8134Z" fill="#0C0D1D"/>
<path id="Vector_64" d="M39.8348 34.1233C39.8658 34.1297 39.9065 34.1265 39.9265 34.1452C40.0033 34.2156 39.9097 34.1885 39.8929 34.1924C38.995 34.3918 38.2165 34.8624 37.4187 35.2852C36.8287 35.5983 36.271 35.9733 35.6551 36.2361C35.5073 36.2993 35.3556 36.4026 35.1749 36.3413C36.3039 35.6035 37.4284 34.8566 38.7187 34.4151C39.0828 34.2911 39.4488 34.1691 39.8348 34.1233Z" fill="#F8F3F0"/>
<path id="Vector_65" d="M5.75866 35.3596C6.30993 35.4784 6.86637 35.4358 7.42216 35.4145C7.53125 35.4474 7.6526 35.388 7.76428 35.4577C7.5816 35.5371 7.34469 35.3925 7.22011 35.5436C7.12264 35.6617 7.29628 35.865 7.20074 36.0322C7.18525 36.0587 7.2072 36.1123 7.16911 36.1426C6.49326 36.0768 5.87163 35.8599 5.30745 35.4803C5.28356 35.368 5.24806 35.2854 5.44365 35.3351C5.52886 35.357 5.64505 35.6236 5.75866 35.3596Z" fill="#7A8A9A"/>
<path id="Vector_66" d="M28.6654 37.8029C29.3355 37.1845 30.0513 36.6345 30.9176 36.3137C30.9408 36.3383 30.9641 36.3634 30.9873 36.388C30.4231 36.7669 29.8222 37.0858 29.2877 37.5144C28.7093 37.9785 28.2413 38.4704 28.4653 39.2954C28.4705 39.3154 28.4337 39.3464 28.4169 39.3728C28.1135 38.9384 28.1187 38.5608 28.4362 38.1083C28.5098 38.0037 28.5892 37.9043 28.6654 37.8029Z" fill="#F7F0E8"/>
<path id="Vector_67" d="M16.4632 26.7239C15.7641 26.926 15.0708 27.1558 14.3304 27.1545C14.3169 26.8569 14.4447 26.731 14.7558 26.7084C15.1257 26.6813 15.5008 26.6142 15.8545 26.5045C16.145 26.4141 16.3173 26.4935 16.4632 26.7239Z" fill="#FAF9F6"/>
<path id="Vector_68" d="M33.3874 16.4518C33.3551 16.4485 33.3216 16.4518 33.2919 16.4414C33.2099 16.4137 33.2454 16.3956 33.2996 16.3846C33.3603 16.3724 33.4326 16.3846 33.4571 16.2865C33.1331 16.1426 32.6973 16.2458 32.474 15.8676C32.9943 15.9896 33.4959 16.1374 34.0426 15.8882C34.4493 15.703 34.7359 15.4157 35.007 15.0955C35.1064 14.978 35.1561 14.9748 35.2349 15.091C34.8004 15.7901 34.2246 16.2981 33.3874 16.4518Z" fill="#7A8A9A"/>
<path id="Vector_69" d="M31.6155 3.00049C32.7464 3.37101 33.3558 4.6175 33.4836 5.82397C33.226 5.30046 33.015 4.77824 32.7058 4.3012C32.3946 3.81965 32.0047 3.41233 31.6155 3.00049Z" fill="#011C3A"/>
<path id="Vector_70" d="M25.2913 2.11611C26.3958 2.04058 27.4176 2.2607 28.2923 2.98949C27.2963 2.6861 26.3093 2.34978 25.2913 2.11611Z" fill="#012243"/>
<path id="Vector_71" d="M33.2273 42.7114C33.2344 42.7334 33.2421 42.7553 33.2492 42.7773C32.7134 43.1446 32.1138 43.3273 31.4721 43.3557C30.6336 43.3925 30.1062 42.7753 30.3031 41.962C30.4767 41.2461 30.824 40.6064 31.303 40.0422C31.3211 40.1236 31.2823 40.192 31.2507 40.2611C31.1694 40.6897 30.8899 41.0279 30.7214 41.4172C30.6052 41.6844 30.518 41.9523 30.4761 42.2402C30.4451 42.4532 30.4761 42.6424 30.6103 42.8121C30.8602 43.0949 31.1861 43.1762 31.5412 43.1381C32.0098 43.0884 32.474 43.0142 32.9013 42.7928C33 42.7418 33.0988 42.6566 33.2273 42.7114Z" fill="#EDDBD4"/>
<path id="Vector_72" d="M25.3784 23.3523C25.0834 22.9682 24.7878 22.5835 24.4928 22.1994C24.5393 22.0381 24.6613 22.1329 24.7381 22.1433C24.9556 22.1717 25.1693 22.2253 25.3849 22.2685C25.4449 22.59 25.5043 22.9114 25.5644 23.2329C25.6186 23.3162 25.6392 23.4233 25.5566 23.473C25.4656 23.5273 25.4275 23.4104 25.3784 23.3523Z" fill="#F9F8F3"/>
<path id="Vector_73" d="M32.1576 13.4855C32.155 13.4597 32.1531 13.4339 32.1505 13.4081C32.4984 12.9756 32.8754 12.5689 33.2827 12.1925C33.5765 11.9208 33.9173 11.7291 34.322 11.6703C34.5848 11.6322 34.8275 11.6845 35.0547 11.8182C34.9843 11.8859 34.8804 11.8924 34.8165 11.8588C34.3834 11.629 34.0761 11.8317 33.7843 12.1286C33.7288 12.1848 33.6429 12.2113 33.5713 12.2519C33.5164 12.4553 33.3008 12.4985 33.1833 12.6399L33.184 12.6392C33.1323 12.7587 33.0413 12.84 32.9277 12.8981C32.6708 13.0937 32.4145 13.2899 32.1576 13.4855Z" fill="#7A8A9A"/>
<path id="Vector_74" d="M29.5633 23.4679C28.6467 24.1244 27.6461 24.6053 26.561 24.9119C26.3867 24.9609 26.2189 25.0345 26.0478 25.0971C25.9736 25.0965 25.9 25.0959 25.8264 25.0952L25.8335 25.1023C25.8832 24.9906 25.9923 24.9919 26.0885 24.9584C27.2724 24.551 28.4253 24.0746 29.4955 23.4169C29.5639 23.3736 29.5698 23.413 29.5633 23.4679Z" fill="#7A8A9A"/>
<path id="Vector_75" d="M30.6013 3.15589C30.5975 3.25594 30.5342 3.25659 30.4716 3.22044C29.9875 2.94609 29.4 2.91769 28.943 2.57944C28.8313 2.49681 28.7074 2.42839 28.6073 2.33479C28.5363 2.2683 28.6203 2.25926 28.6687 2.24829C29.187 2.4271 29.7163 2.57621 30.1998 2.84797C30.3515 2.93318 30.4561 3.06939 30.6013 3.15589Z" fill="#013655"/>
<path id="Vector_76" d="M23.4541 22.0664C22.9784 22.6796 22.5227 23.3039 22.3852 24.0953C22.3652 24.2115 22.349 24.3276 22.3309 24.4438C22.3013 24.4658 22.2851 24.458 22.2825 24.4212C22.3019 23.4988 22.6434 22.7061 23.2489 22.0193C23.336 21.9515 23.3973 21.9967 23.4541 22.0664Z" fill="#7A8A9A"/>
<path id="Vector_77" d="M30.4832 38.5789C30.5303 38.6111 30.5354 38.6589 30.5335 38.7099C30.1817 39.1204 29.7356 39.4432 29.44 39.9093C29.2728 40.1726 29.1237 40.4379 29.0391 40.7387C29.0236 40.7665 29.001 40.7852 28.9701 40.7949C28.7996 40.529 28.9003 40.2837 29.0449 40.0558C29.4206 39.4632 29.9048 38.9739 30.4832 38.5789Z" fill="#F2E0DA"/>
<path id="Vector_78" d="M25.5591 25.325C25.1324 25.8595 24.8775 26.4863 24.605 27.1028C24.5315 27.2693 24.4695 27.441 24.4017 27.6101C24.3765 27.6308 24.352 27.6295 24.3294 27.6056C24.5553 26.7807 24.9433 26.028 25.3577 25.2869C25.4629 25.0991 25.6566 25.1172 25.8341 25.103C25.8341 25.103 25.8264 25.0952 25.827 25.0952C25.8205 25.1101 25.8186 25.1256 25.8218 25.1417C25.7702 25.2547 25.6701 25.2979 25.5591 25.325Z" fill="#C7E7F5"/>
<path id="Vector_79" d="M21.4349 9.7925C21.3536 9.86093 21.2761 9.93581 21.189 9.99713C21.0973 10.0617 21.1328 9.95517 21.1089 9.92871C21.2368 9.40584 21.3291 8.87071 21.6299 8.40723C21.6512 8.78033 21.3923 9.09405 21.4059 9.46781C21.4085 9.53946 21.3594 9.6124 21.4407 9.66856C21.4782 9.71181 21.4769 9.75313 21.4349 9.7925Z" fill="#EEE5E5"/>
<path id="Vector_80" d="M16.9351 25.0907C16.5729 25.3108 16.1463 25.3056 15.757 25.4302C15.7118 25.3915 15.5885 25.3211 15.655 25.3037C16.0669 25.1965 16.4567 24.9429 16.9118 25.07C16.9202 25.072 16.9273 25.0836 16.9351 25.0907Z" fill="#CCE6F3"/>
<path id="Vector_81" d="M21.7681 5.7304C22.0483 5.56256 22.3601 5.62195 22.6622 5.60323C22.8791 5.59032 23.1056 5.66714 23.3116 5.54126C23.3955 5.54126 23.4794 5.54126 23.564 5.54126C22.9849 5.82335 22.371 5.72136 21.7681 5.7304Z" fill="#01345F"/>
<path id="Vector_82" d="M36.6782 41.0368C36.713 40.9084 36.7479 40.7805 36.7827 40.6521C36.8337 40.3984 36.8841 40.1447 36.9351 39.8904C37.05 40.1318 36.997 40.3797 36.9557 40.6243C36.9299 40.7799 36.9067 40.9335 36.9273 41.091C36.8447 41.0736 36.7614 41.0549 36.6782 41.0368Z" fill="#341617"/>
<path id="Vector_83" d="M4.39795 23.8674C4.6497 23.7286 4.8369 23.9248 5.04927 23.9932C5.00021 24.0707 5.03636 24.1914 4.92534 24.2372C4.74976 24.1139 4.57417 23.9906 4.39795 23.8674Z" fill="#200F1C"/>
<path id="Vector_84" d="M7.8017 24.5195C8.48336 24.5208 9.16503 24.5221 9.84669 24.524C9.16438 24.6764 8.48336 24.6041 7.8017 24.5195Z" fill="#D09B9B"/>
<path id="Vector_85" d="M30.731 38.2515C30.9595 38.1508 31.1848 38.0397 31.4185 37.9532C31.5218 37.9151 31.6457 37.9042 31.7451 37.992C31.3985 38.0184 31.0983 38.1772 30.7936 38.3238C30.773 38.2992 30.7523 38.2753 30.731 38.2515Z" fill="#7A8A9A"/>
<path id="Vector_86" d="M24.3302 27.6057C24.354 27.607 24.3779 27.6089 24.4025 27.6102C24.2953 27.9233 24.2404 28.2532 24.0823 28.5488C24.0958 28.2164 24.1933 27.9059 24.3302 27.6057Z" fill="#A1C4E2"/>
<path id="Vector_87" d="M29.4465 41.2859C29.4988 41.3311 29.5156 41.3892 29.5066 41.4563C29.2542 41.295 29.0715 41.0774 28.9695 40.794L28.9901 40.7766C29.2651 40.8366 29.3336 41.0813 29.4465 41.2859Z" fill="#F2E0DA"/>
<path id="Vector_88" d="M4.6626 20.5212C4.68971 20.5716 4.73877 20.5735 4.78719 20.5774C4.54706 20.6039 4.4115 20.8885 4.14038 20.8382C4.29143 20.6949 4.44442 20.5542 4.6626 20.5212Z" fill="#E1D2CF"/>
<path id="Vector_89" d="M22.2818 24.4219C22.2967 24.4322 22.3128 24.4393 22.3303 24.4445C22.3109 24.6962 22.4116 24.9551 22.2831 25.2004C22.2915 24.9402 22.1857 24.6814 22.2818 24.4219Z" fill="#7A8A9A"/>
<path id="Vector_90" d="M23.4541 22.0663C23.3857 22.0508 23.3173 22.0353 23.2482 22.0198C23.3283 21.8514 23.4245 21.7255 23.6259 21.8778C23.5858 21.9566 23.5368 22.0263 23.4541 22.0663Z" fill="#7A8A9A"/>
<path id="Vector_91" d="M25.5592 25.3249C25.616 25.2197 25.6857 25.1339 25.8213 25.1416C25.9155 25.303 25.7761 25.3811 25.6999 25.4811C25.627 25.4527 25.5824 25.3979 25.5592 25.3249Z" fill="#14395C"/>
<path id="Vector_92" d="M29.5633 23.4677C29.5408 23.4509 29.5188 23.4342 29.4962 23.4174C29.6854 23.2754 29.8648 23.1198 30.0856 23.0249C29.9707 23.2418 29.7583 23.3451 29.5633 23.4677Z" fill="#7A8A9A"/>
<path id="Vector_93" d="M24.0151 29.0269C23.9196 29.2567 23.9654 29.5252 23.824 29.7427C23.8389 29.491 23.7834 29.2205 24.0151 29.0269Z" fill="#7A8A9A"/>
<path id="Vector_94" d="M29.2477 3.28254C29.3768 3.40067 29.5065 3.5188 29.6356 3.63628C29.6143 3.65759 29.5924 3.67889 29.5711 3.69954C29.462 3.56205 29.2851 3.48975 29.2483 3.28125C29.2483 3.2819 29.2477 3.28254 29.2477 3.28254Z" fill="#012040"/>
<path id="Vector_95" d="M17.1475 25.1011C17.3773 25.1353 17.4521 25.3393 17.5483 25.5006C17.5735 25.5426 17.4831 25.4632 17.4418 25.4819C17.3437 25.3554 17.2456 25.2282 17.1475 25.1011Z" fill="#7BCCDE"/>
<path id="Vector_96" d="M26.082 25.594C25.982 25.5902 25.96 25.554 25.9639 25.5101C25.9717 25.4288 26.0188 25.3739 26.1021 25.3655C26.1589 25.3597 26.2183 25.3862 26.1905 25.4514C26.164 25.5146 26.1059 25.5643 26.082 25.594Z" fill="#022D60"/>
<path id="Vector_97" d="M17.5057 24.719C17.5606 24.7874 17.6458 24.7487 17.7116 24.7771C17.5173 24.8358 17.323 24.9185 17.1274 24.781C17.2533 24.7597 17.3792 24.739 17.5057 24.719Z" fill="#98D7EB"/>
<path id="Vector_98" d="M30.8641 22.3188C30.8182 22.5009 30.7253 22.6313 30.5181 22.6397C30.633 22.5325 30.7485 22.426 30.8641 22.3188Z" fill="#7A8A9A"/>
<path id="Vector_99" d="M35.2218 36.5132C35.3187 36.5345 35.3626 36.6068 35.4278 36.7068C35.2754 36.6778 35.1876 36.6132 35.1134 36.5254C35.1496 36.5209 35.1857 36.5171 35.2218 36.5132Z" fill="#72493A"/>
<path id="Vector_100" d="M37.5729 22.6429C37.5742 22.5835 37.5916 22.5326 37.649 22.5042C37.7297 22.5216 37.7975 22.5577 37.8395 22.6326L37.8304 22.6436C37.7446 22.6881 37.6587 22.6933 37.5729 22.6429Z" fill="#7A8A9A"/>
<path id="Vector_101" d="M23.7066 30.2031C23.806 30.3542 23.7905 30.5014 23.6949 30.6472C23.6988 30.4988 23.7027 30.3509 23.7066 30.2031Z" fill="#4D9AB4"/>
<path id="Vector_102" d="M31.8859 17.0914C31.7878 16.9907 31.8426 16.8778 31.8788 16.7642C31.8865 16.8145 31.8943 16.8649 31.902 16.9146C31.8962 16.9733 31.8911 17.0327 31.8859 17.0914Z" fill="#7A8A9A"/>
<path id="Vector_103" d="M30.3528 22.8203C30.3005 22.9384 30.2204 23.0198 30.0829 23.0275C30.1365 22.912 30.2237 22.839 30.3528 22.8203Z" fill="#7A8A9A"/>
<path id="Vector_104" d="M23.8266 29.7385C23.7962 29.8437 23.9137 29.9832 23.7517 30.0574C23.7711 29.9496 23.7188 29.825 23.8266 29.7385Z" fill="#7A8A9A"/>
<path id="Vector_105" d="M23.6969 30.6414C23.6704 30.7492 23.7595 30.8815 23.6259 30.9654C23.6426 30.8563 23.5904 30.7317 23.6969 30.6414Z" fill="#578AAA"/>
<path id="Vector_106" d="M32.2396 28.8862C32.3778 29.6725 32.3539 30.349 32.1764 31.041C31.964 31.8672 31.4411 32.4017 30.7601 32.8232C29.6427 33.5146 28.4014 33.6979 27.1201 33.6037C26.2964 33.543 25.5017 33.3203 24.7794 32.8929C24.7265 32.8613 24.6839 32.8129 24.6406 32.7477C26.2241 33.3745 27.7243 33.0382 29.1709 32.3462C30.642 31.6426 31.6554 30.4923 32.2396 28.8862Z" fill="#01294C"/>
<path id="Vector_107" d="M24.4005 29.3924C24.4012 29.0548 24.5974 28.8276 24.8834 28.8334C25.15 28.8392 25.3139 29.0322 25.3062 29.333C25.2984 29.6306 25.0822 29.8739 24.8259 29.8746C24.5432 29.8752 24.3999 29.7126 24.4005 29.3924Z" fill="#000718"/>
<path id="Vector_108" d="M25.4101 26.7134C25.6489 26.714 25.8161 26.8948 25.8167 27.1543C25.818 27.4105 25.5624 27.7204 25.3442 27.7281C25.1022 27.7365 24.8743 27.5061 24.8749 27.2537C24.8762 26.9755 25.1364 26.7127 25.4101 26.7134Z" fill="#00091B"/>
<path id="Vector_109" d="M39.3248 24.8339C39.4655 24.8216 39.4403 24.7099 39.4526 24.6208C39.8431 24.9675 40.1762 25.3658 40.4906 25.7808C40.5086 25.857 40.4783 25.888 40.4021 25.8744C40.0426 25.5272 39.6837 25.1805 39.3248 24.8339Z" fill="#D7F3F8"/>
<path id="Vector_110" d="M40.4022 25.8744C40.4319 25.8434 40.4615 25.8117 40.4906 25.7808C40.7798 26.0913 41.0419 26.4243 41.2807 26.7749C40.9186 26.5425 40.6985 26.1713 40.4022 25.8744Z" fill="#A1E9F3"/>
<path id="Vector_111" d="M21.4563 27.1629C21.3802 27.181 21.3033 27.1997 21.2272 27.2178C21.3214 27.008 21.4163 26.7982 21.5112 26.5884C21.6319 26.5832 21.6003 26.6536 21.577 26.7201C21.5545 26.8724 21.5306 27.0248 21.4563 27.1629Z" fill="#D1EEF4"/>
<path id="Vector_112" d="M42.3103 28.1047C42.422 28.1615 42.5156 28.2358 42.5892 28.3913C42.4291 28.3236 42.3503 28.2345 42.3103 28.1047Z" fill="#158DAA"/>
<path id="Vector_113" d="M21.5764 26.7199C21.5545 26.676 21.5325 26.6321 21.5106 26.5882C21.5409 26.4907 21.5641 26.3887 21.6894 26.3274C21.6635 26.4726 21.6506 26.6037 21.5764 26.7199Z" fill="#7ED2E3"/>
<path id="Vector_114" d="M41.5073 27.0938C41.6397 27.1318 41.6771 27.2513 41.7307 27.3565C41.5945 27.3216 41.5267 27.2287 41.5073 27.0938Z" fill="#57C0D4"/>
<path id="Vector_115" d="M41.313 26.8123C41.4137 26.8833 41.4918 26.9704 41.5112 27.0982C41.3879 27.0427 41.3033 26.9601 41.313 26.8123Z" fill="#71D2E1"/>
<path id="Vector_116" d="M26.35 10.1799C26.2131 10.1799 26.0756 10.1753 25.9388 10.1805C25.5386 10.1954 25.5386 10.1967 25.6283 9.79837C25.8136 9.3252 26.1938 9.08378 26.6663 9.02117C27.1078 8.96307 27.5616 8.95855 27.987 9.14898C28.2575 9.26582 28.5105 9.4117 28.73 9.61117C29.0921 10.0166 29.3316 10.4846 29.453 11.0139C29.4801 11.0829 29.4807 11.1443 29.4026 11.1817C29.3323 11.1972 29.2742 11.1688 29.2193 11.1307C28.8901 10.8473 28.5086 10.6537 28.1168 10.4749C27.9928 10.4181 27.8437 10.4 27.7604 10.2696C27.4893 10.1631 27.2079 10.1663 26.9245 10.1876C26.7321 10.2664 26.5391 10.3374 26.35 10.1799Z" fill="#080C22"/>
<path id="Vector_117" d="M28.1206 16.1801C27.9244 16.1975 27.8011 16.3414 27.6597 16.4505C27.3053 16.7249 26.9554 17.0044 26.6036 17.2826C26.5617 17.4253 26.4319 17.4685 26.3196 17.5247C25.3752 17.9972 24.4069 18.0275 23.418 17.6796C23.3496 17.6492 23.2908 17.6079 23.2644 17.5337C23.0882 16.9179 22.6602 16.5467 22.0837 16.3208C21.9817 16.333 21.9805 16.2607 21.974 16.1917C21.9927 16.0974 22.0469 16.0393 22.1431 16.0232C22.1786 16.0238 22.2096 16.0367 22.2354 16.0613C22.2103 16.1497 22.2522 16.1917 22.3348 16.2052C23.216 16.5015 24.1294 16.5241 25.0402 16.4738C25.9265 16.4253 26.8205 16.3911 27.672 16.0826C27.9095 15.9974 27.9928 16.0258 28.1206 16.1801Z" fill="#080C1E"/>
<path id="Vector_118" d="M26.0827 12.2533C26.0614 12.2513 26.0401 12.2501 26.0188 12.2481C25.8432 11.5761 26.5087 10.8693 27.2872 10.9009C27.8424 10.9978 28.3323 11.2069 28.657 11.6994C28.9088 12.0099 28.9165 12.4373 29.167 12.7536C29.2425 12.8491 29.1424 12.8704 29.0566 12.8472C29.0314 12.8459 29.0069 12.8446 28.9817 12.8439C28.9359 12.8685 28.8894 12.8652 28.8423 12.8497C28.7287 12.822 28.6138 12.8375 28.4989 12.833C27.8863 12.8368 27.2937 12.9556 26.7134 13.1428C26.6624 13.137 26.6191 13.1183 26.5914 13.0724C26.5875 13.0518 26.5843 13.0189 26.5965 13.0137C26.9987 12.8536 26.9296 12.5664 26.8012 12.263C26.8115 12.1707 26.8405 12.0996 26.9554 12.1126C27.0181 12.119 27.0884 12.1255 27.1129 12.0493C27.1375 11.9738 27.0749 11.9376 27.0252 11.9002C26.9664 11.8563 26.9025 11.8176 26.889 11.7362C26.8864 11.6007 26.9658 11.4974 27.0348 11.3754C26.6721 11.4432 26.4442 11.662 26.2809 11.9673C26.2247 12.07 26.1944 12.19 26.0827 12.2533Z" fill="#0C0C21"/>
<path id="Vector_119" d="M23.2651 17.5345C23.3115 17.5435 23.3561 17.5564 23.3748 17.6081C24.0636 18.129 24.8182 17.9405 25.5631 17.803C25.8671 17.7468 26.166 17.6578 26.4294 17.479C26.4978 17.4325 26.5714 17.377 26.6663 17.4144C26.7437 17.3996 26.8231 17.3047 26.8974 17.3996C26.9555 17.4738 26.8812 17.5345 26.8457 17.5984C26.554 18.1206 26.2654 18.646 25.6328 18.8332C25.5173 18.7577 25.4217 18.87 25.3133 18.8675C24.9111 18.8978 24.5109 18.9604 24.1068 18.8668C23.7995 18.7952 23.5239 18.6751 23.3006 18.4472C23.1385 18.149 23.1134 17.845 23.2651 17.5345Z" fill="#7A8A9A"/>
<path id="Vector_120" d="M23.0585 15.2342C22.0231 15.0102 21.8327 14.4131 22.544 13.6269C22.6079 13.5559 22.6667 13.481 22.728 13.4074C22.8887 13.1066 22.5259 13.1137 22.4562 12.9484C22.2994 12.6683 22.2303 12.3901 22.4743 12.1196C22.6292 12.106 22.564 12.3229 22.7138 12.3378C22.7506 12.1667 22.5653 12.1945 22.5163 12.1112C22.5589 11.7872 22.2387 11.9589 22.1199 11.8356C22.065 11.7781 21.9811 11.9485 21.9411 12.0331C21.7804 12.3752 21.8514 12.7393 21.8559 13.0976C21.8204 13.2054 21.7539 13.2583 21.6371 13.217C21.6687 12.8439 21.5493 12.4766 21.6158 12.0983C21.7158 11.5315 22.0463 11.2843 22.6182 11.3766C22.8726 11.4179 23.1108 11.5128 23.38 11.6077C23.3838 11.4644 23.2831 11.3863 23.245 11.2862C23.2276 11.2094 23.2741 11.2036 23.3302 11.2094C23.7356 11.5089 23.7576 11.9221 23.6549 12.361C23.551 12.8064 23.3283 13.1963 23.0533 13.5578C22.932 13.7056 22.8093 13.8535 22.6938 14.0058C22.3646 14.4383 22.4375 14.7365 22.9216 14.9721C23.0243 15.0218 23.1521 15.0373 23.1992 15.1671C23.1857 15.2568 23.1288 15.2594 23.0585 15.2342Z" fill="#0C0C21"/>
<path id="Vector_121" d="M33.7734 14.785C33.4874 14.8011 33.3893 14.8463 32.7541 15.262C32.7444 15.2323 32.7199 15.1994 32.7283 15.1794C32.8703 14.8243 32.8554 14.4583 32.86 14.0833C32.8664 13.5791 33.2202 13.2157 33.5081 12.8355C33.5758 12.7987 33.6107 12.7296 33.6623 12.6773C34.0684 12.272 34.599 12.2991 34.9243 12.7703C35.1302 13.0685 35.322 13.3952 35.1638 13.7902C35.0915 13.8438 35.1348 13.9258 35.1135 13.9923C35.045 14.0303 35.0283 13.9716 35.0005 13.9329C34.9618 13.6669 34.8675 13.4216 34.7074 13.206C34.5241 12.9588 34.2298 12.8658 33.9767 12.973C33.8082 13.0446 33.6791 13.1292 33.9173 13.2841C33.978 13.3235 34.0316 13.3745 34.0884 13.4197C34.4002 13.6334 34.5267 14.0768 34.3595 14.3783C34.3111 14.4654 34.2511 14.5519 34.1381 14.5313C34.0355 14.5125 34.0193 14.4131 34.0148 14.3273C34.0019 14.0943 33.9406 13.8812 33.774 13.7115C33.6869 13.623 33.5926 13.4842 33.4526 13.6011C33.3151 13.7166 33.2357 13.8767 33.3519 14.0568C33.4338 14.1846 33.5539 14.2782 33.6727 14.3712C33.7656 14.4441 33.8676 14.5113 33.9244 14.6171C34.0238 14.8004 33.927 14.8211 33.7734 14.785Z" fill="#050715"/>
<path id="Vector_122" d="M28.1206 16.1801C27.9825 16.0735 27.8243 16.1097 27.6933 16.1639C26.8644 16.5067 25.9826 16.508 25.1131 16.5661C24.3669 16.6158 23.6155 16.6087 22.8758 16.4544C22.6763 16.4131 22.4807 16.3634 22.3348 16.2052C22.533 16.0084 22.746 16.1885 22.9397 16.2078C23.1734 16.2311 23.4064 16.2549 23.6414 16.253C24.2604 16.2478 24.8775 16.1504 25.4927 16.1452C26.0156 16.1413 26.5229 15.9541 27.0891 16.0961C26.9806 15.8082 26.7534 15.6766 26.6417 15.4448C26.7734 15.3893 26.8657 15.4784 26.9548 15.5313C27.2821 15.7263 27.6739 15.7411 28.0083 15.9148C28.0741 15.949 28.1561 15.9444 28.2135 15.8741C28.4098 15.9044 28.4498 16.02 28.3865 16.1917C28.2949 16.2795 28.2084 16.2169 28.1206 16.1801Z" fill="#7A8A9A"/>
<path id="Vector_123" d="M23.0584 15.2345C23.0985 15.208 23.1843 15.2448 23.1746 15.1499C22.9997 14.9976 22.7492 14.9672 22.5937 14.78C22.4568 14.6154 22.4523 14.5896 22.6014 14.4443C22.6117 14.4953 22.6221 14.5767 22.6879 14.5483C23.3224 14.2759 23.9021 14.4418 24.4973 14.7097C24.9859 14.9298 25.0008 14.8943 25.0557 14.363C25.0634 14.2907 25.0854 14.2197 25.1021 14.1416C25.2351 14.1713 25.3507 14.2165 25.4404 14.314C25.6437 14.709 25.5947 14.933 25.2571 15.157C24.8491 15.5185 24.3714 15.4262 23.8821 15.3313C23.9344 15.4643 24.0622 15.3661 24.1119 15.4869C23.6936 15.665 23.3876 15.3952 23.0584 15.2345Z" fill="#7A8A9A"/>
<path id="Vector_124" d="M27.3117 10.963C26.499 11.0153 26.0123 11.4988 26.0187 12.2482C25.8599 12.0003 25.9484 11.5601 26.1956 11.2696C26.4157 11.0108 26.7211 10.9004 27.0541 10.7745C26.8915 10.6531 26.7307 10.7429 26.5565 10.6654C26.9063 10.3226 27.3963 10.473 27.7603 10.271C28.3161 10.4401 28.8267 10.6932 29.2592 11.0882C28.9842 11.1463 28.7622 11.3367 28.4885 11.3994C28.3097 11.3703 28.2154 11.2063 28.0618 11.1353C27.8236 11.025 27.5944 10.8778 27.3117 10.963Z" fill="#7A8A9A"/>
<path id="Vector_125" d="M28.4731 11.3498C28.7423 11.284 28.9256 10.9593 29.2593 11.0884C29.298 11.1116 29.3374 11.1349 29.3761 11.1581C29.4233 11.193 29.4704 11.1755 29.5182 11.1581C29.6595 11.5996 29.4775 12.0083 29.391 12.4265C29.3574 12.5879 29.2393 12.7409 29.3942 12.9217C29.2354 12.9443 29.1418 12.9146 29.0566 12.8481C29.0844 12.8371 29.1121 12.8261 29.1399 12.8152C28.8313 12.6338 28.8998 12.2697 28.7519 12.0102C28.7003 11.9192 28.6545 11.8243 28.606 11.7313C28.5776 11.5977 28.4479 11.5009 28.4731 11.3498Z" fill="#7A8A9A"/>
<path id="Vector_126" d="M33.7733 14.7851C33.8979 14.7664 34.0005 14.738 33.8443 14.6089C33.6797 14.472 33.5087 14.3429 33.3473 14.2022C33.1168 14.0014 33.133 13.7471 33.3854 13.5205C33.6371 13.2946 33.7449 13.5457 33.8689 13.6813C34.0728 13.9046 34.1277 14.188 34.1187 14.492C34.4524 14.2861 34.4382 13.9433 34.089 13.4185C34.1735 13.3069 34.2465 13.2739 34.3659 13.3972C34.7345 13.7794 34.6319 14.656 34.1852 14.9484C33.9502 15.1027 33.9147 14.827 33.7733 14.7851Z" fill="#7A8A9A"/>
<path id="Vector_127" d="M26.0827 12.2532C26.3351 11.5638 26.5836 11.3379 27.1484 11.2998C27.0684 11.4509 26.9929 11.5935 26.9173 11.7368C26.9696 11.9195 26.8173 12.0738 26.8476 12.2532C26.8896 12.4533 26.9903 12.625 27.1271 12.7858C26.9431 12.8729 26.774 12.953 26.6055 13.033C26.5687 13.0956 26.5255 13.1428 26.4435 13.1085C26.2718 12.8458 26.0678 12.5954 26.0827 12.2532Z" fill="#F9FAFA"/>
<path id="Vector_128" d="M35.1638 13.7903C35.1502 13.4334 35.0727 13.0958 34.8526 12.8046C34.5738 12.4361 34.2865 12.3838 33.8811 12.6091C33.7533 12.6801 33.6636 12.8117 33.508 12.8356C33.5293 12.5561 33.3395 12.6258 33.184 12.6394C33.2259 12.4225 33.4467 12.3851 33.5719 12.2514C33.7481 12.2598 33.9153 12.2669 34.0851 12.174C34.3756 12.0152 34.5944 12.2501 34.8184 12.367C35.3626 12.651 35.6105 13.4947 35.3019 13.9466C35.2554 13.8949 35.2096 13.8426 35.1638 13.7903Z" fill="#7A8A9A"/>
<path id="Vector_129" d="M22.9868 13.545C23.1714 13.2326 23.3644 12.9253 23.5083 12.589C23.7226 12.0874 23.6968 11.6317 23.3069 11.2244C23.223 11.1766 23.1681 11.0972 23.0978 11.0346C23.0894 11.0069 23.0946 10.9823 23.1152 10.9617C23.4619 11.0391 23.7375 11.4193 23.7672 11.8434C23.8046 12.3824 23.6549 12.8821 23.418 13.3507C23.2759 13.6315 23.1888 13.9414 22.9906 14.1931C22.7163 14.2473 22.7247 14.0808 22.7918 13.9123C22.8422 13.7852 22.9241 13.669 22.9868 13.545Z" fill="#F8F1EE"/>
<path id="Vector_130" d="M26.6662 17.4142C25.8587 17.9641 24.9511 18.0668 24.0099 17.9932C23.7485 17.9725 23.5187 17.8473 23.3748 17.6072C23.8202 17.7027 24.2514 17.8486 24.7213 17.8357C25.4036 17.817 26.0162 17.6014 26.6043 17.2825C26.6514 17.3141 26.6662 17.3606 26.6662 17.4142Z" fill="#EFE1DF"/>
<path id="Vector_131" d="M28.0999 15.7314C27.8172 15.552 27.5351 15.3725 27.2181 15.1711C27.8675 15.0362 28.6641 15.5591 28.7667 16.1426C28.7874 16.2601 28.759 16.3873 28.6641 16.4596C28.5912 16.5151 28.5627 16.4266 28.546 16.364C28.4466 16.1187 28.404 15.8328 28.0999 15.7314Z" fill="#7A8A9A"/>
<path id="Vector_132" d="M28.0089 9.22722C27.7087 9.14975 27.4099 9.08133 27.0955 9.07036C26.4693 9.04841 25.9729 9.2653 25.6282 9.79914C25.6289 9.4964 25.8393 9.32663 26.0472 9.1646C26.153 9.08197 26.288 9.03679 26.41 8.97417C26.9244 8.77665 27.4273 8.87993 27.9243 9.04195C28.0851 9.09424 28.0805 9.10715 28.0089 9.22722Z" fill="#D2C7C8"/>
<path id="Vector_133" d="M26.3499 10.1799C26.5417 10.1832 26.7334 10.1857 26.9245 10.189C26.9025 10.3833 26.7056 10.3187 26.6011 10.3994C26.2673 10.6557 25.9878 10.9526 25.7645 11.3115C25.7664 10.8345 25.9898 10.4724 26.3499 10.1799Z" fill="#7A8A9A"/>
<path id="Vector_134" d="M28.8643 12.8245C28.903 12.831 28.9424 12.8375 28.9811 12.8439C28.9547 12.8601 28.9275 12.891 28.9011 12.891C28.0109 12.8897 27.1446 13.0098 26.2622 13.4501C26.3461 13.3319 26.3752 13.2906 26.4042 13.2493C26.4688 13.1551 26.5675 13.1215 26.6721 13.0989C27.2737 12.8471 27.9031 12.7606 28.5506 12.7832C28.6513 12.8297 28.7649 12.7736 28.8643 12.8245Z" fill="#7A8A9A"/>
<path id="Vector_135" d="M23.3005 18.4477C23.3128 18.4322 23.3251 18.4173 23.3373 18.4019C23.9396 18.9086 24.6626 18.8505 25.3759 18.8337C25.3907 18.8466 25.3965 18.8595 25.392 18.8731C25.3875 18.8866 25.383 18.8937 25.3785 18.8937C24.9518 18.9925 24.5231 19.0493 24.0855 18.9764C23.7421 18.9189 23.4632 18.7704 23.3005 18.4477Z" fill="#0C0C21"/>
<path id="Vector_136" d="M22.9868 13.5449C23.0074 13.6947 22.9209 13.8102 22.8577 13.9296C22.7731 14.0891 22.8202 14.1685 22.9907 14.1924C22.9132 14.357 22.715 14.335 22.6021 14.4435C22.4504 14.6003 22.5975 14.6907 22.6847 14.7856C22.8241 14.9373 23.0287 14.9883 23.1966 15.0967C23.2017 15.1 23.2011 15.118 23.1972 15.1264C23.1933 15.1355 23.183 15.1419 23.1753 15.149C22.3877 14.9405 22.094 14.4551 22.797 13.7547C22.8635 13.6889 22.9235 13.6153 22.9868 13.5449Z" fill="#7A8A9A"/>
<path id="Vector_137" d="M21.435 9.79279C21.4376 9.75148 21.4395 9.70952 21.4421 9.66821C21.6751 9.59397 21.9024 9.51135 22.1586 9.53136C22.4936 9.55718 22.7364 9.73276 22.8532 10.0775C22.4265 9.75148 21.9637 9.60947 21.435 9.79279Z" fill="#7A8A9A"/>
<path id="Vector_138" d="M28.0089 9.22715C28.0896 9.11096 27.9812 9.10967 27.9205 9.09095C27.5222 8.96636 27.1252 8.83339 26.6972 8.95151C26.6062 8.97669 26.5055 8.96765 26.4087 8.97411C26.4352 8.90116 26.5029 8.89342 26.5636 8.87986C27.2072 8.73979 28.3168 8.91472 28.7293 9.61188C28.4898 9.48406 28.2491 9.35561 28.0089 9.22715Z" fill="#7A8A9A"/>
<path id="Vector_139" d="M22.5401 12.9601C22.5904 12.9988 22.6356 13.0563 22.6924 13.0724C22.9932 13.157 22.8764 13.279 22.7292 13.4081C22.6731 13.1234 22.5459 13.1228 22.2967 13.237C22.1192 13.319 21.8797 13.2403 21.6861 13.3713C21.6486 13.3965 21.6415 13.2764 21.6383 13.217C21.6983 13.1757 21.759 13.135 21.8191 13.0937C22.0392 12.9433 22.2858 12.9311 22.5401 12.9601Z" fill="#7A8A9A"/>
<path id="Vector_140" d="M21.3685 10.8268C21.4589 10.7351 21.5719 10.7022 21.6965 10.697C21.375 11.0837 21.4357 11.5478 21.4331 11.9984C21.3376 11.6124 21.1316 11.2315 21.3685 10.8268Z" fill="#7A8A9A"/>
<path id="Vector_141" d="M22.1308 16.0462C22.0928 16.0914 22.054 16.1373 22.0159 16.1825C21.9469 16.2586 22.0495 16.3826 21.9424 16.4484C21.7203 16.3774 21.6622 16.2322 21.7784 16.0359C21.9017 15.8281 22.2167 15.739 22.3781 15.8545C22.3832 15.8584 22.3587 15.9042 22.3477 15.9307C22.2651 15.9501 22.2193 16.0379 22.1308 16.0462Z" fill="#7A8A9A"/>
<path id="Vector_142" d="M25.2571 15.1568C25.5159 14.9186 25.5082 14.6229 25.4404 14.3137C25.6212 14.4467 25.7231 14.6197 25.6289 14.8385C25.5618 14.9941 25.503 15.1942 25.2571 15.1568Z" fill="#0C0C21"/>
<path id="Vector_143" d="M23.1152 10.9608C23.1223 10.9809 23.1243 11.0009 23.121 11.0215C23.1514 11.0538 23.1456 11.077 23.1043 11.0925C22.9112 11.1674 22.808 11.0286 22.724 10.906C22.666 10.8214 22.7918 10.7872 22.8422 10.7607C23.0578 10.6445 22.9945 10.9312 23.1152 10.9608Z" fill="#7A8A9A"/>
<path id="Vector_144" d="M28.1 15.7312C28.3911 15.7764 28.5654 16.0236 28.546 16.3645C28.4931 16.307 28.4402 16.2489 28.3872 16.1915C28.3466 16.0766 28.3182 15.9545 28.2142 15.8739C28.1761 15.8261 28.1381 15.7783 28.1 15.7312Z" fill="#0C0C21"/>
<path id="Vector_145" d="M32.9277 12.8983C32.9871 12.7866 33.0743 12.7014 33.184 12.6394C33.2692 12.8937 33.1143 12.9118 32.9277 12.8983Z" fill="#7A8A9A"/>
<path id="Vector_146" d="M35.0005 13.9324C35.0379 13.9524 35.076 13.9717 35.1135 13.9918C35.0896 14.077 35.0663 14.1622 35.0424 14.2474C35.0282 14.2454 35.0147 14.2442 35.0005 14.2422C35.0005 14.1396 35.0005 14.0357 35.0005 13.9324Z" fill="#714035"/>
<path id="Vector_147" d="M21.9424 16.4486C21.9436 16.3537 21.9127 16.2498 22.0159 16.1826C22.0385 16.2284 22.0611 16.2749 22.0844 16.3208C22.0218 16.3808 22.1121 16.4834 22.0256 16.5299C22.0153 16.5357 21.9714 16.477 21.9424 16.4486Z" fill="#0C0C21"/>
<path id="Vector_148" d="M26.6727 13.0991C26.5837 13.1488 26.4946 13.1992 26.4048 13.2495C26.4178 13.2024 26.4307 13.1559 26.4436 13.1095C26.4972 13.0843 26.5514 13.0591 26.6056 13.0339C26.6275 13.0552 26.6501 13.0772 26.6727 13.0991Z" fill="#0C0C21"/>
<path id="Vector_149" d="M25.3778 18.8937C25.3798 18.8737 25.3791 18.8537 25.3752 18.8337C25.4605 18.764 25.5463 18.7285 25.6322 18.8331C25.5476 18.8531 25.463 18.8731 25.3778 18.8937Z" fill="#0C0C21"/>
<path id="Vector_150" d="M23.1043 11.0927C23.1101 11.0689 23.1153 11.0456 23.1211 11.0217C23.2011 11.0727 23.2721 11.1315 23.307 11.2238C23.2863 11.2444 23.2663 11.2651 23.2457 11.2851C23.1986 11.2212 23.1514 11.1566 23.1043 11.0927Z" fill="#7A8A9A"/>
<path id="Vector_151" d="M22.1308 16.0462C22.1895 15.9817 22.2276 15.8797 22.3477 15.93C22.3103 15.9739 22.2735 16.0172 22.236 16.061C22.2012 16.0565 22.1657 16.0514 22.1308 16.0462Z" fill="#0C0C21"/>
<path id="Vector_152" d="M29.5182 11.1573C29.5046 11.1902 29.4904 11.2231 29.4769 11.2561C29.4433 11.2231 29.4097 11.1902 29.3762 11.1573C29.402 11.1095 29.4272 11.0624 29.453 11.0146C29.4749 11.0624 29.4962 11.1102 29.5182 11.1573Z" fill="#3D2028"/>
<path id="Vector_153" d="M29.4465 41.286C29.2348 41.1692 29.1889 40.9045 28.9901 40.7767C28.9908 40.3991 29.198 40.1099 29.4071 39.8258C29.7241 39.3966 30.0623 38.9854 30.5322 38.7091C30.8692 38.5142 30.9338 38.5458 30.9215 38.9286C30.9157 39.1145 30.9906 39.3127 30.8615 39.4863C30.8466 39.3721 30.8892 39.252 30.8047 39.1048C30.4445 39.9085 29.7886 40.4965 29.4465 41.286Z" fill="#7A8A9A"/>
<path id="Vector_154" d="M30.5399 42.8397C30.2243 42.4885 30.3811 42.0928 30.5012 41.7481C30.6839 41.2252 30.9395 40.7262 31.25 40.2615C31.3681 40.2744 31.3985 40.3435 31.3481 40.4409C31.208 40.7101 31.3126 40.8721 31.5695 40.9735H31.5373H31.505C31.4695 41.2523 31.2487 41.4299 31.1273 41.6616C30.9692 41.9631 30.7684 42.2451 30.7226 42.5976C30.7097 42.7015 30.6594 42.8022 30.5399 42.8397Z" fill="#7A8A9A"/>
<path id="Vector_155" d="M29.4387 35.6099C29.7408 35.3807 30.1068 35.3174 30.4612 35.2367C30.6955 35.1832 30.9428 35.1845 31.1842 35.1619C31.1842 35.1838 31.1848 35.2058 31.1848 35.2271C30.6232 35.4478 30.0416 35.5795 29.4387 35.6099Z" fill="#7A8A9A"/>
<path id="Vector_156" d="M5.0531 34.9763C5.18349 35.0144 5.31324 35.0525 5.44364 35.0906C5.38941 35.1074 5.32551 35.1054 5.29711 35.17C5.18091 35.1493 5.06407 35.1293 5.0531 34.9763Z" fill="#6E3121"/>
<path id="Vector_157" d="M25.3785 23.3523C25.4308 23.3788 25.5024 23.4408 25.5321 23.4246C25.6025 23.3872 25.5547 23.2988 25.5637 23.2329C25.6857 23.382 25.6283 23.5415 25.6018 23.7603C25.463 23.6176 25.3972 23.4989 25.3785 23.3523Z" fill="#EFEFEF"/>
<path id="Vector_158" d="M37.5729 22.6428C37.6587 22.6428 37.7446 22.6428 37.8304 22.6435C37.7446 22.6848 37.6581 22.8384 37.5729 22.6428Z" fill="#7A8A9A"/>
<path id="Vector_159" d="M30.54 42.8397C30.722 42.1452 31.0628 41.5326 31.5057 40.9729C31.5612 41.1775 31.6135 41.3841 31.7613 41.5474C31.7774 41.5597 31.7845 41.5739 31.7819 41.5887C31.7794 41.6049 31.7755 41.6126 31.771 41.6126L31.7645 41.6178C31.6477 41.8282 31.8446 41.9321 31.9382 42.0438C32.1118 42.2504 32.1273 42.3601 31.8433 42.4647C31.5534 42.5712 31.272 42.6977 30.9628 42.759C31.425 42.8856 31.8852 42.8668 32.3481 42.7571C32.6373 42.6887 32.9284 42.608 33.2273 42.7119C32.6456 43.0624 32.0111 43.2257 31.3372 43.2238C31.0196 43.2225 30.7207 43.1425 30.54 42.8397Z" fill="#7A8A9A"/>
<path id="Vector_160" d="M31.771 41.6127C31.7677 41.5908 31.7645 41.5689 31.7613 41.5475C31.7781 41.4804 31.7768 41.3888 31.8775 41.401C31.9382 41.4088 31.9995 41.4688 31.9808 41.5308C31.9511 41.6302 31.8523 41.6121 31.771 41.6127Z" fill="#7A8A9A"/>
<path id="Vector_161" d="M24.6633 29.2864C24.6717 29.1276 24.7188 28.9785 24.9092 28.9817C25.0409 28.9837 25.119 29.0934 25.11 29.227C25.0983 29.3929 24.9944 29.5169 24.8356 29.5375C24.6684 29.5595 24.6717 29.4097 24.6633 29.2864Z" fill="#01355C"/>
<path id="Vector_162" d="M25.1777 27.2105C25.1706 27.0207 25.2242 26.8716 25.4192 26.847C25.5818 26.827 25.6386 26.94 25.638 27.0904C25.6367 27.2744 25.5638 27.3989 25.3688 27.419C25.2061 27.4357 25.1694 27.3344 25.1777 27.2105Z" fill="#013C67"/>
<path id="Vector_163" d="M23.3741 16.9042C24.5554 17.032 25.7192 16.9494 26.9528 16.6912C26.1104 17.3948 25.2454 17.7782 24.2094 17.6517C23.7562 17.5962 23.4993 17.3567 23.3741 16.9042Z" fill="#FAFAFA"/>
<path id="Vector_164" d="M28.4731 11.3496C28.5557 11.4632 28.6312 11.5794 28.6054 11.7305C28.2684 11.316 27.8288 11.0733 27.3118 10.9629C27.2556 10.7325 27.437 10.8403 27.4996 10.85C27.8773 10.9094 28.1968 11.0901 28.4731 11.3496Z" fill="#7A8A9A"/>
<path id="Vector_165" d="M27.8289 11.8687C27.9444 11.8854 28.0251 11.9397 28.0096 12.0552C27.9915 12.1933 27.9128 12.2999 27.7585 12.2908C27.6571 12.285 27.5694 12.2192 27.579 12.1056C27.592 11.9577 27.6952 11.8887 27.8289 11.8687Z" fill="#E2E2E7"/>
<path id="Vector_166" d="M26.8476 12.2532C26.7366 12.0628 26.8554 11.9034 26.9173 11.7368C26.9277 11.8278 27.009 11.8033 27.0613 11.8272C27.182 11.8827 27.295 11.9421 27.2175 12.1112C27.1555 12.2461 27.0671 12.2829 26.9425 12.1951C26.8599 12.1377 26.8663 12.2132 26.8476 12.2532Z" fill="#DAD9DF"/>
<path id="Vector_167" d="M28.8643 12.8246C28.7565 12.8369 28.6474 12.8576 28.5512 12.7833C28.6597 12.7685 28.7655 12.7672 28.8643 12.8246Z" fill="#7A8A9A"/>
<path id="Vector_168" d="M22.5402 12.9604C22.3084 13.0527 22.0657 13.0849 21.8185 13.094C21.7126 12.6809 21.7062 12.2729 21.916 11.8882C21.974 11.7823 22.1845 11.6564 22.1864 11.6764C22.2187 12.0586 22.5666 11.6448 22.6447 11.8817C22.6815 11.9831 22.4989 12.0108 22.5382 12.1283L22.5466 12.1205C22.2465 12.3981 22.4046 12.6796 22.5402 12.9604Z" fill="#F8F8F8"/>
<path id="Vector_169" d="M22.5381 12.128C22.6582 12.1022 22.7834 12.0563 22.8422 12.2261C22.868 12.3016 22.8744 12.3771 22.8028 12.4236C22.7537 12.4553 22.6847 12.4811 22.6291 12.474C22.5439 12.463 22.5188 12.3875 22.5259 12.3061C22.531 12.2442 22.5394 12.1822 22.5465 12.1196C22.5459 12.1202 22.5381 12.128 22.5381 12.128Z" fill="#E9E9EE"/>
<path id="Vector_170" d="M24.8439 15.0995C24.5263 15.1873 24.221 15.1208 23.9137 15.0879C23.846 15.0808 23.7833 15.0537 23.7724 14.9808C23.7627 14.9162 23.8169 14.8755 23.8711 14.8826C24.201 14.9278 24.5386 14.9388 24.8439 15.0995Z" fill="#0C0C21"/>
</g>
</g>
</g>
</g>
<defs>
<clipPath id="clip0_220_9235">
<rect width="47" height="46.5939" fill="white" transform="translate(0.833374 0.442871)"/>
</clipPath>
</defs>
</svg>
