<svg width="36" height="37" viewBox="0 0 36 37" fill="none" xmlns="http://www.w3.org/2000/svg">
<g id="Frame" clip-path="url(#clip0_220_9411)">
<g id="Layer 2">
<g id="Layer 1">
<path id="Vector" d="M13.2853 1.05144L11.8773 7.15681C11.8445 7.27155 11.8388 7.39235 11.8607 7.50967C11.8826 7.62698 11.9315 7.73759 12.0035 7.83275C12.0756 7.92791 12.1687 8.00501 12.2757 8.05796C12.3826 8.11091 12.5004 8.13825 12.6198 8.13783H22.0875C22.8263 8.13681 23.558 8.28145 24.2408 8.56346C24.9236 8.84547 25.5442 9.25932 26.0669 9.78135C26.5896 10.3034 27.0043 10.9233 27.2873 11.6058C27.5702 12.2882 27.7159 13.0197 27.7159 13.7585C27.7159 14.4972 27.5702 15.2287 27.2873 15.9112C27.0043 16.5936 26.5896 17.2135 26.0669 17.7356C25.5442 18.2576 24.9236 18.6714 24.2408 18.9535C23.558 19.2355 22.8263 19.3801 22.0875 19.3791H14.3587C14.235 19.3789 14.113 19.4085 14.0032 19.4654C13.8934 19.5223 13.7989 19.6049 13.7278 19.7061L10.6501 25.8076C10.5625 25.9253 10.5104 26.0657 10.4999 26.212C10.4894 26.3584 10.521 26.5047 10.591 26.6337C10.6609 26.7627 10.7663 26.869 10.8947 26.9401C11.0231 27.0112 11.1692 27.044 11.3156 27.0348H21.3181C24.8332 27.0267 28.2014 25.6241 30.6833 23.1349C33.1652 20.6458 34.5581 17.2735 34.556 13.7585C34.556 10.2394 33.1581 6.86444 30.6697 4.37607C28.1814 1.88771 24.8064 0.489766 21.2873 0.489766H14.0317C13.8629 0.488562 13.6984 0.542894 13.5635 0.644392C13.4287 0.74589 13.3309 0.88892 13.2853 1.05144Z" fill="#072948"/>
<path id="Vector_2" d="M5.16008 0.67056L11.4232 0.489746C11.654 0.489746 11.8079 0.782127 11.7617 1.07451L9.34189 12.4158C9.26494 12.8005 9.48038 13.1621 9.77276 13.1544L14.3239 13.0313C14.8586 13.0313 15.1895 13.8008 14.8894 14.4086L3.42888 36.7449C3.21728 37.1566 2.7287 36.8603 2.81718 36.3602L5.63327 20.5524C5.69867 20.1677 5.47169 19.8138 5.18316 19.8369L1.24756 20.1446C0.785909 20.1793 0.435822 19.583 0.574318 18.9905L4.86385 0.982176C4.87338 0.905374 4.9073 0.833656 4.96062 0.777565C5.01394 0.721473 5.08385 0.683967 5.16008 0.67056Z" fill="#072948"/>
</g>
</g>
</g>
<defs>
<clipPath id="clip0_220_9411">
<rect width="34.913" height="36.5" fill="white" transform="translate(0.543518 0.489746)"/>
</clipPath>
</defs>
</svg>
