<svg width="31" height="40" viewBox="0 0 31 40" fill="none" xmlns="http://www.w3.org/2000/svg">
<g id="Group 1">
<path id="Vector" d="M20.1957 6.11673C20.1984 6.13892 20.201 6.16112 20.2037 6.18398C20.3319 7.25543 20.6815 8.24413 21.3701 9.08202C21.3917 9.10834 21.3917 9.10834 21.4136 9.13519C21.5702 9.32515 21.7241 9.50918 21.9183 9.66232C21.9312 9.67428 21.944 9.68624 21.9573 9.69856C21.9573 9.71794 21.9573 9.73731 21.9573 9.75728C21.3503 9.8448 20.7403 9.90019 20.1299 9.95807C19.8863 9.98122 19.6427 10.0047 19.3991 10.0281C19.3046 10.0371 19.21 10.0462 19.1155 10.0553C18.4971 10.1146 17.8789 10.1757 17.2607 10.2371C17.0127 10.2617 16.7647 10.2863 16.5167 10.3109C16.49 10.3135 16.4633 10.3162 16.4357 10.3189C15.8786 10.3741 15.3213 10.4286 14.764 10.4828C14.6977 10.4893 14.6314 10.4958 14.5651 10.5022C14.4426 10.5141 14.3201 10.5261 14.1976 10.5379C14.1596 10.5416 14.1215 10.5453 14.0824 10.5491C13.892 10.5675 13.7016 10.5852 13.511 10.6019C13.2564 10.6243 13.0026 10.6511 12.7487 10.6812C12.4838 10.7126 12.2188 10.7401 11.953 10.7638C11.9196 10.7667 11.8862 10.7697 11.8518 10.7728C11.716 10.7848 11.5803 10.7967 11.4445 10.8084C10.4043 10.8911 10.4043 10.8911 9.47961 11.3427C9.45066 11.3638 9.42171 11.3848 9.39188 11.4066C8.96988 11.7342 8.60895 12.2721 8.53199 12.8086C8.44189 13.5476 8.54978 14.2286 9.00619 14.8328C9.37157 15.2951 9.89937 15.6072 10.4778 15.7172C10.5999 15.7289 10.7204 15.7298 10.843 15.7282C10.878 15.728 10.913 15.7277 10.9491 15.7274C11.2424 15.7229 11.5342 15.7041 11.8265 15.6805C11.8464 15.6789 11.8664 15.6773 11.8869 15.6757C12.1951 15.6504 12.5025 15.6167 12.8099 15.5831C13.4593 15.5119 14.1094 15.4486 14.7597 15.3863C14.9083 15.372 15.0568 15.3577 15.2054 15.3434C15.4344 15.3213 15.6635 15.2993 15.8925 15.2773C15.9193 15.2747 15.946 15.2721 15.9736 15.2695C16.1158 15.2558 16.258 15.2422 16.4002 15.2286C16.7622 15.1941 17.1241 15.1587 17.4856 15.1192C18.1074 15.0515 18.73 14.9923 19.3524 14.9314C19.4981 14.9171 19.6437 14.9028 19.7893 14.8885C20.6861 14.8006 21.583 14.7134 22.4799 14.6269C23.3662 14.5414 24.2525 14.4555 25.1386 14.3677C25.2434 14.3573 25.3482 14.347 25.453 14.3367C25.5737 14.3249 25.6944 14.3129 25.8151 14.3008C25.8592 14.2964 25.9033 14.2921 25.9474 14.2878C26.0073 14.282 26.0671 14.276 26.1268 14.2699C26.177 14.265 26.177 14.265 26.2281 14.2599C26.3005 14.2571 26.3005 14.2571 26.3318 14.2199C26.3299 14.1454 26.3262 14.0721 26.3208 13.9979C26.3194 13.9762 26.3179 13.9545 26.3165 13.9322C26.3095 13.8316 26.3007 13.7325 26.2859 13.6327C26.2456 13.3249 26.2252 13.0115 26.4199 12.7519C26.6087 12.5434 26.8377 12.4988 27.1043 12.4675C27.1335 12.4637 27.1627 12.4599 27.1928 12.456C27.5156 12.4159 27.7554 12.3994 28.0341 12.5852C28.1989 12.7138 28.2938 12.8793 28.3229 13.0877C28.3278 13.1358 28.3323 13.1839 28.3363 13.2321C28.3389 13.2588 28.3415 13.2854 28.3442 13.3129C28.3528 13.4017 28.3607 13.4906 28.3686 13.5795C28.3747 13.6438 28.3809 13.708 28.387 13.7723C28.4002 13.9096 28.4131 14.0469 28.4259 14.1843C28.4451 14.3915 28.4654 14.5987 28.4859 14.8058C28.4894 14.8404 28.4928 14.875 28.4963 14.9106C28.5034 14.9818 28.5104 15.0529 28.5175 15.1241C28.536 15.3108 28.5542 15.4974 28.5725 15.6841C28.622 16.1894 28.6717 16.6947 28.7215 17.2C28.7367 17.3546 28.7519 17.5093 28.7671 17.6639C28.7767 17.7619 28.7864 17.8599 28.7961 17.9579C28.8005 18.0027 28.8049 18.0475 28.8093 18.0922C28.8376 18.3818 28.868 18.6712 28.8992 18.9605C28.9665 19.5858 29.0279 20.2116 29.0894 20.8375C29.1043 20.9892 29.1194 21.1409 29.1346 21.2926C29.1532 21.4783 29.1716 21.6641 29.1897 21.8499C29.1966 21.9198 29.2036 21.9897 29.2106 22.0596C29.2424 22.3745 29.2735 22.6884 29.2756 23.0052C29.276 23.0366 29.276 23.0366 29.2764 23.0686C29.2746 23.2797 29.2133 23.4272 29.0713 23.5803C28.8379 23.7816 28.5073 23.8069 28.2108 23.8204C28.1767 23.8223 28.1426 23.8241 28.1075 23.8261C27.8425 23.8346 27.6846 23.8063 27.4842 23.6332C27.4624 23.6078 27.4406 23.5823 27.4181 23.5561C27.3975 23.5325 27.3769 23.5089 27.3557 23.4846C27.2124 23.2599 27.2023 22.9353 27.1832 22.6753C26.9352 22.6686 26.6927 22.6916 26.4465 22.7175C26.3699 22.7256 26.2934 22.7335 26.2168 22.7413C26.1347 22.7497 26.0525 22.7581 25.9704 22.7666C25.6873 22.7958 25.4041 22.8238 25.1209 22.8516C24.9723 22.8662 24.8238 22.8809 24.6752 22.8956C24.614 22.9016 24.5529 22.9077 24.4917 22.9137C24.4292 22.9199 24.3667 22.9261 24.3042 22.9322C24.2725 22.9354 24.2408 22.9385 24.2081 22.9417C23.4943 23.0122 22.7806 23.0829 22.067 23.1556C22.0404 23.1584 22.0138 23.1611 21.9864 23.1639C21.7369 23.1893 21.4874 23.2147 21.238 23.2404C21.1271 23.2518 21.0163 23.2632 20.9054 23.2745C20.8844 23.2766 20.8635 23.2787 20.8419 23.2809C20.5773 23.3078 20.3127 23.3315 20.0476 23.3515C19.8152 23.3691 19.5841 23.3916 19.3527 23.4194C18.7978 23.486 18.2414 23.5375 17.6852 23.5915C17.5664 23.603 17.4475 23.6146 17.3287 23.6263C17.1827 23.6405 17.0368 23.6548 16.8909 23.669C16.8625 23.6717 16.834 23.6745 16.8048 23.6774C16.5181 23.7052 16.2315 23.7327 15.9446 23.7581C15.9223 23.7601 15.9 23.762 15.8771 23.7641C15.7754 23.7731 15.6737 23.782 15.572 23.7906C14.831 23.8555 14.178 24.0453 13.6486 24.6011C13.0453 25.327 12.9965 26.0865 13.0774 26.9906C13.0853 27.0791 13.0927 27.1676 13.1 27.2561C13.1446 27.8788 13.1446 27.8788 13.333 28.4683C13.3419 28.4876 13.3508 28.5069 13.36 28.5269C13.6489 29.1374 14.1315 29.5935 14.7654 29.8322C15.3319 30.0215 15.8961 29.9568 16.4781 29.8922C16.5903 29.88 16.7024 29.868 16.8146 29.8561C16.8459 29.8527 16.8773 29.8494 16.9096 29.8459C17.2648 29.8083 17.6204 29.7746 17.976 29.7406C18.4982 29.6907 19.0202 29.6401 19.5421 29.5882C19.5735 29.5851 19.6049 29.582 19.6372 29.5787C19.7988 29.5627 19.9603 29.5466 20.1219 29.5305C21.2829 29.4149 22.444 29.3005 23.6052 29.1878C23.7009 29.1786 23.7966 29.1693 23.8923 29.16C24.4508 29.1058 25.0093 29.0517 25.568 28.9999C26.0169 28.9582 26.4652 28.9118 26.9135 28.8646C27.0635 28.8489 27.2136 28.8332 27.3636 28.8175C27.3975 28.8139 27.4313 28.8104 27.4662 28.8067C27.4973 28.8034 27.5283 28.8002 27.5603 28.7968C27.6011 28.7926 27.6011 28.7925 27.6428 28.7882C27.7117 28.7821 27.7117 28.7821 27.7998 28.7821C27.7955 28.7472 27.7913 28.7123 27.7869 28.6763C27.7553 28.4011 27.7338 28.127 27.7301 27.8499C27.7293 27.8234 27.7285 27.7969 27.7278 27.7696C27.7271 27.5597 27.7774 27.4104 27.9131 27.2493C28.2106 26.9967 28.523 26.9861 28.9008 26.982C28.9268 26.9811 28.9528 26.9803 28.9795 26.9794C29.1968 26.9773 29.3701 27.0254 29.5409 27.1632C29.5561 27.1815 29.5714 27.1998 29.587 27.2187C29.6027 27.2367 29.6184 27.2547 29.6345 27.2733C29.7423 27.4443 29.7805 27.62 29.797 27.8178C29.8003 27.8519 29.8003 27.8519 29.8036 27.8866C29.8106 27.9614 29.8172 28.0362 29.8237 28.1111C29.8286 28.1642 29.8336 28.2174 29.8385 28.2705C29.8515 28.4108 29.8641 28.5511 29.8766 28.6914C29.8891 28.8303 29.902 28.9691 29.9148 29.108C29.9592 29.5911 30.002 30.0744 30.0427 30.5579C30.0454 30.5898 30.0454 30.5898 30.0482 30.6224C30.0499 30.6435 30.0517 30.6646 30.0536 30.6863C30.0812 31.0139 30.1141 31.3408 30.1498 31.6676C30.3263 33.2898 30.3263 33.2898 30.1485 33.9787C30.1412 34.0084 30.1412 34.0084 30.1337 34.0388C29.9623 34.7258 29.6309 35.3387 29.1503 35.8577C29.1283 35.8815 29.1283 35.8815 29.1059 35.9059C28.8703 36.1595 28.6146 36.3684 28.3282 36.5623C28.304 36.5791 28.2797 36.5959 28.2547 36.6132C27.6584 36.999 26.9377 37.1584 26.2433 37.2351C26.1976 37.2403 26.152 37.2454 26.1063 37.2505C25.658 37.3006 25.2091 37.3445 24.76 37.3873C24.6477 37.398 24.5354 37.4089 24.4231 37.4197C24.4001 37.4219 24.3772 37.4241 24.3535 37.4264C24.3067 37.4309 24.2599 37.4354 24.2131 37.4399C24.1424 37.4467 24.0717 37.4535 24.0011 37.4603C23.6654 37.4926 23.3298 37.5255 22.9943 37.5587C22.9707 37.561 22.9472 37.5633 22.923 37.5657C22.7174 37.586 22.5119 37.6064 22.3064 37.6268C22.2013 37.6372 22.0963 37.6476 21.9912 37.658C21.9356 37.6635 21.8801 37.669 21.8246 37.6745C21.6081 37.696 21.3915 37.7161 21.1748 37.7356C20.8882 37.7615 20.6018 37.7891 20.3155 37.8177C20.2293 37.8263 20.143 37.8349 20.0568 37.8435C19.929 37.8562 19.8012 37.8689 19.6733 37.8816C19.3155 37.9173 18.9577 37.9528 18.5999 37.9883C18.5709 37.9911 18.5709 37.9911 18.5413 37.9941C17.4288 38.1044 16.3161 38.2136 15.2034 38.3228C15.0441 38.3384 14.8848 38.3541 14.7254 38.3697C14.4468 38.397 14.1682 38.4244 13.8896 38.4517C13.8199 38.4585 13.7502 38.4654 13.6805 38.4722C13.5497 38.4851 13.4189 38.4979 13.2881 38.5107C13.2674 38.5127 13.2467 38.5148 13.2254 38.5169C12.999 38.539 12.7726 38.5611 12.5462 38.5829C12.5257 38.5849 12.5052 38.5869 12.4841 38.5889C12.3878 38.5982 12.2916 38.6075 12.1953 38.6167C11.9535 38.64 11.712 38.6649 11.4705 38.6908C11.183 38.7213 10.8952 38.747 10.607 38.77C9.62582 38.8484 8.63967 38.9394 7.66434 39.0732C7.48362 39.0958 7.30211 39.0926 7.12028 39.0926C7.05457 39.0927 6.98888 39.0932 6.92318 39.0938C5.81926 39.0981 4.78527 38.6756 3.98943 37.9128C3.9657 37.8909 3.94197 37.869 3.91752 37.8465C2.98643 36.9607 2.76783 35.774 2.64831 34.5506C2.64095 34.4765 2.63357 34.4025 2.62617 34.3285C2.60831 34.1491 2.59061 33.9698 2.57299 33.7904C2.55215 33.5784 2.5311 33.3664 2.51005 33.1544C2.37955 31.8396 2.25117 30.5246 2.12316 29.2096C2.03968 28.3521 1.95565 27.4947 1.86964 26.6374C1.86344 26.5756 1.85724 26.5138 1.85104 26.452C1.81193 26.0621 1.77274 25.6722 1.73331 25.2823C1.71906 25.1413 1.70487 25.0003 1.69069 24.8593C1.68422 24.795 1.67771 24.7308 1.67117 24.6665C1.63429 24.3038 1.60079 23.9412 1.57326 23.5777C1.55758 23.3728 1.53748 23.1687 1.515 22.9645C1.511 22.9279 1.50701 22.8913 1.5029 22.8536C1.49932 22.8212 1.49574 22.7887 1.49206 22.7553C1.45613 22.4261 1.42335 22.0965 1.39022 21.7669C1.38681 21.733 1.3834 21.6991 1.37989 21.6642C1.35803 21.4466 1.33623 21.229 1.31447 21.0113C1.30296 20.8963 1.29143 20.7812 1.27991 20.6662C1.19195 19.7878 1.10524 18.9094 1.02139 18.0307C1.01776 17.9927 1.01413 17.9546 1.01038 17.9154C0.975471 17.5494 0.940713 17.1834 0.906242 16.8173C0.845571 16.1734 0.783648 15.5299 0.710502 14.8872C0.672787 14.5557 0.640483 14.2238 0.611282 13.8914C0.584649 13.5909 0.558088 13.2912 0.514847 12.9925C0.411257 12.2673 0.377696 11.4346 0.583758 10.7261C0.589581 10.7044 0.595405 10.6827 0.601405 10.6603C0.889208 9.59998 1.62589 8.77521 2.54601 8.20869C2.62473 8.164 2.70427 8.12335 2.7857 8.0838C2.80422 8.07469 2.82273 8.06558 2.84181 8.05619C3.29407 7.83606 3.73361 7.71141 4.23402 7.6594C4.26849 7.65569 4.30295 7.65199 4.33847 7.64818C4.44719 7.63659 4.55593 7.62527 4.66469 7.61405C4.69854 7.61056 4.73239 7.60706 4.76726 7.60346C5.01457 7.57804 5.26195 7.55345 5.50935 7.52896C5.56951 7.52298 5.62968 7.517 5.68985 7.51101C5.90498 7.48961 6.12012 7.46828 6.33526 7.44698C6.49479 7.43119 6.65432 7.41537 6.81385 7.39954C8.19966 7.26207 9.58567 7.12673 10.9718 6.99276C12.3553 6.85904 13.7385 6.72273 15.1216 6.58505C15.3177 6.56552 15.5138 6.54601 15.7098 6.5265C15.7476 6.52274 15.7854 6.51898 15.8244 6.5151C16.3268 6.46512 16.8292 6.41555 17.3317 6.36663C17.3744 6.36248 17.3744 6.36248 17.4179 6.35824C17.6757 6.33314 17.9335 6.30811 18.1913 6.28322C18.2799 6.27467 18.3685 6.26609 18.4571 6.2575C18.4988 6.25346 18.5405 6.24942 18.5822 6.2454C18.7962 6.22474 19.01 6.20313 19.2236 6.17915C19.2606 6.17502 19.2976 6.17089 19.3357 6.16664C19.4038 6.15895 19.4719 6.15109 19.54 6.143C19.7593 6.11818 19.975 6.11256 20.1957 6.11673Z" fill="#7A8A9A"/>
<path id="Vector_2" d="M20.1953 6.11673C20.1979 6.13892 20.2005 6.16112 20.2032 6.18398C20.3314 7.25543 20.681 8.24413 21.3696 9.08202C21.3912 9.10833 21.3912 9.10833 21.4132 9.13519C21.5697 9.32515 21.7237 9.50918 21.9178 9.66232C21.9307 9.67428 21.9436 9.68624 21.9568 9.69856C21.9568 9.71794 21.9568 9.73731 21.9568 9.75728C21.3498 9.8448 20.7398 9.90019 20.1294 9.95807C19.8858 9.98122 19.6422 10.0047 19.3986 10.0281C19.3041 10.0371 19.2096 10.0462 19.1151 10.0553C18.4967 10.1146 17.8785 10.1757 17.2603 10.2371C17.0122 10.2617 16.7642 10.2863 16.5162 10.3109C16.4895 10.3135 16.4628 10.3162 16.4353 10.3189C15.8781 10.3741 15.3209 10.4286 14.7636 10.4828C14.6973 10.4893 14.631 10.4958 14.5647 10.5022C14.4422 10.5141 14.3197 10.5261 14.1972 10.5379C14.1591 10.5416 14.1211 10.5453 14.0819 10.5491C13.8915 10.5675 13.7011 10.5852 13.5106 10.6019C13.2559 10.6243 13.0021 10.6511 12.7482 10.6812C12.4833 10.7126 12.2183 10.7401 11.9526 10.7637C11.9191 10.7667 11.8857 10.7697 11.8513 10.7728C11.7156 10.7848 11.5798 10.7967 11.444 10.8084C10.4039 10.8911 10.4039 10.8911 9.47915 11.3427C9.4502 11.3638 9.42124 11.3848 9.39141 11.4066C8.96941 11.7342 8.60849 12.2721 8.53152 12.8086C8.44142 13.5476 8.54932 14.2286 9.00573 14.8328C9.37111 15.2951 9.8989 15.6072 10.4774 15.7172C10.5994 15.7289 10.72 15.7298 10.8425 15.7282C10.8775 15.728 10.9125 15.7277 10.9486 15.7274C11.242 15.7229 11.5337 15.7041 11.8261 15.6805C11.846 15.6789 11.8659 15.6773 11.8864 15.6757C12.1947 15.6504 12.502 15.6167 12.8094 15.5831C13.4588 15.5119 14.1089 15.4486 14.7593 15.3863C14.9078 15.372 15.0563 15.3577 15.2049 15.3434C15.4339 15.3213 15.663 15.2993 15.8921 15.2773C15.9188 15.2747 15.9456 15.2721 15.9731 15.2695C16.1153 15.2558 16.2575 15.2422 16.3997 15.2286C16.7617 15.1941 17.1236 15.1587 17.4852 15.1192C18.1069 15.0515 18.7295 14.9923 19.352 14.9314C19.4976 14.9171 19.6432 14.9028 19.7888 14.8885C20.6856 14.8006 21.5825 14.7134 22.4795 14.6269C23.3658 14.5414 24.2521 14.4555 25.1382 14.3677C25.243 14.3573 25.3477 14.347 25.4525 14.3367C25.5733 14.3249 25.694 14.3129 25.8147 14.3008C25.8588 14.2964 25.9029 14.2921 25.947 14.2878C26.0068 14.282 26.0666 14.276 26.1264 14.2699C26.1765 14.265 26.1765 14.265 26.2277 14.2599C26.3 14.2571 26.3 14.2571 26.3314 14.2199C26.3294 14.1454 26.3257 14.0721 26.3203 13.9979C26.3189 13.9762 26.3175 13.9545 26.316 13.9322C26.309 13.8316 26.3003 13.7325 26.2855 13.6327C26.2451 13.3249 26.2247 13.0115 26.4194 12.7519C26.6082 12.5434 26.8373 12.4988 27.1039 12.4675C27.1331 12.4637 27.1623 12.4599 27.1924 12.456C27.5152 12.4159 27.7549 12.3994 28.0336 12.5852C28.2079 12.7211 28.2957 12.8926 28.3248 13.1106C28.3306 13.1679 28.336 13.2253 28.341 13.2827C28.344 13.3134 28.347 13.3442 28.3501 13.3759C28.3596 13.4737 28.3685 13.5715 28.3773 13.6694C28.3836 13.7347 28.3899 13.7999 28.3962 13.8652C28.4132 14.0421 28.4296 14.219 28.4452 14.396C28.448 14.4263 28.4508 14.4565 28.4536 14.4876C28.4681 14.6511 28.4781 14.8118 28.4764 14.9759C28.4762 15.0109 28.4759 15.0458 28.4756 15.0819C28.4751 15.1202 28.4751 15.1202 28.4746 15.1594C28.4454 15.1628 28.4163 15.1662 28.3862 15.1697C28.2773 15.1824 28.1683 15.1952 28.0594 15.2079C28.0124 15.2134 27.9654 15.2189 27.9184 15.2244C27.8505 15.2323 27.7826 15.2403 27.7148 15.2483C27.694 15.2507 27.6732 15.2531 27.6518 15.2556C27.5589 15.2665 27.4663 15.2784 27.3738 15.2926C27.2589 15.3078 27.1448 15.3131 27.0291 15.3175C26.6555 15.3348 26.2846 15.3776 25.913 15.4181C25.8388 15.4261 25.7645 15.434 25.6903 15.442C25.5788 15.4539 25.4672 15.4659 25.3557 15.4779C25.0126 15.5148 24.6693 15.55 24.326 15.5846C24.0956 15.6078 23.8656 15.6322 23.6358 15.66C23.4117 15.6869 23.1877 15.7056 22.9625 15.7208C22.7534 15.7362 22.5463 15.7603 22.3383 15.7861C22.0287 15.8243 21.7189 15.856 21.4084 15.8851C21.3856 15.8872 21.3629 15.8894 21.3394 15.8916C21.1983 15.9048 21.0572 15.9178 20.9161 15.9308C20.7047 15.9503 20.4932 15.9699 20.2817 15.9897C20.2588 15.9918 20.2358 15.994 20.2121 15.9962C19.9298 16.0226 19.6479 16.0512 19.3662 16.0835C19.04 16.1209 18.7133 16.1527 18.3864 16.1831C18.3482 16.1866 18.3482 16.1866 18.3092 16.1902C18.1773 16.2025 18.0453 16.2147 17.9133 16.2268C16.8516 16.3241 16.8516 16.3241 15.7914 16.4365C14.9676 16.5301 14.1416 16.6031 13.3161 16.68C13.1369 16.6966 12.9578 16.7133 12.7786 16.7301C12.6702 16.7402 12.5618 16.7502 12.4534 16.7603C12.3137 16.7733 12.1741 16.7864 12.0344 16.7995C11.9818 16.8044 11.9293 16.8093 11.8767 16.8142C11.5983 16.84 11.3212 16.8688 11.0444 16.908C10.8664 16.9317 10.6875 16.946 10.5086 16.9613C10.4233 16.9688 10.338 16.9764 10.2527 16.984C10.2306 16.986 10.2085 16.988 10.1857 16.99C9.92061 17.0139 9.65585 17.0409 9.39107 17.0677C9.0377 17.1036 8.68429 17.1376 8.33047 17.1687C7.97514 17.2 7.62067 17.2372 7.26614 17.2765C6.8017 17.328 6.33715 17.3778 5.8719 17.4214C5.8178 17.4265 5.76371 17.4317 5.70963 17.437C5.2463 17.482 4.77647 17.5143 4.31376 17.4457C4.27369 17.4399 4.27369 17.4399 4.23281 17.434C3.15171 17.2639 2.14126 16.6458 1.4971 15.7612C1.08431 15.1786 0.796535 14.5148 0.713348 13.8021C0.707774 13.7565 0.707775 13.7565 0.702089 13.7101C0.694331 13.6463 0.686688 13.5824 0.679158 13.5186C0.667789 13.4224 0.656022 13.3262 0.644193 13.2301C0.499702 12.0401 0.466445 10.922 1.05304 9.84536C1.06966 9.81428 1.08627 9.78321 1.10339 9.7512C1.32647 9.3507 1.64794 8.91275 2.0219 8.64163C2.04128 8.64163 2.06065 8.64163 2.08062 8.64163C2.08607 8.62528 2.09152 8.60893 2.09713 8.59208C2.14908 8.50852 2.20899 8.46998 2.29049 8.41684C2.34801 8.37743 2.34801 8.37743 2.40173 8.31913C2.84218 7.8887 3.64557 7.72051 4.23355 7.6594C4.26802 7.65569 4.30249 7.65199 4.33801 7.64818C4.44673 7.63659 4.55547 7.62527 4.66423 7.61405C4.69808 7.61056 4.73193 7.60706 4.7668 7.60346C5.0141 7.57804 5.26149 7.55345 5.50888 7.52896C5.56905 7.52298 5.62922 7.517 5.68939 7.51101C5.90452 7.48961 6.11966 7.46828 6.3348 7.44698C6.49433 7.43119 6.65386 7.41537 6.81339 7.39954C8.1992 7.26207 9.58521 7.12673 10.9714 6.99276C12.3548 6.85904 13.738 6.72273 15.1211 6.58505C15.3172 6.56552 15.5133 6.54601 15.7094 6.5265C15.7472 6.52274 15.785 6.51898 15.8239 6.5151C16.3263 6.46512 16.8288 6.41555 17.3313 6.36663C17.3739 6.36248 17.3739 6.36248 17.4174 6.35824C17.6752 6.33314 17.933 6.30811 18.1909 6.28322C18.2794 6.27467 18.368 6.26609 18.4566 6.2575C18.4983 6.25346 18.54 6.24942 18.5818 6.2454C18.7957 6.22474 19.0095 6.20313 19.2231 6.17915C19.2601 6.17502 19.2971 6.17089 19.3352 6.16664C19.4033 6.15895 19.4714 6.15109 19.5395 6.143C19.7589 6.11818 19.9746 6.11256 20.1953 6.11673Z" fill="#072948"/>
<path id="Vector_3" d="M27.3597 0.626638C27.3804 0.633285 27.401 0.639931 27.4223 0.64678C28.7069 1.06667 29.7393 1.96422 30.3619 3.1591C30.6037 3.64111 30.7311 4.14955 30.8241 4.67822C30.8296 4.70879 30.8352 4.73937 30.8408 4.77088C30.9381 5.41466 30.9126 6.09539 30.7947 6.73336C30.7857 6.78667 30.7857 6.78667 30.7765 6.84105C30.5866 7.84714 30.0678 8.71737 29.3679 9.45004C29.3404 9.47885 29.3131 9.50781 29.2859 9.53691C28.6017 10.2682 27.708 10.7004 26.7432 10.9317C26.7175 10.938 26.6918 10.9442 26.6654 10.9506C25.9379 11.1182 25.0646 11.1362 24.3357 10.9611C24.2989 10.9523 24.2989 10.9523 24.2613 10.9434C23.4859 10.7529 22.8095 10.4042 22.1834 9.91209C22.1344 9.87529 22.0842 9.8423 22.0325 9.80955C22.0078 9.79233 21.9831 9.77511 21.9576 9.75737C21.9576 9.73799 21.9576 9.71861 21.9576 9.69865C21.9319 9.68724 21.9319 9.68724 21.9057 9.6756C21.6721 9.54841 21.5037 9.28556 21.3411 9.0821C21.321 9.05818 21.301 9.03427 21.2804 9.00962C20.6478 8.247 20.1757 7.11681 20.1961 6.11682C20.1282 6.11682 20.0604 6.11682 19.9905 6.11682C19.9905 6.10713 19.9905 6.09744 19.9905 6.08746C20.0487 6.08746 20.1068 6.08746 20.1667 6.08746C20.166 6.05188 20.1653 6.01631 20.1646 5.97966C20.1444 4.46752 20.6946 3.14292 21.7227 2.03588C21.7397 2.017 21.7566 1.99811 21.7741 1.97865C22.557 1.14512 23.8032 0.621056 24.9211 0.490851C24.9794 0.483784 25.0378 0.476675 25.0962 0.46952C25.1215 0.466545 25.1467 0.463569 25.1728 0.460503C25.246 0.451391 25.246 0.451391 25.318 0.434986C25.9573 0.316246 26.745 0.424774 27.3597 0.626638Z" fill="#072948"/>
<path id="Vector_4" d="M24.7719 0.517946C24.6631 0.578422 24.2582 0.679423 24.1192 0.764346C23.8851 0.840524 23.6716 0.951771 23.4549 1.06711C23.4278 1.08143 23.4278 1.08143 23.4 1.09604C22.3227 1.66865 21.5133 2.70297 21.1356 3.85624C20.7707 5.09215 20.8396 6.44712 21.4547 7.59152C21.6348 7.91469 21.8293 8.21722 22.075 8.495C22.1004 8.52396 22.1258 8.55291 22.152 8.58274C23.0124 9.5503 24.2196 10.127 25.5101 10.2272C26.1772 10.2628 26.849 10.1989 27.4771 9.96297C27.4994 9.95495 27.5217 9.94694 27.5447 9.93868C28.0522 9.75528 28.5205 9.50511 28.9451 9.17027C28.9704 9.15089 28.9957 9.13151 29.0218 9.11155C29.7339 8.55094 30.2045 7.83649 30.5305 6.99768C30.5491 6.95085 30.5491 6.95085 30.568 6.90307C30.6313 6.73698 30.6754 6.57062 30.7123 6.39673C30.7372 6.31886 30.7617 6.28553 30.8241 6.23434C30.8812 7.36997 30.2246 8.50582 29.4909 9.32472C28.7339 10.1529 27.8344 10.6702 26.7432 10.9318C26.7175 10.938 26.6918 10.9443 26.6654 10.9507C25.9379 11.1183 25.0646 11.1363 24.3357 10.9612C24.2989 10.9524 24.2989 10.9524 24.2613 10.9435C23.4859 10.7529 22.8095 10.4043 22.1834 9.91218C22.1344 9.87537 22.0842 9.84239 22.0325 9.80963C22.0078 9.79241 21.9831 9.77519 21.9576 9.75745C21.9576 9.73807 21.9576 9.7187 21.9576 9.69873C21.9319 9.68732 21.9319 9.68732 21.9057 9.67568C21.6721 9.5485 21.5037 9.28564 21.3411 9.08219C21.321 9.05827 21.301 9.03435 21.2804 9.00971C20.6478 8.24708 20.1757 7.11689 20.1961 6.1169C20.1282 6.1169 20.0604 6.1169 19.9905 6.1169C19.9905 6.10722 19.9905 6.09753 19.9905 6.08754C20.0487 6.08754 20.1068 6.08754 20.1667 6.08754C20.166 6.05197 20.1653 6.01639 20.1646 5.97974C20.1444 4.46761 20.6946 3.14301 21.7227 2.03597C21.7397 2.01708 21.7566 1.9982 21.7741 1.97874C22.246 1.47632 23.8178 0.415189 24.7719 0.517946Z" fill="#7A8A9A"/>
<path id="Vector_5" d="M17.8467 24.6424C18.1565 24.9042 18.4029 25.2609 18.4633 25.67C18.478 25.9326 18.4901 26.2111 18.4046 26.4627C18.3977 26.4852 18.3909 26.5078 18.3838 26.5311C18.247 26.9277 17.945 27.2314 17.5825 27.4315C17.5631 27.4315 17.5438 27.4315 17.5238 27.4315C17.5176 27.6004 17.5309 27.7614 17.5532 27.9288C17.5765 28.1124 17.5897 28.2941 17.5917 28.4793C17.5922 28.501 17.5927 28.5228 17.5932 28.5453C17.5931 28.7303 17.5443 28.8446 17.421 28.9802C17.3163 29.0625 17.2045 29.0696 17.0756 29.0873C16.9913 29.1059 16.9438 29.1322 16.8742 29.1821C16.7689 29.2542 16.6894 29.2739 16.5619 29.266C16.4079 29.2327 16.3027 29.1509 16.199 29.0357C16.1068 28.8903 16.1092 28.7105 16.0944 28.5435C16.0909 28.5094 16.0875 28.4754 16.084 28.4403C16.057 28.1677 16.057 28.1677 16.0521 28.0352C16.0507 28.0038 16.0493 27.9724 16.0479 27.94C16.0472 27.912 16.0466 27.884 16.0459 27.8552C16.0326 27.7772 16.0326 27.7772 15.9569 27.7321C15.876 27.694 15.7946 27.6611 15.7109 27.6297C15.5366 27.5583 15.403 27.4685 15.2631 27.3434C15.2447 27.3274 15.2263 27.3114 15.2074 27.2949C14.9567 27.0623 14.7559 26.7052 14.729 26.3607C14.7081 25.6882 14.7081 25.6882 14.8815 25.3764C14.8974 25.3475 14.9133 25.3187 14.9297 25.289C15.2589 24.7377 15.7888 24.5406 16.3788 24.3781C16.4044 24.3708 16.4299 24.3634 16.4563 24.3558C16.9301 24.2321 17.4577 24.3534 17.8467 24.6424Z" fill="#072948"/>
<path id="Vector_6" d="M15.9384 24.5837C15.9001 24.6172 15.9001 24.6172 15.8611 24.6514C15.5124 24.9619 15.2377 25.3052 15.1968 25.7889C15.1816 26.2378 15.2973 26.6804 15.5916 27.026C15.813 27.2587 16.0528 27.3932 16.3493 27.509C16.4735 27.5652 16.4735 27.5652 16.5256 27.637C16.5383 27.7116 16.546 27.7806 16.5504 27.8557C16.5528 27.8879 16.5528 27.8879 16.5553 27.9208C16.5604 27.9895 16.5651 28.0582 16.5696 28.127C16.5742 28.1952 16.5789 28.2634 16.584 28.3315C16.5871 28.3739 16.59 28.4163 16.5925 28.4587C16.6044 28.618 16.6315 28.7939 16.7433 28.9152C16.8136 28.9746 16.8894 29.0246 16.966 29.0756C16.9366 29.1637 16.9366 29.1637 16.8632 29.2133C16.7139 29.2693 16.5818 29.2871 16.4312 29.2249C16.3029 29.1509 16.2028 29.0681 16.1439 28.9288C16.1176 28.8012 16.1059 28.6732 16.0944 28.5435C16.0909 28.5094 16.0875 28.4754 16.084 28.4403C16.057 28.1677 16.057 28.1677 16.0521 28.0352C16.0507 28.0038 16.0493 27.9724 16.0479 27.94C16.0472 27.912 16.0466 27.884 16.0459 27.8552C16.0326 27.7772 16.0326 27.7772 15.9569 27.7321C15.876 27.694 15.7946 27.6611 15.7109 27.6297C15.5366 27.5583 15.403 27.4685 15.2631 27.3434C15.2447 27.3274 15.2263 27.3114 15.2074 27.2949C14.9567 27.0623 14.7559 26.7052 14.729 26.3607C14.7081 25.6882 14.7081 25.6882 14.8815 25.3764C14.9054 25.3331 14.9054 25.3331 14.9297 25.289C15.1022 25.0001 15.5553 24.4645 15.9384 24.5837Z" fill="#7A8A9A"/>
</g>
</svg>
