<svg width="40" height="41" viewBox="0 0 40 41" fill="none" xmlns="http://www.w3.org/2000/svg">
<rect x="0.423828" y="0.902832" width="39.1531" height="39.1531" rx="5.98663" fill="#072948"/>
<rect x="4.13574" y="4.6145" width="31.7294" height="31.7294" rx="3.83145" fill="#F9F9F9"/>
<path d="M25.9673 14.9713L27.8598 13.4336H33.3796" stroke="#072948" stroke-width="1.89225" stroke-linecap="round"/>
<path d="M14.0615 14.9713L12.169 13.4336H6.64923" stroke="#072948" stroke-width="1.89225" stroke-linecap="round"/>
<path d="M24.7056 13.4737C25.0998 12.1595 26.2117 9.42849 27.5049 9.01845C28.7981 8.60841 29.9362 8.66361 30.3436 8.74246" stroke="#072948" stroke-width="0.788439"/>
<rect x="27.8594" y="6.8894" width="5.04667" height="3.46958" rx="1.73479" fill="#072948"/>
<path d="M25.3164 13.1968C26.4597 13.1969 27.3867 14.1238 27.3867 15.2671C27.3867 16.2398 26.7149 17.0531 25.8105 17.2749C26.0123 17.7961 26.125 18.3622 26.125 18.9546C26.1249 20.2673 25.5807 21.4527 24.707 22.2993V29.7583H22.8145V24.4897H17.3066V29.7583H15.166V21.9644C14.4776 21.1525 14.0616 20.1024 14.0615 18.9546C14.0616 18.3552 14.1756 17.7826 14.3818 17.2563C13.5146 17.0095 12.879 16.2135 12.8789 15.2671C12.8789 14.1237 13.8058 13.1968 14.9492 13.1968H25.3164ZM19.2451 16.1724C17.6016 16.1724 16.2695 17.5054 16.2695 19.1489C16.2697 20.7923 17.6017 22.1245 19.2451 22.1245H21.0195C22.663 22.1245 23.9959 20.7923 23.9961 19.1489C23.9961 17.5054 22.6631 16.1724 21.0195 16.1724H19.2451Z" fill="#072948"/>
<path d="M4.13574 27.0044H35.8651V32.7516C35.8651 34.8677 34.1497 36.5831 32.0337 36.5831H7.96719C5.85114 36.5831 4.13574 34.8677 4.13574 32.7516V27.0044Z" fill="#072948"/>
<path d="M7.727 29.8645C8.32472 29.8645 8.84829 29.9701 9.29771 30.1813C9.75162 30.3881 10.1022 30.6824 10.3493 31.0644C10.601 31.4419 10.7268 31.8846 10.7268 32.3924C10.7268 32.9003 10.601 33.3452 10.3493 33.7272C10.1022 34.1047 9.75162 34.3991 9.29771 34.6103C8.84829 34.817 8.32472 34.9204 7.727 34.9204H5.20577V29.8645H7.727ZM6.59447 34.3339L5.92709 33.68H7.83486C8.13597 33.68 8.39663 33.6283 8.61684 33.525C8.84155 33.4171 9.01457 33.2666 9.13592 33.0733C9.25726 32.8801 9.31793 32.6531 9.31793 32.3924C9.31793 32.1273 9.25726 31.9003 9.13592 31.7116C9.01457 31.5183 8.84155 31.37 8.61684 31.2667C8.39663 31.1588 8.13597 31.1049 7.83486 31.1049H5.92709L6.59447 30.451V34.3339ZM11.1308 31.0712H12.533L12.7622 32.4464V34.9204H11.387V32.3655L11.1308 31.0712ZM14.5688 31.0105V32.1835C14.434 32.1565 14.3059 32.1385 14.1846 32.1295C14.0677 32.1161 13.9599 32.1093 13.861 32.1093C13.6633 32.1093 13.4812 32.1498 13.315 32.2307C13.1487 32.3071 13.0138 32.4351 12.9105 32.6149C12.8116 32.7947 12.7622 33.0351 12.7622 33.3362L12.4993 33.0126C12.5352 32.734 12.5892 32.4733 12.6611 32.2307C12.733 31.9835 12.8296 31.7655 12.9509 31.5768C13.0768 31.3835 13.2318 31.233 13.4161 31.1251C13.6003 31.0127 13.825 30.9566 14.0902 30.9566C14.1666 30.9566 14.2452 30.9611 14.3261 30.97C14.407 30.979 14.4879 30.9925 14.5688 31.0105ZM15.0389 31.0105L15.7333 31.1453L16.4209 31.0105V34.9204H15.0389V31.0105ZM15.7265 30.6937C15.4883 30.6937 15.2951 30.6352 15.1468 30.5184C14.9985 30.397 14.9243 30.233 14.9243 30.0263C14.9243 29.824 14.9985 29.6622 15.1468 29.5409C15.2951 29.4196 15.4883 29.3589 15.7265 29.3589C15.9737 29.3589 16.1692 29.4196 16.313 29.5409C16.4613 29.6622 16.5355 29.824 16.5355 30.0263C16.5355 30.233 16.4613 30.397 16.313 30.5184C16.1692 30.6352 15.9737 30.6937 15.7265 30.6937ZM19.6458 34.2665L19.1739 34.2598L20.5086 31.0712H21.9782L20.1783 34.9204H18.6076L16.8077 31.0712H18.3312L19.6458 34.2665ZM24.3874 35.0283C23.92 35.0283 23.502 34.9429 23.1335 34.7721C22.7695 34.6013 22.4819 34.3631 22.2706 34.0575C22.0594 33.7474 21.9538 33.3879 21.9538 32.9789C21.9538 32.579 22.0549 32.2284 22.2572 31.9273C22.4594 31.6217 22.7358 31.3835 23.0863 31.2127C23.4414 31.042 23.8413 30.9566 24.2863 30.9566C24.7492 30.9566 25.1424 31.0577 25.466 31.2599C25.7941 31.4577 26.0457 31.7385 26.221 32.1026C26.4008 32.4666 26.4907 32.8958 26.4907 33.3901H23.0661V32.561H25.7154L25.2637 32.8508C25.2458 32.6531 25.1963 32.4868 25.1154 32.352C25.0345 32.2127 24.9267 32.1071 24.7919 32.0352C24.6615 31.9633 24.5042 31.9273 24.32 31.9273C24.1177 31.9273 23.9447 31.9677 23.8009 32.0486C23.6571 32.1295 23.5447 32.2419 23.4638 32.3857C23.3829 32.525 23.3425 32.6891 23.3425 32.8778C23.3425 33.1205 23.3964 33.3272 23.5043 33.498C23.6166 33.6643 23.7784 33.7924 23.9897 33.8823C24.2054 33.9721 24.4683 34.0171 24.7784 34.0171C25.0615 34.0171 25.3424 33.9811 25.621 33.9092C25.9042 33.8328 26.1603 33.7272 26.3895 33.5924V34.4687C26.1244 34.6485 25.821 34.7878 25.4795 34.8867C25.1424 34.9811 24.7784 35.0283 24.3874 35.0283ZM26.8779 31.0712H28.2801L28.5093 32.4464V34.9204H27.1341V32.3655L26.8779 31.0712ZM30.3159 31.0105V32.1835C30.1811 32.1565 30.053 32.1385 29.9317 32.1295C29.8148 32.1161 29.707 32.1093 29.6081 32.1093C29.4104 32.1093 29.2284 32.1498 29.0621 32.2307C28.8958 32.3071 28.761 32.4351 28.6576 32.6149C28.5587 32.7947 28.5093 33.0351 28.5093 33.3362L28.2464 33.0126C28.2823 32.734 28.3363 32.4733 28.4082 32.2307C28.4801 31.9835 28.5767 31.7655 28.698 31.5768C28.8239 31.3835 28.9789 31.233 29.1632 31.1251C29.3474 31.0127 29.5722 30.9566 29.8373 30.9566C29.9137 30.9566 29.9924 30.9611 30.0733 30.97C30.1542 30.979 30.235 30.9925 30.3159 31.0105ZM35.1829 33.6665C35.1829 33.9632 35.093 34.2126 34.9133 34.4148C34.7335 34.6171 34.4773 34.7699 34.1448 34.8732C33.8122 34.9766 33.4122 35.0283 32.9448 35.0283C32.4639 35.0283 32.0415 34.9698 31.6775 34.853C31.3179 34.7361 31.037 34.5721 30.8348 34.3609C30.6326 34.1497 30.5247 33.9047 30.5112 33.6261H31.9067C31.9381 33.7295 31.9988 33.8193 32.0887 33.8957C32.1831 33.9676 32.3066 34.0238 32.4594 34.0643C32.6122 34.1002 32.7943 34.1182 33.0055 34.1182C33.2796 34.1182 33.4864 34.0912 33.6257 34.0373C33.7695 33.9834 33.8414 33.9025 33.8414 33.7946C33.8414 33.7092 33.7875 33.6463 33.6796 33.6059C33.5717 33.5609 33.3875 33.5272 33.1268 33.5047L32.446 33.4508C31.9921 33.4194 31.6303 33.3519 31.3606 33.2486C31.0955 33.1407 30.9045 33.0037 30.7876 32.8374C30.6708 32.6666 30.6123 32.4733 30.6123 32.2576C30.6123 31.9655 30.7022 31.7251 30.882 31.5363C31.0663 31.3431 31.3202 31.1992 31.6438 31.1049C31.9718 31.006 32.3538 30.9566 32.7898 30.9566C33.2212 30.9566 33.6055 31.0127 33.9425 31.1251C34.2796 31.2374 34.5492 31.3947 34.7515 31.597C34.9537 31.7947 35.0706 32.0284 35.102 32.2981H33.7066C33.6841 32.2127 33.6347 32.1363 33.5583 32.0689C33.4819 31.997 33.3763 31.9385 33.2414 31.8936C33.1066 31.8487 32.9336 31.8262 32.7224 31.8262C32.4752 31.8262 32.2864 31.8531 32.1561 31.9071C32.0303 31.961 31.9673 32.0374 31.9673 32.1363C31.9673 32.2127 32.0055 32.2734 32.0819 32.3183C32.1628 32.3632 32.3111 32.3947 32.5269 32.4127L33.4234 32.4801C33.8684 32.507 34.2189 32.5722 34.4751 32.6756C34.7312 32.7744 34.9133 32.907 35.0211 33.0733C35.129 33.2396 35.1829 33.4373 35.1829 33.6665Z" fill="#F9F9F9"/>
</svg>
