<svg width="41" height="41" viewBox="0 0 41 41" fill="none" xmlns="http://www.w3.org/2000/svg">
<g id="Bold Duotone / Security / QR Code">
<g id="Vector" opacity="0.5">
<path d="M17.9217 23.1512C17.2156 22.4451 16.3368 22.1572 15.3635 22.0264C14.4414 21.9024 13.2798 21.9024 11.8868 21.9025L10.0452 21.9025C9.07742 21.9024 8.2697 21.9024 7.61368 21.9648C6.92785 22.03 6.28872 22.1715 5.70249 22.5307C5.1288 22.8823 4.64646 23.3646 4.29491 23.9383C3.93567 24.5245 3.79418 25.1637 3.72897 25.8495C3.66659 26.5056 3.66661 27.3133 3.66663 28.2812V28.395C3.66661 29.8679 3.6666 31.0559 3.75752 32.0121C3.85129 32.9983 4.0499 33.8575 4.52337 34.6302C5.00277 35.4125 5.6605 36.0702 6.4428 36.5496C7.21544 37.0231 8.07466 37.2217 9.06084 37.3154C10.0171 37.4064 11.205 37.4063 12.678 37.4063H12.7917C13.7596 37.4064 14.5674 37.4064 15.2235 37.344C15.9093 37.2788 16.5484 37.1373 17.1346 36.7781C17.7083 36.4265 18.1907 35.9442 18.5422 35.3705C18.9015 34.7842 19.043 34.1451 19.1082 33.4593C19.1705 32.8033 19.1705 31.9955 19.1705 31.0276L19.1705 29.1862C19.1706 27.7932 19.1706 26.6316 19.0466 25.7095C18.9158 24.7361 18.6279 23.8574 17.9217 23.1512Z" fill="#072948"/>
<path d="M15.2235 4.13534C15.9093 4.20055 16.5484 4.34204 17.1346 4.70128C17.7083 5.05284 18.1907 5.53517 18.5422 6.10886C18.9015 6.69509 19.043 7.33422 19.1082 8.02005C19.1705 8.67606 19.1705 9.48397 19.1705 10.4518L19.1705 12.2932C19.1706 13.6862 19.1706 14.8477 19.0466 15.7699C18.9158 16.7432 18.6279 17.622 17.9217 18.3281C17.2156 19.0343 16.3368 19.3221 15.3635 19.453C14.4414 19.577 13.2797 19.5769 11.8868 19.5769L10.0451 19.5769C9.07735 19.5769 8.26968 19.5769 7.61368 19.5145C6.92785 19.4493 6.28872 19.3078 5.70249 18.9486C5.1288 18.597 4.64646 18.1147 4.29491 17.541C3.93567 16.9548 3.79418 16.3157 3.72897 15.6298C3.66659 14.9738 3.66661 14.166 3.66663 13.1981V13.0843C3.66661 11.6114 3.6666 10.4235 3.75752 9.46722C3.85129 8.48103 4.0499 7.62181 4.52337 6.84917C5.00277 6.06687 5.6605 5.40914 6.4428 4.92974C7.21544 4.45627 8.07466 4.25766 9.06084 4.1639C10.0171 4.07297 11.2051 4.07299 12.678 4.073H12.7918C13.7597 4.07298 14.5674 4.07296 15.2235 4.13534Z" fill="#072948"/>
<path d="M27.9886 4.073H27.8749C26.907 4.07298 26.0992 4.07296 25.4431 4.13534C24.7573 4.20055 24.1182 4.34204 23.5319 4.70128C22.9583 5.05284 22.4759 5.53517 22.1244 6.10886C21.7651 6.69509 21.6236 7.33422 21.5584 8.02005C21.496 8.67608 21.4961 9.4839 21.4961 10.4517L21.4961 12.2932C21.496 13.6861 21.496 14.8477 21.62 15.7699C21.7508 16.7432 22.0387 17.622 22.7449 18.3281C23.451 19.0343 24.3298 19.3221 25.3031 19.453C26.2252 19.577 27.3868 19.5769 28.7798 19.5769L30.6213 19.5769C31.5891 19.5769 32.3969 19.5769 33.0529 19.5145C33.7387 19.4493 34.3779 19.3078 34.9641 18.9486C35.5378 18.597 36.0201 18.1147 36.3717 17.541C36.7309 16.9548 36.8724 16.3157 36.9376 15.6298C37 14.9738 37 14.1661 37 13.1983V13.0844C37 11.6114 37 10.4235 36.9091 9.46722C36.8153 8.48103 36.6167 7.62181 36.1432 6.84917C35.6638 6.06687 35.0061 5.40914 34.2238 4.92974C33.4512 4.45627 32.5919 4.25766 31.6057 4.1639C30.6495 4.07297 29.4616 4.07299 27.9886 4.073Z" fill="#072948"/>
</g>
<path id="Vector_2" opacity="0.4" d="M23.821 36.2437C23.821 36.8859 23.3004 37.4065 22.6582 37.4065C22.016 37.4065 21.4954 36.8859 21.4954 36.2437V31.5925H23.821V36.2437Z" fill="#072948"/>
<path id="Vector_3" opacity="0.5" d="M35.8369 21.9026C35.1947 21.9026 34.6741 22.4232 34.6741 23.0654V28.4917H36.9997V23.0654C36.9997 22.4232 36.4791 21.9026 35.8369 21.9026Z" fill="black"/>
<path id="Vector_4" d="M27.1269 28.4354C27 28.7416 27 29.1299 27 29.9065C27 30.6831 27 31.0713 27.1269 31.3776C27.296 31.786 27.6205 32.1105 28.0289 32.2796C28.3351 32.4065 28.7234 32.4065 29.5 32.4065C30.2766 32.4065 30.6649 32.4065 30.9711 32.2796C31.3795 32.1105 31.704 31.786 31.8731 31.3776C32 31.0713 32 30.6831 32 29.9065C32 29.1299 32 28.7416 31.8731 28.4354C31.704 28.027 31.3795 27.7025 30.9711 27.5334C30.6649 27.4065 30.2766 27.4065 29.5 27.4065C28.7234 27.4065 28.3351 27.4065 28.0289 27.5334C27.6205 27.7025 27.296 28.027 27.1269 28.4354Z" fill="black"/>
<path id="Vector_5" opacity="0.7" d="M36.9993 31.6317V31.5925H34.6737C34.6737 32.3308 34.6731 32.8263 34.6469 33.21C34.6215 33.5832 34.5758 33.7649 34.5262 33.8846C34.3295 34.3594 33.9523 34.7367 33.4774 34.9334C33.3578 34.9829 33.176 35.0286 32.8028 35.0541C32.4192 35.0803 31.9237 35.0809 31.1854 35.0809H28.0846V37.4065H31.2245C31.9136 37.4065 32.4889 37.4065 32.9611 37.3743C33.4528 37.3407 33.9171 37.2684 34.3674 37.0819C35.412 36.6492 36.2421 35.8192 36.6748 34.7745C36.8613 34.3243 36.9336 33.8599 36.9671 33.3683C36.9993 32.896 36.9993 32.3208 36.9993 31.6317Z" fill="black"/>
<path id="Vector_6" opacity="0.6" d="M21.4954 28.4323V28.4917H23.821C23.821 27.3788 23.8224 26.6316 23.8804 26.062C23.9363 25.5118 24.0353 25.2576 24.1476 25.0895C24.289 24.8779 24.4707 24.6962 24.6823 24.5548C24.8504 24.4424 25.1047 24.3435 25.6548 24.2875C26.2245 24.2296 26.9716 24.2282 28.0846 24.2282H31.1853V21.9026H28.0251C26.987 21.9026 26.1208 21.9025 25.4195 21.9739C24.6854 22.0486 24.0042 22.2109 23.3903 22.6211C22.9247 22.9322 22.525 23.3319 22.214 23.7974C21.8037 24.4114 21.6414 25.0926 21.5667 25.8266C21.4954 26.5279 21.4954 27.3942 21.4954 28.4323Z" fill="black"/>
<path id="Vector_7" d="M9.51436 31.8902C9.87828 32.1484 10.3937 32.1484 11.4245 32.1484C12.4553 32.1484 12.9707 32.1484 13.3346 31.8902C13.4631 31.7991 13.5752 31.687 13.6663 31.5586C13.9245 31.1947 13.9245 30.6793 13.9245 29.6484C13.9245 28.6176 13.9245 28.1022 13.6663 27.7383C13.5752 27.6099 13.4631 27.4978 13.3346 27.4067C12.9707 27.1484 12.4553 27.1484 11.4245 27.1484C10.3937 27.1484 9.87828 27.1484 9.51436 27.4067C9.38595 27.4978 9.27383 27.6099 9.18271 27.7383C8.9245 28.1022 8.9245 28.6176 8.9245 29.6484C8.9245 30.6793 8.9245 31.1947 9.18271 31.5586C9.27383 31.687 9.38595 31.7991 9.51436 31.8902Z" fill="black"/>
<path id="Vector_8" d="M11.4242 14.3313C10.3934 14.3313 9.87797 14.3313 9.51405 14.0731C9.38564 13.982 9.27352 13.8699 9.18241 13.7414C8.92419 13.3775 8.92419 12.8621 8.92419 11.8313C8.92419 10.8005 8.92419 10.2851 9.18241 9.92116C9.27352 9.79275 9.38564 9.68063 9.51405 9.58951C9.87797 9.3313 10.3934 9.3313 11.4242 9.3313C12.455 9.3313 12.9704 9.3313 13.3343 9.58951C13.4627 9.68063 13.5749 9.79275 13.666 9.92116C13.9242 10.2851 13.9242 10.8005 13.9242 11.8313C13.9242 12.8621 13.9242 13.3775 13.666 13.7414C13.5749 13.8699 13.4627 13.982 13.3343 14.0731C12.9704 14.3313 12.455 14.3313 11.4242 14.3313Z" fill="black"/>
<path id="Vector_9" d="M27.3324 14.0733C27.6963 14.3315 28.2117 14.3315 29.2426 14.3315C30.2734 14.3315 30.7888 14.3315 31.1527 14.0733C31.2811 13.9822 31.3932 13.8701 31.4843 13.7417C31.7426 13.3778 31.7426 12.8624 31.7426 11.8315C31.7426 10.8007 31.7426 10.2853 31.4843 9.9214C31.3932 9.79299 31.2811 9.68087 31.1527 9.58975C30.7888 9.33154 30.2734 9.33154 29.2426 9.33154C28.2117 9.33154 27.6963 9.33154 27.3324 9.58975C27.204 9.68087 27.0919 9.79299 27.0008 9.9214C26.7426 10.2853 26.7426 10.8008 26.7426 11.8316C26.7426 12.8624 26.7426 13.3778 27.0008 13.7417C27.0919 13.8701 27.204 13.9822 27.3324 14.0733Z" fill="black"/>
</g>
</svg>
