<svg xmlns="http://www.w3.org/2000/svg" width="40" height="40" viewBox="0 0 40 40" fill="none">
  <path
        d="M20.5 22.7397C21.8807 22.7397 23 21.6205 23 20.2397C23 18.859 21.8807 17.7397 20.5 17.7397C19.1193 17.7397 18 18.859 18 20.2397C18 21.6205 19.1193 22.7397 20.5 22.7397Z"
        fill="#072948"
        stroke="#072948"
        stroke-width="2"
        stroke-linecap="round"
        stroke-linejoin="round"
    />
  <path
        d="M32.5 22.7397C33.8807 22.7397 35 21.6205 35 20.2397C35 18.859 33.8807 17.7397 32.5 17.7397C31.1193 17.7397 30 18.859 30 20.2397C30 21.6205 31.1193 22.7397 32.5 22.7397Z"
        fill="#072948"
        stroke="#072948"
        stroke-width="2"
        stroke-linecap="round"
        stroke-linejoin="round"
    />
  <path
        d="M9.5 22.7397C10.8807 22.7397 12 21.6205 12 20.2397C12 18.859 10.8807 17.7397 9.5 17.7397C8.11929 17.7397 7 18.859 7 20.2397C7 21.6205 8.11929 22.7397 9.5 22.7397Z"
        fill="#072948"
        stroke="#072948"
        stroke-width="2"
        stroke-linecap="round"
        stroke-linejoin="round"
    />
</svg>
