<svg width="41" height="41" viewBox="0 0 41 41" fill="none" xmlns="http://www.w3.org/2000/svg">
<g id="Bold Duotone / Security / Siren ">
<path id="Vector" opacity="0.5" d="M34 36.1563V27.4063C34 22.7392 34 20.4057 33.0918 18.6231C32.2928 17.0551 31.018 15.7802 29.45 14.9813C27.6674 14.073 25.3338 14.073 20.6667 14.073C15.9996 14.073 13.6661 14.073 11.8835 14.9813C10.3154 15.7802 9.0406 17.0551 8.24165 18.6231C7.33337 20.4057 7.33337 22.7392 7.33337 27.4063V36.1563H34Z" fill="#072948"/>
<path id="Vector_2" d="M24.4167 18.7646C24.4167 18.0743 24.9763 17.5146 25.6667 17.5146C28.3633 17.5146 30.6605 19.6342 30.5577 22.452C30.5325 23.1419 29.9528 23.6808 29.2629 23.6556C28.573 23.6304 28.0341 23.0507 28.0593 22.3608C28.1061 21.0787 27.07 20.0146 25.6667 20.0146C24.9763 20.0146 24.4167 19.455 24.4167 18.7646Z" fill="#072948"/>
<path id="Vector_3" d="M7.33333 36.1565H4C3.30964 36.1565 2.75 36.7161 2.75 37.4065C2.75 38.0968 3.30964 38.6565 4 38.6565H37.3333C38.0237 38.6565 38.5833 38.0968 38.5833 37.4065C38.5833 36.7161 38.0237 36.1565 37.3333 36.1565H34H7.33333Z" fill="#072948"/>
<path id="Vector_4" d="M21.9167 32.072C22.6639 31.6398 23.1667 30.8318 23.1667 29.9065C23.1667 28.5258 22.0474 27.4065 20.6667 27.4065C19.286 27.4065 18.1667 28.5258 18.1667 29.9065C18.1667 30.8318 18.6694 31.6398 19.4167 32.072V36.1565H21.9167V32.072Z" fill="#072948"/>
<g id="Vector_5">
<path d="M20.6667 2.823C21.357 2.823 21.9167 3.38264 21.9167 4.073V9.073C21.9167 9.76335 21.357 10.323 20.6667 10.323C19.9763 10.323 19.4167 9.76335 19.4167 9.073V4.073C19.4167 3.38264 19.9763 2.823 20.6667 2.823Z" fill="#072948"/>
<path d="M36.5506 9.95688L34.0506 12.4569C33.5624 12.945 32.771 12.945 32.2828 12.4569C31.7946 11.9687 31.7946 11.1773 32.2828 10.6891L34.7828 8.18911C35.271 7.70096 36.0624 7.70096 36.5506 8.18911C37.0387 8.67727 37.0387 9.46873 36.5506 9.95688Z" fill="#072948"/>
<path d="M6.55057 8.18911C6.06242 7.70096 5.27096 7.70096 4.7828 8.18911C4.29465 8.67727 4.29465 9.46873 4.7828 9.95688L7.2828 12.4569C7.77096 12.945 8.56241 12.945 9.05057 12.4569C9.53873 11.9687 9.53873 11.1773 9.05057 10.6891L6.55057 8.18911Z" fill="#072948"/>
</g>
</g>
</svg>
