<svg xmlns="http://www.w3.org/2000/svg" width="40" height="40" viewBox="0 0 40 40" fill="none">
  <path
        d="M39.1267 14.0197L34.1845 3.12764C33.9839 2.68286 33.6747 2.30856 33.2917 2.04681C32.9086 1.78507 32.4669 1.64626 32.0162 1.646H7.98352C7.53281 1.64626 7.0911 1.78507 6.70805 2.04681C6.32501 2.30856 6.01582 2.68286 5.81525 3.12764L0.873049 14.0197C0.704307 14.3928 0.617189 14.8042 0.618671 15.221V19.3323C0.617565 19.956 0.814709 20.5605 1.17588 21.0408C1.70966 21.7151 2.36891 22.2548 3.10883 22.6233C3.84875 22.9919 4.65199 23.1805 5.46397 23.1765C6.78888 23.1788 8.07338 22.674 9.09794 21.7483C10.1225 22.6745 11.4067 23.1807 12.7319 23.1807C14.0571 23.1807 15.3413 22.6745 16.3659 21.7483C17.3904 22.6745 18.6747 23.1807 19.9999 23.1807C21.3251 23.1807 22.6093 22.6745 23.6338 21.7483C24.6584 22.6745 25.9426 23.1807 27.2678 23.1807C28.593 23.1807 29.8772 22.6745 30.9018 21.7483C32.0455 22.7831 33.5087 23.2889 34.9838 23.1595C36.4589 23.03 37.8311 22.2754 38.8117 21.0542C39.1773 20.5757 39.3788 19.971 39.381 19.3456V15.221C39.3825 14.8042 39.2954 14.3928 39.1267 14.0197ZM16.3659 15.5281V17.557L15.3726 18.9986C15.0677 19.4565 14.6692 19.8289 14.2094 20.0856C13.7495 20.3423 13.2413 20.4761 12.7259 20.4761C12.2104 20.4761 11.7022 20.3423 11.2424 20.0856C10.7825 19.8289 10.384 19.4565 10.0791 18.9986L9.09794 17.5036V15.5281L12.2353 4.31562H17.5772L16.3659 15.5281ZM30.9018 17.5036L29.9206 18.9986C29.6157 19.4565 29.2172 19.8289 28.7574 20.0856C28.2975 20.3423 27.7893 20.4761 27.2739 20.4761C26.7584 20.4761 26.2502 20.3423 25.7904 20.0856C25.3305 19.8289 24.932 19.4565 24.6271 18.9986L23.6338 17.5036V15.5281L22.4225 4.31562H27.8129L30.9018 15.5281V17.5036Z"
        fill="#F9F9F9"
    />
  <path
        d="M4.12109 35.2934V8.98172C4.12109 6.76164 5.92083 4.96191 8.1409 4.96191H31.8631C34.0832 4.96191 35.883 6.76165 35.883 8.98172V35.2934C35.883 37.5134 34.0832 39.3132 31.8631 39.3132H8.1409C5.92082 39.3132 4.12109 37.5134 4.12109 35.2934Z"
        fill="#F9F9F9"
    />
  <path
        d="M37.0018 13.7809L32.6088 4.99474C32.4305 4.63595 32.1557 4.33402 31.8152 4.12288C31.4747 3.91174 31.0821 3.79977 30.6814 3.79956H9.31902C8.91838 3.79977 8.52575 3.91174 8.18527 4.12288C7.84478 4.33402 7.56995 4.63595 7.39166 4.99474L2.99859 13.7809C2.8486 14.0818 2.77116 14.4137 2.77248 14.7499V18.0663C2.77149 18.5694 2.94673 19.0571 3.26777 19.4445C3.74225 19.9884 4.32825 20.4238 4.98595 20.721C5.64366 21.0183 6.35765 21.1705 7.07941 21.1673C8.25711 21.1691 9.39889 20.7619 10.3096 20.0152C11.2203 20.7623 12.3619 21.1706 13.5398 21.1706C14.7178 21.1706 15.8593 20.7623 16.77 20.0152C17.6807 20.7623 18.8223 21.1706 20.0002 21.1706C21.1782 21.1706 22.3197 20.7623 23.2304 20.0152C24.1411 20.7623 25.2827 21.1706 26.4606 21.1706C27.6386 21.1706 28.7801 20.7623 29.6908 20.0152C30.7074 20.8499 32.0081 21.2579 33.3193 21.1535C34.6305 21.0491 35.8502 20.4404 36.7219 19.4553C37.0468 19.0693 37.2259 18.5816 37.228 18.077V14.7499C37.2293 14.4137 37.1518 14.0818 37.0018 13.7809ZM16.77 14.9976V16.6342L15.8871 17.7971C15.6161 18.1665 15.2618 18.4669 14.8531 18.674C14.4444 18.8811 13.9926 18.989 13.5344 18.989C13.0762 18.989 12.6245 18.8811 12.2158 18.674C11.807 18.4669 11.4528 18.1665 11.1818 17.7971L10.3096 16.5912V14.9976L13.0984 5.95303H17.8467L16.77 14.9976ZM29.6908 16.5912L28.8187 17.7971C28.5476 18.1665 28.1934 18.4669 27.7847 18.674C27.3759 18.8811 26.9242 18.989 26.466 18.989C26.0078 18.989 25.5561 18.8811 25.1473 18.674C24.7386 18.4669 24.3844 18.1665 24.1133 17.7971L23.2304 16.5912V14.9976L22.1537 5.95303H26.9452L29.6908 14.9976V16.5912Z"
        fill="#072948"
    />
  <path
        d="M7.0791 25.3342V33.9481C7.0791 35.1374 8.04324 36.1016 9.23257 36.1016H30.7672C31.9566 36.1016 32.9207 35.1374 32.9207 33.9481V25.3342"
        stroke="#072948"
        stroke-width="2.7943"
        stroke-linecap="round"
    />
  <path
        d="M24.3067 27.4876C24.3067 29.0734 22.3785 30.3589 19.9998 30.3589C17.6212 30.3589 15.6929 29.0734 15.6929 27.4876"
        stroke="#072948"
        stroke-width="2.7943"
        stroke-linecap="round"
    />
  <path d="M32.9207 2.7229V11.3368M28.6138 7.02984H37.2276" stroke="#F9F9F9" stroke-width="5.16832" stroke-linecap="round" stroke-linejoin="round" />
  <path d="M32.9207 2.7229V11.3368M28.6138 7.02984H37.2276" stroke="#072948" stroke-width="2.46111" stroke-linecap="round" stroke-linejoin="round" />
</svg>
