<svg width="46" height="46" viewBox="0 0 46 46" fill="none" xmlns="http://www.w3.org/2000/svg">
<g id="Avatar">
<g id="Avatar_2">
<path d="M13.783 13.3649C13.783 8.41623 17.8061 4.39307 22.7548 4.39307C27.7035 4.39307 31.7267 8.41623 31.7267 13.3649C31.7078 18.2192 27.9113 22.1479 23.0759 22.3179H22.9437C22.8304 22.299 22.6793 22.299 22.5282 22.3179C17.5795 22.1479 13.783 18.2192 13.783 13.3649Z" fill="black"/>
<path d="M13.1782 27.34C18.4858 23.8268 27.0798 23.8268 32.3496 27.34C34.7295 28.9266 36.0328 31.0798 36.0516 33.403C36.0516 35.7452 34.7295 37.8984 32.3496 39.5039C29.7052 41.2794 26.2298 42.1671 22.7544 42.1671C19.279 42.1671 15.8037 41.2794 13.1593 39.5039C10.7794 37.9173 9.45728 35.7641 9.45728 33.4408C9.45728 31.1176 10.7794 28.9454 13.1782 27.34Z" fill="black"/>
</g>
</g>
</svg>
