<svg width="263" height="159" viewBox="0 0 263 159" fill="none" xmlns="http://www.w3.org/2000/svg">
<g clip-path="url(#clip0_49_1276)">
<path fill-rule="evenodd" clip-rule="evenodd" d="M155.044 141.203L160.945 127.18H164.564L169.738 137.608C168.322 137.642 167.095 137.801 166.442 138.181C165.182 137.705 163.864 137.367 162.743 137.418C160.098 137.542 156.775 139.988 155.479 141.025C155.32 141.073 155.174 141.132 155.044 141.203ZM128.377 109.031C128.277 109.06 128.18 109.104 128.09 109.16C126.971 109.816 125.367 110.839 124.738 111.699C123.727 113.081 123.949 120.842 124.561 122.41C125.08 123.736 126.955 125.459 128.377 125.803V135.479H115.148H89.4162C96.5104 131.827 101.182 128.641 101.182 128.641L100.655 126.509C100.655 126.509 109.346 126.811 111.462 126.509C113.579 126.207 115.696 123.666 116.784 121.974C117.872 120.28 118.175 111.815 116.784 110.665C115.393 109.517 114.909 109.819 112.974 110.665C111.039 111.512 108.439 111.27 108.439 111.27C108.439 111.27 109.407 109.396 107.35 107.823C105.296 106.253 97.5782 114.003 97.5614 114.02L97.2516 112.767C97.2516 112.767 86.0104 115.006 75.401 116.569V102.926H128.377L128.377 109.031ZM169.308 117.488L165.904 121.196L167.361 114.689L169.308 117.488ZM151.966 110.933C152.464 112.056 153.058 113.192 153.745 114.361C153.852 114.544 153.959 114.726 154.065 114.908L152.972 117.488L148.126 115.064L151.966 110.933ZM170.793 99.3547C170.793 99.3547 173.688 103.645 174.674 105.107C174.875 105.405 174.905 105.787 174.753 106.114C174.215 107.271 172.917 110.062 172.167 111.674C171.826 112.407 171.09 112.877 170.28 112.877C169.169 112.877 167.765 112.877 167.765 112.877L170.793 99.3547ZM155.004 97.8951C155.141 97.6773 155.113 97.3943 154.934 97.2081C154.755 97.0225 154.474 96.9819 154.251 97.1103C151.453 98.5978 146.367 101.404 145.469 102.638C145.469 102.638 148.522 103.443 150.13 103.867C150.705 104.019 151.311 103.779 151.627 103.276C152.427 102.002 153.959 99.5615 155.004 97.8951ZM96.1901 94.96C97.3857 94.4761 98.7864 94.5408 99.9752 95.2572C101.163 95.9741 101.874 97.1829 102.004 98.4658C100.808 98.9497 99.4081 98.885 98.2199 98.1686C97.0312 97.4517 96.32 96.2429 96.1901 94.96ZM78.6885 96.7195C79.4891 95.7085 80.7394 95.0736 82.1269 95.1094C83.514 95.1457 84.7296 95.8453 85.476 96.8967C84.6754 97.9077 83.4251 98.5436 82.0375 98.5074C80.6505 98.4716 79.4354 97.7715 78.6885 96.7195ZM116.552 97.8867C116.786 96.6185 117.593 95.4718 118.836 94.8538C120.079 94.2362 121.48 94.2857 122.633 94.8648C122.398 96.1335 121.592 97.2797 120.349 97.8977C119.105 98.5152 117.704 98.4658 116.552 97.8867ZM156.329 89.9346L155.18 88.8037V78.745C153.272 79.4914 151.089 79.6918 149.431 78.3416C146.334 75.8183 146.243 70.5636 146.86 67.3119C147.522 63.8255 148.755 60.2203 152.66 59.8669C152.828 59.8516 152.85 59.8427 153.226 59.8479C154.219 59.88 155.2 60.1556 156.044 60.658C156.044 60.658 156.27 60.8368 156.331 61.0819C155.923 61.1482 155.522 61.2166 155.138 61.2844C154.988 61.3113 154.841 61.3439 154.695 61.3818L154.664 61.3902C153.712 61.1135 152.48 60.8252 151.302 61.5227C148.603 63.1176 147.835 67.0589 147.819 69.9971C147.796 73.8432 148.907 78.9086 153.301 78.0807C153.596 78.0249 153.923 77.9281 154.234 77.8214C154.885 77.8613 155.593 77.8598 156.329 77.8214V89.9346ZM186.345 39.3208C186.345 39.3208 186.055 29.3431 196.577 27.0455C207.099 24.7474 214.114 27.3474 216.654 30.7949C219.194 34.2412 218.8 43.7623 218.8 43.7623C216.644 43.0086 214.078 43.9959 212.904 46.578C212.904 46.578 208.47 40.7121 206.907 36.4788C206.907 36.4788 191.894 40.5595 186.409 39.336L186.345 39.3208ZM46.4431 41.4285C46.0176 38.0984 45.3816 28.0628 52.7299 25.8015C52.7299 25.8015 55.7533 18.9988 64.2945 18.9988C72.8367 18.9988 75.6308 24.4855 79.5196 25.8015C83.726 27.2249 86.2913 26.1797 87.1986 27.3133C88.066 28.3979 86.9972 40.3418 79.1608 41.6415C79.4349 37.3777 79.5196 33.9608 79.5196 33.9608C71.4065 35.8408 59.7325 32.477 59.7325 32.477C57.9515 40.59 53.8949 42.2722 53.8949 42.2722C53.8949 42.2722 49.0868 37.8964 46.4431 41.4285Z" fill="#091118"/>
<path fill-rule="evenodd" clip-rule="evenodd" d="M124.94 102.926H78.3125C78.7228 101.12 79.709 99.5339 81.0687 98.3694C81.3791 98.4509 81.7042 98.4982 82.0382 98.5072C83.4252 98.5435 84.6755 97.9075 85.4766 96.8965C85.3667 96.7424 85.2473 96.5957 85.1184 96.4573C85.5929 96.3748 86.0805 96.3321 86.5786 96.3321C90.0602 96.3321 93.0537 98.4351 94.3581 101.44C95.0893 99.9211 96.2602 98.6539 97.7051 97.8023C97.865 97.9354 98.037 98.0569 98.2206 98.1679C99.4088 98.8843 100.81 98.949 102.005 98.4651C101.94 97.8265 101.732 97.2058 101.391 96.6556C101.592 96.6409 101.795 96.6335 101.999 96.6335C105.141 96.6335 107.886 98.3462 109.35 100.888C110.805 98.3141 113.568 96.5752 116.734 96.5752C116.83 96.5752 116.927 96.5762 117.023 96.5799C116.796 96.9865 116.637 97.4283 116.553 97.8854C117.705 98.4646 119.106 98.514 120.349 97.8965C120.514 97.8144 120.671 97.7239 120.82 97.624C122.834 98.7375 124.35 100.646 124.94 102.926ZM112.884 93.5675C114.117 93.9457 115.507 93.76 116.629 92.9431C117.751 92.1263 118.355 90.8607 118.373 89.5715C117.14 89.1927 115.751 89.3784 114.629 90.1953C113.507 91.0117 112.903 92.2772 112.884 93.5675ZM102.004 92.3908C103.237 92.7696 104.627 92.5839 105.749 91.767C106.871 90.9501 107.475 89.6846 107.493 88.3948C106.26 88.0166 104.87 88.2023 103.748 89.0192C102.627 89.8361 102.023 91.1016 102.004 92.3908ZM91.371 94.4101C91.7323 93.1719 91.5277 91.7854 90.6956 90.6745C89.8635 89.5641 88.5895 88.9782 87.2997 88.9766C86.9389 90.2148 87.1435 91.6024 87.9756 92.7127C88.8078 93.8231 90.0812 94.4096 91.371 94.4101Z" fill="#091118"/>
<path fill-rule="evenodd" clip-rule="evenodd" d="M179.95 150.803C177.531 151.467 170.824 153.07 165.03 152.263C157.813 151.259 152.852 143.643 154.621 141.539C156.391 139.434 165.785 142.796 165.785 142.796C165.785 142.796 164.455 139.966 166.2 138.357C167.894 136.796 177.329 138.125 177.889 138.205C177.915 140.708 178.209 145.809 179.95 150.803ZM97.5622 114.019C97.5622 114.019 105.294 106.251 107.351 107.823C109.407 109.396 108.44 111.27 108.44 111.27C108.44 111.27 111.04 111.511 112.975 110.665C114.91 109.819 115.394 109.516 116.785 110.665C118.176 111.814 117.873 120.28 116.785 121.973C115.696 123.667 113.58 126.207 111.463 126.509C109.347 126.81 100.656 126.509 100.656 126.509L97.5622 114.019ZM129.781 109.722C129.656 109.401 129.395 109.152 129.068 109.043C128.741 108.934 128.383 108.977 128.09 109.16C126.971 109.815 125.367 110.839 124.738 111.699C123.728 113.08 123.949 120.842 124.562 122.41C125.175 123.978 127.688 126.102 129.101 125.842C130.433 125.596 132.254 116.451 129.781 109.722ZM186.345 39.3203C186.345 39.3203 185.873 58.6109 191.134 64.2953C195.553 69.0698 201.098 67.9242 201.098 67.9242L203.172 76.7179C203.172 76.7179 210.187 85.0024 222.402 73.3315L217.923 55.8294C217.923 55.8294 224.037 52.0164 221.672 46.5776C219.858 42.4048 214.718 42.5863 212.904 46.5776C212.904 46.5776 208.469 40.7116 206.907 36.4784C206.907 36.4784 191.776 40.5906 186.345 39.3203ZM155.138 61.2835C152.741 61.7111 150.898 63.6447 150.588 66.0601C150.076 70.0882 149.649 75.8694 151.193 77.0282C153.612 78.8424 163.892 77.4816 165.857 74.6092C167.823 71.7367 166.613 62.2129 164.648 60.8522C163.443 60.0184 158.66 60.6612 155.138 61.2835ZM53.8957 42.2717C53.8957 42.2717 57.9523 40.5896 59.7333 32.4766C59.7333 32.4766 71.4073 35.8403 79.5204 33.9604C79.5204 33.9604 79.0754 52.0164 76.8988 56.9135C74.7222 61.8105 70.319 64.6309 65.0259 64.3343L64.1354 72.3479C64.1354 72.3479 54.7857 77.7399 44.6455 70.3686L49.2459 52.0659C49.2459 52.0659 42.8787 48.437 45.9311 42.2712C48.4043 37.2753 53.8957 42.2717 53.8957 42.2717Z" fill="#FFD2BB"/>
<path fill-rule="evenodd" clip-rule="evenodd" d="M201.613 58.7069L209.992 56.8401C209.992 56.8401 210.776 61.5489 206.907 62.4988C203.039 63.4488 201.613 58.7069 201.613 58.7069ZM58.8526 57.2473C62.2105 58.6864 63.9926 55.1306 63.9926 55.1306L57.87 52.4849C57.87 52.4849 56.2068 56.1132 58.8526 57.2473ZM91.4893 92.5471C93.1656 92.6576 94.6863 93.3419 95.8567 94.4055C97.1506 92.4693 99.3567 91.1927 101.858 91.1927C101.97 91.1927 102.081 91.1958 102.192 91.2006C102.073 91.5867 102.01 91.9875 102.004 92.3909C103.072 92.7191 104.259 92.6229 105.287 92.0601C106.268 92.5913 107.111 93.344 107.752 94.2498C109.011 93.1783 110.643 92.5308 112.424 92.5308C112.626 92.5308 112.824 92.5392 113.021 92.5555C112.935 92.8853 112.889 93.2251 112.884 93.567C113.843 93.8616 114.897 93.8137 115.846 93.3945C116.727 93.8711 117.498 94.5254 118.11 95.3097C117.658 95.6626 117.292 96.0966 117.021 96.581C116.926 96.5773 116.829 96.5763 116.732 96.5763C113.567 96.5763 110.803 98.3152 109.348 100.889C107.884 98.3473 105.14 96.6347 101.998 96.6347C101.794 96.6347 101.591 96.642 101.39 96.6568C101.047 96.1018 100.571 95.6174 99.9737 95.2576C98.7854 94.5412 97.3842 94.4765 96.1886 94.9604C96.299 96.0455 96.8245 97.077 97.7029 97.8034C96.258 98.6545 95.0876 99.9222 94.356 101.441C93.052 98.4362 90.058 96.3333 86.5764 96.3333C86.0783 96.3333 85.5902 96.3759 85.1163 96.4585C85.0063 96.3412 84.8906 96.2296 84.7686 96.1255C85.5634 94.7584 86.7953 93.6764 88.2717 93.0694C89.0939 93.9489 90.2253 94.4102 91.3693 94.4113C91.5471 93.8085 91.5887 93.171 91.4893 92.5471ZM164.564 127.179H160.944C160.944 127.179 157.74 121.161 153.745 114.361C151.631 110.762 150.399 107.491 150.126 103.866L150.13 103.867C150.705 104.019 151.311 103.779 151.627 103.275C152.427 102.001 153.958 99.5608 155.003 97.8944C155.141 97.6767 155.112 97.3937 154.933 97.2075C154.755 97.0218 154.473 96.9813 154.25 97.1096C153.145 97.6972 151.682 98.4915 150.26 99.3125C150.506 97.3416 150.991 95.2203 151.721 92.8669C152.352 90.8345 153.163 89.1202 154.043 87.6843L156.329 89.9339V84.6361C158.727 82.0113 160.944 81.0651 160.944 81.0651C167.9 86.1452 170.792 99.3541 170.792 99.3541L164.564 127.179Z" fill="#A71010"/>
<path fill-rule="evenodd" clip-rule="evenodd" d="M246.419 158.363H184.044C184.044 158.363 183.973 156.437 183.898 153.185C192.659 153.254 218.169 152.845 229.356 146.082C238.38 140.626 243.985 131.118 246.614 121.711C247.083 143.531 246.423 158.267 246.419 158.363ZM26.803 80.4154C26.803 80.4154 37.9963 74.3685 44.6454 88.1255C51.2941 101.882 53.1346 115.338 57.3547 117.606C61.5742 119.873 97.2528 112.768 97.2528 112.768L101.183 128.641C101.183 128.641 65.0516 153.283 41.1649 144.061C17.2782 134.84 15.0106 86.1598 26.803 80.4154ZM220.188 109.093C218.273 117.769 216.247 122.499 212.21 126.997C208.964 130.615 192.625 134.011 183.72 135.63C183.747 127.372 183.941 117.905 184.51 109.093H220.188ZM80.3572 98.1121C80.5839 98.2184 80.8221 98.3046 81.0688 98.3699C80.8458 98.5608 80.6328 98.7633 80.4308 98.9758C80.4061 98.686 80.3819 98.3983 80.3572 98.1121ZM80.1231 95.5537C79.3441 87.5048 78.3173 81.3001 76.9639 79.1451C74.1661 74.6893 70.6225 71.7069 67.1724 69.7118C67.1724 69.7118 81.2982 73.6873 86.8443 93.8557C86.0011 94.4533 85.2921 95.2275 84.7708 96.1244C84.057 95.5142 83.1376 95.1355 82.1277 95.1092C81.4076 95.0903 80.7248 95.2528 80.1231 95.5537ZM224.584 92.313H186.306C187.048 87.944 187.99 84.3357 189.184 81.9381C192.232 75.8187 197.246 72.6264 201.815 70.9647L203.171 76.7181C203.171 76.7181 210.186 85.0026 222.401 73.3317L221.319 69.1006C225.653 69.5934 230.705 70.99 234.537 74.4742C238.332 77.9237 240.967 81.146 242.788 86.0883C241.138 83.9943 239.06 82.6346 236.471 82.3258C231.001 81.6736 227.307 85.5102 224.584 92.313Z" fill="#A71010"/>
<path d="M246.747 121.223C247.99 116.595 248.514 112.01 248.372 107.962C248.069 99.3493 246.528 90.8323 242.788 86.0873C240.967 81.145 238.332 77.9227 234.538 74.4732C230.705 70.9895 225.653 69.5924 221.319 69.0996L217.923 55.8286C217.923 55.8286 224.038 52.0156 221.673 46.5768C221.032 45.1034 219.977 44.1724 218.8 43.7611C218.8 43.7611 219.194 34.24 216.654 30.7936C214.114 27.3467 207.099 24.7462 196.577 27.0443C186.137 29.324 186.341 39.1649 186.345 39.318C186.345 39.3195 185.873 58.6106 191.134 64.2951C195.553 69.0696 201.098 67.924 201.098 67.924L201.815 70.9642C199.062 71.9657 196.147 73.5227 193.598 75.9413C193.598 75.9413 185.379 81.7956 181.297 93.587C177.216 105.379 173.738 112.485 172.227 112.333C172.147 112.325 172.052 112.226 171.945 112.044C172.031 111.929 172.106 111.805 172.168 111.672C172.917 110.061 174.215 107.27 174.754 106.113C174.905 105.786 174.875 105.404 174.674 105.106L170.793 99.3535C170.793 99.3535 169.405 93.0121 166.239 87.4265C165.478 82.9202 164.897 78.6954 164.691 75.6572C164.703 75.6498 164.713 75.6414 164.725 75.6341C166.66 74.3922 166.832 71.9689 166.857 69.8902C166.881 67.9297 166.668 65.9378 166.188 64.0363C165.86 62.7392 165.409 60.8656 163.883 60.5799C162.75 60.368 161.57 60.4521 160.429 60.55C159.695 60.6126 158.923 60.7025 158.146 60.8082C158.14 60.8093 158.133 60.8098 158.127 60.8109C157.501 60.8966 156.877 60.9918 156.27 61.0907C156.29 61.087 156.311 61.0839 156.332 61.0802C156.271 60.8351 156.045 60.6562 156.045 60.6562C155.201 60.1534 154.22 59.8777 153.227 59.8456C152.851 59.8404 152.829 59.8493 152.661 59.8646C148.757 60.2186 147.524 63.8233 146.861 67.3096C146.244 70.5613 146.335 75.8161 149.432 78.3393C149.694 78.5528 149.97 78.7233 150.255 78.8632C148.688 84.5587 146.716 93.2067 146.306 101.848C145.919 102.149 145.629 102.417 145.47 102.636L146.265 102.846C146.195 104.95 146.223 107.046 146.376 109.092C147.242 120.648 150.029 130.844 157.307 135.827L155.045 141.201C154.876 141.293 154.734 141.404 154.621 141.538C152.852 143.642 157.813 151.258 165.03 152.262C170.824 153.069 177.531 151.465 179.95 150.803C180.222 151.584 180.53 152.364 180.878 153.13C180.878 153.13 181.991 153.168 183.897 153.183C183.973 156.421 184.044 158.344 184.045 158.361H82.5583C82.5583 158.355 82.5251 150.099 82.27 138.891C84.8374 137.763 87.2418 136.597 89.4178 135.478H128.379V125.801C128.638 125.864 128.884 125.881 129.102 125.84C130.434 125.595 132.255 116.45 129.782 109.72C129.657 109.399 129.396 109.15 129.069 109.041C128.844 108.966 128.603 108.964 128.379 109.029V102.923H124.942C124.352 100.643 122.836 98.7355 120.821 97.623C121.797 96.9718 122.432 95.9634 122.635 94.8625C121.482 94.2834 120.081 94.2339 118.838 94.8515C118.577 94.9814 118.335 95.1345 118.114 95.3075C117.501 94.5232 116.73 93.8694 115.849 93.3924C116.12 93.2724 116.382 93.1225 116.631 92.9405C117.753 92.1236 118.357 90.8581 118.376 89.5689C117.143 89.1901 115.753 89.3758 114.631 90.1927C113.806 90.7934 113.261 91.6366 113.024 92.5534C112.826 92.5366 112.628 92.5287 112.427 92.5287C110.645 92.5287 109.014 93.1762 107.755 94.2476C107.114 93.3419 106.271 92.5892 105.289 92.0579C105.448 91.9711 105.602 91.8733 105.752 91.7649C106.874 90.948 107.478 89.6825 107.496 88.3927C106.263 88.0145 104.873 88.2002 103.751 89.0171C102.98 89.5778 102.454 90.3516 102.194 91.1984C102.083 91.1937 101.972 91.1905 101.861 91.1905C99.3592 91.1905 97.1537 92.4666 95.8592 94.4033C94.6894 93.3398 93.1682 92.6549 91.4918 92.5444C91.3866 91.8854 91.1252 91.2426 90.6976 90.6724C89.8654 89.5615 88.5915 88.9761 87.3017 88.9745C86.9409 90.2127 87.1455 91.6003 87.9776 92.7107C88.0713 92.8359 88.1712 92.9547 88.2754 93.0662C87.7672 93.2751 87.288 93.5402 86.8462 93.8531C81.3001 73.6847 67.1743 69.7092 67.1743 69.7092C66.2985 69.2027 65.4291 68.7598 64.579 68.3732L65.0277 64.3324C70.3209 64.6291 74.724 61.8092 76.9006 56.9116C78.1299 54.1449 78.8074 47.1775 79.1635 41.6397C86.9998 40.34 88.0681 28.3956 87.2013 27.311C86.2944 26.1769 83.7286 27.2226 79.5222 25.7993C75.6335 24.4832 72.8394 18.9965 64.2971 18.9965C55.7554 18.9965 52.7325 25.7993 52.7325 25.7993C45.3843 28.0605 46.0197 38.0961 46.4452 41.4262C46.2643 41.6692 46.0928 41.9485 45.9334 42.2699C42.881 48.4357 49.2483 52.0645 49.2483 52.0645L45.3406 67.6105C39.0223 69.4588 30.9177 72.922 26.4619 79.1425C25.5057 80.478 24.6246 81.792 23.8125 83.1695C23.2891 83.9359 22.8147 84.8201 22.3912 85.8069C18.1722 94.4312 16.1629 106.962 15.214 140.001C9.19283 131.102 5.21574 121.605 3.32004 112.25C-7.30095 59.8273 7.62851 18.8482 35.2141 8.82839C61.6461 -0.773216 77.4829 25.8561 122.523 20.3394C172.225 14.252 228.641 -32.0555 258.532 40.0681C264.384 54.199 266.979 89.0455 246.747 121.223ZM184.514 109.092H220.188C220.414 108.072 220.635 106.994 220.861 105.852C221.897 100.624 223.097 96.0266 224.58 92.313H186.308C185.482 97.1732 184.909 102.975 184.514 109.092ZM165.785 142.796C165.785 142.796 164.711 140.512 165.758 138.881C164.812 138.776 163.843 138.597 162.854 138.336C162.226 138.171 161.62 137.979 161.036 137.76C158.808 138.494 156.506 140.203 155.479 141.025C158.379 140.145 165.785 142.796 165.785 142.796ZM183.72 135.63C183.724 134.294 183.733 132.927 183.747 131.536C181.104 134.15 177.962 136.47 174.359 137.804C176.204 137.967 177.677 138.175 177.888 138.205C177.878 137.207 177.91 136.622 177.91 136.622C177.91 136.622 180.251 136.26 183.72 135.63ZM154.665 61.3895C153.713 61.1128 152.481 60.8245 151.302 61.522C148.603 63.1168 147.835 67.0582 147.819 69.9964C147.802 73.0283 148.489 76.816 150.934 77.879C151.184 77.6781 151.419 77.4809 151.64 77.2862C151.473 77.2084 151.32 77.1242 151.193 77.029C149.648 75.8702 150.076 70.089 150.587 66.0609C150.895 63.6697 152.705 61.7529 155.067 61.2995C154.942 61.3237 154.817 61.3495 154.695 61.381L154.665 61.3895Z" fill="#E2E2E2"/>
<path fill-rule="evenodd" clip-rule="evenodd" d="M82.5572 158.363H14.8184C15.5506 111.263 17.4647 95.8756 22.3886 85.8101C16.2191 100.195 20.951 136.257 41.1646 144.061C53.827 148.95 69.9305 144.322 82.2689 138.893C82.523 150.059 82.5572 158.296 82.5572 158.363ZM177.911 136.622C177.911 136.622 177.421 145.517 180.878 153.132C180.878 153.132 215.734 154.317 229.356 146.081C242.978 137.846 248.808 120.377 248.372 107.962C247.936 95.5479 244.925 83.3326 236.471 82.3248C228.016 81.317 223.803 91.0348 220.864 105.854C218.723 116.649 216.722 121.968 212.21 126.996C207.699 132.024 177.911 136.622 177.911 136.622ZM165.758 138.881C164.811 138.776 163.843 138.597 162.854 138.336C162.226 138.171 161.62 137.979 161.037 137.76C161.619 137.568 162.195 137.443 162.743 137.418C163.864 137.366 165.182 137.705 166.442 138.181C166.349 138.235 166.268 138.293 166.2 138.356C166.022 138.52 165.877 138.696 165.758 138.881ZM169.738 137.608L164.564 127.179L165.903 121.196L169.308 117.487L167.36 114.689L167.766 112.876C167.766 112.876 169.17 112.876 170.281 112.876C170.945 112.876 171.557 112.561 171.945 112.044C172.052 112.226 172.147 112.326 172.227 112.334C173.738 112.486 177.216 105.38 181.297 93.588C185.379 81.7967 193.598 75.9423 193.598 75.9423C191.917 77.5372 190.395 79.507 189.184 81.9393C185.058 90.2232 183.934 112.991 183.747 131.536C181.105 134.151 177.963 136.47 174.359 137.804C172.903 137.675 171.217 137.573 169.738 137.608ZM146.265 102.847L150.126 103.866C150.311 106.314 150.931 108.599 151.966 110.932L148.127 115.065L152.972 117.488L154.066 114.908C157.908 121.476 160.941 127.173 160.945 127.179L157.306 135.828C150.029 130.846 147.241 120.649 146.375 109.093C146.222 107.048 146.194 104.952 146.265 102.847ZM75.402 102.926V116.569C67.1101 117.791 59.2054 118.6 57.3544 117.605C53.1343 115.337 51.2938 101.881 44.6452 88.1245C37.996 74.3675 26.8027 80.4144 26.8027 80.4144C25.6739 80.964 24.6735 81.9077 23.8093 83.1727C24.6209 81.7946 25.5025 80.4801 26.4593 79.1441C30.915 72.9236 39.0196 69.4604 45.3379 67.6121L44.6452 70.3688C54.7859 77.7397 64.1351 72.3482 64.1351 72.3482L64.5769 68.3753C68.7749 70.2878 73.4558 73.5574 76.9637 79.1446C78.3171 81.3002 79.3438 87.5038 80.1228 95.5532C79.5637 95.833 79.074 96.2328 78.6884 96.7188C79.1124 97.3153 79.6857 97.7987 80.3564 98.1116C80.3811 98.3978 80.4058 98.6855 80.43 98.9753C79.4006 100.06 78.6553 101.416 78.3118 102.925H75.402V102.926ZM155.18 88.8035L154.044 87.6847C153.164 89.1207 152.353 90.8349 151.721 92.8674C150.991 95.2207 150.507 97.3421 150.261 99.313C148.724 100.201 147.236 101.122 146.305 101.849C146.714 93.2146 148.686 84.5635 150.252 78.8685C151.771 79.6149 153.572 79.3729 155.18 78.7448V88.8035ZM156.329 77.8207C159.323 77.6618 162.77 76.8733 164.69 75.6588C164.897 78.697 165.478 82.9223 166.238 87.4286C164.835 84.9532 163.081 82.6257 160.945 81.0656C160.945 81.0656 158.728 82.0118 156.33 84.6366L156.329 77.8207ZM150.578 77.7013C150.679 77.3483 150.777 77.009 150.872 76.685C150.969 76.8244 151.075 76.9401 151.193 77.0285C151.799 77.4824 152.898 77.7381 154.236 77.8201H154.235C153.924 77.9269 153.597 78.0237 153.302 78.0795C152.197 78.2878 151.301 78.1236 150.578 77.7013ZM155.242 77.8501H155.254H155.25H155.242ZM155.176 77.8496H155.19H155.185H155.176ZM155.111 77.8496H155.127H155.119H155.111ZM155.048 77.8491H155.064H155.054H155.048ZM154.986 77.8485H154.998H154.989H154.986ZM155.515 77.848H155.512H155.521H155.515ZM154.924 77.8475H154.928H154.925H154.924ZM155.582 77.8475H155.577L155.59 77.847H155.582V77.8475ZM155.649 77.8454H155.643L155.656 77.8449H155.65L155.649 77.8454ZM155.716 77.8443H155.71H155.721H155.716ZM154.725 77.8422H154.736H154.733H154.725ZM155.784 77.8422H155.779H155.785H155.784ZM154.661 77.8401L154.675 77.8406H154.67L154.661 77.8401ZM154.599 77.8385H154.613L154.606 77.838H154.598V77.8385H154.599ZM154.538 77.8359H154.552L154.543 77.8354L154.538 77.8359ZM154.478 77.8328L154.489 77.8333H154.481L154.478 77.8328ZM156.123 77.8307H156.122L156.125 77.8301H156.124L156.123 77.8307ZM156.192 77.827H156.19H156.194H156.192Z" fill="#072948"/>
</g>
<defs>
<clipPath id="clip0_49_1276">
<rect width="263" height="158.326" fill="white"/>
</clipPath>
</defs>
</svg>
