<svg width="263" height="212" viewBox="0 0 263 212" fill="none" xmlns="http://www.w3.org/2000/svg">
<g clip-path="url(#clip0_49_1306)">
<path d="M98.9133 128.751C97.9491 126.161 96.5824 123.782 94.9977 121.735C90.5287 115.963 88.8518 103.364 88.8518 103.364L88.3907 102.994C88.0553 102.198 87.5438 101.45 86.764 100.836C86.1017 100.316 85.2632 99.8833 84.1816 99.5998C83.1335 99.3242 82.1609 99.0879 81.2805 98.8753C80.5762 98.71 79.9222 98.5525 79.3437 98.4265C77.281 97.9619 76.0401 97.7335 76.0401 97.7335C72.7114 96.7807 69.148 96.7256 66.1379 100.883C66.1379 100.883 65.115 102.844 64.5532 105.899L64.2681 105.986L58.7427 128.373L64.4191 129.279L64.8299 129.995L70.238 122.46C68.3934 121.16 67.0267 119.325 66.3727 117.247C66.3727 117.247 67.4627 110.183 69.6846 109.411C71.0261 108.947 71.3615 113.9 71.3615 113.9C71.3615 113.9 71.8897 112.561 72.0658 111.608C72.2419 110.656 72.5857 109.065 75.2771 107.096C76.778 106.002 76.8367 103.789 76.5935 102.033C76.5767 101.923 76.56 101.82 76.5432 101.718C76.5767 101.813 76.6187 101.907 76.6606 102.009C77.3733 103.655 78.807 105.403 81.6578 106.529C84.5086 107.648 86.1436 108.325 87.091 108.742C88.1391 109.199 88.3487 109.341 88.3739 109.372C88.3907 109.333 88.4326 109.183 88.4997 108.963C88.4745 109.341 88.441 109.719 88.3655 110.104L87.2755 116.089C86.7053 119.223 85.9759 121.971 84.3744 123.593C83.427 124.554 82.1609 125.105 80.4504 125.105L79.2598 131.665L82.3789 132.169L84.9697 132.586C86.9485 132.901 88.5835 134.09 89.6903 135.767C89.6987 135.775 89.6987 135.775 89.707 135.783C91.275 136.854 92.7926 144.17 93.4298 152.517C95.4002 150.579 97.5215 147.878 98.9385 144.319C99.5086 142.878 99.8943 141.445 100.129 140.02C100.758 136.059 100.205 132.216 98.9133 128.751ZM75.9982 99.5368V99.4423C75.9982 99.4895 76.0066 99.5289 76.0066 99.5762C76.0066 99.5604 75.9982 99.5368 75.9982 99.5368Z" fill="#072948"/>
<path d="M152.726 146.926C151.468 148.257 149.85 149.564 147.938 150.698C143 153.627 137.793 154.462 135.252 152.95C135.244 152.895 135.261 152.832 135.261 152.777C135.118 152.808 134.967 152.855 134.825 152.879L134.69 152.816C134.607 152.721 134.531 152.611 134.447 152.509C134.405 152.548 134.372 152.611 134.33 152.643H134.322L133.475 152.241C133.441 152.304 133.408 152.359 133.374 152.422C130.616 151.525 127.631 148.076 125.929 143.43C124.025 138.248 124.361 133.295 126.515 131.311C129.375 131.618 132.695 135.035 134.64 139.87C136.636 135.185 139.906 131.886 142.715 131.61C144.727 133.476 145.087 137.973 143.511 142.8C146.915 140.91 150.386 140.012 152.977 140.193C153.983 140.264 154.864 140.492 155.551 140.902C155.778 142.626 154.713 144.815 152.726 146.926ZM119.422 139.099C118.391 139.406 117.393 140.327 116.58 141.666C115.842 142.886 115.255 144.437 114.928 146.178C112.84 143.122 110.056 141.217 108.027 141.382C106.879 142.957 107.281 146.178 109.084 149.383C106.828 148.627 104.648 148.375 102.938 148.587C102.259 148.674 101.647 148.831 101.144 149.06C100.825 149.209 100.54 149.375 100.305 149.58C100.364 150.343 100.783 151.17 101.496 151.981C102.032 152.588 102.737 153.186 103.567 153.745C104.573 154.422 105.764 155.037 107.105 155.525C109.587 156.438 112.027 156.737 113.88 156.478C113.628 156.171 113.368 155.863 113.083 155.564L114.509 154.383C114.71 154.596 114.903 154.816 115.087 155.037C115.33 155.32 115.565 155.611 115.783 155.903C116.01 155.785 116.211 155.643 116.387 155.493C116.387 155.454 116.362 155.407 116.362 155.367C116.487 155.375 116.613 155.399 116.731 155.383C116.798 155.289 116.84 155.17 116.898 155.068C116.932 155.092 116.965 155.131 116.999 155.155C119.07 154.556 120.998 151.477 121.594 147.579C122.181 143.674 121.225 140.217 119.422 139.099Z" fill="#A71010"/>
<path d="M76.015 99.5841C76.0066 99.5684 75.9982 99.5448 75.9982 99.5448V99.4503C76.0066 99.4896 76.015 99.5369 76.015 99.5841ZM79.5617 98.4502C79.4862 98.4345 79.4107 98.4345 79.3353 98.4187C79.9222 98.5526 80.5678 98.7022 81.2721 98.8675C80.7271 98.6943 80.157 98.5447 79.5617 98.4502ZM64.8131 129.996L70.2212 122.46C68.3766 121.16 67.0099 119.326 66.3559 117.247C66.3559 117.247 67.4459 110.183 69.6678 109.412C71.0093 108.947 71.3447 113.9 71.3447 113.9C71.3447 113.9 71.873 112.561 72.049 111.609C72.2251 110.656 72.5689 109.065 75.2604 107.096C76.7612 106.002 76.8199 103.789 76.5767 102.033C76.56 101.923 76.5432 101.82 76.5264 101.718C76.56 101.813 76.6019 101.907 76.6438 102.009C77.3565 103.655 78.7903 105.403 81.641 106.529C84.4918 107.648 86.1268 108.325 87.0743 108.742C88.1223 109.199 88.332 109.341 88.3571 109.372C88.3739 109.333 88.4158 109.183 88.4829 108.963C88.4577 109.341 88.4242 109.719 88.3487 110.104L87.2587 116.089C86.6886 119.223 85.9591 121.971 84.3577 123.594C83.4102 124.554 82.1441 125.105 80.4337 125.105L79.243 131.665L73.357 144.807L64.8131 129.996ZM84.1648 112.577C84.1229 113.144 84.3828 113.624 84.7601 113.648C85.129 113.672 85.4728 113.223 85.5147 112.656C85.5566 112.089 85.2967 111.609 84.9194 111.585C84.5505 111.561 84.2067 112.002 84.1648 112.577ZM76.5348 111.349C76.4929 111.916 76.7528 112.396 77.1301 112.42C77.499 112.443 77.8428 111.994 77.8847 111.427C77.9267 110.86 77.6667 110.38 77.2894 110.356C76.9205 110.341 76.5767 110.782 76.5348 111.349ZM116.32 176.77C116.362 176.723 116.395 176.676 116.437 176.636C116.42 176.621 116.412 176.613 116.395 176.597C116.37 176.652 116.345 176.707 116.32 176.77ZM116.705 179.203C117.133 178.944 117.393 178.644 117.443 178.314C117.2 178.613 116.949 178.904 116.705 179.203ZM93.1279 169.935C92.6165 169.88 92.105 169.833 91.5936 169.793C86.9485 169.392 82.6975 169.368 79.8635 169.785C79.6874 169.809 79.5113 169.833 79.352 169.864C78.7903 169.967 78.2872 170.085 77.868 170.226C77.7087 170.282 77.5577 170.368 77.4152 170.471C72.0407 169.423 66.5404 168.825 62.39 169.014C59.7908 169.132 57.7197 169.549 56.5543 170.368C54.2988 171.951 54.106 177.81 60.3022 179.707C60.4112 179.739 60.5034 179.778 60.6124 179.81C63.1111 180.495 71.6214 180.337 76.9289 180.164C77.759 180.133 78.522 180.109 79.1592 180.085C79.939 180.747 80.878 181.29 82.01 181.629C84.081 182.251 90.2353 182.038 95.3163 181.731C96.3812 182.022 97.4879 181.967 98.4689 181.597C98.5528 181.566 98.645 181.542 98.7289 181.503C100.305 181.385 101.554 181.282 102.217 181.219C102.552 181.188 102.753 181.172 102.753 181.172C102.753 181.172 108.094 181.109 112.345 180.44C113.285 178.794 114.131 177.125 114.836 175.439C112.329 173.927 108.421 172.652 104.036 171.675C100.54 170.904 96.7585 170.313 93.1279 169.935ZM108.245 197.575C107.365 197.102 106.183 196.606 104.774 196.141C104.087 195.921 103.349 195.708 102.561 195.511C101.395 195.22 100.129 194.968 98.7708 194.787C94.7043 194.236 89.8831 194.283 84.8943 195.614C69.1312 199.835 54.7768 201.087 45.4363 202.788C43.8265 203.079 42.3759 203.394 41.0763 203.725C38.4519 204.41 36.5151 205.221 35.4335 206.307C34.0668 207.678 36.9762 208.575 41.3278 209.174C49.419 210.276 62.5157 210.323 62.5157 210.323C62.5157 210.323 94.1425 212.001 101.001 210.686C113.083 208.394 112.563 199.905 108.245 197.575Z" fill="#FFD2BB"/>
<path d="M41.3363 209.19C38.7874 210.276 34.7376 210.977 30.1596 210.977C22.4374 210.977 13.9521 212.395 13.9521 209.93C13.9521 207.827 20.14 203.583 26.7554 202.378C27.8874 202.173 29.0361 202.055 30.168 202.055C30.9645 202.055 31.7359 202.079 32.4905 202.118C35.9617 202.299 38.997 202.898 41.0931 203.741C38.4687 204.426 36.5319 205.237 35.4503 206.323C34.0836 207.694 36.9847 208.591 41.3363 209.19ZM77.1302 112.42C77.4991 112.443 77.8429 111.995 77.8848 111.428C77.9267 110.861 77.6668 110.38 77.2895 110.357C76.9206 110.341 76.5768 110.782 76.5349 111.349C76.4929 111.924 76.7529 112.404 77.1302 112.42ZM84.7602 113.648C85.1291 113.672 85.4728 113.223 85.5148 112.656C85.5567 112.089 85.2968 111.609 84.9195 111.585C84.5505 111.569 84.2068 112.01 84.1648 112.577C84.1229 113.144 84.3829 113.625 84.7602 113.648ZM102.561 193.638C101.487 192.724 100.205 191.897 98.7457 191.149C93.3041 188.369 85.498 186.739 77.6416 185.787L76.9373 180.172C71.6299 180.345 63.1195 180.503 60.6209 179.818C60.5119 179.786 60.4196 179.747 60.3106 179.715C54.1144 177.825 54.2989 171.959 56.5627 170.376C57.7282 169.557 59.7992 169.14 62.3984 169.022C66.5488 168.833 72.0491 169.431 77.4236 170.479C77.5662 170.376 77.7087 170.29 77.8764 170.234C78.2956 170.093 78.7987 169.975 79.3605 169.872L79.9306 168.557C79.9139 168.975 79.8887 169.384 79.8719 169.793C82.7059 169.368 86.9569 169.392 91.602 169.801C92.1051 169.849 92.6165 169.896 93.1364 169.943C93.8658 164.833 93.8658 158.415 93.4131 152.509C92.7758 144.162 91.2582 136.846 89.6903 135.776C89.6819 135.768 89.6819 135.768 89.6735 135.76C88.5668 134.075 86.9318 132.893 84.953 132.579L82.3622 132.161L79.2431 131.657L73.3571 144.8L64.8216 129.996L64.4107 129.279L58.7343 128.374L57.5102 128.177C56.219 127.972 54.9361 128.161 53.7455 128.657C50.9786 129.815 48.7147 132.657 48.0607 136.248L46.082 151.029L41.4034 185.983C41.2273 186.598 41.1183 187.417 41.068 188.511L41.0177 188.905L41.0512 188.913C41.026 189.566 41.0177 190.314 41.0177 191.157C41.0177 195.882 42.7449 199.977 45.4531 202.803C54.7852 201.103 69.148 199.851 84.9111 195.63C89.8999 194.291 94.7211 194.252 98.7876 194.803C100.146 194.984 101.404 195.236 102.577 195.527C103.366 195.724 104.103 195.937 104.791 196.157C104.204 195.244 103.458 194.409 102.561 193.638ZM134.825 152.879L134.69 152.816L134.322 152.643L133.475 152.241C133.441 152.304 133.408 152.359 133.374 152.422C127.891 162.596 122.088 169.817 116.429 176.621C116.387 176.668 116.353 176.707 116.311 176.755C116.337 176.699 116.362 176.636 116.387 176.581C120.009 168.282 119.833 161.281 115.775 155.887C115.557 155.596 115.322 155.304 115.079 155.021C114.894 154.8 114.702 154.58 114.5 154.367L113.075 155.548C113.36 155.848 113.62 156.155 113.872 156.462C114.031 156.659 114.173 156.864 114.324 157.06C118.215 162.391 117.552 168.959 114.819 175.432C114.115 177.109 113.268 178.786 112.329 180.432C111.214 182.385 109.956 184.306 108.64 186.141C107.659 187.401 106.678 188.677 105.705 190.007C105.697 190.023 105.688 190.031 105.68 190.039L106.46 190.543L107.214 191.078C108.279 189.748 109.268 188.44 110.191 187.157C112.346 184.393 114.526 181.771 116.655 179.219C116.664 179.204 116.672 179.196 116.689 179.18C116.932 178.881 117.183 178.589 117.427 178.29C123.329 171.195 129.408 163.754 135.152 153.021L134.825 152.879Z" fill="#091118"/>
<path d="M194.247 41.3442V31.7924C194.247 31.2018 194.758 30.7214 195.387 30.7214C196.016 30.7214 196.527 31.2018 196.527 31.7924V41.3442C196.527 41.9348 196.016 42.4151 195.387 42.4151C194.758 42.4072 194.247 41.9348 194.247 41.3442ZM195.387 71.0468C196.016 71.0468 196.527 70.5665 196.527 69.9759V60.432C196.527 59.8414 196.016 59.3611 195.387 59.3611C194.758 59.3611 194.247 59.8414 194.247 60.432V69.9759C194.247 70.5665 194.758 71.0468 195.387 71.0468ZM175.063 51.959H185.225C185.854 51.959 186.365 51.4787 186.365 50.8881C186.365 50.2975 185.854 49.8171 185.225 49.8171H175.063C174.434 49.8171 173.922 50.2975 173.922 50.8881C173.922 51.4787 174.434 51.959 175.063 51.959ZM204.409 50.8881C204.409 51.4787 204.92 51.959 205.549 51.959H215.72C216.348 51.959 216.86 51.4787 216.86 50.8881C216.86 50.2975 216.348 49.8171 215.72 49.8171H205.549C204.92 49.8093 204.409 50.2896 204.409 50.8881ZM187.396 44.8956C187.841 45.3129 188.562 45.3129 189.006 44.8956C189.451 44.4782 189.451 43.801 189.006 43.3837L181.812 36.6352C181.368 36.2179 180.647 36.2179 180.202 36.6352C179.758 37.0525 179.758 37.7298 180.202 38.1471L187.396 44.8956ZM208.962 65.141C209.406 65.5583 210.127 65.5583 210.571 65.141C211.016 64.7236 211.016 64.0464 210.571 63.6212L203.386 56.8727C202.941 56.4554 202.22 56.4554 201.776 56.8727C201.332 57.2901 201.332 57.9673 201.776 58.3846L208.962 65.141ZM187.396 56.8727L180.211 63.6212C179.766 64.0464 179.766 64.7236 180.211 65.141C180.655 65.5583 181.376 65.5583 181.821 65.141L189.015 58.3846C189.459 57.9673 189.459 57.2901 189.015 56.8727C188.57 56.4554 187.841 56.4554 187.396 56.8727ZM203.377 44.8956L210.563 38.1392C211.007 37.7219 211.007 37.0447 210.563 36.6273C210.119 36.21 209.398 36.21 208.953 36.6273L201.759 43.3758C201.315 43.7931 201.315 44.4703 201.759 44.8877C202.212 45.3129 202.933 45.3129 203.377 44.8956Z" fill="#A71010"/>
<path d="M51.9934 110.734C53.8044 117.183 54.232 123.168 53.7457 128.664C50.9788 129.822 48.715 132.665 48.061 136.255L46.0822 151.036C43.2398 155.698 40.0453 159.611 37.2197 162.753C35.5763 150.469 33.9748 138.161 32.5411 125.79C32.6081 125.704 32.7004 125.617 32.7591 125.491C35.2241 120.089 38.1084 114.876 39.3661 109.088C39.7267 107.387 37.0436 106.702 36.6663 108.419C35.7272 112.726 33.8742 116.703 31.9709 120.672C29.0028 94.5442 26.6383 68.0779 25.3974 41.1392C25.3135 39.3517 22.5634 39.8399 22.6388 41.6432C23.7121 64.4871 25.5651 87.0004 27.9128 109.238C23.0329 101.962 18.958 94.1189 13.5583 87.0319C12.4683 85.5908 10.4476 87.5831 11.546 89.0084C17.1385 96.3159 21.2386 104.537 26.4119 111.978C26.8898 112.679 27.6696 112.695 28.2565 112.388C30.1682 130.153 32.4153 147.76 34.7714 165.32C33.3544 166.722 32.1638 167.801 31.275 168.557C32.1805 179.691 32.474 190.834 32.4991 202.134C31.7445 202.094 30.9731 202.071 30.1766 202.071C29.0447 202.071 27.896 202.189 26.7641 202.394C26.7389 190.92 26.4874 179.589 25.5483 168.265C17.7255 164.738 0.310635 153.217 0.00878906 122.845C0.0926351 96.5207 12.9295 79.6928 8.03286 54.3526C3.03563 28.5872 13.1642 -2.5565 30.4281 0.538181C47.5747 3.49113 43.6591 28.4533 41.521 54.4786C39.8524 80.3779 42.7451 74.2437 51.9934 110.734ZM98.7292 181.51C98.6453 181.55 98.5531 181.573 98.4692 181.605C98.6118 184.778 98.704 187.96 98.7459 191.149C100.196 191.889 101.488 192.716 102.561 193.637C102.527 189.479 102.427 185.345 102.226 181.227C101.555 181.29 100.305 181.392 98.7292 181.51ZM115.465 135.925C109.361 111.813 107.441 115.868 108.539 98.7492C109.956 81.5512 112.547 65.0541 101.211 63.1012C89.7995 61.0538 83.1086 81.6378 86.4122 98.6547C86.5547 99.3949 86.6637 100.111 86.7643 100.828C87.5441 101.442 88.0639 102.19 88.3909 102.986L88.8521 103.356C88.8521 103.356 90.529 115.955 94.998 121.727C96.5827 123.774 97.9494 126.152 98.9136 128.743C97.6643 116.057 96.6665 103.238 96.0545 90.2525C96.0042 89.0556 97.8236 88.7406 97.8739 89.9218C98.6956 107.726 100.255 125.223 102.217 142.484C103.475 139.862 104.699 137.232 105.319 134.381C105.563 133.247 107.34 133.704 107.105 134.822C106.275 138.641 104.372 142.09 102.745 145.658C102.703 145.744 102.645 145.799 102.603 145.855C102.712 146.76 102.829 147.666 102.938 148.571C104.649 148.359 106.829 148.618 109.084 149.367C107.281 146.162 106.879 142.941 108.028 141.366C110.057 141.201 112.84 143.106 114.928 146.162C115.247 144.421 115.834 142.862 116.58 141.65C116.379 139.823 116.027 137.909 115.465 135.925ZM100.314 149.587C100.549 149.382 100.834 149.209 101.152 149.067C100.792 146.059 100.44 143.035 100.113 140.012C99.8778 141.437 99.4922 142.878 98.922 144.311C97.505 147.87 95.3837 150.563 93.4133 152.508C93.8661 158.406 93.8661 164.824 93.1366 169.943C96.7672 170.321 100.557 170.911 104.045 171.691C103.165 165.139 102.318 158.572 101.513 151.989C100.792 151.17 100.373 150.351 100.314 149.587ZM107.114 155.524C105.781 155.036 104.582 154.422 103.575 153.745C104.263 159.273 104.967 164.793 105.705 170.297C108.589 167.092 112.061 162.659 114.341 157.076C114.199 156.871 114.048 156.674 113.889 156.477C112.036 156.737 109.596 156.438 107.114 155.524Z" fill="#E2E2E2"/>
<path d="M263 192.251V210.993H132.955V192.251H152.718V146.926C154.705 144.815 155.77 142.626 155.543 140.902C154.864 140.492 153.984 140.264 152.969 140.193C155.359 118.829 174.593 102.183 197.969 102.183C222.964 102.183 243.221 121.207 243.221 144.681V192.243L263 192.251Z" fill="#072948"/>
</g>
<defs>
<clipPath id="clip0_49_1306">
<rect width="263" height="211.061" fill="white" transform="translate(0 0.325928)"/>
</clipPath>
</defs>
</svg>
