<svg width="286" height="202" viewBox="0 0 286 202" fill="none" xmlns="http://www.w3.org/2000/svg">
<path d="M241.629 104.793L230.13 87.7833L241.647 103.035L241.629 104.793ZM246.864 189.695L243.023 189.691L243.023 189.779C242.922 189.747 242.823 189.72 242.723 189.691L229.795 189.675L229.797 189.677H175.394C175.515 189.3 177.558 182.689 171.809 181.199C165.892 179.666 163.965 183.708 163.965 183.708C163.965 183.708 166.855 173.115 162.313 169.909C157.771 166.703 152.817 169.909 152.817 169.909C152.817 169.909 153.163 169.012 153.186 167.678H169.17C171.75 167.678 173.842 165.586 173.842 163.006V153.825C174.141 153.607 174.455 153.401 174.785 153.206H189.108C189.81 153.621 190.45 154.088 191.019 154.602C195.628 158.117 197.295 163.36 197.295 163.36C197.295 163.36 197.51 163.113 197.93 162.767H206.837C207.009 163.01 207.108 163.174 207.108 163.174C208.815 164.924 209.607 167.202 209.607 167.202C209.607 167.202 210.778 164.315 213.316 162.767H215.516C215.831 163.678 216.695 164.333 217.713 164.333C218.8 164.333 219.711 163.586 219.966 162.579C220.086 162.632 220.204 162.679 220.327 162.739C227.778 166.342 225.425 172.058 225.425 172.058C225.425 172.058 230.131 169.2 234.445 172.058C238.759 174.915 236.014 184.358 236.014 184.358C236.014 184.358 237.309 181.811 241.064 181.813L242.01 68.7817L242.618 126.363L253.528 111.917L242.636 128.029L242.975 182.013C243.135 182.045 243.299 182.08 243.466 182.121C249.087 183.489 246.864 189.695 246.864 189.695ZM204.396 185.075C204.396 184.056 203.741 183.193 202.829 182.878V169.865H187.838V162.456H173.842V163.977H186.317V171.386H201.309V182.878C200.398 183.193 199.743 184.056 199.743 185.075C199.743 186.36 200.785 187.402 202.069 187.402C203.354 187.401 204.396 186.359 204.396 185.075ZM203.795 160.526C202.524 160.6 201.436 160.886 200.529 161.246H205.476C204.963 160.816 204.379 160.492 203.795 160.526ZM157.419 189.675H117.021C117.025 189.688 117.028 189.695 117.028 189.695L132.632 189.677H160.743L157.417 189.673L157.419 189.675ZM152.578 164.501C152.578 164.5 152.577 164.5 152.577 164.499C152.579 164.505 152.582 164.511 152.585 164.517C152.583 164.512 152.581 164.506 152.578 164.501ZM183.722 151.556C183.111 151.508 182.519 151.49 181.946 151.5C181.373 151.49 180.781 151.508 180.169 151.556C179.797 151.586 179.437 151.631 179.087 151.686H184.805C184.454 151.631 184.095 151.586 183.722 151.556Z" fill="#A71010"/>
<path d="M257.272 108.496C248.601 100.596 259.494 94.5313 260.307 87.9988C261.12 81.4663 256.192 77.3264 251.212 71.8017C246.232 66.277 248.378 60.8098 248.39 52.8092C248.401 44.8086 243.907 43.7912 242.037 43.8061C240.712 43.8166 237.14 43.647 235.644 48.39C233.913 53.8807 237.543 56.2191 235.773 65.8449C234.333 73.6784 226.669 72.6998 223.759 80.8934C220.519 90.0187 228.801 95.4495 229.684 101.865C230.567 108.281 225.607 111.7 220.906 121.256C216.204 130.812 222.535 143.49 231.719 146.72C234.474 147.689 237.767 148.266 241.169 148.378L242.009 68.7816L242.618 126.363L253.528 111.917L242.636 128.029L242.851 148.394C250.237 148.297 257.81 145.956 261.301 140.546C266.677 132.215 265.942 116.396 257.272 108.496ZM241.629 104.793L230.13 87.7832L241.647 103.035L241.629 104.793ZM73.6564 180.345L70.7355 180.438L71.5057 181.96L73.5347 181.969L70.6847 181.956L70.6507 189.675H55.1256L38.6977 189.696C38.6977 189.696 36.3578 182.733 42.2762 181.2C48.1942 179.666 50.1211 183.708 50.1211 183.708C50.1211 183.708 47.2309 173.115 51.7727 169.909C56.3145 166.703 61.2692 169.909 61.2692 169.909C61.2692 169.909 60.3045 167.411 61.4867 164.55L70.5985 180.443L73.6564 180.345ZM175.387 189.695L157.417 189.673L157.419 189.675H86.33C86.6538 189.45 86.8373 189.188 86.8608 188.879C86.9187 188.118 85.8333 187.57 85.8333 187.57C79.0877 187.975 76.0686 181.98 76.0686 181.98L75.0972 181.975L74.4937 180.319L74.8888 180.306L69.0456 158.578C75.1882 157.288 77.9218 164.463 77.9218 164.463C77.9218 164.463 78.7557 161.907 80.5524 159.943C80.5524 159.943 83.3991 156.315 85.1345 156.424C89.6073 156.702 90.8838 160.152 90.8838 160.152C90.8838 160.152 92.6393 154.27 97.4905 150.327C99.3428 148.545 101.832 147.192 105.173 146.909C105.816 146.855 106.44 146.835 107.043 146.846C107.646 146.835 108.269 146.855 108.913 146.909C112.254 147.192 114.742 148.545 116.595 150.327C121.446 154.27 123.201 160.151 123.201 160.151C123.201 160.151 125.572 157.25 130.045 156.972C131.78 156.863 133.532 159.943 133.532 159.943C135.329 161.906 136.163 164.462 136.163 164.462C136.163 164.462 139.603 155.412 147.448 159.454C155.293 163.496 152.816 169.908 152.816 169.908C152.816 169.908 157.771 166.702 162.312 169.908C166.854 173.114 163.964 183.708 163.964 183.708C163.964 183.708 165.891 179.665 171.809 181.199C177.727 182.732 175.387 189.695 175.387 189.695ZM75.0598 188.827C75.433 188.829 76.7952 189.097 77.9731 189.675H74.3811C74.5598 189.299 74.8299 188.827 75.0598 188.827Z" fill="#072948"/>
<path d="M132.098 159.274L138.525 138.223C136.214 137.007 134.637 134.584 134.637 131.791C134.637 127.779 137.889 124.526 141.902 124.526C145.914 124.526 149.166 127.778 149.166 131.791C149.166 134.773 147.368 137.334 144.798 138.453L151.705 159.274L132.098 159.274ZM83.1145 82.6231C83.1011 82.3697 82.8578 82.3433 82.5785 82.3912L77.8988 71.9827C77.8854 71.953 77.8758 71.9224 77.8633 71.8922C70.8691 74.1521 64.2456 72.9187 62.3526 68.7079C60.2187 63.962 64.9013 57.2322 72.8109 53.6762C80.7205 50.1201 88.8619 51.0843 90.9958 55.8302C92.8893 60.041 89.4156 65.8138 83.0834 69.5461C83.0977 69.5753 83.114 69.6026 83.1274 69.6323L88.028 80.5318C87.6209 80.6563 87.1117 81.2397 86.5431 81.884C85.8036 82.7212 83.1433 83.1648 83.1145 82.6231ZM85.5071 58.2975C84.1913 55.3703 79.1695 54.7754 74.291 56.9687C69.4125 59.162 66.5246 63.313 67.8404 66.2401C69.1562 69.1672 74.178 69.7621 79.0565 67.5688C83.935 65.3755 86.8233 61.2246 85.5071 58.2975ZM90.4819 85.9913C89.532 87.0427 87.3023 88.6339 86.3458 88.9783C86.1082 89.064 85.8615 89.1177 85.6172 89.1498L94.0106 107.818L90.9618 109.189L89.521 105.984L83.3784 108.746L89.6221 122.633L95.7647 119.871L94.2036 116.4L97.2524 115.029L99.1406 119.229C99.7896 120.673 101.486 121.317 102.93 120.668C104.374 120.019 105.018 118.322 104.369 116.879L90.4819 85.9913Z" fill="#091118"/>
<path d="M197.615 124.128H215.516C215.831 123.217 216.695 122.561 217.713 122.561C218.998 122.561 220.039 123.603 220.039 124.888C220.039 126.173 218.998 127.215 217.713 127.215C216.695 127.215 215.832 126.56 215.516 125.649H199.135V135.209H173.842V133.688H197.615V124.128ZM77.059 162.767H78.6503C78.8864 162.3 79.1815 161.776 79.5378 161.246H75.9708C76.4086 161.766 76.7712 162.293 77.059 162.767ZM80.9743 104.018V117.031H87.1025L86.4185 115.51H82.4951V104.018C83.4062 103.702 84.0614 102.839 84.0614 101.821C84.0614 100.535 83.0196 99.4937 81.735 99.4937C80.4498 99.4937 79.4085 100.535 79.4085 101.821C79.408 102.839 80.0633 103.702 80.9743 104.018ZM84.6678 156.481C84.8288 156.44 84.9864 156.415 85.1339 156.424C85.5104 156.447 85.8562 156.5 86.1886 156.565V153.207H94.661C95.0701 152.694 95.5179 152.183 96.0046 151.687H84.6678V156.481ZM80.7209 141.609C79.4358 141.609 78.394 142.651 78.394 143.936C78.394 145.221 79.4358 146.263 80.7209 146.263C81.7393 146.263 82.6024 145.608 82.9181 144.697H109.962V143.176H82.9176C82.6024 142.265 81.7388 141.609 80.7209 141.609ZM200.886 143.176H173.842V144.697H200.886C201.201 145.608 202.064 146.263 203.083 146.263C204.368 146.263 205.409 145.221 205.409 143.936C205.409 142.651 204.367 141.609 203.083 141.609C202.064 141.609 201.201 142.265 200.886 143.176ZM173.842 124.44H187.837V117.03H202.829V104.018C203.74 103.702 204.395 102.839 204.395 101.821C204.395 100.535 203.353 99.4937 202.068 99.4937C200.783 99.4937 199.742 100.535 199.742 101.821C199.742 102.839 200.397 103.702 201.308 104.018V115.509H186.316V122.919H173.841V124.44H173.842ZM202.829 182.877V169.865H187.837V162.456H173.842V163.976H186.317V171.386H201.309V182.877C200.398 183.193 199.743 184.056 199.743 185.075C199.743 186.36 200.785 187.402 202.069 187.402C203.354 187.402 204.396 186.36 204.396 185.075C204.396 184.056 203.74 183.193 202.829 182.877ZM217.713 159.68C216.695 159.68 215.832 160.335 215.516 161.246H199.136V151.686H173.842V153.207H197.615V162.767H215.516C215.832 163.678 216.695 164.333 217.713 164.333C218.999 164.333 220.04 163.292 220.04 162.007C220.039 160.722 218.998 159.68 217.713 159.68ZM173.842 123.679V163.007C173.842 165.586 171.75 167.678 169.17 167.678H153.186C153.225 165.445 152.36 161.986 147.449 159.455C147.319 159.388 147.193 159.335 147.066 159.275H151.705L144.798 138.454C147.369 137.335 149.166 134.774 149.166 131.792C149.166 127.78 145.914 124.527 141.902 124.527C137.89 124.527 134.637 127.779 134.637 131.792C134.637 134.585 136.214 137.008 138.525 138.223L132.38 158.352C131.732 157.619 130.887 156.92 130.045 156.973C125.572 157.251 123.202 160.152 123.202 160.152C123.202 160.152 121.446 154.271 116.595 150.328C114.942 148.738 112.781 147.492 109.962 147.041V123.679C109.962 121.1 112.053 119.008 114.634 119.008H118.404C118.282 118.035 118.219 117.044 118.219 116.039C118.219 108.167 122.063 101.196 127.972 96.8894V87.7704H106.115V70.8715C105.291 70.5899 104.694 69.8173 104.694 68.8976C104.694 67.7408 105.632 66.803 106.789 66.803C107.945 66.803 108.883 67.7408 108.883 68.8976C108.883 69.8063 108.301 70.5722 107.492 70.8624V86.3942H129.349V95.9582C132.806 93.7918 136.862 92.4966 141.213 92.372V78.3122C140.397 78.0262 139.807 77.257 139.807 76.343C139.807 75.1863 140.745 74.2484 141.902 74.2484C143.058 74.2484 143.996 75.1863 143.996 76.343C143.996 77.2574 143.407 78.0267 142.59 78.3122V92.372C147.035 92.4994 151.171 93.8492 154.677 96.1V86.3937H176.534V70.8619C175.725 70.5722 175.143 69.8062 175.143 68.8971C175.143 67.7404 176.081 66.8025 177.237 66.8025C178.394 66.8025 179.332 67.7404 179.332 68.8971C179.332 69.8168 178.735 70.5894 177.911 70.871V87.7704H156.054V97.046C161.84 101.364 165.586 108.263 165.586 116.038C165.586 117.043 165.523 118.034 165.401 119.007H169.171C171.75 119.007 173.842 121.099 173.842 123.679ZM158.904 116.038C158.904 106.648 151.292 99.0358 141.902 99.0358C132.511 99.0358 124.899 106.648 124.899 116.038C124.899 117.052 124.993 118.043 125.163 119.007H158.64C158.81 118.043 158.904 117.052 158.904 116.038ZM86.1891 124.128H68.2878C67.9726 123.217 67.109 122.561 66.0906 122.561C64.8055 122.561 63.7637 123.603 63.7637 124.888C63.7637 126.173 64.8055 127.215 66.0906 127.215C67.109 127.215 67.9721 126.56 68.2878 125.649H84.6683V135.209H109.962V133.688H86.1891V124.128ZM97.4876 115.552L97.4679 115.509H96.1847L94.2031 116.4L94.4862 117.03H95.9663V124.44H109.961V122.919H97.4871V115.552H97.4876ZM133.533 159.943C135.329 161.906 136.163 164.462 136.163 164.462C136.163 164.462 137.502 160.943 140.412 159.274H133.102C133.372 159.661 133.533 159.943 133.533 159.943Z" fill="#072948"/>
<path d="M53.9492 70.1094C53.7284 70.5342 53.2767 70.4111 52.9625 70.5438C51.5854 71.1253 51.7574 74.256 51.1888 74.9869C50.6202 75.7179 48.2507 74.791 47.1964 74.9443C46.351 75.0669 46.5143 77.447 46.6125 78.3844C44.7353 77.7014 41.5457 76.5695 39.8381 75.965C39.8511 75.2853 39.8453 74.5151 39.7988 73.7286C40.48 73.8144 41.6516 73.5193 41.7416 72.83C41.848 72.0157 41.8896 71.8471 42.3016 71.7983C42.7135 71.7494 43.3717 71.5411 43.4066 70.7914C43.4416 70.0423 42.5416 68.84 42.3294 67.5333C42.1172 66.2267 43.0517 65.2121 43.6552 65.4449C44.2587 65.6777 44.3991 66.333 44.4221 67.3049C44.4451 68.2772 45.7297 68.5445 46.1096 67.7091C46.4899 66.8738 45.3863 64.9109 46.2298 65.1207C47.0733 65.3305 47.5849 66.071 48.5155 65.8756C49.4462 65.6801 49.2623 65.2275 50.4521 64.6005C51.4704 64.0635 52.3331 64.7188 53.3241 64.6077C53.3409 65.0416 53.3189 65.4699 53.2408 65.8751C52.7561 68.4037 54.17 69.685 53.9492 70.1094ZM11.7577 177.675L10.6077 179.387L14.0358 180.724L15.4862 178.969L11.8938 177.721L11.7577 177.675ZM33.2405 113.584L36.1571 116.501C36.41 115.04 36.6677 113.506 36.865 112.222C36.8727 112.172 36.8789 112.124 36.8861 112.074L35.2911 110.231L33.2405 113.584ZM88.3652 80.5538C87.9217 80.3076 87.2813 81.0467 86.5422 81.8839C85.8031 82.7217 83.1428 83.1648 83.1141 82.623C83.0853 82.0813 82.01 82.5737 81.7633 82.623C81.5171 82.6724 80.9749 83.5096 80.8273 84.2487C80.6793 84.9878 80.4825 86.5642 80.4825 86.5642L78.8975 87.3037L80.9787 90.2361C82.3735 89.5459 83.4388 89.0271 83.4881 89.0271C83.6362 89.0271 85.1138 89.4213 86.3458 88.9778C87.5773 88.5343 90.9274 86.0219 90.9274 85.2589C90.9274 84.4963 88.8088 80.8 88.3652 80.5538ZM70.7355 180.438L71.5052 181.96L75.0972 181.975L74.4936 180.319L70.7355 180.438Z" fill="#FFD2BB"/>
<path d="M81.7643 99.4969C84.1172 98.1303 86.3349 96.758 88.4142 95.3723L94.0102 107.819L90.9615 109.19L89.5207 105.985L83.3781 108.747L86.4187 115.51H82.4953V104.018C83.4063 103.702 84.0616 102.839 84.0616 101.821C84.0616 100.545 83.0356 99.5132 81.7643 99.4969ZM141.902 99.0356C132.512 99.0356 124.899 106.648 124.899 116.038C124.899 117.051 124.993 118.043 125.163 119.007H158.64C158.81 118.043 158.904 117.051 158.904 116.038C158.904 106.648 151.292 99.0356 141.902 99.0356ZM241.43 123.631C241.47 123.682 241.509 123.732 241.549 123.783L241.064 181.814C237.309 181.811 236.014 184.358 236.014 184.358C236.014 184.358 238.759 174.916 234.445 172.058C230.131 169.2 225.425 172.058 225.425 172.058C225.425 172.058 227.778 166.343 220.327 162.739C220.204 162.68 220.086 162.632 219.966 162.58C219.952 162.636 219.928 162.688 219.91 162.743C219.988 162.511 220.04 162.266 220.04 162.007C220.04 160.722 218.998 159.68 217.714 159.68C216.695 159.68 215.832 160.336 215.517 161.247H205.476C204.963 160.816 204.379 160.492 203.796 160.526C202.525 160.6 201.437 160.886 200.53 161.247H199.136V151.686H184.805C184.454 151.631 184.095 151.586 183.722 151.557C183.111 151.509 182.519 151.49 181.946 151.501C181.373 151.491 180.781 151.509 180.169 151.557C179.797 151.587 179.437 151.632 179.087 151.686H173.841V153.207H174.784C174.455 153.401 174.14 153.608 173.841 153.826V123.679C173.841 121.099 171.75 119.008 169.17 119.008H165.4C165.521 118.035 165.585 117.044 165.585 116.038C165.585 108.264 161.838 101.365 156.053 97.0469V87.7702H177.909V70.8714C178.734 70.5898 179.331 69.8172 179.331 68.8975C179.331 67.7407 178.393 66.8029 177.236 66.8029C176.079 66.8029 175.141 67.7407 175.141 68.8975C175.141 69.8061 175.723 70.572 176.532 70.8623V86.3941H154.675V96.1004C151.17 93.8496 147.034 92.4998 142.589 92.3724V78.3126C143.406 78.0266 143.995 77.2573 143.995 76.3434C143.995 75.1867 143.057 74.2488 141.9 74.2488C140.744 74.2488 139.806 75.1867 139.806 76.3434C139.806 77.2578 140.395 78.0271 141.212 78.3126V92.3724C136.861 92.4969 132.805 93.7921 129.347 95.9586V86.3946H107.491V78.2608C115.693 68.0152 120.974 55.8732 126.967 39.6287C140.047 4.17567 197.185 -7.82354 216.46 36.1867C223.255 51.6998 226.697 64.0324 228.751 74.3748C226.796 75.8568 224.906 77.6606 223.758 80.8948C220.517 90.0201 228.799 95.4509 229.682 101.866C230.565 108.282 225.606 111.702 220.904 121.258C220.463 122.153 220.119 123.076 219.866 124.016C219.52 123.165 218.687 122.562 217.712 122.562C216.693 122.562 215.83 123.218 215.515 124.129H197.615V133.689H173.842V135.21H199.135V125.649H215.516C215.832 126.56 216.695 127.215 217.713 127.215C218.389 127.215 218.992 126.923 219.417 126.463C218.5 134.939 224.133 144.053 231.719 146.721C234.475 147.689 237.767 148.267 241.169 148.378L241.43 123.631ZM173.842 124.439H187.837V117.03H202.829V104.018C203.74 103.702 204.395 102.839 204.395 101.821C204.395 100.535 203.353 99.4936 202.068 99.4936C200.783 99.4936 199.742 100.535 199.742 101.821C199.742 102.839 200.397 103.702 201.308 104.018V115.509H186.316V122.919H173.841V124.439H173.842ZM205.41 143.936C205.41 142.651 204.368 141.61 203.083 141.61C202.065 141.61 201.202 142.265 200.886 143.176H173.842V144.697H200.886C201.201 145.608 202.065 146.263 203.083 146.263C204.368 146.263 205.41 145.221 205.41 143.936ZM86.1893 153.207V156.564H86.1888C89.8052 157.265 90.8839 160.152 90.8839 160.152C90.8839 160.152 91.9875 156.479 94.8423 152.992C94.7833 153.063 94.7196 153.134 94.6622 153.207H86.1893ZM55.9558 154.904L47.3656 142.069L35.8123 156.869L29.4819 164.002C29.6707 181.654 38.6977 189.695 38.6977 189.695C38.6977 189.695 36.3579 182.732 42.2763 181.199C48.1942 179.665 50.1212 183.707 50.1212 183.707C50.1212 183.707 47.231 173.114 51.7728 169.908C56.3146 166.702 61.2693 169.908 61.2693 169.908C61.2693 169.908 60.3046 167.41 61.4867 164.549L55.9558 154.904ZM281.631 165.836C280.85 153.298 271.726 146.385 261.763 139.783C261.614 140.043 261.46 140.299 261.3 140.546C257.81 145.957 250.236 148.297 242.85 148.395L242.635 128.049L242.974 182.013C243.134 182.045 243.298 182.081 243.465 182.122C249.086 183.488 246.864 189.695 246.864 189.695C259.37 189.71 282.725 183.392 281.631 165.836ZM207.108 163.174C208.815 164.924 209.607 167.203 209.607 167.203C209.607 167.203 210.778 164.315 213.316 162.767H206.837C207.009 163.011 207.108 163.174 207.108 163.174ZM118.218 116.038C118.218 117.044 118.282 118.035 118.403 119.007H114.633C112.053 119.007 109.962 121.098 109.962 123.679V147.04C109.979 147.043 109.995 147.047 110.012 147.05C109.656 146.992 109.291 146.942 108.913 146.91C108.269 146.855 107.646 146.836 107.043 146.846C106.44 146.835 105.816 146.855 105.172 146.91C101.831 147.192 99.3424 148.546 97.4901 150.327C96.9302 150.782 96.4162 151.264 95.9367 151.759C95.9602 151.735 95.9808 151.71 96.0048 151.686H84.668V156.481C84.668 156.481 84.668 156.481 84.6685 156.481C82.934 156.914 80.5525 159.944 80.5525 159.944C80.1703 160.361 79.834 160.806 79.538 161.247H75.9709C75.9839 161.262 75.9939 161.278 76.0069 161.294C74.5641 159.564 72.2774 157.9 69.0462 158.579L66.6737 149.757L57.4962 121.876C57.4962 121.876 57.3444 118.167 57.0972 112.784C61.2745 110.275 66.1578 107.648 71.8957 104.794C74.6743 103.412 77.2709 102.036 79.7325 100.656C79.5318 101 79.4087 101.395 79.4087 101.821C79.4087 102.839 80.0639 103.702 80.975 104.018V117.031H87.1032L89.6227 122.634L95.7653 119.872L94.4878 117.03H95.9674V124.44H109.963V122.919H97.4882V115.553L97.4686 115.51H96.1853L97.2525 115.03L99.1407 119.23C99.7898 120.674 101.486 121.318 102.93 120.669C104.374 120.02 105.018 118.323 104.369 116.88L93.1845 92.0026C98.2551 88.1908 102.47 84.2238 106.115 79.9339V87.7712H127.972V96.8893C122.062 101.195 118.218 108.166 118.218 116.038ZM109.962 143.176H82.9178C82.6021 142.265 81.739 141.609 80.7206 141.609C79.4355 141.609 78.3937 142.651 78.3937 143.936C78.3937 145.221 79.4355 146.263 80.7206 146.263C81.739 146.263 82.6021 145.608 82.9178 144.696H109.962V143.176H109.962ZM109.962 133.688H86.1893V124.128H68.2879C67.9727 123.217 67.1091 122.561 66.0908 122.561C64.8056 122.561 63.7638 123.603 63.7638 124.888C63.7638 126.173 64.8056 127.215 66.0908 127.215C67.1091 127.215 67.9723 126.559 68.2879 125.648H84.6685V135.209H109.962V133.688ZM197.615 153.207H189.108C189.81 153.621 190.45 154.089 191.019 154.602C195.628 158.117 197.295 163.36 197.295 163.36C197.295 163.36 197.51 163.114 197.93 162.767H197.615V153.207H197.615ZM77.0228 162.712C77.6287 163.697 77.9219 164.462 77.9219 164.462C77.9219 164.462 78.1599 163.738 78.6499 162.767H77.0587C77.0482 162.749 77.0338 162.73 77.0228 162.712Z" fill="#E2E2E2"/>
<path d="M21.8112 189.711C21.8112 189.711 22.6269 190.613 22.2993 191.303C21.9722 191.993 20.882 192.093 19.0407 191.725C17.1995 191.357 14.6723 189.904 13.7752 188.912C12.878 187.92 11.6595 187.153 11.3045 187.014C10.9501 186.876 10.0194 187.915 10.0194 187.915L6.72681 186.629L9.69129 179.03L14.7073 180.986C14.7073 180.986 15.3707 187.666 21.8112 189.711ZM85.8332 187.57C79.0876 187.975 76.0685 181.98 76.0685 181.98L70.6846 181.956L70.6487 190.114L74.1837 190.129C74.1837 190.129 74.6789 188.827 75.0593 188.828C75.4401 188.829 76.8526 189.108 78.0463 189.711C79.2399 190.315 82.1206 190.762 83.9709 190.444C85.8213 190.126 86.8022 189.641 86.8602 188.88C86.9186 188.118 85.8332 187.57 85.8332 187.57ZM66.6731 149.755L57.4961 121.875L35.212 121.786C35.212 121.786 33.7285 127.129 33.7142 130.747C33.6998 134.365 33.1384 139.535 33.1384 139.535L27.39 151.958L11.3476 177.536L16.0604 179.127L35.8126 156.868L47.3659 142.068L55.9561 154.903L70.5989 180.442L74.8897 180.305L66.6731 149.755Z" fill="#A71010"/>
<path d="M81.3728 90.7924L78.394 86.5945L62.1054 92.3544L53.8246 85.192C52.7885 83.4561 49.9567 81.7514 49.0404 81.0535L48.787 80.8341C48.3698 80.3436 48.3051 79.0858 48.0958 78.9455C47.887 78.8051 38.6784 75.5547 38.6784 75.5547C38.6784 75.5547 38.7459 76.1836 36.7135 77.7825L36.7126 77.783L36.7068 77.7346C36.7068 77.7346 36.6101 77.8385 36.4348 78.0263C36.2949 78.1585 36.1594 78.3041 36.0281 78.4626C32.7341 81.999 18.5171 97.3095 18.2355 98.4356C17.917 99.7098 32.8634 114.2 32.8634 114.2L35.5922 109.737L28.745 99.5507L35.0481 95.7892C36.4046 100.12 37.9527 105.142 36.8644 112.222C36.292 115.946 35.2114 121.787 35.2114 121.787L57.4956 121.876C57.4956 121.876 57.2407 115.657 56.8537 107.622C56.7579 105.632 56.5941 103.389 56.3867 101.109L60.8313 102.736L81.3728 90.7924Z" fill="#072948"/>
<path d="M54.9614 62.3186C54.9624 63.0351 55.0548 63.9811 53.8372 64.4778C52.6196 64.9746 51.6425 63.9735 50.4527 64.6005C49.2629 65.2275 49.4468 65.6801 48.5161 65.8755C47.5854 66.071 47.0739 65.3304 46.2304 65.1206C45.3869 64.9108 46.49 66.8733 46.1101 67.7091C45.7303 68.545 44.4457 68.2772 44.4227 67.3049C44.3997 66.3325 44.2593 65.6777 43.6558 65.4449C43.0523 65.2121 42.1178 66.2266 42.3299 67.5333C42.5421 68.84 43.4422 70.0423 43.4072 70.7914C43.3722 71.5406 42.7141 71.7489 42.3022 71.7983C41.8902 71.8476 41.8486 72.0162 41.7422 72.83C41.6359 73.6443 40.0198 73.9101 39.4857 73.6467C38.9521 73.3828 37.6253 71.8198 37.6727 70.7981C37.7201 69.7765 37.6152 70.0787 36.7075 69.2855C35.8003 68.4923 34.9889 65.3831 35.3463 64.3073C35.7036 63.232 36.3972 62.9911 36.4005 61.4554C36.4039 59.9198 36.4508 58.42 37.2431 57.7744C38.0353 57.1287 38.8707 57.5085 39.8215 56.1534C40.7718 54.7984 41.8845 53.6215 43.6366 54.1125C45.3888 54.6034 46.9038 54.3093 47.7612 54.2241C48.6186 54.1393 50.1844 54.9627 50.2917 55.582C50.3995 56.2013 52.3049 56.324 53.752 56.7666C55.199 57.2091 55.2642 58.2361 55.1329 59.1175C55.0012 59.9988 55.8183 60.0366 55.8782 60.9611C55.9371 61.886 54.9614 62.3186 54.9614 62.3186Z" fill="#072948"/>
</svg>
