<svg width="64" height="64" viewBox="0 0 64 64" fill="none" xmlns="http://www.w3.org/2000/svg">
<g id="Bold / Notes / Document">
<path
            id="Vector"
            fill-rule="evenodd"
            clip-rule="evenodd"
            d="M11.1242 8.45757C8 11.5818 8 16.6101 8 26.6667V37.3334C8 47.39 8 52.4183 11.1242 55.5425C14.2484 58.6667 19.2767 58.6667 29.3333 58.6667H34.6667C44.7233 58.6667 49.7516 58.6667 52.8758 55.5425C56 52.4183 56 47.39 56 37.3334V26.6667C56 16.6101 56 11.5818 52.8758 8.45757C49.7516 5.33337 44.7233 5.33337 34.6667 5.33337H29.3333C19.2767 5.33337 14.2484 5.33337 11.1242 8.45757ZM21.3333 24.6667C20.2288 24.6667 19.3333 25.5621 19.3333 26.6667C19.3333 27.7713 20.2288 28.6667 21.3333 28.6667H42.6667C43.7712 28.6667 44.6667 27.7713 44.6667 26.6667C44.6667 25.5621 43.7712 24.6667 42.6667 24.6667H21.3333ZM21.3333 35.3334C20.2288 35.3334 19.3333 36.2288 19.3333 37.3334C19.3333 38.4379 20.2288 39.3334 21.3333 39.3334H34.6667C35.7712 39.3334 36.6667 38.4379 36.6667 37.3334C36.6667 36.2288 35.7712 35.3334 34.6667 35.3334H21.3333Z"
            fill="#072948"
        />
</g>
</svg>
