<svg width="262" height="192" viewBox="0 0 262 192" fill="none" xmlns="http://www.w3.org/2000/svg">
<path d="M124.731 174.445C124.744 174.731 124.895 176.355 124.895 176.355H124.881H124.868H124.854H124.813H124.786H124.731H124.677L124.623 176.341H124.554H124.473H124.404L124.309 176.328H124.214L124.118 176.314H124.023H123.914L123.791 176.301H123.682L123.559 176.287H123.437L123.3 176.274H123.164L123.028 176.26L122.891 176.247H122.755L122.605 176.233L122.468 176.22H122.318L122.168 176.206L122.018 176.193L121.868 176.179L121.718 176.166H121.568L121.404 176.152L121.254 176.139L121.104 176.126L120.954 176.112L120.803 176.099L120.653 176.085L120.517 176.072L120.367 176.058L120.217 176.045L120.081 176.031L119.944 176.017L119.808 176.004L119.686 175.976L119.549 175.963L119.427 175.949L119.304 175.936L119.195 175.922L119.085 175.895L118.976 175.882L118.867 175.868L118.772 175.841L118.69 175.827L118.595 175.814L118.526 175.786L118.445 175.773C118.431 175.773 118.404 175.759 118.39 175.759C118.363 175.746 118.349 175.746 118.322 175.732C118.308 175.732 118.294 175.718 118.281 175.718C118.267 175.705 118.24 175.705 118.24 175.691H118.227C118.227 175.691 118.213 175.678 118.199 175.678C118.186 175.664 118.186 175.664 118.172 175.65L118.144 175.637L118.131 175.609L118.103 175.596L118.09 175.568L118.062 175.555L118.049 175.527L118.022 175.513L118.008 175.486L117.981 175.473L117.967 175.445L117.954 175.432L117.926 175.404L117.913 175.391L117.899 175.377L117.886 175.35L117.872 175.336H117.859L117.845 175.309L117.832 175.295L117.818 175.282L117.791 175.241L117.778 175.228L117.764 175.2L117.751 175.187L117.737 175.173V175.146L117.724 175.132L117.696 175.105L117.683 175.091V175.078L117.669 175.051L117.656 175.037V175.024L117.642 175.01L117.629 174.997V174.983L117.615 174.969V174.956L117.602 174.942L117.588 174.929V174.915V174.902L117.575 174.888L117.562 174.861V174.847H117.548V174.834V174.82L117.535 174.807V174.794L117.071 170.674L124.423 170.756L124.731 174.445ZM144.496 175.768L144.523 169.698L137.103 169.834L137.28 177.323C138.153 177.596 141.222 177.801 142.804 177.882L144.496 175.768ZM143.637 176.027V176.013V176V175.986L143.65 175.973L143.664 175.959H143.677V175.946H143.691C143.691 175.933 143.704 175.933 143.718 175.933V175.919C143.868 175.851 144.168 175.783 144.496 175.769L143.637 176.027ZM85.8695 34.7534C85.8969 33.9488 87.2606 30.7021 86.9469 29.9385C86.6466 29.1608 86.0466 29.5698 84.6414 31.0298C83.2503 32.4893 83.8638 33.0215 83.2229 33.7443C82.2956 34.8082 80.8087 34.672 79.6899 34.6311C78.5716 34.5902 77.8623 35.2586 77.3166 36.6498C76.7574 38.0414 77.1255 41.7785 77.6712 42.9516C78.2169 44.1388 79.9901 44.2749 79.9901 44.2749L80.5767 50.1398L85.5827 49.5807C85.1188 46.73 84.5053 42.4603 84.9008 41.5739C85.5148 40.2367 85.8425 35.5584 85.8695 34.7534ZM120.462 25.0138C115.51 22.5996 114.515 18.7668 114.515 18.7668C114.528 18.8212 114.542 18.8896 114.542 18.9439L114.555 19.0257L114.569 19.1355V19.2038L114.582 19.3265V19.3948V19.5175V19.5719L114.596 19.7086V19.7495C114.596 19.8038 114.596 19.8587 114.596 19.8996V19.9405C114.596 19.9949 114.596 20.0632 114.596 20.1181C114.501 23.0231 113 25.738 112.373 26.7336V26.7471L112.332 26.8015L112.304 26.8559C112.25 26.9242 112.223 26.9786 112.182 27.0195C111.991 29.1199 111.909 31.2204 112.059 32.9258C112.577 38.3682 113.887 40.7006 117.174 42.0378C120.448 43.3881 119.916 48.7896 119.916 48.7896C119.916 48.7896 119.998 48.9123 120.135 49.0894C120.271 48.8849 120.407 48.6803 120.557 48.4758C120.585 48.4349 120.612 48.4075 120.639 48.3666C125.209 42.1466 130.856 41.7645 130.392 35.34C130.119 31.589 125.413 27.4285 120.462 25.0138ZM149.72 78.2257L137.812 88.906C138.221 90.0792 138.822 91.3881 139.681 92.6026L151.849 85.7412L149.72 78.2257Z" fill="#FFD2BB"/>
<path d="M200.831 61.0797C200.831 59.9204 201.758 58.9792 202.917 58.9792C204.077 58.9792 205.004 59.92 205.004 61.0797C205.004 62.2254 204.077 63.1666 202.917 63.1666C201.758 63.1666 200.831 62.2254 200.831 61.0797ZM206.737 59.3469C207.896 59.3469 208.837 58.4061 208.837 57.2464C208.837 56.0872 207.896 55.1594 206.737 55.1594C205.591 55.1594 204.65 56.0872 204.65 57.2464C204.65 58.4061 205.591 59.3469 206.737 59.3469ZM249.5 164.051C237.005 146.823 219.177 157.353 213.816 132.951C212.062 124.94 210.932 115.798 208.536 106.639C189.431 122.915 177.915 144.095 177.915 144.095L158.914 121.725L166.607 111.372L179.361 125.817C191.407 112.642 200.654 105.738 207.244 102.139C201.851 84.9276 190.867 68.3044 161.642 59.7289C160.288 59.3314 158.956 58.9638 157.641 58.6198C157.501 59.777 157.297 60.8939 157.029 61.9502C160.361 65.4018 163.417 68.776 163.947 70.0551C165.188 73.0554 152.312 87.3784 152.312 87.3784L151.848 85.7413L146.182 88.9365C147.383 96.9404 149.004 101.103 148.888 101.673C148.67 102.735 148.671 102.735 148.888 101.673C148.888 101.673 149.979 107.115 147.947 115.558C145.914 123.988 148.22 169.615 148.22 169.615L140.531 169.771L144.523 169.698L144.496 175.768L144.495 175.769C144.495 175.769 144.495 175.769 144.496 175.769H144.495L144.494 175.77C145.039 175.742 145.657 175.822 145.739 176.095C145.888 176.614 147.484 186.571 146.502 187.608C146.465 187.646 146.394 187.682 146.299 187.717H258.884C258.939 183.366 257.588 175.222 249.5 164.051ZM206.737 62.8115C205.591 62.8115 204.65 63.7393 204.65 64.8985C204.65 66.0582 205.591 66.9994 206.737 66.9994C207.896 66.9994 208.837 66.0582 208.837 64.8985C208.837 63.7393 207.896 62.8115 206.737 62.8115ZM233.636 146.441C235.941 144.6 234.291 138.72 229.953 133.305C225.615 127.903 220.227 125.012 217.936 126.853C215.63 128.708 217.281 134.587 221.619 139.989C225.957 145.404 231.344 148.296 233.636 146.441ZM56.0245 65.4856C57.1837 65.4856 58.125 64.5443 58.125 63.3846C58.125 62.2254 57.1837 61.2976 56.0245 61.2976C54.8788 61.2976 53.9375 62.2254 53.9375 63.3846C53.9375 64.5443 54.8788 65.4856 56.0245 65.4856ZM210.57 63.1666C211.73 63.1666 212.657 62.2254 212.657 61.0797C212.657 59.92 211.729 58.9792 210.57 58.9792C209.411 58.9792 208.47 59.9204 208.47 61.0797C208.47 62.2254 209.41 63.1666 210.57 63.1666ZM122.031 186.68C121.985 187.073 121.985 187.432 122.024 187.717H59.2745L65.5995 170.134H49.8454L58.2068 170.121C58.2068 170.121 60.9212 147.859 60.9212 135.079C60.9212 127.705 58.0138 120.227 53.6969 117.384C58.3362 113.453 63.2084 107.928 68.4097 99.7775C74.4618 90.2916 80.6178 81.9841 87.3195 75.1876C89.9387 77.3597 93.2913 78.7788 97.5865 78.8389C106.371 78.9616 110.79 70.4636 110.79 70.4636C110.79 70.4636 110.326 95.9982 110.19 99.7636C110.161 100.569 110.319 101.257 110.697 101.853C110.696 101.852 110.696 101.852 110.695 101.851L115.101 170.652L117.071 170.674L117.535 174.793V174.797C117.533 174.792 117.53 174.786 117.53 174.786C117.53 174.786 116.835 175.29 116.862 176.068C116.903 176.859 116.903 179.655 112.852 180.242C108.8 180.828 104.749 181.524 103.863 182.888C102.976 184.252 102.894 186.489 103.385 186.735C103.739 186.899 114.979 186.994 122.031 186.68ZM70.2647 126.676C61.5487 129.786 60.9212 150.969 60.9212 150.969L60.3072 162.182C60.3072 162.182 62.9942 158.649 72.1332 148.269C81.2727 137.889 78.9947 123.553 70.2647 126.676ZM44.7302 164.365C40.8291 161.568 40.2151 162.496 37.7191 163.437C35.2231 164.365 31.6492 163.737 29.9303 161.09C28.2114 158.444 31.3354 156.739 32.8902 157.98C34.4454 159.222 35.8501 161.09 37.2552 159.072C38.6463 157.039 36.4776 156.89 31.949 152.211C27.4338 147.546 27.9112 139.962 34.5542 141.83C38.1007 142.826 41.5788 146.659 44.0613 150.028C41.1876 141.323 39.0486 131.889 40.3142 125.453C30.5674 129.486 21.5251 130.603 12.0339 141.053C-1.71553 156.181 2.36267 178.346 4.95443 187.717H48.242L41.6062 170.134H49.8454C49.8454 170.134 48.6178 167.174 44.7302 164.365ZM52.0411 112.749C59.6662 106.175 63.5808 98.2088 60.7846 94.9621C57.9883 91.7159 49.5311 94.4304 41.9065 101.005C34.2813 107.58 30.3668 115.546 33.163 118.792C35.9593 122.038 44.416 119.337 52.0411 112.749ZM52.2047 65.117C51.0455 65.117 50.1177 66.0582 50.1177 67.2174C50.1177 68.3632 51.0455 69.3044 52.2047 69.3044C53.3639 69.3044 54.2917 68.3632 54.2917 67.2174C54.2917 66.0582 53.3639 65.117 52.2047 65.117ZM52.2047 61.6523C53.3639 61.6523 54.2917 60.7111 54.2917 59.5653C54.2917 58.4061 53.3639 57.4649 52.2047 57.4649C51.0455 57.4649 50.1177 58.4061 50.1177 59.5653C50.1177 60.7111 51.0455 61.6523 52.2047 61.6523ZM48.3854 65.4856C49.5312 65.4856 50.4724 64.5443 50.4724 63.3846C50.4724 62.2254 49.5312 61.2976 48.3854 61.2976C47.2262 61.2976 46.285 62.2254 46.285 63.3846C46.285 64.5443 47.2262 65.4856 48.3854 65.4856ZM149.72 78.2259L149.27 76.6432C149.27 76.6432 150.984 73.1146 151.097 72.5645L150.042 71.26C150.042 71.26 146.02 72.8451 144.946 72.8509C144.946 72.8509 145.095 81.9249 145.386 82.1126L149.72 78.2259Z" fill="#E2E2E2"/>
<path d="M42.8297 120.227C38.0899 125.755 40.5889 138.423 44.337 149.834C41.8653 146.463 38.4022 142.627 34.8712 141.63C28.2571 139.761 27.7818 147.35 32.2773 152.018C36.7862 156.701 38.9455 156.85 37.5604 158.884C36.1614 160.904 34.7629 159.035 33.2144 157.792C31.6664 156.55 28.556 158.256 30.2674 160.904C31.9788 163.552 35.5372 164.181 38.0223 163.252C40.5075 162.311 41.1188 161.382 45.003 164.181C48.8737 166.993 50.0959 169.955 50.0959 169.955L58.421 169.941C58.421 169.941 61.1236 147.664 61.1236 134.874C61.1236 122.097 52.445 109.006 42.8297 120.227ZM4.9248 187.551V192H259V187.551H4.9248ZM70.4265 126.465C61.7484 129.578 61.1236 150.776 61.1236 150.776L60.5123 161.997C60.5123 161.997 63.1876 158.461 72.2869 148.074C81.3867 137.686 79.1186 123.34 70.4265 126.465Z" fill="#A71010"/>
<path d="M138.237 89.9859C138.32 90.1794 138.408 90.3738 138.501 90.5696C138.408 90.3743 138.32 90.1794 138.237 89.9859ZM137.896 89.1255C137.95 89.2766 138.009 89.4297 138.07 89.5841C138.009 89.4297 137.951 89.2766 137.896 89.1255ZM97.5867 78.8389C78.149 78.566 77.9854 50.4941 77.9854 50.4941L83.3238 49.8324L85.5831 49.5798C85.5816 49.5711 85.5802 49.5615 85.5787 49.5529L87.7793 49.28C87.7793 49.28 86.5652 55.4457 90.4663 61.6792C94.3814 67.9266 99.4826 62.4707 100.615 60.902C101.761 59.3193 103.234 58.0514 107.517 52.6494C111.813 47.2344 119.411 45.5156 119.411 45.5156C119.493 45.4886 119.589 45.4747 119.671 45.4612C120.066 47.1531 119.916 48.7897 119.916 48.7897C119.916 48.7897 119.998 48.9124 120.134 49.1024C116.244 55.1281 116.931 63.835 123.069 69.1782C123.267 69.351 123.471 69.5204 123.68 69.6859C123.878 69.8428 124.089 69.9929 124.305 70.1397C124.345 70.1671 124.385 70.1941 124.426 70.221C124.88 70.5218 125.371 70.8023 125.894 71.0617C125.911 71.0703 125.928 71.079 125.945 71.0877C130.882 73.5144 138.619 74.1086 144.946 72.8503C144.985 76.2471 145.148 79.3297 145.386 82.112L137.815 88.9018C137.096 86.8427 136.945 85.1787 136.939 85.1407L135.602 85.2499C135.63 85.5911 136.352 93.721 142.627 96.9124L143.241 95.7257C141.725 94.951 140.571 93.8255 139.69 92.596L146.181 88.936C147.383 96.9403 149.003 101.103 148.888 101.673C148.67 102.735 137.241 106.981 125.635 105.878C125.62 105.876 125.605 105.875 125.59 105.874C116.753 105.003 112.381 104.094 110.843 102.063C110.833 102.049 110.824 102.036 110.814 102.022C110.773 101.966 110.733 101.91 110.697 101.853C110.319 101.257 110.161 100.569 110.19 99.7635C110.326 95.9981 110.79 70.4635 110.79 70.4635C110.79 70.4635 106.371 78.9616 97.5867 78.8389ZM111.146 94.5805L112.182 96.2445C116.642 93.121 117.242 85.0185 117.284 84.6773L116.534 84.5681L115.702 84.391C115.688 84.4593 114.815 92.057 111.146 94.5805ZM163.947 70.055C163.418 68.7764 160.362 65.4018 157.029 61.9501C156.396 64.4413 155.426 66.6038 154.194 68.199C153.237 69.4376 151.796 70.4573 150.042 71.2599C150.691 71.9317 151.103 72.4177 151.097 72.5645C151.07 73.2333 149.27 76.6431 149.27 76.6431L149.719 78.2273L149.72 78.2258L151.848 85.7412L152.312 87.3783C152.312 87.3783 165.188 73.0553 163.947 70.055ZM179.361 125.817L166.607 111.372L158.914 121.725L177.915 144.095C177.915 144.095 194.038 114.441 219.778 98.3449C219.778 98.3449 206.86 95.7397 179.361 125.817ZM139 91.5215C138.882 91.3155 138.771 91.1091 138.666 90.9026C138.771 91.1091 138.882 91.316 139 91.5215ZM139.511 92.34C139.408 92.185 139.306 92.0296 139.21 91.8722C139.306 92.0291 139.407 92.1855 139.511 92.34Z" fill="#091118"/>
<path d="M112.182 96.2445L111.146 94.5805C114.815 92.0571 115.688 84.4594 115.702 84.391L116.534 84.5681L117.284 84.6773C117.242 85.0185 116.642 93.121 112.182 96.2445ZM143.241 95.7262C137.635 92.8616 136.953 85.223 136.939 85.1412L135.603 85.2505C135.63 85.5916 136.353 93.7215 142.627 96.9129L143.241 95.7262ZM143.637 176.027C143.65 176.314 143.787 177.937 143.787 177.937C143.787 177.937 137.567 177.665 137.076 177.228C136.585 176.791 136.435 176.368 136.435 176.368C136.435 176.368 135.739 176.873 135.767 177.651C135.794 178.442 135.808 181.238 131.756 181.825C130.42 182.015 129.083 182.22 127.855 182.452C127.637 179.192 126.928 174.854 126.832 174.527C126.682 174.009 124.704 174.172 124.732 174.445C124.745 174.732 124.895 176.355 124.895 176.355C124.895 176.355 118.662 176.096 118.171 175.645C117.679 175.209 117.53 174.786 117.53 174.786C117.53 174.786 116.834 175.291 116.861 176.068C116.902 176.859 116.902 179.656 112.851 180.242C108.8 180.829 104.748 181.524 103.862 182.888C102.976 184.253 102.893 186.489 103.385 186.735C103.739 186.899 114.979 186.994 122.031 186.68C121.936 187.499 122.031 188.181 122.291 188.317C122.795 188.549 145.507 188.631 146.502 187.608C147.485 186.571 145.888 176.614 145.739 176.095C145.587 175.591 143.609 175.741 143.637 176.027ZM48.3038 187.88H59.2161L65.5997 170.134H41.6064L48.3038 187.88ZM150.702 36.2539C142.763 28.1788 140.772 20.3631 134.293 13.4747C128.987 7.81334 116.192 8.65929 112.591 13.3241C106.303 21.44 112.1 27.1553 112.1 27.1553C112.1 27.1553 115.101 22.8995 114.514 18.7665C114.514 18.7665 115.51 22.5993 120.462 25.0135C125.413 27.4277 130.119 31.5881 130.392 35.3391C130.856 41.7641 125.208 42.1462 120.639 48.3658C116.056 54.5858 116.71 64.1887 123.68 69.6859C130.651 75.1967 149.147 74.7328 154.194 68.199C159.241 61.6657 159.937 45.6523 150.702 36.2539ZM148.888 101.673C148.67 102.737 137.212 106.993 125.59 105.874C116.451 104.974 112.086 104.033 110.695 101.851L115.101 170.652L127.35 170.789L129.955 122.529L132.07 169.943L148.22 169.615C148.22 169.615 145.914 123.988 147.947 115.559C149.98 107.116 148.888 101.673 148.888 101.673Z" fill="#072948"/>
</svg>
