<svg width="21" height="21" viewBox="0 0 21 21" fill="none" xmlns="http://www.w3.org/2000/svg">
<g id="startContent">
<path id="Vector" d="M14.667 8.25171C16.4795 8.2618 17.4611 8.34217 18.1014 8.98249C18.8337 9.71473 18.8337 10.8932 18.8337 13.2503V14.0836C18.8337 16.4406 18.8337 17.6191 18.1014 18.3514C17.3692 19.0836 16.1907 19.0836 13.8337 19.0836H7.16699C4.80997 19.0836 3.63146 19.0836 2.89922 18.3514C2.16699 17.6191 2.16699 16.4406 2.16699 14.0836L2.16699 13.2503C2.16699 10.8932 2.16699 9.71473 2.89923 8.98249C3.53954 8.34217 4.52114 8.2618 6.33366 8.25171" stroke="#F9F9F9" stroke-width="1.5" stroke-linecap="round"/>
<path id="Vector_2" d="M10.5 2.41675L10.5 13.2501M10.5 13.2501L8 10.3334M10.5 13.2501L13 10.3334" stroke="#F9F9F9" stroke-width="1.5" stroke-linecap="round" stroke-linejoin="round"/>
</g>
</svg>
