<svg width="263" height="188" viewBox="0 0 263 188" fill="none" xmlns="http://www.w3.org/2000/svg">
<path d="M62.062 111.804H48.1273H48.1203C48.1203 111.751 48.1203 111.702 48.1203 111.652C48.1203 111.623 48.1203 111.594 48.1203 111.563H61.8C61.8869 111.644 61.9745 111.723 62.062 111.804ZM75.4624 103.515L75.471 103.509L75.6713 103.377H69.75L70.0394 103.619H75.2997L75.4624 103.515ZM59.2396 109.071C59.1596 108.99 59.0785 108.909 58.9996 108.829H47.999C47.999 108.866 47.999 108.897 47.999 108.933C47.999 108.98 47.999 109.031 47.999 109.071H48.0049H59.2396ZM78.6242 62.9385C78.6166 62.937 78.6086 62.9365 78.6011 62.935C78.411 62.9024 78.2155 62.8838 78.0152 62.8838C76.1583 62.8838 74.6666 64.2791 74.6666 66.016C74.6666 67.6308 75.9779 68.9583 77.6715 69.118C77.7843 69.1285 77.8992 69.1341 78.0152 69.1341C78.1597 69.1341 78.3014 69.1225 78.441 69.1059C80.0831 68.9101 81.3638 67.6036 81.3638 66.016C81.3638 64.6669 80.4531 63.5272 79.1842 63.0842C79.0038 63.0219 78.8169 62.9727 78.6242 62.9385ZM70.4196 62.8843C70.4137 62.8843 70.4078 62.8853 70.4013 62.8853C70.2504 62.8863 70.1033 62.8984 69.9583 62.9169C69.9181 62.922 69.8778 62.9275 69.838 62.934C69.692 62.9576 69.5475 62.9878 69.409 63.0284C69.3913 63.0335 69.3752 63.0405 69.3574 63.046C69.2291 63.0857 69.1051 63.1334 68.9842 63.1872C68.9547 63.2002 68.9252 63.2128 68.8956 63.2268C68.763 63.2901 68.6347 63.3599 68.5133 63.4383C68.5036 63.4443 68.4951 63.4514 68.4859 63.4574C68.3662 63.5367 68.2523 63.6236 68.1444 63.7171C68.1337 63.7266 68.1224 63.7356 68.1117 63.7452C67.9967 63.8476 67.8893 63.9566 67.7911 64.0732C67.7911 64.0737 67.7905 64.0737 67.7905 64.0742C67.689 64.1947 67.5967 64.3223 67.5145 64.4564C67.5145 64.4569 67.514 64.4569 67.514 64.4574C67.434 64.5885 67.3642 64.7256 67.304 64.8673C67.1547 65.2229 67.0704 65.6101 67.0704 66.017C67.0704 67.7398 68.5622 69.1351 70.4185 69.1351C72.2604 69.1351 73.7666 67.7398 73.7666 66.017C73.7666 66.0099 73.7655 66.0029 73.7655 65.9959C73.7645 65.8618 73.7521 65.7307 73.7339 65.6016C73.7285 65.5624 73.722 65.5237 73.7145 65.4851C73.692 65.361 73.6635 65.2394 73.6254 65.1209C73.6216 65.1099 73.62 65.0983 73.6163 65.0878C73.5733 64.9592 73.5196 64.8351 73.46 64.7146C73.445 64.6844 73.4294 64.6543 73.4138 64.6247C73.3537 64.5117 73.2882 64.4017 73.2141 64.2967C73.2098 64.2902 73.206 64.2836 73.2012 64.2771C73.1201 64.1641 73.0293 64.0576 72.9338 63.9556C72.916 63.9366 72.8972 63.918 72.879 63.8994C72.7823 63.8014 72.6814 63.708 72.5724 63.6221C72.5707 63.6206 72.5691 63.6196 72.5675 63.6181C72.4526 63.5282 72.3302 63.4463 72.2029 63.3715C72.1857 63.3615 72.168 63.3519 72.1508 63.3419C72.0289 63.2725 71.9027 63.2098 71.7717 63.155C71.7169 63.1304 71.659 63.1118 71.602 63.0907C71.2353 62.9591 70.8368 62.8843 70.4196 62.8843ZM89.0357 103.618C89.0277 103.572 89.0137 103.53 89.003 103.488C88.9938 103.451 88.989 103.415 88.975 103.376H87.5638C87.4666 103.456 87.3695 103.537 87.2717 103.618H89.0309H89.0357ZM77.6044 111.563C77.5642 111.595 77.5287 111.624 77.4895 111.654C77.4245 111.703 77.3569 111.752 77.3 111.805H83.1601V111.563H77.6071H77.6044ZM83.856 98.1654L84.2356 97.9233H84.2324H47.6172C47.6172 97.949 47.6172 97.97 47.6172 97.9947C47.6172 98.0238 47.6172 98.0564 47.6172 98.0795C47.6172 98.1082 47.6172 98.1363 47.6172 98.1649H47.6215H83.8528L83.856 98.1654ZM86.5699 92.869C86.5549 92.7836 86.5243 92.6977 86.5092 92.6264H86.5081H47.542C47.542 92.655 47.542 92.6831 47.542 92.7118C47.542 92.7429 47.542 92.7856 47.542 92.8263C47.542 92.8414 47.542 92.8534 47.542 92.869H86.5699ZM89.5534 106.109H84.2866C84.1954 106.181 84.1041 106.267 83.9972 106.351H89.5985C89.584 106.266 89.5684 106.195 89.5534 106.109ZM64.9553 114.296H48.2465H48.2417C48.2567 114.368 48.2567 114.453 48.2567 114.538H48.2583H65.2592C65.1529 114.453 65.0616 114.382 64.9553 114.296ZM73.8901 114.296C73.874 114.308 73.8579 114.318 73.8413 114.329C73.736 114.4 73.6302 114.464 73.525 114.538H73.526H83.1601V114.296H73.8901ZM83.1601 109.071V108.829H81.011H81.0084C80.9101 108.91 80.8113 108.99 80.7136 109.071H80.7168H83.1601ZM55.5801 103.515L55.8072 103.376H47.7852C47.7852 103.436 47.7852 103.496 47.7852 103.556C47.7852 103.567 47.7852 103.578 47.7852 103.589C47.7852 103.604 47.7852 103.604 47.7852 103.618H47.7874H55.4099L55.5801 103.515ZM47.6633 87.4012C47.6633 87.348 47.6682 87.2998 47.6725 87.2511C47.6752 87.2214 47.6784 87.1918 47.6784 87.1596H47.6795H61.9713L61.9106 84.6679H48.2111C48.2417 84.5965 48.2873 84.5112 48.348 84.4403H61.9106L61.8499 81.9486H51.5602C51.7025 81.8687 51.8588 81.7903 52.0156 81.722C52.0263 81.7175 52.0365 81.711 52.0473 81.7065H52.051H61.8499L61.7892 78.8475V78.845L61.9342 78.8209L63.057 78.6336L63.0678 78.6321L63.4281 78.6863L63.5392 78.7029V79.1293C63.5392 79.1293 63.5344 79.1499 63.528 79.181C63.5242 79.1996 63.5199 79.2232 63.5156 79.2519C63.5145 79.2604 63.5135 79.2694 63.5124 79.2785C63.5076 79.3151 63.5038 79.3583 63.5011 79.4071C63.5006 79.4126 63.5006 79.4166 63.5 79.4221C63.4974 79.4819 63.4974 79.5497 63.5011 79.625C63.5011 79.6265 63.5011 79.6286 63.5016 79.6301C63.5097 79.7853 63.5366 79.9711 63.5956 80.1811C63.5956 80.1811 63.5956 80.1811 63.5956 80.1816C63.6048 80.2137 63.6117 80.2443 63.6225 80.2775C63.623 80.279 63.6235 80.2805 63.6241 80.282C63.6789 80.4513 63.7583 80.6356 63.8641 80.829C63.8727 80.8451 63.8813 80.8611 63.8904 80.8772C63.8904 80.8777 63.891 80.8782 63.891 80.8787C63.892 80.8802 63.8926 80.8822 63.8936 80.8837C63.9098 80.9119 63.9248 80.94 63.942 80.9686C63.9608 80.9998 63.9833 81.0319 64.0037 81.0636C64.0456 81.1283 64.0902 81.1936 64.139 81.2604C64.1562 81.2835 64.1745 81.3071 64.1927 81.3308C64.2561 81.4136 64.3254 81.497 64.4006 81.5819C64.4091 81.5914 64.4172 81.601 64.4258 81.6105C64.4553 81.6432 64.4811 81.6753 64.5123 81.708C64.5885 81.7798 64.6648 81.8652 64.756 81.9501C64.9692 82.149 65.228 82.3629 65.5325 82.5623C65.837 82.7899 66.1259 82.9044 66.3697 82.9325L67.1005 84.4418H68.0902L67.9076 81.9501H67.7599C67.7599 81.9496 67.7605 81.9496 67.7605 81.9491H67.7562C67.7889 81.8878 67.8152 81.833 67.8437 81.7758C67.855 81.7537 67.8652 81.7321 67.8781 81.708H67.8931V81.6658C67.9259 81.5859 67.9565 81.5035 67.9855 81.4212C67.9967 81.3895 68.0075 81.3574 68.0182 81.3252C68.0273 81.2986 68.0365 81.2725 68.0445 81.2454C68.2362 80.6447 68.3388 80.0248 68.3877 79.6552C68.3877 79.6532 68.3882 79.6512 68.3887 79.6491C68.3903 79.6361 68.3914 79.6255 68.393 79.613C68.4167 79.4297 68.4258 79.3156 68.4258 79.3156C68.4258 79.3156 69.2935 79.4297 70.6177 79.6431C70.7853 80.17 71.0135 80.8958 71.2573 81.707H79.8726C80.1137 81.7783 80.3404 81.8627 80.5664 81.9465C80.5686 81.9476 80.5707 81.9481 80.5729 81.9491H71.333C71.5918 82.7467 71.8507 83.6005 72.1245 84.4408H83.9972C84.0262 84.5081 84.067 84.5865 84.0971 84.6548C84.0992 84.6593 84.1014 84.6638 84.1035 84.6684H72.2002C72.4897 85.6222 72.7635 86.5047 72.9767 87.1601H84.9992H85.0019C85.0083 87.1898 85.018 87.2194 85.0271 87.249C85.0406 87.2907 85.054 87.3319 85.0626 87.3736C85.0626 87.3831 85.0685 87.3877 85.0728 87.3932C85.0749 87.3957 85.0776 87.3977 85.0776 87.4022H85.0755H73.0524C73.235 87.9572 73.3419 88.3134 73.3419 88.3134L71.5306 87.4022H66.2789L62.0169 89.0683L61.9718 87.4017H47.6633V87.4012ZM66.904 87.1591H71.0441L68.1976 85.7352L68.1063 84.6674H67.2235L68.1976 86.6609L66.904 87.1591ZM83.1601 122.483H68.349C68.3893 122.564 68.4247 122.644 68.4628 122.725H83.1595L83.1601 122.483ZM83.1601 119.75H66.4969C66.5694 119.829 66.6382 119.911 66.7074 119.992H83.1601V119.75ZM47.5726 95.5878H87.2282H87.24C87.2094 95.5164 87.1939 95.4311 87.1788 95.3457H87.1708H47.5726C47.5726 95.4311 47.5726 95.5164 47.5726 95.5878ZM79.5837 100.884L79.9639 100.642H66.5082L66.7976 100.884H79.5837ZM60.2975 100.642H47.694C47.694 100.699 47.694 100.742 47.694 100.784C47.694 100.79 47.694 100.793 47.694 100.798C47.694 100.832 47.694 100.86 47.694 100.884H47.6966H59.9017L60.2975 100.642ZM85.8428 90.0698C85.8412 90.0628 85.8391 90.0562 85.8391 90.0492C85.824 90.0206 85.824 89.9924 85.824 89.9779C85.8111 89.9533 85.8079 89.9292 85.7977 89.9046C85.7961 89.9005 85.7956 89.8965 85.7934 89.8925H47.5721C47.5721 89.9206 47.5667 89.9442 47.5619 89.9683C47.5597 89.9804 47.557 89.997 47.557 90.0065C47.557 90.0492 47.557 90.0919 47.557 90.1346H47.5586H85.8546C85.8546 90.113 85.8471 90.0914 85.8428 90.0698ZM83.1601 125.217H69.3676C69.3891 125.298 69.4111 125.38 69.4305 125.459H83.1595V125.217H83.1601ZM47.8916 106.352H56.6132C56.5386 106.268 56.4785 106.184 56.4044 106.113C56.4033 106.112 56.4022 106.111 56.4017 106.11C56.4017 106.109 56.4011 106.109 56.4011 106.109H47.8819H47.8771C47.8771 106.12 47.8803 106.132 47.8835 106.144C47.8878 106.161 47.8921 106.177 47.8921 106.194C47.8916 106.252 47.8916 106.295 47.8916 106.352ZM83.1601 117.03H62.7128C62.8782 117.103 63.0415 117.178 63.1999 117.257H83.1601V117.03Z" fill="#F9F9F9"/>
<path d="M190.776 25.3964H155.767H151.307V19.886H190.776V25.3964ZM145.142 23.6163L146.168 18.3033L146.192 18.1777H136.45H135.598H126.069L126.084 18.2581L127.089 23.6163H145.142Z" fill="#091118"/>
<path d="M96.92 120.831V117.186H108.272C106.515 118.271 104.453 119.778 100.345 120.205C98.9928 120.348 97.8613 120.69 96.92 121.183V120.831ZM146.168 18.3033L145.142 23.6163H127.089L126.085 18.2581L129.464 36.4303H142.676L146.168 18.3033ZM157.532 60.1787H160.501C163.941 60.1787 165.95 58.4986 165.95 56.2208C165.95 53.4588 163.713 52.3769 160.425 52.3769C158.918 52.3769 158.065 52.4759 157.532 52.5758V60.1787ZM166.741 67.0408C166.742 63.8092 163.788 62.4847 160.226 62.4847H157.532V71.4829C158.172 71.5823 159.115 71.6255 160.272 71.6255C163.636 71.6255 166.741 70.4583 166.741 67.0408ZM231.067 112.744V111.79H96.92V112.744H231.067ZM115.353 117.186C117.803 118.488 118.921 120.27 119.243 122.084H231.067V120.831V117.186H115.353ZM192.573 36.4308V30.9204H155.767H153.103V36.4303L192.573 36.4308ZM100.144 96.2625C100.057 96.2756 99.9674 96.2902 99.8782 96.3052C99.824 96.3143 99.7665 96.3248 99.7112 96.3343C99.5882 96.3559 99.4701 96.3745 99.3412 96.3991L99.3369 96.4072L96.9205 100.804L94.3484 105.483L96.1902 106.366L96.9205 105.035L101.807 96.1294C101.467 96.1224 101.104 96.1435 100.709 96.1872C100.677 96.1907 100.643 96.1952 100.61 96.1992C100.46 96.2163 100.304 96.2384 100.144 96.2625ZM105.978 88.5255L105.98 88.5205L116.389 69.5753L114.563 68.7068L104.092 87.753L104.09 87.757C104.699 87.9419 105.354 88.1985 105.978 88.5255ZM30.6155 163.572L30.6139 163.571C30.3341 163.324 30.0737 163.072 29.8224 162.818C29.7563 162.751 29.6919 162.685 29.628 162.618C29.4062 162.386 29.1947 162.151 28.996 161.914C28.9745 161.888 28.9509 161.863 28.9299 161.837C28.7125 161.573 28.5122 161.305 28.3231 161.035C28.2807 160.975 28.2404 160.915 28.1996 160.854C28.0342 160.609 27.8785 160.362 27.7357 160.113C27.7185 160.083 27.6992 160.054 27.6825 160.024C27.523 159.74 27.3797 159.453 27.2492 159.165C27.2304 159.123 27.2137 159.082 27.1955 159.041C27.0773 158.77 26.9705 158.499 26.8776 158.225C26.8701 158.203 26.8615 158.181 26.854 158.159C26.7525 157.853 26.6666 157.546 26.5962 157.239C26.5946 157.231 26.593 157.223 26.5914 157.215C26.5221 156.908 26.4684 156.601 26.4297 156.293C26.4287 156.285 26.4276 156.278 26.4265 156.27C26.1129 153.729 26.8357 151.168 28.474 148.87C25.4809 149.897 23.3389 152.585 23.3389 155.757V165.253V165.737V166.222H36.2764C33.9024 165.605 31.9215 164.726 30.6171 163.574C30.6171 163.573 30.6155 163.572 30.6155 163.572ZM117.789 148.466H87.1152H85.4737C81.1354 148.466 77.6192 151.755 77.6192 155.812V165.252H71.3784V163.53V155.756C71.3784 153.052 69.8126 150.704 67.5009 149.422C67.7629 151.403 67.8435 153.534 67.6109 155.638C67.6083 155.665 67.6056 155.691 67.6024 155.718C67.5793 155.918 67.5529 156.119 67.5239 156.32C67.517 156.366 67.5105 156.413 67.5035 156.459C67.4751 156.646 67.4445 156.832 67.4112 157.017C67.4004 157.076 67.3897 157.133 67.3784 157.191C67.3779 157.194 67.3774 157.196 67.3768 157.199C67.3435 157.374 67.3081 157.548 67.27 157.722C67.2538 157.793 67.2367 157.865 67.22 157.937C67.1819 158.1 67.1427 158.263 67.0997 158.425C67.0868 158.474 67.0734 158.522 67.0605 158.57C67.0509 158.605 67.0396 158.64 67.0299 158.675C66.9875 158.826 66.9456 158.975 66.8994 159.124C66.8769 159.196 66.8522 159.267 66.8286 159.338C66.8178 159.372 66.806 159.405 66.7947 159.438C66.7528 159.563 66.7126 159.69 66.6669 159.814C66.5837 160.044 66.4956 160.272 66.4011 160.497C66.3936 160.515 66.3834 160.533 66.3753 160.551C66.3292 160.656 66.2803 160.761 66.2261 160.863C66.2196 160.875 66.2126 160.887 66.2062 160.899C66.1949 160.92 66.182 160.94 66.1708 160.96C66.1219 161.048 66.0719 161.135 66.0172 161.221C66.0005 161.247 65.9823 161.272 65.9651 161.298C65.957 161.31 65.9474 161.322 65.9393 161.334C65.8867 161.412 65.8335 161.49 65.7761 161.567C65.7439 161.609 65.709 161.651 65.6751 161.693C65.6193 161.763 65.5634 161.833 65.5033 161.902C65.4641 161.947 65.4222 161.991 65.3814 162.036C65.3223 162.1 65.2638 162.164 65.2015 162.226C65.1553 162.273 65.107 162.319 65.0587 162.365C64.9964 162.424 64.9341 162.484 64.8691 162.542C64.8176 162.589 64.7633 162.634 64.7096 162.68C64.643 162.737 64.5765 162.793 64.5072 162.848C64.4508 162.894 64.3928 162.939 64.3343 162.983C64.2629 163.038 64.1909 163.092 64.1168 163.145C64.0566 163.189 63.9954 163.232 63.9331 163.275C63.8558 163.328 63.7769 163.381 63.6969 163.434C63.6571 163.46 63.6185 163.487 63.5777 163.513C63.5551 163.527 63.5309 163.541 63.5079 163.556C63.4225 163.609 63.3349 163.663 63.2469 163.715C63.1851 163.752 63.1228 163.789 63.06 163.826C62.9639 163.881 62.8656 163.935 62.7668 163.989C62.7078 164.022 62.6487 164.054 62.588 164.086C62.4785 164.144 62.3668 164.201 62.254 164.257C62.2008 164.284 62.1482 164.31 62.094 164.337C61.9667 164.399 61.8362 164.46 61.7047 164.519C61.6617 164.539 61.6204 164.559 61.5769 164.578C61.4228 164.647 61.2649 164.715 61.1054 164.782C61.0834 164.791 61.0619 164.8 61.0399 164.809C59.6743 165.373 58.1246 165.844 56.4621 166.221H222.62V165.252V165.252H125.659V163.529V155.812C125.659 151.755 122.128 148.466 117.789 148.466Z" fill="#F9F9F9"/>
<path d="M106.601 142.004C106.543 142.295 106.494 142.656 106.452 143.049C104.908 143.017 103.585 143.025 102.637 143.042C102.606 143.042 102.573 143.043 102.543 143.043C102.417 143.046 102.302 143.048 102.192 143.05C102.158 143.051 102.124 143.052 102.092 143.053C101.974 143.056 101.868 143.059 101.77 143.062C101.767 143.062 101.764 143.062 101.761 143.062V141.709C102.149 141.788 102.54 141.848 102.93 141.9C102.973 141.905 103.015 141.911 103.057 141.916C103.443 141.965 103.828 142.005 104.211 142.031C105.125 142.089 105.915 142.069 106.601 142.004ZM113.084 130.67C113.001 130.711 112.923 130.765 112.844 130.818C112.801 130.847 112.756 130.871 112.714 130.904C112.667 130.939 112.622 130.982 112.576 131.022C112.512 131.078 112.446 131.132 112.384 131.195C112.366 131.213 112.35 131.234 112.333 131.252C110.959 132.709 110.33 135.695 110.33 135.695L110.33 135.694L110.329 135.696C110.329 135.696 110.07 135.141 109.036 133.461C108.58 132.715 107.938 132.439 107.451 132.594C106.833 132.791 106.464 133.684 107.043 135.197C108.078 137.903 110.194 140.437 110.194 140.679C110.194 140.736 114.136 141.803 115.399 141.078C117.074 140.109 116.647 138.828 116.647 137.433C116.662 136.023 116.723 136.066 117.241 135.539C117.758 135.012 117.149 134.77 116.723 133.332C116.419 132.293 116.115 130.7 115.962 129.873C114.588 130.732 114.739 129.84 113.084 130.67ZM83.8559 98.1654L84.2355 97.9233L91.6985 93.1673C91.6985 93.1673 94.3056 91.5801 96.9196 90.0853C98.9768 88.9085 101.038 87.7884 101.836 87.5438C102.322 87.3896 103.159 87.4785 104.092 87.7533L104.09 87.7573C104.699 87.9421 105.353 88.1988 105.977 88.5258L105.98 88.5207C107.916 89.5358 109.549 91.1808 108.701 92.9965C107.149 96.2854 106.631 97.7379 104.576 96.7696C103.382 96.215 102.297 96.0096 100.709 96.1864C100.676 96.1899 100.642 96.1945 100.609 96.1985C100.458 96.2166 100.303 96.2376 100.143 96.2628C100.056 96.2758 99.9664 96.2904 99.8773 96.3055C99.822 96.315 99.7667 96.3245 99.7103 96.3346C99.5873 96.3562 99.4692 96.3748 99.3403 96.3994L99.336 96.4074C98.6331 96.5491 97.8379 96.7444 96.9196 96.9961C96.7021 97.0559 96.482 97.1166 96.25 97.1824C94.8393 97.5797 92.0561 99.6933 88.7628 102.387C88.3698 102.709 87.9692 103.039 87.5632 103.375C87.466 103.456 87.3688 103.537 87.2711 103.618C85.9689 104.698 84.6114 105.838 83.2459 106.976C82.4995 107.598 81.7515 108.219 81.0077 108.829C80.9095 108.909 80.8107 108.99 80.7129 109.071C76.6098 112.429 72.7044 115.409 70.3019 116.294C70.2702 116.305 70.238 116.318 70.2069 116.329C70.129 116.356 70.0538 116.38 69.9792 116.403C69.9292 116.418 69.8809 116.431 69.8326 116.444C69.7698 116.461 69.7064 116.479 69.6468 116.492C69.5474 116.514 69.4524 116.53 69.3606 116.542C69.3198 116.547 69.2811 116.549 69.2419 116.552C69.1764 116.557 69.1136 116.559 69.0524 116.558C69.0191 116.558 68.9858 116.557 68.9535 116.555C68.8644 116.549 68.7785 116.538 68.6996 116.517C67.7872 116.281 66.5989 115.554 65.2988 114.564C64.3704 113.856 63.3845 113.014 62.4024 112.119C62.2885 112.015 62.1752 111.91 62.0619 111.805C61.9749 111.724 61.8874 111.644 61.8004 111.563C60.9192 110.741 60.0525 109.891 59.2395 109.071C59.1595 108.99 59.0784 108.909 58.9995 108.829C58.0136 107.829 57.1233 106.888 56.4016 106.111C56.4016 106.11 56.401 106.11 56.401 106.11C55.2954 104.919 54.5914 104.118 54.5903 104.117L55.4108 103.619L55.5811 103.515L63.9059 98.4637L72.3081 105.526L74.471 104.147L75.3007 103.619L75.4634 103.515L83.8559 98.1654ZM69.3386 139.653C68.0756 140.379 65.7317 140.55 64.6663 140.592C63.022 138.685 63.4328 137.56 61.6978 136.478C59.9628 135.396 60.4042 132.677 60.8607 131.481C61.0202 131.059 61.4841 130.853 62.0147 130.869C62.8996 130.894 63.9709 131.533 64.1325 132.805C64.0869 133.103 64.1476 133.26 64.1476 133.26C64.1476 133.259 64.1476 133.258 64.1476 133.256C64.1476 133.257 64.1486 133.26 64.1486 133.26C64.1486 133.103 64.1486 132.947 64.1336 132.805C64.1331 132.809 64.1336 132.811 64.1331 132.814C64.1331 132.811 64.1331 132.808 64.1325 132.805C64.1325 132.805 64.1325 132.804 64.1325 132.804C64.1325 132.804 64.1331 132.805 64.1336 132.805C64.1792 132.364 64.3919 131.638 65.1684 130.698C65.6887 130.073 66.5049 129.516 67.3088 129.067C68.575 128.36 69.8106 127.922 69.8106 127.922C69.8106 127.922 70.2369 130.455 70.6622 131.893C71.0886 133.346 71.6975 133.587 71.1799 134.1C70.6628 134.627 70.6015 134.584 70.5865 135.994C70.5865 137.403 71.0129 138.685 69.3386 139.653ZM63.5392 78.7018V72.5083C62.1237 71.8538 61.1496 69.3766 61.1496 69.3766C61.1496 69.3766 60.2517 69.5047 58.3186 69.3766C56.3855 69.2621 53.8128 65.048 56.3253 64.2655C56.9037 64.0806 57.3601 64.0374 57.7408 64.052C57.9996 65.4755 59.2932 66.7281 59.2932 66.7281C59.2932 66.7281 59.3109 66.7246 59.3437 66.7181C59.8162 66.6226 63.6106 65.8496 67.2996 64.8772C67.3012 64.8737 67.3034 64.8702 67.305 64.8667C67.1557 65.2223 67.0714 65.6096 67.0714 66.0164C67.0714 67.7392 68.5632 69.1345 70.4195 69.1345C72.2614 69.1345 73.7681 67.7392 73.7681 66.0164C73.7681 66.0094 73.7665 66.0023 73.7665 65.9953C73.7654 65.8612 73.7531 65.7301 73.7348 65.601C73.7295 65.5618 73.723 65.5232 73.7155 65.4845C73.693 65.3604 73.6645 65.2389 73.6264 65.1203C73.6231 65.1093 73.621 65.0977 73.6172 65.0872C73.5743 64.9586 73.5206 64.8345 73.461 64.714C73.4459 64.6839 73.4304 64.6537 73.4148 64.6241C73.3547 64.5111 73.2891 64.4011 73.215 64.2961C73.2107 64.2896 73.207 64.2826 73.2022 64.2765C73.1211 64.1635 73.0303 64.057 72.9347 63.9551C72.917 63.936 72.8982 63.9174 72.88 63.8988C72.7833 63.8009 72.6824 63.7075 72.5733 63.6216C72.5717 63.6201 72.5701 63.6191 72.5685 63.6175C72.4536 63.5276 72.3312 63.4458 72.2039 63.3709C72.1867 63.3609 72.169 63.3513 72.1518 63.3413C72.0299 63.272 71.9037 63.2092 71.7727 63.1544C71.7732 63.1544 71.7732 63.1545 71.7738 63.155C74.6772 61.3342 76.5937 58.5637 76.5986 58.5566L78.9881 61.8882C79.0644 62.274 79.1294 62.6753 79.1831 63.0851C79.0026 63.0224 78.8158 62.9731 78.623 62.939C78.6155 62.9375 78.6074 62.937 78.5999 62.9355C78.4098 62.9028 78.2143 62.8842 78.0141 62.8842C76.1572 62.8842 74.6654 64.2795 74.6654 66.0164C74.6654 67.6317 75.9767 68.9587 77.6704 69.1184C77.7832 69.129 77.8981 69.1345 78.0141 69.1345C78.1585 69.1345 78.3003 69.123 78.4399 69.1064C77.3079 72.2094 75.2094 75.2557 72.9911 75.6977C69.7182 76.3672 67.2067 74.1316 67.2067 74.1316V79.3141H68.4246C68.4246 79.3141 68.3194 80.5989 67.9032 81.6346C67.9027 81.6356 67.9027 81.6366 67.9021 81.6371C67.8866 81.6753 67.871 81.7129 67.8543 81.7506C67.8538 81.7521 67.8533 81.7531 67.8522 81.7546C67.8194 81.8194 67.791 81.8802 67.755 81.948H67.7566H67.7609C67.7609 81.9485 67.7604 81.9485 67.7604 81.949C67.7416 81.9857 67.7217 82.0208 67.7024 82.0565C67.6922 82.0751 67.682 82.0937 67.6718 82.1117C67.6535 82.1434 67.6336 82.174 67.6143 82.2047C67.6014 82.2252 67.588 82.2458 67.5746 82.2659C67.5552 82.2946 67.5354 82.3217 67.5155 82.3488C67.5005 82.3694 67.4849 82.3895 67.4693 82.4091C67.4495 82.4342 67.4291 82.4588 67.4081 82.4824C67.3909 82.502 67.3732 82.5211 67.355 82.5402C67.3345 82.5618 67.3141 82.5829 67.2927 82.6025C67.2728 82.6215 67.2519 82.6386 67.2309 82.6562C67.2105 82.6738 67.1901 82.6913 67.1686 82.7074C67.1439 82.726 67.1181 82.7416 67.0929 82.7582C67.0741 82.7702 67.0559 82.7838 67.0365 82.7948C66.992 82.8199 66.9458 82.842 66.898 82.8606C66.8824 82.8667 66.8663 82.8702 66.8507 82.8757C66.8164 82.8872 66.7815 82.8988 66.7455 82.9063C66.7256 82.9109 66.7047 82.9129 66.6843 82.9164C66.651 82.9219 66.6177 82.9264 66.5833 82.9284C66.5613 82.9299 66.5382 82.9294 66.5156 82.9294C66.4813 82.9294 66.4464 82.9279 66.4104 82.9249C66.3868 82.9229 66.3626 82.9194 66.3384 82.9159C66.3019 82.9103 66.2643 82.9023 66.2267 82.8933C66.202 82.8872 66.1773 82.8812 66.1521 82.8737C66.1124 82.8616 66.071 82.8465 66.0302 82.831C66.0055 82.8214 65.9813 82.8129 65.9561 82.8019C65.9099 82.7818 65.8627 82.7572 65.8149 82.732C65.7929 82.7205 65.7719 82.7109 65.7494 82.6979C65.6796 82.6582 65.6081 82.6135 65.5346 82.5623C65.5335 82.5618 65.533 82.5613 65.5319 82.5608C65.5314 82.5603 65.5308 82.5598 65.5303 82.5593C65.3917 82.4633 65.265 82.3674 65.1447 82.272C65.1039 82.2393 65.0647 82.2072 65.0255 82.1745C64.9471 82.1097 64.873 82.0449 64.8021 81.9806C64.764 81.946 64.7243 81.9108 64.6883 81.8762C64.6002 81.7918 64.5175 81.7079 64.4418 81.625C64.4397 81.623 64.4375 81.6205 64.4354 81.6185C64.4193 81.6014 64.4042 81.5833 64.3887 81.5663L64.3881 81.5658C64.321 81.4904 64.2603 81.4161 64.2029 81.3422C64.2023 81.3412 64.2018 81.3407 64.2007 81.3397C64.1776 81.3096 64.154 81.2795 64.132 81.2498L64.1314 81.2493C64.0901 81.1931 64.053 81.1378 64.0165 81.0826C64.016 81.0816 64.0149 81.0801 64.0144 81.0791C63.9891 81.0414 63.9628 81.0032 63.9403 80.9655C63.9392 80.964 63.9376 80.962 63.9371 80.96C63.9209 80.9339 63.9081 80.9088 63.8936 80.8832C63.8925 80.8817 63.8919 80.8797 63.8909 80.8781C63.8909 80.8776 63.8903 80.8771 63.8903 80.8766C63.8887 80.8736 63.8877 80.8711 63.886 80.8681C63.747 80.621 63.6541 80.3894 63.595 80.1815C63.595 80.1815 63.595 80.1815 63.595 80.181C63.5354 79.971 63.5096 79.7852 63.501 79.63C63.501 79.6285 63.501 79.6265 63.5005 79.625C63.4967 79.5496 63.4967 79.4818 63.4994 79.4221C63.4994 79.4165 63.4999 79.4125 63.5005 79.407C63.5032 79.3578 63.5069 79.3151 63.5118 79.2784C63.5128 79.2694 63.5139 79.2603 63.515 79.2518C63.5193 79.2222 63.523 79.2001 63.5273 79.181C63.5338 79.1503 63.5386 79.1292 63.5386 79.1292V78.7028V78.7018H63.5392ZM83.16 117.257V117.03V114.538V114.296V111.805V111.563V109.071V108.829V107.604H88.6093V126.754H83.1605L83.16 125.459V125.217V122.725V122.483V119.992V119.75V117.257Z" fill="#FFD2BB"/>
<path d="M70.9082 116.038C70.9834 116.004 71.0591 115.968 71.1364 115.93C71.0591 115.968 70.9828 116.004 70.9082 116.038ZM61.8004 111.563C60.9192 110.741 60.0525 109.891 59.2395 109.071L59.239 109.07C60.052 109.891 60.9187 110.74 61.8004 111.563C61.8042 111.566 61.809 111.57 61.8133 111.575C61.809 111.571 61.8047 111.567 61.8004 111.563ZM72.8768 114.951C72.7302 115.042 72.5857 115.131 72.4434 115.216C72.5852 115.131 72.7302 115.042 72.8768 114.951ZM71.6057 115.69C71.7464 115.616 71.8898 115.536 72.0369 115.452C71.8898 115.536 71.7459 115.616 71.6057 115.69ZM69.3606 116.541C69.3198 116.546 69.2811 116.548 69.2419 116.551C69.1764 116.556 69.1136 116.559 69.0524 116.558C69.1136 116.559 69.1769 116.556 69.2425 116.551C69.2817 116.548 69.3203 116.546 69.3606 116.541C69.453 116.53 69.548 116.514 69.6473 116.492C69.707 116.479 69.7709 116.46 69.8331 116.444C69.8815 116.431 69.9298 116.418 69.9797 116.403C70.0538 116.38 70.1301 116.355 70.2074 116.328C70.2386 116.318 70.2708 116.305 70.3025 116.294C70.3068 116.292 70.3121 116.29 70.3164 116.288C70.3116 116.289 70.3068 116.292 70.3019 116.294C70.2702 116.305 70.238 116.318 70.2069 116.328C70.129 116.355 70.0538 116.38 69.9792 116.403C69.9293 116.418 69.8815 116.431 69.8331 116.444C69.7703 116.461 69.7064 116.478 69.6468 116.492C69.5475 116.514 69.4524 116.53 69.3606 116.541ZM36.2766 166.222H30.3687C34.0953 166.854 37.9686 167.096 41.9133 167.145C39.9012 166.969 37.9858 166.665 36.2771 166.221M75.6712 103.376L75.6718 103.376H69.751L69.7515 103.376H75.6712ZM69.751 103.376L63.9059 98.463L55.5811 103.514L55.8082 103.375H55.8072L55.58 103.514L55.4098 103.618L54.5893 104.116C54.5893 104.116 55.2938 104.917 56.4 106.109C55.2949 104.919 54.5914 104.118 54.5904 104.117L55.4109 103.618L55.5811 103.514L63.9059 98.4635L69.751 103.376ZM83.1594 125.217V125.459H83.16L83.1594 125.217ZM119.244 122.084C119.789 125.153 118.065 128.308 116.692 129.36C116.407 129.578 116.168 129.744 115.963 129.873H115.962C116.115 130.699 116.419 132.293 116.723 133.331C117.149 134.769 117.758 135.011 117.241 135.538C116.723 136.065 116.662 136.022 116.647 137.432C116.647 138.827 117.074 140.108 115.399 141.077C114.136 141.803 110.194 140.735 110.194 140.678C110.194 140.436 108.078 137.902 107.043 135.197C106.475 133.713 106.82 132.83 107.417 132.609C106.82 132.829 106.474 133.712 107.042 135.197C108.077 137.902 110.193 140.436 110.193 140.678C110.193 140.868 109.147 141.763 106.601 142.003C106.543 142.294 106.494 142.655 106.452 143.048C104.908 143.017 103.585 143.025 102.637 143.041C102.606 143.042 102.574 143.042 102.543 143.043C102.417 143.045 102.302 143.047 102.192 143.05C102.158 143.05 102.124 143.051 102.092 143.052C101.974 143.055 101.868 143.058 101.77 143.061C101.767 143.061 101.764 143.061 101.761 143.061V141.709H101.761C98.2599 140.998 94.9564 139.137 93.6472 135.083C92.2999 130.87 91.8618 123.833 96.9202 121.183V120.83V117.186V112.743V111.789V105.036L96.1904 106.366L94.3485 105.483L96.9207 100.803L99.3371 96.4067L99.3414 96.3986C99.4703 96.374 99.5884 96.3554 99.7114 96.3338C99.7667 96.3243 99.8242 96.3137 99.8784 96.3047C99.9675 96.2896 100.057 96.2751 100.144 96.262C100.304 96.2379 100.46 96.2158 100.61 96.1987C100.643 96.1947 100.677 96.1902 100.71 96.1866C101.103 96.143 101.466 96.1219 101.807 96.1289V96.1284C101.466 96.1214 101.103 96.1425 100.709 96.1862C102.298 96.0094 103.383 96.2148 104.576 96.7693C106.631 97.7377 107.149 96.2851 108.702 92.9962C109.338 91.6346 108.578 90.3683 107.341 89.3924C108.578 90.3683 109.337 91.634 108.701 92.9957C107.149 96.2846 106.631 97.7372 104.576 96.7688C103.382 96.2143 102.298 96.0089 100.709 96.1856C100.676 96.1892 100.642 96.1937 100.609 96.1977C100.458 96.2158 100.303 96.2369 100.143 96.262C100.056 96.2751 99.9665 96.2896 99.8773 96.3047C99.822 96.3142 99.7667 96.3238 99.7103 96.3338C99.5873 96.3554 99.4692 96.374 99.3403 96.3986L99.336 96.4061L96.9202 100.803V96.9953C96.7027 97.0551 96.482 97.1159 96.25 97.1817C94.8393 97.579 92.0562 99.6925 88.7628 102.387C88.3698 102.708 87.9692 103.038 87.5632 103.375C87.466 103.455 87.3688 103.536 87.2711 103.617C85.9689 104.697 84.6114 105.837 83.2459 106.975C82.4995 107.597 81.7515 108.218 81.0077 108.828C80.9095 108.909 80.8107 108.99 80.7129 109.07C79.9628 109.684 79.2196 110.285 78.4904 110.863C79.2223 110.282 79.9633 109.687 80.7167 109.07H80.7135C80.8112 108.99 80.91 108.909 81.0083 108.828H81.011C81.7536 108.218 82.5006 107.597 83.2464 106.975C84.612 105.837 85.9695 104.698 87.2717 103.617C87.3694 103.536 87.466 103.455 87.5632 103.375C87.9692 103.038 88.3703 102.708 88.7634 102.387C88.8472 102.768 88.9272 103.135 89.0029 103.487C89.0136 103.529 89.0276 103.571 89.0356 103.617H89.0308C89.5431 105.997 89.8578 107.603 89.8578 107.603H88.6093V126.753H83.1605H69.7204C69.7639 127.13 69.7977 127.512 69.8101 127.906V127.92C69.8052 127.923 69.7827 127.931 69.7703 127.936C69.7896 127.929 69.8106 127.921 69.8106 127.921C69.8106 127.921 70.237 130.455 70.6622 131.892C71.0886 133.345 71.6975 133.586 71.1799 134.099C70.6628 134.626 70.6016 134.583 70.5865 135.993C70.5865 137.403 71.0129 138.684 69.3386 139.652C68.0756 140.378 65.7317 140.549 64.6663 140.592C64.6641 140.589 64.6625 140.587 64.6598 140.584C65.4696 142.089 66.1468 143.597 66.3889 144.365C66.4802 144.655 66.5672 144.951 66.651 145.25C66.5661 144.945 66.4791 144.648 66.39 144.365C66.4281 144.361 70.8378 143.863 72.3838 146.43C73.9207 148.993 73.5856 163.529 73.5856 163.529H71.3786V165.252H77.6194V155.812C77.6194 151.754 81.1356 148.465 85.4738 148.465H87.1154C88.0336 146.517 89.1468 144.974 90.4817 144.337C95.7479 141.831 101.091 143.084 101.091 143.084C101.091 143.084 101.341 143.073 101.77 143.061C101.868 143.058 101.974 143.056 102.091 143.053C102.123 143.052 102.158 143.051 102.191 143.05C102.302 143.048 102.417 143.045 102.542 143.043C102.572 143.043 102.606 143.042 102.637 143.042C103.585 143.025 104.908 143.017 106.452 143.049C112.677 143.176 122.408 143.954 124.852 147.483C128.521 152.765 128.703 163.529 128.703 163.529H125.659V165.251H208.38C211.009 161.695 212.596 157.907 212.847 154.26C214.084 136.056 211.259 141.822 212.117 122.083L119.244 122.084ZM78.362 110.966C76.4654 112.466 74.673 113.803 73.1227 114.794C73.2575 114.708 73.3874 114.629 73.526 114.538H73.5249C73.6301 114.464 73.7359 114.4 73.8412 114.328C73.846 114.325 73.8508 114.322 73.8557 114.319C74.9769 113.562 76.2034 112.654 77.4894 111.654C77.5286 111.624 77.5641 111.595 77.6044 111.563H77.607C77.8551 111.369 78.1102 111.164 78.362 110.966ZM83.16 111.805V111.804H77.3004L77.2999 111.805H83.16ZM83.16 122.725V122.483H83.1594L83.16 122.725ZM61.7891 78.8472V78.8447L61.9341 78.8206C62.6204 78.694 63.0376 78.6302 63.0376 78.6302L63.057 78.6332L63.0677 78.6317L63.428 78.686L63.5386 78.7025V78.702L63.428 78.6855L63.5392 78.7015V72.508C62.1237 71.8535 61.1496 69.3763 61.1496 69.3763C61.1496 69.3763 60.2518 69.5044 58.3186 69.3763C58.2477 69.3723 58.1747 69.3517 58.1022 69.3367C56.4446 73.941 54.8154 77.8959 52.6991 81.4178C55.8893 80.0592 59.8206 79.2154 61.7891 78.8472ZM73.0524 87.4019C73.2339 87.9544 73.3407 88.3095 73.3412 88.3125C73.3418 88.3125 73.2349 87.9564 73.0524 87.4019ZM63.7131 80.5152C63.7561 80.6167 63.805 80.7207 63.864 80.8287C63.8726 80.8447 63.8812 80.8608 63.8904 80.8769C63.8904 80.8774 63.8909 80.8779 63.8909 80.8784C63.892 80.8799 63.8925 80.8819 63.8936 80.8834C63.9049 80.903 63.9161 80.9226 63.9274 80.9422C63.9161 80.9221 63.9049 80.9025 63.8936 80.8829C63.8925 80.8814 63.892 80.8794 63.8909 80.8779C63.8909 80.8774 63.8904 80.8769 63.8904 80.8764C63.8887 80.8734 63.8877 80.8708 63.8861 80.8678C63.8834 80.8633 63.8823 80.8593 63.8796 80.8543C63.8748 80.8452 63.8699 80.8367 63.8651 80.8281C63.8689 80.8357 63.8732 80.8432 63.8775 80.8508C63.8136 80.7352 63.7583 80.6227 63.7131 80.5152ZM64.1315 81.2491C64.1341 81.2526 64.1363 81.2561 64.139 81.2601C64.1562 81.2832 64.1744 81.3068 64.1927 81.3304C64.256 81.4133 64.3253 81.4967 64.4005 81.5816C64.4091 81.5911 64.4171 81.6006 64.4257 81.6102C64.4553 81.6428 64.481 81.675 64.5122 81.7076C64.5884 81.7795 64.6647 81.8648 64.756 81.9497C64.9692 82.1486 65.228 82.3626 65.5324 82.562C65.8369 82.7895 66.1258 82.9041 66.3696 82.9322L67.1004 84.4415H68.0901V84.44H67.1015L66.3707 82.9307C66.1333 82.903 65.853 82.792 65.5571 82.5761C65.5496 82.571 65.5421 82.567 65.5346 82.562C65.5335 82.5615 65.533 82.561 65.5319 82.5605C65.5314 82.56 65.5308 82.5595 65.5303 82.559C65.5153 82.5489 65.5035 82.5384 65.489 82.5283C65.2049 82.338 64.9589 82.1366 64.757 81.9482C64.6658 81.8633 64.5895 81.778 64.5133 81.7061C64.4821 81.6735 64.4563 81.6413 64.4268 81.6087C64.4268 81.6092 64.4273 81.6092 64.4273 81.6097C64.4182 81.5996 64.4091 81.5891 64.4 81.5791C64.4005 81.5796 64.401 81.5801 64.4016 81.5806C64.401 81.5796 64.3999 81.5791 64.3994 81.578C64.3957 81.574 64.3924 81.57 64.3887 81.566L64.3881 81.5655C64.321 81.4902 64.2603 81.4158 64.2029 81.342C64.2023 81.341 64.2018 81.3405 64.2007 81.3395C64.1776 81.3093 64.154 81.2792 64.1315 81.2491ZM115.951 129.879C115.548 130.126 115.036 130.182 114.477 130.278C114.887 130.283 115.174 130.362 115.951 129.879ZM104.731 142.054C104.938 142.061 105.139 142.063 105.333 142.062C105.133 142.063 104.932 142.06 104.731 142.054ZM56.465 166.221C56.4644 166.221 56.4633 166.221 56.4628 166.221C55.0017 166.552 53.4514 166.806 51.8636 166.989C54.7353 166.896 57.6114 166.791 60.4639 166.747C63.2943 166.705 66.9485 166.48 71.2084 166.221H56.465ZM114.388 166.221C126.788 167.49 139.347 170.307 150.165 175.987C173.579 188.28 197.37 179.014 207.635 166.221H114.388ZM58.999 108.828C58.0163 107.831 57.1287 106.894 56.4086 106.118C56.4096 106.119 56.4107 106.121 56.4123 106.122C57.1319 106.897 58.0185 107.833 58.999 108.828ZM67.8791 81.7066C67.8791 81.7071 67.8785 81.7071 67.8785 81.7076H67.893V81.7066H67.8791ZM59.0962 66.5184C59.0962 66.5189 59.0956 66.5194 59.0956 66.5194C59.2154 66.6525 59.2927 66.7279 59.2927 66.7279C59.2927 66.7279 59.3104 66.7243 59.3432 66.7178C59.3104 66.7243 59.2938 66.7273 59.2938 66.7273C59.2938 66.7273 59.2165 66.652 59.0962 66.5184ZM67.6718 82.1115C67.6535 82.1431 67.6337 82.1737 67.6143 82.2044C67.6014 82.225 67.588 82.2456 67.5746 82.2657C67.5553 82.2943 67.5354 82.3214 67.5155 82.3485C67.5005 82.3691 67.4849 82.3892 67.4693 82.4088C67.4495 82.4339 67.4291 82.4585 67.4081 82.4821C67.3909 82.5017 67.3732 82.5208 67.355 82.5399C67.3346 82.5615 67.3142 82.5826 67.2927 82.6022C67.2728 82.6213 67.2519 82.6383 67.2309 82.6559C67.2105 82.6735 67.1901 82.6911 67.1686 82.7071C67.1439 82.7257 67.1182 82.7413 67.0929 82.7579C67.0741 82.7699 67.0559 82.7835 67.0365 82.7945C66.992 82.8197 66.9458 82.8418 66.898 82.8604C66.8824 82.8664 66.8663 82.8699 66.8507 82.8754C66.8164 82.887 66.7815 82.8985 66.7455 82.9061C66.7256 82.9106 66.7047 82.9126 66.6843 82.9161C66.651 82.9216 66.6177 82.9261 66.5833 82.9281C66.5613 82.9297 66.5387 82.9292 66.5162 82.9292C66.5387 82.9292 66.5618 82.9297 66.5839 82.9281C66.6182 82.9261 66.6515 82.9216 66.6848 82.9161C66.7052 82.9126 66.7262 82.9106 66.746 82.9061C66.782 82.8985 66.8169 82.887 66.8513 82.8754C66.8669 82.8699 66.883 82.8664 66.8985 82.8604C66.9463 82.8418 66.992 82.8197 67.0365 82.7945C67.0559 82.7835 67.0747 82.7699 67.0935 82.7579C67.1187 82.7413 67.1439 82.7257 67.1686 82.7071C67.1901 82.6911 67.21 82.6735 67.2309 82.6559C67.2519 82.6383 67.2733 82.6213 67.2932 82.6022C67.3147 82.5826 67.3346 82.5615 67.355 82.5399C67.3732 82.5208 67.3909 82.5017 67.4081 82.4821C67.4291 82.4585 67.4495 82.4339 67.4693 82.4088C67.4849 82.3892 67.5005 82.3691 67.5155 82.3485C67.5354 82.3214 67.5553 82.2943 67.5746 82.2657C67.588 82.2456 67.602 82.225 67.6149 82.2044C67.6342 82.1737 67.653 82.1436 67.6718 82.1115C67.6825 82.0934 67.6933 82.0748 67.7029 82.0557C67.7223 82.0205 67.7416 81.9859 67.7604 81.9497C67.7604 81.9492 67.7609 81.9492 67.7609 81.9487C67.7421 81.9854 67.7223 82.0205 67.7029 82.0562C67.6922 82.0748 67.682 82.0934 67.6718 82.1115ZM63.9403 80.9653C63.9623 81.0024 63.9886 81.0401 64.0133 81.0773C64.0101 81.0728 64.0069 81.0677 64.0037 81.0632C63.9832 81.0316 63.9607 80.9994 63.9419 80.9683C63.9414 80.9673 63.9408 80.9658 63.9398 80.9648C63.9403 80.9648 63.9403 80.9653 63.9403 80.9653ZM63.6224 80.2772C63.6229 80.2787 63.6235 80.2802 63.624 80.2817C63.6455 80.3485 63.6745 80.4198 63.704 80.4911C63.6611 80.3867 63.6256 80.2857 63.5982 80.1903C63.6058 80.2189 63.6127 80.247 63.6224 80.2772ZM68.1476 80.8819C68.1658 80.8131 68.1825 80.7468 68.1986 80.6795C68.1825 80.7458 68.1653 80.8136 68.1476 80.8819ZM67.9022 81.6368C67.8866 81.675 67.871 81.7127 67.8544 81.7503C67.8538 81.7518 67.8533 81.7528 67.8522 81.7544C67.8195 81.8191 67.791 81.8799 67.755 81.9477H67.7566C67.7894 81.8869 67.8152 81.8322 67.8436 81.7754C67.8447 81.7729 67.8463 81.7704 67.8474 81.7679C67.8495 81.7634 67.8511 81.7589 67.8533 81.7544C67.8544 81.7528 67.8549 81.7518 67.8554 81.7503C67.8721 81.7127 67.8877 81.675 67.9032 81.6368C67.9038 81.6358 67.9038 81.6348 67.9043 81.6338C67.9193 81.5966 67.9333 81.559 67.9473 81.5213C67.9596 81.4876 67.973 81.4545 67.9854 81.4208C67.9967 81.3892 68.0074 81.357 68.0181 81.3249C68.0273 81.2983 68.0364 81.2722 68.0445 81.245C68.0547 81.2124 68.0622 81.1802 68.0724 81.1476C68.0224 81.3118 67.9671 81.4761 67.9032 81.6343C67.9027 81.6353 67.9027 81.6363 67.9022 81.6368ZM23.339 164.439C17.922 162.543 12.971 159.404 8.77231 154.261C2.42518 146.487 1.28356 109.825 21.9236 102.307C34.7633 97.6352 42.4411 93.2353 47.6289 87.9835C47.5983 88.5782 47.5763 89.2402 47.5618 89.9675C47.5661 89.9434 47.572 89.9203 47.572 89.8917H85.7933V89.8922H47.572C47.572 89.9203 47.5666 89.9439 47.5618 89.968C47.5596 89.9801 47.557 89.9966 47.557 90.0062C47.557 90.0489 47.557 90.0916 47.557 90.1343H47.5586C47.5441 90.961 47.5387 91.8641 47.5419 92.826C47.5419 92.841 47.5419 92.8531 47.5419 92.8686H86.5693C86.5542 92.7832 86.5242 92.6974 86.5091 92.626H86.5081C86.2868 91.7461 86.0645 90.8867 85.8427 90.0695C85.8411 90.0624 85.839 90.0559 85.839 90.0489C85.8239 90.0202 85.8239 89.9921 85.8239 89.9775C85.8111 89.9529 85.8078 89.9288 85.7976 89.9042C85.5533 89.0092 85.3111 88.1654 85.0754 87.4019H85.0775C85.0775 87.3974 85.0749 87.3954 85.0727 87.3929C85.0684 87.3873 85.0625 87.3828 85.0625 87.3733C85.0539 87.3316 85.0405 87.2904 85.0271 87.2487C85.0179 87.2191 85.0083 87.1894 85.0018 87.1598H84.9991H72.9766C72.7635 86.5043 72.4896 85.6218 72.2002 84.668C72.4896 85.6213 72.7635 86.5038 72.9766 87.1593H84.9991C84.6845 86.1583 84.3827 85.3069 84.1034 84.6675C84.1013 84.663 84.0992 84.659 84.097 84.6545C84.0669 84.5862 84.0261 84.5078 83.9971 84.4405H72.1244C71.8506 83.6002 71.5918 82.7463 71.3329 81.9487C71.5918 82.7463 71.8506 83.5997 72.1244 84.44H83.9971C84.0261 84.5073 84.0669 84.5857 84.097 84.654C83.9048 84.216 83.7227 83.8704 83.5557 83.6564C83.0682 83.0291 81.9668 82.4575 80.5733 81.9482H80.5717C80.5701 81.9477 80.5685 81.9472 80.5664 81.9462C80.3403 81.8623 80.1137 81.778 79.8726 81.7066H71.2572C71.0134 80.8955 70.7852 80.1697 70.6177 79.6428C69.2972 79.4298 68.4322 79.3163 68.4268 79.3153V79.3148C68.4268 79.3148 69.2945 79.4288 70.6187 79.6423C70.7863 80.1692 71.0145 80.895 71.2583 81.7061H79.8731C79.8785 81.7081 79.8838 81.7096 79.8897 81.7116C80.1249 81.782 80.3467 81.8638 80.568 81.9457C80.3494 81.8658 80.1217 81.788 79.8897 81.7116C79.8844 81.7101 79.8795 81.7076 79.8742 81.7061H79.8731C75.3093 80.2008 68.4262 79.3133 68.4262 79.3133C68.4262 79.3133 68.4246 79.3354 68.4214 79.368C68.4166 79.4178 68.408 79.5001 68.3935 79.6127C68.3919 79.6252 68.3908 79.6358 68.3892 79.6488C68.3887 79.6508 68.3881 79.6528 68.3881 79.6548C68.3607 79.8623 68.314 80.1516 68.2464 80.4685C68.3827 79.8281 68.4252 79.3138 68.4252 79.3138H67.2073V74.1313C67.2073 74.1313 69.7188 76.367 72.9917 75.6974C75.2099 75.2554 77.3085 72.2092 78.4404 69.1061C78.3008 69.1227 78.1591 69.1342 78.0146 69.1342C77.8986 69.1342 77.7837 69.1287 77.6709 69.1182C75.9773 68.9584 74.666 67.6314 74.666 66.0161C74.666 64.8217 75.3716 63.7885 76.416 63.2602C75.3721 63.7891 74.6671 64.8217 74.6671 66.0156C74.6671 67.6304 75.9784 68.9579 77.672 69.1177C77.7848 69.1282 77.8997 69.1337 78.0157 69.1337C78.1601 69.1337 78.3019 69.1222 78.4415 69.1056C80.0836 68.9097 81.3643 67.6033 81.3643 66.0156C81.3643 64.6665 80.4536 63.5269 79.1847 63.0839C79.1842 63.0839 79.1836 63.0839 79.1836 63.0834C79.1299 62.674 79.0649 62.2732 78.9887 61.888L76.5997 58.5574L76.6013 58.5554L76.6018 58.5549L78.9914 61.8864C78.9914 61.8864 79.8285 59.5087 79.3109 57.0455C78.7975 54.5889 69.7961 49.6019 63.5 53.9239C72.2361 31.8159 97.6735 19.5705 126.092 18.2942L129.465 36.4303H96.9202V90.0845C96.9202 90.0845 96.9196 90.0845 96.9196 90.085C94.3056 91.5798 91.6985 93.167 91.6985 93.167L84.2355 97.923H84.2329L87.3157 95.9576C87.2867 95.8341 87.2571 95.711 87.2281 95.5874H87.24C87.2094 95.5161 87.1938 95.4307 87.1787 95.3453H87.1707C86.9736 94.5136 86.7723 93.6828 86.5693 92.8686H47.5419C47.5473 94.4332 47.5747 96.1555 47.6171 97.9692C47.6171 97.9773 47.6171 97.9858 47.6171 97.9943C47.6171 98.0235 47.6171 98.0561 47.6171 98.0792C47.6171 98.1078 47.6171 98.136 47.6171 98.1646H47.6214H83.8527H83.8559L75.4634 103.515L75.3007 103.618L74.4711 104.147L72.3081 105.525L69.9856 103.574L70.0393 103.618H70.0399L72.3081 105.525L74.4711 104.147L75.2991 103.618L75.4618 103.514L75.4704 103.509L75.4758 103.505L83.8527 98.1646H47.6214C47.6418 99.024 47.666 99.9035 47.6933 100.797C47.6933 100.797 47.6933 100.797 47.6933 100.798C47.6933 100.832 47.6933 100.859 47.6933 100.884H47.696C47.7229 101.765 47.7524 102.657 47.7846 103.556C47.7846 103.567 47.7846 103.578 47.7846 103.589C47.7846 103.603 47.7846 103.603 47.7846 103.618H47.7868C47.8163 104.446 47.8475 105.277 47.8808 106.109H47.8765C47.8765 106.12 47.8797 106.132 47.8829 106.144C47.8872 106.16 47.8915 106.177 47.8915 106.194C47.891 106.252 47.891 106.294 47.891 106.352C47.891 106.294 47.8904 106.252 47.8904 106.195C47.8904 106.178 47.8856 106.161 47.8818 106.145C47.9189 107.078 47.9575 108.009 47.9973 108.933C47.9973 108.897 47.9973 108.866 47.9973 108.828H58.9984H47.9984C47.9984 108.866 47.9984 108.897 47.9984 108.933C47.9984 108.98 47.9984 109.03 47.9984 109.07H48.0037C48.0413 109.941 48.0805 110.803 48.1197 111.652C48.1197 111.701 48.1197 111.751 48.1197 111.804H48.1267H62.0609L62.0614 111.804H48.1272C48.1664 112.652 48.2067 113.484 48.2464 114.296H48.2459H48.2411C48.2561 114.367 48.2561 114.453 48.2561 114.538H48.2577H65.2586L65.2591 114.538H48.2583C48.298 115.342 48.3372 116.124 48.3764 116.88C48.3759 116.88 48.3759 116.88 48.3753 116.881C44.3088 118.347 43.3696 120.773 43.3696 120.773V120.787C40.9644 123.806 40.2341 127.821 40.6449 130.754C41.3602 135.694 41.619 139.482 33.5669 144.308C31.3981 145.607 29.6872 147.167 28.4737 148.869L28.4731 148.87C25.48 149.897 23.3385 152.585 23.3385 155.757L23.339 164.439ZM85.0727 87.3923C85.0571 87.3426 85.0421 87.2974 85.0271 87.2482C85.0405 87.2899 85.0539 87.3311 85.0625 87.3728C85.0625 87.3823 85.0684 87.3868 85.0727 87.3923ZM105.914 142.049C105.733 142.056 105.551 142.062 105.368 142.063C105.556 142.061 105.738 142.056 105.914 142.049ZM153.104 30.9203H155.767V25.3963H151.307V19.9904C149.542 19.6734 147.772 19.4012 146.002 19.1681L142.676 36.4303H153.104V30.9203ZM104.728 142.053C104.531 142.047 104.334 142.036 104.139 142.023C104.162 142.025 104.187 142.029 104.211 142.03C104.39 142.042 104.559 142.048 104.728 142.053ZM106.004 142.045C106.205 142.036 106.404 142.022 106.6 142.003C106.41 142.022 106.21 142.035 106.004 142.045ZM103.07 119.706C102.271 119.924 101.372 120.098 100.345 120.205C99.669 120.277 99.0482 120.398 98.4785 120.562C99.0482 120.398 99.669 120.276 100.345 120.205C101.372 120.098 102.271 119.924 103.07 119.706Z" fill="#E2E2E2"/>
<path d="M73.5852 163.53H71.3782V155.756C71.3782 153.053 69.8124 150.704 67.5007 149.422C67.4792 149.261 67.4577 149.1 67.4341 148.941C67.4271 148.895 67.4196 148.849 67.4126 148.803C67.3675 148.507 67.3186 148.215 67.266 147.928C67.2639 147.916 67.2617 147.903 67.259 147.891C67.0217 146.602 66.7183 145.409 66.3896 144.366C66.4278 144.361 70.8375 143.864 72.3835 146.43C73.9203 148.993 73.5852 163.53 73.5852 163.53ZM137.379 18.1773C142.661 13.2942 141.276 6.01832 141.276 6.01832C136.694 9.36446 136.785 16.4264 136.892 18.1773H137.379ZM144.974 12.9803C144.974 12.9803 143.528 16.8252 138.749 18.1773H137.638C138.262 17.2376 140.575 14.234 144.974 12.9803ZM136.45 18.1778H135.598C130.392 12.6252 130.986 4.4668 130.986 4.4668C130.986 4.4668 132.615 5.12176 135.004 8.93803C136.877 11.9276 136.648 16.4123 136.45 18.1778ZM134.365 18.1773C129.631 16.4832 127.287 12.5966 127.287 12.5966C132.158 13.6644 134.533 17.1241 135.157 18.1773H134.365ZM127.561 16.7534C130.651 17.1095 132.934 18.0779 132.934 18.0779C130.058 18.0779 127.561 16.7534 127.561 16.7534ZM106.451 143.049C112.677 143.176 122.408 143.955 124.851 147.484C128.52 152.766 128.703 163.53 128.703 163.53H125.659V155.813C125.659 151.755 122.127 148.466 117.789 148.466H87.115C88.0333 146.518 89.1464 144.975 90.4814 144.337C95.7476 141.832 101.091 143.085 101.091 143.085C101.091 143.085 101.34 143.074 101.769 143.062C101.868 143.059 101.973 143.056 102.091 143.053C102.123 143.053 102.158 143.052 102.191 143.051C102.302 143.048 102.416 143.046 102.542 143.044C102.572 143.043 102.605 143.043 102.637 143.042C103.584 143.026 104.907 143.018 106.451 143.049Z" fill="#A71010"/>
<path d="M56.4627 166.221C50.0785 167.666 42.0243 167.714 36.277 166.221C33.903 165.604 31.9221 164.726 30.6177 163.573C30.6167 163.573 30.6161 163.572 30.615 163.571L30.614 163.57C28.3678 161.589 26.7847 159.114 26.4298 156.292C26.4287 156.284 26.4276 156.277 26.4266 156.269C26.113 153.728 26.8358 151.168 28.4741 148.869C29.6877 147.167 31.3985 145.607 33.5674 144.308C41.6194 139.481 41.3606 135.694 40.6453 130.754C40.2345 127.821 40.9648 123.806 43.37 120.787V120.773C43.37 120.773 44.3092 118.347 48.3757 116.881C58.4764 113.239 69.4813 117.653 69.8099 127.906V127.921C69.6386 128.01 64.4589 129.647 64.1324 132.805L64.1319 132.803C63.8714 130.765 61.2848 130.358 60.8601 131.48C60.4036 132.676 59.9622 135.395 61.6972 136.477C63.248 137.444 65.8583 142.683 66.3888 144.366C67.9455 149.302 68.4256 155.66 66.4065 160.48C66.4044 160.485 66.4023 160.491 66.4001 160.497C66.3974 160.504 66.3937 160.51 66.3904 160.517C66.3856 160.528 66.3792 160.539 66.3743 160.55C64.99 163.716 60.0224 165.415 56.4627 166.221ZM59.3436 66.7177C59.8162 66.6223 63.6105 65.8493 67.2995 64.8769C67.3012 64.8734 67.3033 64.8698 67.3049 64.8663C67.3651 64.7242 67.4343 64.5871 67.5149 64.4565L67.5154 64.4555C67.5976 64.3214 67.6899 64.1938 67.7914 64.0732L67.792 64.0722C67.8902 63.9557 67.9982 63.8462 68.1125 63.7442C68.1233 63.7347 68.1346 63.7257 68.1453 63.7161C68.2527 63.6227 68.3665 63.5358 68.4868 63.4564C68.4959 63.4504 68.5051 63.4434 68.5142 63.4374C68.6356 63.3585 68.7639 63.2892 68.8965 63.2259C68.9255 63.2118 68.9551 63.1993 68.9851 63.1862C69.106 63.133 69.23 63.0853 69.3583 63.0451C69.3755 63.0396 69.3922 63.0325 69.4099 63.0275C69.549 62.9868 69.6929 62.9567 69.8389 62.9331C69.8787 62.9265 69.919 62.921 69.9592 62.916C70.1042 62.8974 70.2513 62.8849 70.4022 62.8843C70.4087 62.8843 70.4146 62.8828 70.421 62.8828C70.8297 62.8828 71.2362 62.9517 71.6051 63.0888C71.662 63.1099 71.72 63.1285 71.7748 63.1531L71.7758 63.1536C74.6793 61.3328 76.5958 58.5623 76.6006 58.5553L76.6012 58.5548L78.9907 61.8863C78.9907 61.8863 79.8279 59.5086 79.3102 57.0454C78.7926 54.5687 69.6446 49.5138 63.3425 54.0273C63.3425 54.0273 63.0681 51.6355 60.4503 50.6957C57.8325 49.7559 55.1229 50.9951 54.2401 53.1307C53.3729 55.2523 51.5611 56.3196 49.6586 56.8325C47.878 57.3307 47.421 56.5331 47.3603 56.4337C47.4215 56.5617 48.1062 57.9289 49.7198 58.9254C51.4097 59.9646 57.4223 59.936 58.579 59.6085C58.579 59.6085 57.483 62.6412 57.7418 64.0511C58.0006 65.4746 59.2942 66.7272 59.2942 66.7272C59.2942 66.7272 59.3109 66.7242 59.3436 66.7177ZM115.353 117.186C115.327 117.172 115.304 117.157 115.277 117.143C111.768 115.308 110.205 115.992 108.272 117.186C106.515 118.271 104.453 119.778 100.345 120.205C98.9928 120.348 97.8614 120.689 96.9201 121.183C91.8617 123.834 92.2999 130.87 93.6471 135.083C94.9563 139.138 98.2598 140.999 101.76 141.709C103.178 141.997 104.98 142.157 106.601 142.003C109.147 141.763 110.193 140.869 110.193 140.679C110.193 140.437 108.077 137.902 107.042 135.197C106.462 133.683 106.832 132.79 107.451 132.593C107.938 132.439 108.58 132.714 109.035 133.46C110.07 135.14 110.329 135.695 110.329 135.695L110.33 135.693C111.695 129.197 114.529 130.768 115.963 129.872C116.168 129.744 116.407 129.578 116.692 129.36C118.065 128.307 119.789 125.153 119.244 122.084C118.921 120.27 117.803 118.487 115.353 117.186Z" fill="#072948"/>
<path d="M63.8871 80.8682C63.8887 80.8712 63.8898 80.8738 63.8914 80.8768C63.8823 80.8607 63.8737 80.8446 63.8651 80.8285C63.8721 80.8421 63.8796 80.8552 63.8871 80.8682ZM63.9419 80.9657C63.9424 80.9667 63.943 80.9672 63.9435 80.9682C63.9263 80.9396 63.9113 80.9119 63.8952 80.8833C63.9097 80.9089 63.9226 80.934 63.9387 80.9602C63.9392 80.9617 63.9403 80.9637 63.9419 80.9657ZM141.261 57.2031C140.698 55.6647 140.333 54.2558 139.952 52.9032H139.876C139.51 54.298 139.099 55.7365 138.612 57.16L136.131 63.9939H143.727L141.261 57.2031ZM64.1331 81.2489C64.0917 81.1927 64.0547 81.1374 64.0182 81.0822C64.0176 81.0812 64.0165 81.0797 64.016 81.0787C64.0128 81.0732 64.0085 81.0681 64.0047 81.0626C64.0466 81.1274 64.0912 81.1927 64.1401 81.2595C64.1374 81.256 64.1358 81.253 64.1331 81.2495V81.2489ZM231.068 120.831L231.068 117.187H115.353C115.327 117.173 115.304 117.158 115.277 117.144C111.768 115.309 110.205 115.992 108.272 117.187H96.9202V112.744H231.068V111.79H96.9202V105.035L101.807 96.1293C101.466 96.1223 101.103 96.1433 100.709 96.187C102.298 96.0102 103.383 96.2157 104.576 96.7702C106.631 97.7386 107.149 96.286 108.702 92.9971C109.551 91.1814 107.916 89.5365 105.981 88.5214L116.389 69.5761L114.563 68.7077L104.093 87.7539C103.16 87.4797 102.322 87.3902 101.837 87.5444C101.039 87.789 98.9773 88.9091 96.9202 90.0859V36.4307H129.464H142.676H153.104L192.573 36.4312L231.068 36.4307V120.831ZM150.577 73.7902L141.976 50.1979H138.049L129.479 73.7902H132.843L135.462 66.3721H144.412L147.106 73.7902H150.577ZM170.182 67.0703C170.182 63.5674 167.381 61.7166 164.976 61.1616V61.0902C167.64 60.1791 169.253 58.1856 169.253 55.9083C169.253 54.0569 168.461 52.6475 167.152 51.7364C165.584 50.5551 163.483 50.0282 160.226 50.0282C157.943 50.0282 155.705 50.2421 154.29 50.5124V73.7194C155.371 73.862 157.091 74.0042 159.328 74.0042C163.453 74.0042 166.3 73.3065 168.05 71.7972C169.33 70.644 170.182 69.1065 170.182 67.0703ZM176.514 62.1013C176.514 55.9078 180.441 52.3768 186.347 52.3773C188.447 52.3773 190.198 52.7902 191.431 53.3452L192.222 50.8675C191.354 50.4405 189.376 49.8137 186.24 49.8137C178.416 49.8137 173.058 54.8254 173.058 62.2008C173.058 69.9458 178.416 74.1458 185.525 74.1458C188.6 74.1458 190.989 73.5762 192.177 73.0212L191.507 70.6013C190.198 71.199 188.173 71.5832 186.195 71.5832C180.061 71.5832 176.514 67.882 176.514 62.1013ZM68.3887 79.6547C68.3887 79.6527 68.3892 79.6507 68.3897 79.6487C68.3892 79.6502 68.3887 79.6527 68.3887 79.6547ZM63.6245 80.2821C63.624 80.2806 63.6235 80.2791 63.6229 80.2776C63.624 80.2791 63.6245 80.2806 63.6245 80.2821ZM72.1244 84.4404H83.9971C84.0261 84.5077 84.0669 84.586 84.097 84.6544C83.9048 84.2164 83.7227 83.8708 83.5557 83.6568C83.0682 83.0295 81.9668 82.4579 80.5733 81.9486H71.3329C71.5918 82.7462 71.8506 83.6001 72.1244 84.4404ZM63.0376 78.6306C63.0376 78.6306 62.6204 78.6944 61.9341 78.821L63.057 78.6336L63.0376 78.6306ZM160.227 62.4851H157.533V71.4833C158.172 71.5827 159.116 71.6259 160.272 71.6259C163.636 71.6259 166.741 70.4586 166.741 67.0412C166.742 63.8095 163.788 62.4851 160.227 62.4851ZM72.9766 87.1597H84.9991C84.6845 86.1587 84.3827 85.3073 84.1035 84.6679H72.2002C72.4896 85.6217 72.7635 86.5042 72.9766 87.1597ZM165.95 56.2212C165.95 53.4592 163.713 52.3773 160.425 52.3773C158.918 52.3773 158.065 52.4763 157.533 52.5762V60.1791H160.501C163.941 60.1791 165.95 58.499 165.95 56.2212ZM85.0727 87.3927C85.0571 87.343 85.0421 87.2978 85.0271 87.2486C85.0405 87.2903 85.0539 87.3315 85.0625 87.3732C85.0625 87.3827 85.0684 87.3872 85.0727 87.3927ZM68.4268 79.3152C68.4268 79.3152 69.2945 79.4292 70.6187 79.6427C70.7863 80.1696 71.0145 80.8954 71.2583 81.7065H79.8736C80.1147 81.7778 80.3414 81.8622 80.5674 81.9461C76.0466 80.2956 68.4257 79.3137 68.4257 79.3137C68.4257 79.3137 68.4171 79.4272 68.394 79.612C68.4171 79.4287 68.4268 79.3152 68.4268 79.3152ZM81.011 108.829C81.7536 108.218 82.5006 107.598 83.2464 106.976C84.612 105.838 85.9695 104.699 87.2717 103.618H89.0308C89.5431 105.998 89.8578 107.604 89.8578 107.604H83.1605L83.16 108.829H81.011ZM83.9971 106.352H89.5984C89.5839 106.266 89.5683 106.195 89.5533 106.109H84.2866C84.1953 106.181 84.104 106.267 83.9971 106.352ZM47.7852 103.376C47.7852 103.436 47.7852 103.496 47.7852 103.556C47.753 102.657 47.7234 101.765 47.6966 100.884H59.9016L60.2974 100.642H47.6939C47.6939 100.699 47.6939 100.742 47.6939 100.784C47.6939 100.79 47.6939 100.793 47.6939 100.798C47.6665 99.9049 47.6423 99.0254 47.6219 98.1655H83.8532L75.4715 103.509L75.6718 103.376H69.7504L70.0399 103.618H75.3002L74.4711 104.147L72.3081 105.525L63.9059 98.4633L55.5811 103.515L55.8082 103.376H47.7852ZM66.5081 100.642L66.7976 100.884H79.5837L79.9639 100.642H66.5081ZM195.236 30.9207V25.3967H190.777H155.767V30.9207H192.573H195.236ZM83.16 125.459H69.4309C69.5512 125.948 69.6329 126.385 69.6892 126.754H83.16V125.459ZM61.7999 111.563C60.9187 110.74 60.052 109.891 59.239 109.071H48.0043C48.0418 109.941 48.081 110.803 48.1202 111.652C48.1202 111.623 48.1202 111.594 48.1202 111.563H61.7999ZM54.5893 104.116L55.4098 103.618H47.7873C47.8169 104.446 47.848 105.278 47.8813 106.109H56.4005C55.2938 104.918 54.5893 104.116 54.5893 104.116ZM83.16 122.725H68.4633C68.88 123.607 69.1694 124.461 69.3681 125.217H83.1605L83.16 122.725ZM58.999 108.829C58.0147 107.83 57.1249 106.89 56.4037 106.113C56.4784 106.184 56.5385 106.268 56.6126 106.352H47.891C47.891 106.295 47.891 106.252 47.891 106.195C47.891 106.178 47.8861 106.162 47.8824 106.145C47.9194 107.078 47.9581 108.01 47.9978 108.933C47.9978 108.898 47.9978 108.866 47.9978 108.829H58.999ZM83.16 117.257H63.1998C64.5578 117.935 65.6393 118.802 66.4969 119.75H83.16V117.257ZM61.9105 84.6679H48.211C48.2416 84.5966 48.2872 84.5112 48.3479 84.4404H61.9105L61.8498 81.9486H51.5602C51.7025 81.8688 51.8587 81.7904 52.0155 81.7221C49.9696 82.6784 48.342 83.8648 47.9377 85.2938C47.826 85.688 47.7417 86.3284 47.6794 87.1597H61.9712L61.9105 84.6679ZM47.6176 97.9229L84.2329 97.9234L87.3157 95.958C87.2867 95.8344 87.2571 95.7114 87.2282 95.5878H47.5725C47.5725 95.5165 47.5725 95.4311 47.5725 95.3457H87.1707C86.9736 94.514 86.7723 93.6832 86.5693 92.869H47.5419C47.5473 94.4411 47.5747 96.172 47.6176 97.9952C47.6176 97.9706 47.6176 97.9495 47.6176 97.9239V97.9229ZM61.7891 78.8476C59.6847 79.2414 55.3373 80.1781 52.0504 81.7065H61.8493L61.7891 78.8476ZM47.5419 92.6264H86.5081C86.2868 91.7465 86.0645 90.8871 85.8427 90.0699C85.847 90.0915 85.8545 90.1131 85.8545 90.1347H47.5586C47.5441 90.9614 47.5387 91.8645 47.5419 92.8263C47.5419 92.7852 47.5419 92.743 47.5419 92.7118C47.5419 92.6832 47.5419 92.6551 47.5419 92.6264ZM85.7933 89.8926C85.7955 89.8966 85.796 89.9006 85.7976 89.9046C85.5533 89.0096 85.3111 88.1652 85.0754 87.4018H73.0524C73.2349 87.9568 73.3418 88.3129 73.3418 88.3129L71.5305 87.4018H66.2788L62.0168 89.0678L61.9717 87.4013H47.6633C47.6633 87.348 47.6681 87.2998 47.6724 87.2511C47.6182 88.0106 47.5822 88.9267 47.5618 89.9679C47.5661 89.9438 47.572 89.9207 47.572 89.8921H85.7933V89.8926ZM68.1975 85.7353L68.1062 84.6674H67.2234L68.1975 86.6609L66.9039 87.1592H71.044L68.1975 85.7353ZM77.607 111.563H83.16V109.071H80.7167C79.6594 109.937 78.616 110.777 77.607 111.563ZM57.5266 115.848C59.5821 115.962 61.2876 116.396 62.7128 117.03H83.16V114.538H73.526C72.2882 115.354 71.1928 115.968 70.3025 116.294C70.2708 116.306 70.2386 116.318 70.2074 116.329C70.1301 116.356 70.0538 116.38 69.9797 116.403C69.9298 116.418 69.8815 116.431 69.8331 116.444C69.7708 116.461 69.707 116.479 69.6473 116.492C69.548 116.515 69.453 116.53 69.3611 116.542C69.3203 116.547 69.2817 116.549 69.2425 116.552C69.177 116.557 69.1141 116.559 69.0529 116.558C69.0196 116.558 68.9863 116.557 68.9541 116.555C68.865 116.549 68.779 116.538 68.7001 116.518C67.7878 116.281 66.5994 115.554 65.2994 114.564C64.371 113.856 63.3851 113.014 62.4029 112.119C62.2891 112.015 62.1758 111.91 62.0625 111.805H48.1278C48.167 112.652 48.2072 113.485 48.247 114.297H64.9557C65.0621 114.382 65.1533 114.453 65.2597 114.539H48.2588C48.2985 115.343 48.3377 116.125 48.3769 116.882C50.484 116.121 53.4315 115.619 57.5266 115.848ZM100.144 96.2629C100.304 96.2388 100.46 96.2167 100.61 96.1986C100.459 96.2167 100.304 96.2378 100.144 96.2629ZM67.9032 81.6372C67.8877 81.6754 67.8721 81.713 67.8554 81.7507C67.8549 81.7522 67.8544 81.7532 67.8533 81.7547C67.8506 81.7613 67.8479 81.7683 67.8447 81.7748C67.856 81.7527 67.8662 81.7311 67.8791 81.707H67.8941V81.6648C67.9269 81.585 67.9575 81.5026 67.9865 81.4202C67.9607 81.4926 67.9333 81.5639 67.9043 81.6342C67.9038 81.6352 67.9038 81.6362 67.9032 81.6372ZM99.7109 96.3347C99.7662 96.3252 99.8236 96.3146 99.8778 96.3056C99.8225 96.3151 99.7672 96.3242 99.7109 96.3347ZM89.0029 103.488C88.9272 103.136 88.8472 102.769 88.7634 102.388C88.3703 102.709 87.9697 103.039 87.5638 103.376H88.975C88.9889 103.415 88.9938 103.451 89.0029 103.488ZM83.16 119.992H66.7074C67.3936 120.795 67.9328 121.646 68.3489 122.483H83.16V119.992ZM99.3366 96.407C98.6337 96.5487 97.8384 96.7441 96.9202 96.9957V100.803L99.3366 96.407ZM64.3892 81.5654C64.3221 81.49 64.2614 81.4157 64.2039 81.3419C64.2034 81.3409 64.2029 81.3404 64.2018 81.3394C64.1991 81.3363 64.1964 81.3328 64.1937 81.3298C64.2571 81.4127 64.3264 81.4961 64.4016 81.581C64.3973 81.5759 64.394 81.5714 64.3892 81.5664V81.5654ZM67.6723 82.1119C67.6535 82.144 67.6342 82.1741 67.6149 82.2048C67.602 82.2254 67.5886 82.246 67.5751 82.266C67.5558 82.2947 67.5359 82.3218 67.5161 82.3489C67.501 82.3695 67.4855 82.3896 67.4699 82.4092C67.45 82.4343 67.4296 82.4589 67.4087 82.4825C67.3915 82.5021 67.3738 82.5212 67.3555 82.5403C67.3351 82.5619 67.3147 82.583 67.2932 82.6026C67.2733 82.6217 67.2524 82.6387 67.2315 82.6563C67.2105 82.6739 67.1906 82.6915 67.1692 82.7075C67.1445 82.7261 67.1187 82.7417 67.0935 82.7583C67.0747 82.7703 67.0564 82.7839 67.0371 82.7949C66.9925 82.8201 66.9463 82.8422 66.8985 82.8607C66.883 82.8668 66.8668 82.8703 66.8513 82.8758C66.8169 82.8874 66.782 82.8989 66.746 82.9065C66.7262 82.911 66.7052 82.913 66.6848 82.9165C66.6515 82.922 66.6182 82.9265 66.5839 82.9285C66.5618 82.9301 66.5387 82.9296 66.5162 82.9296C66.4818 82.9296 66.4469 82.928 66.4109 82.925C66.3873 82.923 66.3632 82.9195 66.339 82.916C66.3025 82.9105 66.2649 82.9024 66.2273 82.8934C66.2026 82.8874 66.1779 82.8813 66.1527 82.8738C66.1129 82.8618 66.0716 82.8467 66.0308 82.8311C66.0061 82.8216 65.9819 82.813 65.9567 82.802C65.9105 82.7819 65.8632 82.7573 65.8154 82.7322C65.7934 82.7206 65.7725 82.7111 65.7499 82.698C65.6801 82.6583 65.6087 82.6136 65.5351 82.5624C65.5341 82.5619 65.5335 82.5614 65.5324 82.5609L65.5308 82.5594C65.3923 82.4634 65.2656 82.3675 65.1453 82.2721C65.1039 82.2394 65.0653 82.2073 65.0261 82.1746C64.9477 82.1099 64.8736 82.0451 64.8027 81.9808C64.7646 81.9461 64.7248 81.9109 64.6888 81.8763C64.6008 81.7919 64.5181 81.708 64.4424 81.6251C64.4375 81.6201 64.4316 81.6146 64.4268 81.6091C64.4563 81.6417 64.4821 81.6739 64.5133 81.7065C64.5895 81.7784 64.6658 81.8637 64.757 81.9486C64.9702 82.1475 65.229 82.3615 65.5335 82.5609C65.838 82.7884 66.1269 82.9029 66.3707 82.9311L67.1015 84.4404H68.0912L67.9086 81.9486H67.7609C67.7421 81.9853 67.7223 82.0204 67.7029 82.0561C67.6933 82.0752 67.6831 82.0938 67.6723 82.1119ZM77.4894 111.655C76.198 112.659 74.9662 113.571 73.8412 114.329C73.8573 114.318 73.8739 114.309 73.89 114.297H83.16V111.805H77.2999C77.3568 111.751 77.4245 111.703 77.4894 111.655Z" fill="#072948"/>
<rect x="126.191" y="45.2048" width="74.6406" height="37.1682" fill="#072948"/>
</svg>
