<svg width="26" height="26" viewBox="0 0 26 26" fill="none" xmlns="http://www.w3.org/2000/svg">
<g id="Bold / Security / Eye Closed">
<path id="Vector" fill-rule="evenodd" clip-rule="evenodd" d="M2.16347 6.997C2.69018 6.77127 3.30014 7.01526 3.52587 7.54196L2.57219 7.95068C3.52587 7.54196 3.52602 7.5423 3.52587 7.54196L3.52534 7.54071C3.52526 7.54053 3.52504 7.54004 3.52534 7.54071L3.5294 7.54991C3.53356 7.55927 3.5407 7.57516 3.55086 7.59716C3.5712 7.64117 3.60355 7.70953 3.64816 7.79875C3.73746 7.97734 3.87536 8.23856 4.06362 8.55482C4.44129 9.18932 5.01509 10.0344 5.79675 10.8762C5.981 11.0746 6.17598 11.272 6.38192 11.466C6.39053 11.4739 6.39905 11.4818 6.40745 11.49C7.94792 12.9325 10.097 14.1761 12.9479 14.1761C14.2023 14.1761 15.3119 13.9366 16.2899 13.5517C17.5619 13.051 18.6282 12.2972 19.5008 11.4781C20.4861 10.5533 21.2098 9.55896 21.6876 8.79214C21.9256 8.41023 22.1 8.08886 22.2133 7.86673C22.2699 7.75578 22.3111 7.66994 22.3371 7.6141C22.3501 7.58619 22.3593 7.56581 22.3648 7.55357L22.37 7.54196C22.5958 7.01554 23.2058 6.77133 23.7324 6.997C24.2591 7.22273 24.503 7.8327 24.2773 8.3594L23.3236 7.95068C24.2773 8.3594 24.2774 8.35916 24.2773 8.3594L24.2751 8.36461L24.2714 8.37314L24.2595 8.39996C24.2496 8.42208 24.2358 8.45263 24.2179 8.49096C24.1822 8.56759 24.1303 8.67547 24.062 8.80952C23.9253 9.07737 23.7221 9.45109 23.4489 9.88957C23.0311 10.56 22.4438 11.3915 21.6735 12.2299L22.501 13.0573C22.9062 13.4625 22.9062 14.1195 22.501 14.5247C22.0958 14.9299 21.4388 14.9299 21.0336 14.5247L20.1619 13.6529C19.5764 14.1258 18.9212 14.5718 18.1937 14.9566L19.0055 16.2042C19.318 16.6845 19.182 17.3272 18.7017 17.6397C18.2213 17.9522 17.5786 17.8162 17.2661 17.3359L16.2436 15.7645C15.5391 15.9805 14.7865 16.1335 13.9855 16.2053V17.8076C13.9855 18.3807 13.521 18.8452 12.9479 18.8452C12.3749 18.8452 11.9103 18.3807 11.9103 17.8076V16.2054C11.1066 16.1336 10.3542 15.9802 9.65195 15.7649L8.62973 17.3359C8.31721 17.8162 7.67449 17.9522 7.19418 17.6397C6.71387 17.3272 6.57785 16.6845 6.89038 16.2042L7.70218 14.9565C6.97575 14.5721 6.32042 14.1261 5.7342 13.6527L4.86223 14.5247C4.45703 14.9299 3.80007 14.9299 3.39488 14.5247C2.98968 14.1195 2.98968 13.4625 3.39488 13.0573L4.22228 12.2299C3.34554 11.2756 2.70475 10.329 2.28046 9.61623C2.06341 9.25158 1.9014 8.94538 1.79209 8.72678C1.7374 8.6174 1.69579 8.52971 1.66698 8.46733C1.65257 8.43614 1.64135 8.41125 1.63329 8.39312L1.62355 8.37103L1.62045 8.36389L1.61933 8.36131L1.61889 8.36027C1.61869 8.35982 1.61851 8.3594 2.57219 7.95068L1.61889 8.36027C1.39316 7.83357 1.63677 7.22273 2.16347 6.997Z" fill="#F9F9F9"/>
</g>
</svg>
