<svg width="26" height="26" viewBox="0 0 26 26" fill="none" xmlns="http://www.w3.org/2000/svg">
<path d="M10.6135 13.1385C10.6135 11.8491 11.6587 10.8039 12.948 10.8039C14.2373 10.8039 15.2825 11.8491 15.2825 13.1385C15.2825 14.4278 14.2373 15.473 12.948 15.473C11.6587 15.473 10.6135 14.4278 10.6135 13.1385Z" fill="#F9F9F9"/>
<path fill-rule="evenodd" clip-rule="evenodd" d="M2.57227 13.1385C2.57227 14.8394 3.0132 15.4123 3.89506 16.558C5.65589 18.8456 8.60898 21.439 12.948 21.439C17.287 21.439 20.2401 18.8456 22.0009 16.558C22.8828 15.4123 23.3237 14.8394 23.3237 13.1385C23.3237 11.4375 22.8828 10.8647 22.0009 9.71897C20.2401 7.43136 17.287 4.83789 12.948 4.83789C8.60898 4.83789 5.65589 7.43136 3.89506 9.71897C3.0132 10.8647 2.57227 11.4375 2.57227 13.1385ZM12.948 9.24757C10.7991 9.24757 9.05709 10.9896 9.05709 13.1385C9.05709 15.2874 10.7991 17.0294 12.948 17.0294C15.0969 17.0294 16.8389 15.2874 16.8389 13.1385C16.8389 10.9896 15.0969 9.24757 12.948 9.24757Z" fill="#F9F9F9"/>
</svg>
