<svg width="64" height="64" viewBox="0 0 64 64" fill="none" xmlns="http://www.w3.org/2000/svg">
<g id="Bold Duotone / Video, Audio, Sound / Gallery Add">
<path id="Vector" fill-rule="evenodd" clip-rule="evenodd" d="M46.6667 29.3333C41.0099 29.3333 38.1815 29.3333 36.4241 27.5759C34.6667 25.8185 34.6667 22.9901 34.6667 17.3333C34.6667 11.6764 34.6667 8.84797 36.4241 7.09061C38.1815 5.33325 41.0099 5.33325 46.6667 5.33325C52.3236 5.33325 55.152 5.33325 56.9094 7.09061C58.6667 8.84797 58.6667 11.6764 58.6667 17.3333C58.6667 22.9901 58.6667 25.8185 56.9094 27.5759C55.152 29.3333 52.3236 29.3333 46.6667 29.3333ZM48.6667 11.9999C48.6667 10.8953 47.7713 9.99992 46.6667 9.99992C45.5622 9.99992 44.6667 10.8953 44.6667 11.9999V15.3333H41.3334C40.2288 15.3333 39.3334 16.2287 39.3334 17.3333C39.3334 18.4378 40.2288 19.3333 41.3334 19.3333H44.6667V22.6666C44.6667 23.7712 45.5622 24.6666 46.6667 24.6666C47.7713 24.6666 48.6667 23.7712 48.6667 22.6666V19.3333H52.0001C53.1047 19.3333 54.0001 18.4378 54.0001 17.3333C54.0001 16.2287 53.1047 15.3333 52.0001 15.3333H48.6667V11.9999Z" fill="#072948"/>
<path id="Vector_2" opacity="0.5" d="M58.666 33.8609C58.662 37.7797 58.6322 41.1106 58.4095 43.8437C58.151 47.0153 57.6215 49.6655 56.4362 51.8665C55.9134 52.8374 55.271 53.7067 54.4889 54.4889C52.2692 56.7086 49.4412 57.7141 45.8574 58.1959C42.356 58.6667 37.8685 58.6666 32.1422 58.6666H31.8576C26.1313 58.6666 21.6438 58.6667 18.1424 58.1959C14.5586 57.7141 11.7306 56.7086 9.51096 54.4889C7.54313 52.5211 6.52692 50.0718 5.98653 47.0336C5.45567 44.0489 5.35856 40.3356 5.33839 35.7245C5.33325 34.5516 5.33325 33.3111 5.33325 32.0024V31.8576C5.33322 26.1314 5.3332 21.6438 5.80394 18.1424C6.28578 14.5586 7.29127 11.7306 9.51096 9.51096C11.7306 7.29127 14.5586 6.28578 18.1424 5.80394C21.2562 5.38531 25.2625 5.33898 30.1387 5.33388C31.1662 5.33281 31.9999 6.16621 31.9999 7.19371C31.9999 8.22122 31.1658 9.05378 30.1383 9.05487C25.1932 9.06009 21.5133 9.10516 18.6383 9.49169C15.467 9.91805 13.5552 10.729 12.1421 12.1421C10.729 13.5552 9.91805 15.467 9.49169 18.6383C9.05814 21.863 9.05418 26.1004 9.05418 31.9999C9.05418 32.7204 9.05418 33.4171 9.05503 34.0917L11.5385 31.9187C13.799 29.9408 17.2059 30.0542 19.3298 32.1782L29.971 42.8193C31.6758 44.5241 34.3593 44.7565 36.3318 43.3703L37.0715 42.8504C39.91 40.8556 43.7502 41.0868 46.3289 43.4076L53.3503 49.7269C54.057 48.2426 54.4767 46.2925 54.7008 43.5416C54.912 40.9495 54.941 37.8012 54.945 33.8609C54.9461 32.8334 55.7786 31.9999 56.8061 31.9999C57.8336 31.9999 58.667 32.8333 58.666 33.8609Z" fill="#072948"/>
</g>
</svg>
