<svg width="263" height="193" viewBox="0 0 263 193" fill="none" xmlns="http://www.w3.org/2000/svg">
<path fill-rule="evenodd" clip-rule="evenodd" d="M87.7065 62.2314C88.0044 64.8225 90.1445 66.8985 92.8251 67.0306C95.5052 67.1621 97.8149 65.3044 98.3347 62.7535L87.7065 62.2314Z" fill="#E96257"/>
<path fill-rule="evenodd" clip-rule="evenodd" d="M78.3031 154.653C79.6837 153.779 82.9056 151.993 87.3891 151.096C90.9698 150.379 90.6911 151.916 89.8594 153.299C89.8847 153.295 89.8978 153.293 89.8978 153.293C89.8978 153.293 105.735 152.653 108.102 157.826C110.469 162.998 100.606 164.21 94.6169 165.707C93.2762 166.043 85.256 168.397 78.6764 170.319L78.3031 154.653ZM175.177 127.336C176.512 126.481 179.771 124.644 184.34 123.73C187.921 123.013 187.642 124.55 186.81 125.933C186.836 125.929 186.849 125.927 186.849 125.927C186.849 125.927 202.687 125.287 205.053 130.46C207.419 135.632 197.557 136.844 191.568 138.341C190.285 138.662 182.89 140.83 176.491 142.7L175.177 127.336ZM85.8639 81.4509V88.4142C78.6979 90.7804 69.5182 91.3822 61.2185 89.1569L61.1398 66.2157C60.7268 66.2861 60.302 66.322 59.8684 66.322C55.729 66.322 52.353 58.6594 52.353 54.5563C52.353 51.6093 54.0867 49.0602 56.5982 47.8585C59.4806 46.8713 62.1382 51.2571 63.2088 54.3907C63.3535 54.8362 63.7314 55.1665 64.1931 55.2519C64.6554 55.3378 65.1269 55.1642 65.422 54.8003C66.374 53.6634 67.7246 52.0525 69.5323 49.9466C73.622 45.1816 75.9213 37.7625 75.9213 37.7625C81.3536 37.7625 104.403 39.7559 107.428 36.7417L107.515 41.4097V60.5875C107.515 66.0832 105.271 71.3554 101.273 75.2601C99.9893 75.861 96.7604 77.3516 92.8589 77.7033C86.1636 78.307 80.661 75.1267 80.661 75.1267C80.661 75.1267 82.4729 79.3348 86.187 81.45C86.099 81.4509 86.01 81.4518 85.9215 81.4518H85.8639V81.4509ZM87.7062 62.232C88.0036 64.8217 90.1437 66.8987 92.8247 67.0298C95.5048 67.1613 97.8145 65.3045 98.3348 62.7541L87.7062 62.232Z" fill="#FFD2BB"/>
<path fill-rule="evenodd" clip-rule="evenodd" d="M80.6617 75.1256C80.6617 75.1256 86.1638 78.3059 92.8596 77.7022C96.3012 77.392 99.2192 76.1953 100.741 75.5053C100.857 75.4522 101.632 74.8312 101.609 74.938C101.604 74.9604 101.306 75.5002 100.572 76.0838C96.8739 79.0276 95.4503 83.3075 89.4986 82.5671C83.5474 81.8272 80.6617 75.1256 80.6617 75.1256ZM63.209 54.3901C63.3537 54.8356 63.7316 55.1659 64.1934 55.2513C64.6556 55.3371 65.1272 55.1636 65.4222 54.7997C66.3743 53.6628 67.7249 52.0518 69.5325 49.946C73.6222 45.1809 75.9216 37.7618 75.9216 37.7618C81.3539 37.7618 104.403 39.7552 107.428 36.741L107.516 41.4245C107.516 41.4245 123.946 39.6778 122.74 32.7537C121.533 25.8291 113.297 28.9384 113.297 28.9384C113.297 28.9384 130.65 10.5243 114.85 12.2757C99.0497 14.0279 95.9514 15.9108 78.9201 13.4126C61.8889 10.9148 55.674 27.1395 54.8067 35.7212C54.5716 38.0492 56.4748 47.9003 56.5989 47.8578C59.4808 46.8702 62.1385 51.2564 63.209 54.3901Z" fill="#072948"/>
<path fill-rule="evenodd" clip-rule="evenodd" d="M87.6586 190.472L83.1896 189.878C83.214 183.367 83.2055 176.108 83.3184 168.961C87.3149 167.793 91.1686 166.669 93.2399 166.084L87.6586 190.472ZM176.628 144.303L176.491 142.7C178.042 142.246 179.652 141.775 181.219 141.318C168.859 164.313 147.174 181.602 121.215 188.158C121.54 175.581 120.516 168.034 119.952 154.351C121.989 160.406 126.223 165.79 134.918 164.996C146.954 163.897 176.628 144.303 176.628 144.303ZM68.2507 186.256C68.2507 186.256 61.1321 183.575 60.9377 183.491L58.8009 176.125L67.198 174.685C67.5104 178.532 67.855 182.427 68.2507 186.256ZM107.515 41.4087L107.516 41.4241C107.516 41.4241 123.946 39.6775 122.74 32.7533C121.533 25.8287 113.297 28.9381 113.297 28.9381C113.297 28.9381 130.65 10.524 114.85 12.2753C99.0497 14.0276 95.9514 15.9105 78.9201 13.4122C61.8888 10.9145 55.674 27.1392 54.8067 35.7209C54.5721 38.0442 56.4673 47.8579 56.5975 47.8575C54.0864 49.0597 52.3528 51.6083 52.3528 54.5553C52.3528 58.6579 55.7288 66.321 59.8681 66.321C60.3018 66.321 60.7265 66.2846 61.1396 66.2147L61.2182 89.1559C60.7893 89.0412 59.9398 88.8018 59.9398 88.8018C59.7604 88.7883 58.8852 88.7482 58.2661 89.2413C57.1248 90.1496 56.8832 91.9401 55.4183 96.4677C53.7741 101.55 52.1205 114.218 51.2729 121.397C48.5118 121.608 46.1304 123.534 45.5638 126.274C44.8726 129.616 47.142 132.909 50.628 133.624C54.1141 134.34 57.5055 132.208 58.1963 128.866C58.8304 125.801 56.9726 122.776 53.9698 121.744C55.3078 107.913 57.5224 97.9401 59.9482 88.8942C60.5041 89.7041 63.3748 132.414 64.539 142.569C64.923 145.919 65.3393 150.155 65.7097 154.938V154.938C61.4931 155.034 56.8007 155.034 52.6099 154.785L41.8974 117.86L52.3233 111.543L42.2627 108.476L50.8186 90.6231C44.4652 91.2394 37.8967 91.8865 32.1797 92.4094C18.4837 93.6625 10.7239 132.78 10.7239 132.78C6.16919 121.763 3.65674 109.696 3.65674 97.0509C3.65674 45.182 45.9281 3.07129 97.995 3.07129C146.333 3.07129 186.229 39.3658 191.695 86.0685H182.194V74.5337H167.232V86.0685H155.912V101.313H167.232V112.848H182.194V101.313H192.238C191.855 109.856 190.324 118.104 187.796 125.906C187.323 125.912 186.835 125.929 186.81 125.933C187.642 124.551 187.921 123.013 184.34 123.73C179.771 124.644 176.512 126.481 175.177 127.336L174.962 124.827L142.091 135.479L122.898 99.5192C121.172 95.5762 117.783 92.6987 113.603 91.9518C113.015 91.7143 112.394 91.5506 111.738 91.4675C106.817 90.8452 100.918 90.1212 94.9726 89.5487L103.912 108.477L99.4641 109.833C98.5608 108.737 97.6204 108.013 96.6608 107.835C95.6287 104.058 93.2708 95.8631 91.192 91.8118C88.437 86.4426 86.3408 88.3054 86.3408 88.3054C86.3408 88.3054 90.4038 94.0283 92.5215 101.578C93.4024 104.719 93.6637 106.924 93.6684 108.428C88.0235 111.975 91.0731 138.397 91.0731 138.397L94.9993 137.196C95.218 137.605 95.7088 137.807 96.1621 137.652L97.9852 137.029C98.4882 136.857 98.7565 136.311 98.5837 135.81L97.4644 132.562C97.2921 132.061 96.7433 131.793 96.2403 131.965L94.4181 132.588C93.9152 132.76 93.6468 133.307 93.8192 133.808L94.0819 134.57L93.4937 134.771C92.9022 129.085 90.4273 115.29 94.1343 111.716L101.232 116.016C102.036 117.839 102.722 119.977 103.297 122.142L101.198 131.317L101.175 131.325C100.64 131.508 100.356 132.088 100.539 132.62L100.755 133.248L96.1354 153.435C92.7065 153.18 89.8976 153.294 89.8976 153.294C89.8976 153.294 89.8845 153.296 89.8592 153.3C90.6909 151.917 90.97 150.38 87.3889 151.097C86.1048 151.354 83.9286 152.021 83.9286 152.021C84.2691 146.792 84.7753 142.117 85.5316 138.47C89.5464 119.12 87.2906 100.142 86.2177 93.2767L86.2392 88.2882C86.1207 88.3288 85.8641 88.4146 85.8641 88.4146V81.4513H86.1783C87.1571 82.0125 88.2529 82.4128 89.4991 82.5681C95.4508 83.3085 96.8744 79.0287 100.573 76.0849C100.837 75.874 101.195 75.4723 101.611 74.9237C105.397 71.0553 107.516 65.9268 107.516 60.5875V41.4087H107.515ZM76.8727 98.6543L82.4403 146.11C82.5377 146.941 82.2938 147.776 81.7636 148.425C80.8008 149.604 79.1856 151.58 77.9409 153.104C77.4899 153.655 76.8282 153.995 76.1154 154.038C75.4027 154.082 74.7035 153.827 74.1884 153.334C72.383 151.609 69.8079 149.147 68.4385 147.839C67.8443 147.271 67.5356 146.467 67.5979 145.648L71.1777 98.6002L69.304 95.9578L73.92 91.1004L78.4443 96.3838L76.8727 98.6543ZM168.108 118.44C169.351 118.44 170.36 119.469 170.36 120.734C170.36 122.001 169.351 123.029 168.108 123.029C166.865 123.029 165.856 122.001 165.856 120.734C165.856 119.469 166.865 118.44 168.108 118.44ZM146.729 111.223C149.05 111.223 150.935 113.143 150.935 115.509C150.935 117.874 149.05 119.795 146.729 119.795C144.408 119.795 142.523 117.874 142.523 115.509C142.523 113.143 144.408 111.223 146.729 111.223ZM103.509 117.396L104.277 117.861L104.058 118.815C103.88 118.338 103.697 117.864 103.509 117.396ZM138.392 87.2334C139.807 87.2334 140.956 88.4039 140.956 89.8454C140.956 91.2865 139.807 92.457 138.392 92.457C136.978 92.457 135.829 91.2865 135.829 89.8454C135.829 88.4039 136.978 87.2334 138.392 87.2334ZM151.84 63.59C154.098 63.59 155.932 65.458 155.932 67.7593C155.932 70.0602 154.098 71.9291 151.84 71.9291C149.581 71.9291 147.748 70.0607 147.748 67.7593C147.748 65.4584 149.581 63.59 151.84 63.59ZM179.083 55.773C180.954 55.773 182.472 57.3204 182.472 59.2262C182.472 61.1319 180.954 62.6798 179.083 62.6798C177.213 62.6798 175.695 61.1324 175.695 59.2262C175.695 57.3209 177.213 55.773 179.083 55.773ZM56.5975 47.8579H56.598C56.5975 47.8579 56.598 47.8579 56.5975 47.8579Z" fill="#E2E2E2"/>
<path fill-rule="evenodd" clip-rule="evenodd" d="M83.3187 168.961C83.2058 176.108 83.2138 183.367 83.1899 189.879C83.1899 189.897 68.2515 186.265 68.251 186.256C67.8553 182.427 67.5106 178.532 67.1983 174.685C74.0523 173.313 78.7134 171.911 78.7134 171.911L78.6759 170.318C80.1806 169.879 81.7602 169.417 83.3187 168.961ZM78.4165 96.4075L79.2397 97.2949C79.6153 97.7003 80.1408 97.9359 80.6948 97.9471C81.2483 97.9578 81.7831 97.7437 82.1751 97.3532C83.8155 95.719 86.2179 93.3266 86.2179 93.3266V93.2762C87.2913 100.142 89.5471 119.12 85.5319 138.47C84.7756 142.117 84.2693 146.792 83.9289 152.021C81.2436 152.923 79.2969 154.024 78.3031 154.653L78.2961 154.365C78.2961 154.365 72.6484 154.782 65.7105 154.94C65.34 150.156 64.9682 145.915 64.5397 142.57C63.2064 132.169 61.1262 103.512 60.4135 93.4297L65.9774 97.3611C66.6415 97.83 67.5481 97.7535 68.1232 97.1801L69.322 95.9844L71.1784 98.6007L67.5987 145.649C67.5364 146.467 67.845 147.271 68.4393 147.84C69.8081 149.147 72.3838 151.609 74.1891 153.335C74.7042 153.827 75.4034 154.082 76.1162 154.038C76.8289 153.995 77.4906 153.656 77.9416 153.105C79.1859 151.581 80.8011 149.604 81.7644 148.425C82.2945 147.777 82.5385 146.941 82.4411 146.11L76.8734 98.6548L78.4165 96.4075ZM93.6686 108.428C93.6635 106.924 93.4026 104.719 92.5218 101.578C90.4041 94.0283 86.3411 88.3054 86.3411 88.3054C86.3411 88.3054 88.4372 86.4421 91.1923 91.8118C93.2706 95.8631 95.6285 104.058 96.6611 107.835C102.83 108.975 108.182 132.693 108.182 132.693C107.947 132.863 105.312 133.91 105.312 133.91C105.496 134.443 105.211 135.023 104.676 135.206L102.74 135.868C102.206 136.051 101.623 135.767 101.44 135.235L100.539 132.62C100.355 132.087 100.64 131.507 101.175 131.324L103.111 130.662C103.589 130.498 104.107 130.709 104.341 131.137L105.148 130.861C103.93 123.782 100.973 109.466 95.4299 110.971C89.9166 112.468 92.843 128.52 93.4935 134.771L94.0817 134.57L93.819 133.808C93.6466 133.307 93.915 132.76 94.4179 132.588L96.2401 131.965C96.743 131.793 97.2919 132.06 97.4642 132.561L98.5835 135.809C98.7563 136.31 98.488 136.856 97.985 137.029L96.1619 137.652C95.7086 137.807 95.2178 137.605 94.9991 137.196L91.0728 138.397C91.0728 138.397 88.0232 111.975 93.6686 108.428ZM51.2736 121.398C52.1212 114.218 53.7748 101.551 55.419 96.4687C56.8839 91.9411 57.1251 90.1505 58.2668 89.2422C58.9599 88.6903 59.9733 88.806 59.9733 88.806C57.5381 97.8752 55.3132 107.869 53.9706 121.745C56.9733 122.777 58.8311 125.802 58.197 128.867C57.5063 132.209 54.1148 134.341 50.6288 133.626C47.1427 132.91 44.8728 129.617 45.5645 126.275C46.1307 123.535 48.5125 121.608 51.2736 121.398ZM52.723 124.243C50.8652 123.861 49.0581 124.997 48.69 126.778C48.3219 128.558 49.5311 130.314 51.3888 130.695C53.2466 131.077 55.0533 129.941 55.4218 128.16C55.7895 126.378 54.5803 124.623 52.723 124.243ZM182.194 86.0685H193.514V101.313H182.194V112.848H167.233V101.313H155.913V86.0685H167.233V74.5337H182.194V86.0685Z" fill="#A71010"/>
<path fill-rule="evenodd" clip-rule="evenodd" d="M96.1353 153.435L100.755 133.248L101.44 135.236C101.623 135.768 102.206 136.051 102.74 135.868L104.676 135.206C105.211 135.024 105.495 134.443 105.312 133.911C105.312 133.911 107.947 132.864 108.182 132.694C108.182 132.694 106.554 125.478 104.058 118.816L104.277 117.861L103.51 117.396C102.308 114.391 100.935 111.619 99.4644 109.834L103.912 108.477L94.9729 89.5492C100.919 90.1216 106.818 90.8457 111.739 91.468C112.395 91.5511 113.016 91.7143 113.603 91.9523C117.783 92.6992 121.172 95.5767 122.898 99.5197L142.091 135.479L174.962 124.827L176.628 144.305C176.628 144.305 146.955 163.898 134.919 164.997C126.223 165.791 121.989 160.407 119.953 154.352C120.516 168.035 121.54 175.582 121.215 188.159C113.786 190.035 106.007 191.032 97.9954 191.032C94.5028 191.032 91.0542 190.842 87.659 190.473L93.2407 166.085C93.8935 165.9 94.3688 165.77 94.617 165.708C100.606 164.211 110.468 162.999 108.102 157.826C106.732 154.832 100.848 153.785 96.1353 153.435ZM78.2957 154.365L78.7134 171.911C78.7134 171.911 74.3273 173.231 67.8081 174.562L67.3487 174.655L67.3079 174.663C64.8835 175.151 62.18 175.635 59.3107 176.052L58.8012 176.126L60.9381 183.492C56.669 181.672 52.5615 179.546 48.6437 177.144C38.6941 177.688 28.3643 176.775 21.2653 172.308C3.10915 160.884 9.33009 139.476 9.94778 136.442C10.1843 135.279 17.3081 93.7708 32.18 92.4113C37.8971 91.8883 44.4655 91.2413 50.819 90.625L42.2631 108.477L52.3236 111.545L41.8978 117.862L52.6102 154.787C56.8011 155.036 61.4935 155.036 65.7101 154.94V154.94L66.1732 154.929C72.8976 154.764 78.2957 154.365 78.2957 154.365ZM103.297 122.142C104.132 125.283 104.739 128.481 105.148 130.861L104.341 131.138C104.107 130.709 103.589 130.499 103.111 130.662L101.198 131.317L103.297 122.142ZM52.7231 124.243C50.8653 123.861 49.0581 124.997 48.69 126.779C48.322 128.559 49.5311 130.314 51.3889 130.696C53.2466 131.077 55.0533 129.941 55.4219 128.16C55.7895 126.379 54.5804 124.624 52.7231 124.243ZM168.108 118.44C169.351 118.44 170.36 119.469 170.36 120.735C170.36 122.001 169.351 123.029 168.108 123.029C166.865 123.029 165.857 122.001 165.857 120.735C165.857 119.469 166.865 118.44 168.108 118.44ZM146.729 111.223C149.051 111.223 150.935 113.144 150.935 115.509C150.935 117.875 149.051 119.795 146.729 119.795C144.408 119.795 142.523 117.875 142.523 115.509C142.523 113.144 144.408 111.223 146.729 111.223ZM96.0795 110.865C98.1724 110.755 99.8728 112.935 101.233 116.016L94.1337 111.716C94.3028 111.553 94.4854 111.41 94.6812 111.291C95.1312 110.964 95.5995 110.846 96.0795 110.865ZM201.941 110.306C203.184 110.306 204.193 111.334 204.193 112.601C204.193 113.867 203.184 114.895 201.941 114.895C200.698 114.895 199.689 113.867 199.689 112.601C199.689 111.335 200.698 110.306 201.941 110.306ZM69.3216 95.9844L68.1228 97.1801C67.5477 97.7535 66.641 97.83 65.977 97.3611C64.0532 96.0017 60.3887 93.4129 60.3887 93.4129L59.9387 88.7888C68.7077 91.4834 78.653 90.8839 86.2386 88.2877L86.2171 93.3266C86.2171 93.3266 83.8147 95.719 82.1742 97.3532C81.7827 97.7432 81.2474 97.9578 80.6939 97.9471C80.1404 97.9359 79.6149 97.7008 79.2389 97.2949L78.4156 96.4076L73.9199 91.0999L69.3216 95.9844ZM209.689 84.9073C212.01 84.9073 213.895 86.828 213.895 89.1933C213.895 91.5585 212.01 93.4792 209.689 93.4792C207.367 93.4792 205.482 91.5585 205.482 89.1933C205.482 86.8285 207.367 84.9073 209.689 84.9073ZM138.393 87.2339C139.808 87.2339 140.957 88.4044 140.957 89.8459C140.957 91.287 139.808 92.4575 138.393 92.4575C136.978 92.4575 135.829 91.287 135.829 89.8459C135.829 88.4044 136.978 87.2339 138.393 87.2339ZM196.379 68.5669C197.622 68.5669 198.631 69.5946 198.631 70.8612C198.631 72.1274 197.622 73.1556 196.379 73.1556C195.136 73.1556 194.128 72.1274 194.128 70.8612C194.128 69.5951 195.136 68.5669 196.379 68.5669ZM151.84 63.5905C154.099 63.5905 155.932 65.4584 155.932 67.7598C155.932 70.0607 154.099 71.9296 151.84 71.9296C149.581 71.9296 147.748 70.0612 147.748 67.7598C147.748 65.4589 149.581 63.5905 151.84 63.5905ZM179.083 55.7734C180.954 55.7734 182.473 57.3209 182.473 59.2266C182.473 61.1324 180.954 62.6803 179.083 62.6803C177.213 62.6803 175.695 61.1328 175.695 59.2266C175.695 57.3214 177.214 55.7734 179.083 55.7734Z" fill="#072948"/>
</svg>
