<svg width="244" height="243" viewBox="0 0 244 243" fill="none" xmlns="http://www.w3.org/2000/svg">
<g id="24.-No-Message">
<path id="color_x5F_6" d="M50.7773 89.3688C51.0557 89.6162 51.1635 89.8942 51.1174 90.1722C51.0713 90.4351 50.8394 90.6363 50.4838 90.76C50.1593 90.8682 49.7572 90.8682 49.3555 90.791C48.9694 90.7131 48.6448 90.5588 48.3975 90.3734C48.2738 90.9298 48.0113 91.316 47.6247 91.3936C46.9446 91.5328 46.2029 90.6208 45.9555 89.3688C45.7082 88.1168 46.0637 87.0041 46.7438 86.8653C47.2071 86.7877 47.6864 87.1743 48.0264 87.8229C48.1966 87.5911 48.4285 87.3437 48.722 87.1584C49.4792 86.6644 50.2985 86.6485 50.592 87.0967C50.7463 87.329 50.7308 87.6376 50.561 87.9625C50.4063 88.2711 50.1283 88.5491 49.7727 88.7814C49.7266 88.8124 49.6646 88.8431 49.6029 88.8741C49.6495 88.89 49.6956 88.89 49.7421 88.89C50.1442 88.9827 50.5149 89.1525 50.7773 89.3688ZM130.974 65.6603C132.102 66.2477 133.277 66.2322 133.586 65.6142C133.772 65.2742 133.633 64.8108 133.277 64.3626C133.587 64.301 133.896 64.1303 134.205 63.8834C134.529 63.6205 134.761 63.296 134.885 62.9718C135.008 62.6314 134.993 62.322 134.807 62.1207C134.637 61.9044 134.343 61.8276 133.988 61.8893C133.648 61.9513 133.277 62.1366 132.968 62.3995C132.921 62.4306 132.891 62.4612 132.86 62.4922C132.875 62.4306 132.891 62.3685 132.891 62.2909C132.937 61.8897 132.891 61.4876 132.751 61.1782C132.597 60.8385 132.365 60.6373 132.102 60.6063C131.562 60.5446 131.067 61.2088 130.974 62.1056C130.928 62.4612 130.974 62.7857 131.067 63.0641C130.341 62.9249 129.722 63.0641 129.506 63.4817C129.181 64.0842 129.846 65.0574 130.974 65.6603ZM105.567 135.849C105.907 135.694 107.313 133.762 107.9 133.02C108.487 132.263 109.739 132.263 109.987 132.603C110.234 132.927 109.817 134.937 109.817 134.937C109.817 134.937 116.74 131.676 117.992 131.428C119.244 131.181 119.492 133.19 118.332 135.354C117.281 137.301 112.305 138.971 111.346 139.28C113.819 139.558 116.385 139.14 118.147 137.873C121.423 135.54 122.845 129.682 123.448 125.555C118.394 124.257 115.318 122.124 113.696 121.135H106.648C106.648 121.135 103.696 127.92 103.635 133.206C103.635 134.211 103.959 135.122 104.531 135.91C105.134 135.896 105.521 135.88 105.567 135.849ZM130.017 126.623C127.76 126.421 125.751 126.112 123.989 125.695L124.691 151.883L126.076 203.574L126.111 204.952L126.23 209.57L126.218 213.799L130.743 213.797L130.667 204.608L130.22 150.985L130.017 126.623ZM123.293 108.679L123.85 120.425V120.842C123.865 120.842 123.865 120.842 123.865 120.842C123.989 120.842 124.144 120.842 124.298 120.826C124.344 120.826 124.375 120.826 124.422 120.826C124.576 120.811 124.762 120.811 124.931 120.795C124.977 120.78 125.009 120.78 125.04 120.78C125.21 120.764 125.38 120.749 125.565 120.733C125.611 120.718 125.658 120.718 125.704 120.718C125.92 120.687 126.137 120.672 126.353 120.641C126.415 120.625 126.461 120.625 126.523 120.625C126.724 120.594 126.941 120.564 127.157 120.532C127.203 120.532 127.234 120.532 127.281 120.517C127.528 120.486 127.775 120.455 128.038 120.408C128.099 120.408 128.162 120.393 128.223 120.377C128.764 120.301 129.32 120.223 129.892 120.13C129.923 120.115 129.939 120.115 129.954 120.115C133.818 119.497 137.929 118.678 138.346 118.585C139.104 118.416 137.59 109.745 137.59 109.745C137.59 109.745 137.713 109.699 137.914 109.621C136.4 104.212 133.2 102.095 133.2 102.095L114.097 101.121C121.856 101.986 123.293 108.679 123.293 108.679Z" fill="#404040"/>
<path id="color_x5F_5" d="M124.731 204.989L129.785 204.865L129.723 208.868L125.875 208.683C125.875 208.683 125.798 208.683 125.689 208.683L124.731 204.989ZM106.37 207.137L110.326 206.952L110.357 203.103C109.322 203.583 107.035 204.557 105.69 204.557L106.37 207.137ZM148.439 104.082C146.77 105.999 137.59 109.584 137.59 109.584C137.59 109.584 139.104 118.255 138.347 118.425C137.59 118.595 124.422 121.175 123.17 120.588C121.918 120.017 121.501 118.765 121.161 117.42C120.836 116.091 120.001 116.261 119.492 117.265C118.997 118.254 120.666 120.511 119.167 120.511C117.668 120.511 112.738 117.59 111.903 117.59C111.069 117.59 111.238 119.599 113.325 120.758C115.411 121.932 120.573 126.013 130.666 126.43C140.758 126.847 151.19 124.513 151.947 120.171C152.689 115.844 148.439 104.082 148.439 104.082ZM117.992 131.268C116.74 131.515 109.817 134.777 109.817 134.777C109.817 134.777 110.234 132.767 109.987 132.443C109.739 132.103 108.487 132.103 107.9 132.86C107.313 133.602 105.907 135.533 105.567 135.688C105.227 135.858 86.804 135.858 86.804 135.858L85.6602 128.27C85.6602 128.27 77.9634 126.323 74.3626 124.823C74.3626 124.823 73.8678 140.696 76.2016 145.039C78.5353 149.366 111.177 139.166 111.177 139.166C111.177 139.166 117.158 137.358 118.333 135.194C119.492 133.03 119.244 131.02 117.992 131.268ZM83.7902 93.6958C85.4594 94.4073 87.0049 93.8199 88.0095 94.1134C89.0141 94.4073 91.425 97.4518 93.8053 97.7457C96.1856 98.0392 96.6338 99.152 98.5965 100.28C100.559 101.409 105.072 100.033 105.397 97.653C105.737 95.2731 104.902 93.9436 105.907 93.1549C106.896 92.3671 107.282 90.1105 107.406 87.4371C107.53 84.7633 105.644 82.6455 105.32 82.0589C104.98 81.4711 106.278 79.9722 106.185 78.1797C106.108 76.3864 104.562 76.0929 104.068 76.217C103.975 76.2481 103.712 76.1395 103.341 75.9692C103.202 76.0774 103.078 76.1701 102.939 76.2627H102.986L104.439 81.5638C104.439 81.5638 103.434 79.3541 101.44 78.1017C101.116 77.9017 100.822 77.7466 100.544 77.6229C98.025 78.7202 95.2581 79.0761 92.1671 79.2304C87.376 79.4468 85.0422 83.8363 85.1504 86.1692C85.2741 88.5034 88.7206 92.9549 88.7206 92.9549L86.9898 92.8463C86.9898 92.8463 86.1089 90.2966 84.0531 89.508C81.9823 88.7352 81.4259 90.0182 81.4259 90.0182C81.3948 89.9721 81.3487 89.9101 81.3177 89.8639C81.3022 90.1419 81.3177 90.4513 81.3793 90.7755C81.6728 92.321 82.1211 92.9855 83.7902 93.6958Z" fill="#FFD2BB"/>
<path id="color_x5F_4" d="M173.678 89.4929C181.513 93.5574 188.314 87.8539 186.212 82.383C184.094 76.9122 176.506 79.9256 169.427 76.155C162.349 72.3831 162.318 67.8242 159.258 68.4577C156.213 69.0762 165.842 85.412 173.678 89.4929ZM26.281 151.916C49.3246 132.071 61.3178 126.755 45.7854 112.923C29.7121 98.6262 29.2794 77.3135 44.5954 53.4972C62.0906 26.3271 115.133 24.4415 132.489 42.8641C149.861 61.3018 161.792 95.5662 187.2 105.133C245.044 126.929 208.118 207.245 205.741 212.269H177.696V212.515H174.064V212.067H167.573V212.515H163.168V212.269H137.621C137.636 211.882 137.528 211.464 137.08 211.094C135.936 210.183 134.329 210.121 133.355 210.352C132.555 210.53 131.172 209.436 130.704 209.04L130.667 204.608C131.749 201.479 143.831 166.493 145.101 159.968C146.43 153.121 145.765 146.121 145.765 146.121H145.472C145.306 146.193 145.144 146.257 144.979 146.327C145.518 146.098 146.056 145.87 146.6 145.625C146.6 145.625 147.944 136.894 144.56 125.149C148.653 124.078 151.561 122.387 151.947 120.171C152.689 115.844 148.439 104.082 148.439 104.082C148.371 104.16 148.286 104.242 148.193 104.326C148.287 104.242 148.37 104.16 148.439 104.082C149.938 102.243 149.382 102.073 148.934 101.687C148.501 101.3 131.593 84.3919 107.73 86.2313L107.362 86.446C107.186 85.0964 106.563 83.9453 106.042 83.1374C106.745 83.0264 107.483 82.9525 108.225 82.9239C108.317 82.9239 108.379 82.8468 108.364 82.7688C108.364 82.6921 108.287 82.6304 108.225 82.6304C107.411 82.6615 106.628 82.7374 105.859 82.8598C105.612 82.4941 105.407 82.2181 105.319 82.0589C104.979 81.4711 106.277 79.9722 106.185 78.1797C106.108 76.3864 104.562 76.0929 104.067 76.217C103.975 76.248 103.712 76.1395 103.341 75.9692C103.202 76.0774 103.078 76.1697 102.939 76.2623H102.939C103.448 75.9072 103.959 75.5051 104.453 75.0569C107.961 71.8271 111.346 64.2695 102.058 59.4477C102.058 59.4477 97.2204 57.5307 92.7227 59.0301C88.21 60.5446 87.8854 63.2955 87.4678 67.8858C87.0506 72.4607 82.3831 72.7235 80.4511 75.799C78.5521 78.8614 77.4001 85.6096 81.3173 89.8974C81.3046 90.1672 81.3194 90.464 81.3789 90.7755C81.6725 92.3209 82.1207 92.9855 83.7898 93.6958C85.459 94.4073 87.0045 93.8199 88.0091 94.1134C88.5169 94.262 89.3852 95.1135 90.4261 95.9573L90.2188 96.0765C90.2188 96.0765 85.8321 98.1853 81.452 103.087C81.4528 103.032 81.4557 102.978 81.4557 102.923C81.4557 102.707 81.4557 102.49 81.4402 102.289C81.4402 102.197 81.363 102.119 81.2704 102.119C81.2704 102.119 81.2704 102.119 81.2549 102.119C81.1622 102.135 81.1001 102.212 81.1001 102.305C81.1157 102.506 81.1156 102.707 81.1156 102.923C81.1156 103.112 81.1095 103.3 81.1001 103.487C79.3673 105.488 77.6581 107.932 76.2367 110.859C76.2004 110.857 76.1624 110.863 76.1236 110.882C75.4125 111.315 74.6092 111.733 73.7744 112.104C73.6817 112.149 73.6507 112.258 73.6817 112.335C73.7127 112.397 73.7744 112.443 73.8519 112.443C73.8674 112.443 73.8981 112.428 73.9136 112.428C74.6447 112.096 75.3386 111.739 75.991 111.361C74.8745 113.763 73.9654 116.487 73.3907 119.543C72.8086 119.434 72.2542 119.301 71.7345 119.151C71.6264 119.12 71.5182 119.073 71.41 119.042C71.3329 119.011 71.2247 119.058 71.1937 119.151C71.1626 119.243 71.2092 119.336 71.3018 119.367C71.41 119.398 71.5182 119.445 71.6264 119.476C72.1566 119.637 72.7302 119.772 73.3274 119.882C73.1955 120.62 73.0763 121.371 72.9865 122.149C72.8163 123.555 73.4192 124.096 74.3157 124.715C74.4083 124.777 74.5475 124.869 74.7173 124.962C76.5788 125.703 79.313 126.53 81.5826 127.172C79.1644 126.489 76.2192 125.597 74.3622 124.823C74.3622 124.823 73.8675 140.696 76.2012 145.039C78.3721 149.064 106.766 140.52 110.716 139.308C108.453 140.004 98.1442 143.12 89.3538 144.884C89.3693 144.899 89.3693 144.93 89.3848 144.946L89.3844 144.946C89.3844 144.946 84.2842 170.478 104.731 204.17C104.908 204.464 105.296 204.568 105.795 204.552C105.76 204.553 105.723 204.557 105.69 204.557L106.37 207.137L106.848 207.115L106.092 207.152C106.092 207.152 104.252 208.822 103.279 208.59C102.305 208.374 100.698 208.436 99.5537 209.347C98.4254 210.259 99.4145 211.573 99.4145 211.573L111.315 211.233C111.315 211.233 111.655 210.878 111.794 210.213C111.934 209.533 111.794 207.153 111.516 207.045C111.238 206.921 110.759 206.921 110.759 206.921L110.326 206.943L110.357 203.103C109.943 203.295 109.328 203.565 108.655 203.821C109.875 203.356 110.898 202.841 110.898 202.841L113.077 162.302C113.077 162.302 118.239 177.479 121.083 191.497C123.911 205.515 124.082 205.005 124.082 205.005L126.111 204.952V204.955L124.731 204.989L125.689 208.683C125.797 208.683 125.874 208.683 125.874 208.683L126.118 208.695L125.874 208.683C125.874 208.683 125.395 208.683 125.117 208.791C124.839 208.9 124.7 211.295 124.838 211.96C124.869 212.067 124.9 212.176 124.931 212.269H113.293V212.515H107.761V212.067H36.4818V212.64C35.3278 212.633 34.1963 212.625 33.1125 212.616V212.129H21.8258C6.09949 207.243 4.00047 171.116 26.281 151.916ZM79.602 97.2975C80.0498 98.0237 80.4054 98.8425 80.6527 99.7084C80.6838 99.77 80.7454 99.832 80.8226 99.832C80.8381 99.832 80.8536 99.8169 80.8691 99.8169C80.9618 99.7855 81.0083 99.6928 80.9773 99.6002C80.7144 98.7188 80.3592 97.8845 79.8955 97.1121C79.849 97.0346 79.7408 97.0195 79.6636 97.0652C79.5865 97.1121 79.5555 97.2203 79.602 97.2975ZM135.055 77.8699C134.993 77.8082 134.9 77.8237 134.838 77.8854C134.282 78.5348 133.757 79.0908 133.231 79.5856C133.169 79.648 133.169 79.7407 133.231 79.8023C133.262 79.833 133.293 79.8481 133.339 79.8481C133.37 79.8481 133.401 79.8334 133.432 79.8023C133.973 79.3072 134.498 78.7353 135.07 78.0707C135.117 78.0091 135.117 77.9164 135.055 77.8699ZM136.585 69.3387C136.941 70.0649 137.157 70.807 137.234 71.5491C137.25 71.6259 137.311 71.6875 137.389 71.6875C137.389 71.6875 137.389 71.6875 137.404 71.6875C137.481 71.6724 137.543 71.6108 137.528 71.5177C137.435 70.7449 137.219 69.9722 136.848 69.215C136.817 69.1533 136.74 69.1068 136.663 69.1533C136.585 69.1844 136.554 69.277 136.585 69.3387ZM136.26 76.186C136.292 76.2007 136.307 76.217 136.338 76.217C136.384 76.217 136.43 76.186 136.461 76.1395C136.879 75.3977 137.188 74.656 137.373 73.9139C137.389 73.8371 137.342 73.7596 137.265 73.7441C137.188 73.713 137.11 73.7751 137.08 73.8523C136.91 74.5638 136.616 75.2741 136.214 75.9852C136.168 76.0619 136.198 76.155 136.26 76.186ZM134.607 66.3248C134.545 66.2632 134.452 66.2787 134.39 66.3408C134.344 66.4175 134.359 66.4951 134.422 66.5571C134.421 66.5571 134.777 66.8351 135.24 67.345C135.271 67.3915 135.318 67.4066 135.349 67.4066C135.38 67.4066 135.426 67.3911 135.457 67.3605C135.503 67.3143 135.518 67.2217 135.457 67.1596C134.977 66.6187 134.622 66.3248 134.607 66.3248ZM130.974 65.6603C132.102 66.2477 133.277 66.2322 133.586 65.6141C133.772 65.2741 133.633 64.8108 133.277 64.3626C133.587 64.3009 133.896 64.1303 134.205 63.8833C134.529 63.6204 134.761 63.2959 134.885 62.9718C135.009 62.6313 134.993 62.3219 134.807 62.1207C134.637 61.9043 134.344 61.8276 133.988 61.8892C133.648 61.9513 133.277 62.1366 132.968 62.3995C132.921 62.4305 132.891 62.4611 132.86 62.4921C132.875 62.4305 132.891 62.3685 132.891 62.2909C132.937 61.8896 132.891 61.4875 132.752 61.1781C132.597 60.8385 132.365 60.6372 132.102 60.6062C131.562 60.5446 131.067 61.2087 130.974 62.1056C130.928 62.4611 130.974 62.7856 131.067 63.064C130.341 62.9248 129.722 63.064 129.506 63.4816C129.181 64.0842 129.846 65.0573 130.974 65.6603ZM129.228 82.2594C129.259 82.3214 129.305 82.352 129.367 82.352C129.383 82.352 129.414 82.352 129.429 82.352C130.186 82.0585 130.882 81.7185 131.562 81.2703C131.624 81.2392 131.655 81.1466 131.608 81.0694C131.562 81.0078 131.469 80.9919 131.407 81.0225C130.743 81.456 130.063 81.7956 129.321 82.0736C129.244 82.1047 129.213 82.1822 129.228 82.2594ZM124.607 83.1248C124.607 83.2023 124.684 83.2644 124.762 83.2644C125.643 83.2027 126.415 83.1101 127.126 82.9705C127.204 82.955 127.25 82.8778 127.25 82.8006C127.219 82.7235 127.157 82.6766 127.065 82.6766C126.369 82.8162 125.612 82.9088 124.746 82.9705C124.669 82.9705 124.607 83.0476 124.607 83.1248ZM119.878 83.186C119.878 83.2791 119.94 83.3407 120.032 83.3407C120.62 83.3566 121.176 83.3566 121.717 83.3566C121.949 83.3566 122.181 83.3566 122.397 83.3566C122.474 83.3566 122.536 83.295 122.536 83.217C122.536 83.1244 122.475 83.0627 122.397 83.0627C121.656 83.0786 120.867 83.0627 120.032 83.0472C119.955 83.0472 119.878 83.1097 119.878 83.186ZM115.164 83.0166C115.164 83.0937 115.226 83.1554 115.303 83.1717C116.123 83.2027 116.911 83.2334 117.668 83.2644C117.745 83.2644 117.807 83.2027 117.823 83.1248C117.823 83.0476 117.761 82.9705 117.668 82.9705C116.926 82.9394 116.138 82.9088 115.319 82.8778C115.242 82.8778 115.164 82.9239 115.164 83.0166ZM110.435 82.7855C110.435 82.8623 110.497 82.9394 110.574 82.9394L112.939 83.0476C112.939 83.0476 112.939 83.0476 112.954 83.0476C113.031 83.0476 113.093 82.986 113.093 82.9088C113.093 82.8317 113.032 82.7692 112.954 82.7545L110.589 82.6459C110.512 82.6459 110.45 82.7076 110.435 82.7855ZM75.7534 93.8199C76.5572 94.191 77.2834 94.6702 77.9479 95.2568C77.979 95.2878 78.0096 95.3037 78.0561 95.3037C78.1026 95.3037 78.1488 95.2878 78.1798 95.2568C78.2414 95.1797 78.2414 95.0715 78.1643 95.0098C77.4997 94.3918 76.727 93.8971 75.8922 93.5105C75.815 93.4795 75.7068 93.5105 75.6758 93.6031C75.6297 93.6811 75.6762 93.7889 75.7534 93.8199ZM47.2541 99.4455C47.0839 98.549 46.9912 97.6681 46.9602 96.8027C46.9447 96.71 46.8831 96.6484 46.7749 96.6484C46.6822 96.6484 46.6047 96.7255 46.6202 96.8182C46.6512 97.6987 46.7439 98.6111 46.9292 99.5071C46.9447 99.5847 47.0063 99.6467 47.0839 99.6467C47.0994 99.6467 47.1149 99.6467 47.1304 99.6467C47.2231 99.6312 47.2696 99.5385 47.2541 99.4455ZM47.3003 92.6606C47.2076 92.6145 47.1149 92.6761 47.0839 92.7688C47.0684 92.7843 46.8986 93.2635 46.7749 94.113C46.7594 94.2057 46.821 94.2983 46.9141 94.3142H46.9296C47.0223 94.3142 47.0994 94.2526 47.0994 94.1746C47.2386 93.3403 47.3929 92.8765 47.4084 92.8765C47.4395 92.7843 47.3929 92.6916 47.3003 92.6606ZM48.9694 104.453C48.5833 103.649 48.2277 102.83 47.9493 101.996C47.9183 101.918 47.8256 101.872 47.733 101.903C47.6403 101.934 47.5938 102.027 47.6248 102.119C47.9183 102.954 48.2738 103.788 48.6759 104.608C48.7069 104.669 48.7531 104.7 48.8306 104.7C48.8461 104.7 48.8772 104.7 48.8923 104.684C48.9849 104.639 49.016 104.546 48.9694 104.453ZM50.4839 90.76C50.8394 90.6363 51.0713 90.435 51.1174 90.1721C51.1636 89.8941 51.0558 89.6161 50.7774 89.3688C50.5149 89.1524 50.1443 88.9826 49.7422 88.8899C49.6956 88.8899 49.6495 88.8899 49.603 88.874C49.6646 88.843 49.7267 88.8124 49.7728 88.7814C50.1283 88.5491 50.4063 88.2711 50.561 87.9625C50.7309 87.6375 50.7464 87.3289 50.5921 87.0967C50.2986 86.6484 49.4793 86.6644 48.722 87.1583C48.4285 87.3436 48.1967 87.591 48.0265 87.8229C47.6864 87.1742 47.2072 86.7876 46.7439 86.8652C46.0638 87.004 45.7082 88.1168 45.9556 89.3688C46.203 90.6208 46.9447 91.5327 47.6248 91.3935C48.0114 91.3159 48.2738 90.9298 48.3975 90.3734C48.6449 90.5587 48.9694 90.713 49.3556 90.791C49.7573 90.8681 50.1594 90.8681 50.4839 90.76ZM51.8134 108.95C51.257 108.24 50.7468 107.498 50.2831 106.772C50.2365 106.694 50.1283 106.679 50.0512 106.725C49.974 106.772 49.943 106.879 49.9895 106.957C50.4533 107.699 50.9786 108.44 51.5505 109.167C51.5816 109.214 51.6277 109.228 51.6897 109.228C51.7208 109.228 51.7514 109.213 51.7824 109.197C51.8596 109.136 51.8751 109.027 51.8134 108.95ZM69.0155 117.93C68.2729 117.497 67.5622 116.956 66.9132 116.338C66.8515 116.276 66.7429 116.276 66.6813 116.354C66.6041 116.415 66.6197 116.523 66.6813 116.586C67.3459 117.219 68.0725 117.775 68.8452 118.224C68.8763 118.239 68.9069 118.255 68.9379 118.255C68.984 118.255 69.0461 118.224 69.0771 118.177C69.1232 118.085 69.0926 117.992 69.0155 117.93ZM70.4205 92.8463C70.4213 92.9386 70.514 93.0006 70.6067 93.0006C70.9312 92.9859 71.2557 92.9696 71.5647 92.9696C72.1366 92.9549 72.693 93.0006 73.2339 93.0933C73.2494 93.0933 73.2494 93.0933 73.2649 93.0933C73.3421 93.0933 73.4196 93.0316 73.4347 92.939C73.4503 92.8463 73.3731 92.7692 73.28 92.7537C72.7392 92.661 72.1673 92.63 71.5798 92.63C71.2553 92.6145 70.9153 92.6455 70.5752 92.661C70.4826 92.6765 70.4054 92.7537 70.4205 92.8463ZM68.5819 113.958C68.5974 114.035 68.675 114.081 68.7522 114.081C68.7677 114.081 68.7677 114.081 68.7832 114.081C69.6641 113.896 70.545 113.664 71.3949 113.386C71.4876 113.355 71.5341 113.262 71.5031 113.17C71.4721 113.077 71.3794 113.031 71.2867 113.061C70.4524 113.34 69.5865 113.572 68.7211 113.741C68.6285 113.772 68.5664 113.865 68.5819 113.958ZM65.5065 94.7318C65.5375 94.7629 65.584 94.7939 65.6302 94.7939C65.6767 94.7939 65.7228 94.778 65.7538 94.7469C66.4339 94.175 67.1912 93.7428 68.0104 93.4648C68.1031 93.4333 68.1496 93.3407 68.1186 93.248C68.0876 93.1549 67.9949 93.1092 67.9023 93.1398C67.0368 93.4333 66.2486 93.8815 65.522 94.4841C65.4603 94.5457 65.4448 94.6539 65.5065 94.7318ZM65.1048 114.236C64.6411 113.572 64.2084 112.83 63.8528 112.057C63.8067 111.98 63.6981 111.949 63.6209 111.98C63.5283 112.026 63.4972 112.118 63.5438 112.211C63.8838 112.938 64.27 113.618 64.7182 114.267C64.3937 114.282 64.0692 114.282 63.7446 114.282H63.4201C63.3274 114.282 63.2503 114.36 63.2503 114.453C63.2503 114.545 63.3274 114.622 63.4201 114.622H63.7446C64.1463 114.622 64.5484 114.622 64.9656 114.591C65.0117 114.622 65.0893 114.622 65.1509 114.591V114.576C65.4754 114.56 65.8 114.529 66.109 114.498C66.2172 114.498 66.2788 114.406 66.2637 114.313C66.2637 114.221 66.1865 114.144 66.0784 114.159C65.7538 114.205 65.4293 114.221 65.1048 114.236ZM62.709 99.2291C62.7245 99.2291 62.74 99.2291 62.7555 99.2291C62.8327 99.2291 62.8947 99.1981 62.9253 99.1209C63.2189 98.2396 63.6054 97.4362 64.0381 96.7411C64.1002 96.6484 64.0692 96.5549 63.992 96.4933C63.9149 96.4476 63.8067 96.4782 63.7601 96.5549C63.2964 97.2815 62.9102 98.1159 62.6008 99.0128C62.5698 99.0899 62.6163 99.1981 62.709 99.2291ZM62.3228 106.988C62.3073 106.895 62.2146 106.834 62.122 106.848C62.0293 106.864 61.9673 106.941 61.9828 107.034C62.1065 107.93 62.3073 108.827 62.5702 109.676C62.5857 109.754 62.6629 109.8 62.7249 109.8C62.7404 109.8 62.7559 109.8 62.7866 109.8C62.8637 109.769 62.9258 109.676 62.8947 109.584C62.6474 108.749 62.4465 107.868 62.3228 106.988ZM61.782 104.344C61.782 104.437 61.8591 104.515 61.9518 104.515C62.0444 104.515 62.122 104.437 62.122 104.345V104.252C62.122 103.386 62.1836 102.521 62.3073 101.702C62.3228 101.609 62.2608 101.516 62.1526 101.501C62.0599 101.485 61.9824 101.547 61.9673 101.64C61.8436 102.49 61.782 103.371 61.782 104.252V104.344ZM58.0881 113.788C58.9228 114.066 59.8038 114.268 60.7308 114.406H60.7463C60.839 114.406 60.901 114.344 60.9165 114.268C60.9317 114.174 60.87 114.081 60.7773 114.066C59.8809 113.927 59.0155 113.727 58.1962 113.463C58.1036 113.432 58.0109 113.479 57.9799 113.572C57.9489 113.664 57.9954 113.757 58.0881 113.788ZM53.374 111.161C54.0541 111.748 54.7958 112.274 55.5996 112.721C55.6306 112.737 55.6612 112.737 55.6768 112.737C55.7384 112.737 55.8004 112.706 55.8315 112.66C55.878 112.567 55.847 112.459 55.7698 112.428C54.9816 111.995 54.2554 111.485 53.6059 110.913C53.5287 110.836 53.4206 110.851 53.3585 110.913C53.2969 110.99 53.312 111.099 53.374 111.161ZM108.41 203.912C108.492 203.882 108.573 203.852 108.654 203.821C108.573 203.852 108.492 203.883 108.41 203.912ZM31.907 143.539C37.7028 138.98 40.5774 132.968 38.3208 130.093C36.0798 127.219 29.5422 128.578 23.7465 133.122C17.9352 137.666 15.0605 143.694 17.3171 146.569C19.5737 149.443 26.1112 148.083 31.907 143.539ZM113.526 138.323C113.526 138.323 113.526 138.323 113.525 138.323C113.526 138.323 113.526 138.323 113.526 138.323ZM83.4918 127.699C83.4208 127.68 83.3482 127.66 83.2743 127.64C83.3477 127.66 83.4208 127.68 83.4918 127.699ZM81.9762 127.282C81.8488 127.246 81.7194 127.21 81.5888 127.173C81.7198 127.21 81.8488 127.246 81.9762 127.282ZM82.8918 127.535C82.9714 127.557 83.0502 127.579 83.1273 127.6C83.0502 127.579 82.9714 127.557 82.8918 127.535ZM146.596 105.433C146.72 105.36 146.841 105.287 146.957 105.215C146.841 105.287 146.721 105.36 146.596 105.433ZM148.168 104.348C147.883 104.601 147.494 104.878 147.034 105.167C147.495 104.879 147.883 104.603 148.168 104.348ZM85.6599 128.27C85.6599 128.27 84.9741 128.097 83.9184 127.814C84.972 128.096 85.6578 128.27 85.6599 128.27ZM83.8478 127.795C83.7731 127.775 83.6964 127.754 83.6184 127.733C83.6964 127.754 83.7735 127.775 83.8478 127.795ZM107.14 204.321C107.155 204.317 107.171 204.312 107.186 204.308C107.171 204.313 107.155 204.317 107.14 204.321ZM106.109 204.528C106.161 204.522 106.214 204.516 106.268 204.508C106.214 204.516 106.162 204.522 106.109 204.528ZM105.845 204.55C105.903 204.547 105.962 204.544 106.022 204.538C105.961 204.544 105.903 204.547 105.845 204.55ZM106.827 204.4C106.844 204.396 106.86 204.392 106.877 204.388C106.86 204.392 106.844 204.396 106.827 204.4ZM82.4925 127.425C82.5787 127.449 82.664 127.473 82.7481 127.496C82.664 127.473 82.5787 127.45 82.4925 127.425ZM146.11 105.711C146.225 105.647 146.339 105.583 146.449 105.519C146.339 105.583 146.225 105.647 146.11 105.711ZM131.597 150.685C131.744 150.651 131.888 150.623 132.035 150.589C131.888 150.622 131.744 150.651 131.597 150.685ZM144.843 106.381C144.966 106.319 145.088 106.257 145.208 106.195C145.088 106.256 144.966 106.319 144.843 106.381ZM145.575 106.002C145.609 105.984 145.644 105.965 145.678 105.947C145.644 105.965 145.609 105.983 145.575 106.002ZM143.914 146.771C143.578 146.909 143.243 147.043 142.91 147.174C143.243 147.042 143.578 146.909 143.914 146.771ZM136.903 149.275C137.212 149.18 137.52 149.088 137.831 148.988C137.52 149.088 137.212 149.181 136.903 149.275ZM139.827 148.322C139.507 148.434 139.188 148.54 138.87 148.646C139.188 148.539 139.506 148.433 139.827 148.322Z" fill="#E2E2E2"/>
<path id="color_x5F_3" d="M145.101 159.968C143.831 166.493 131.749 201.479 130.667 204.608L130.22 150.985C134.98 150.011 140.077 148.453 145.472 146.121H145.765C145.765 146.121 146.43 153.121 145.101 159.968ZM124.691 151.883C102.798 154.507 89.3848 144.946 89.3848 144.946C89.3848 144.946 84.2846 170.478 104.732 204.17C105.551 205.53 110.898 202.841 110.898 202.841L113.077 162.302C113.077 162.302 118.24 177.479 121.083 191.497C123.912 205.515 124.082 205.005 124.082 205.005L126.111 204.952L126.076 203.574L124.691 151.883Z" fill="#A71010"/>
<path id="color_x5F_2" d="M128.224 120.217C128.384 120.194 128.549 120.17 128.712 120.147C128.491 120.181 128.273 120.213 128.057 120.245C128.113 120.242 128.168 120.231 128.224 120.217ZM115.945 137.189C116.051 137.131 116.154 137.071 116.257 137.011C116.154 137.071 116.05 137.131 115.945 137.189ZM115.945 137.189C115.898 137.216 115.85 137.241 115.803 137.267C115.85 137.241 115.898 137.216 115.945 137.189ZM116.405 136.923C116.357 136.953 116.306 136.982 116.256 137.011C116.306 136.982 116.357 136.953 116.405 136.923ZM116.707 136.732C116.608 136.796 116.509 136.86 116.405 136.923C116.509 136.86 116.608 136.796 116.707 136.732ZM116.707 136.732C116.749 136.705 116.793 136.678 116.835 136.65C116.793 136.677 116.749 136.704 116.707 136.732ZM114.885 137.731C114.89 137.729 114.894 137.727 114.898 137.725C114.894 137.727 114.89 137.729 114.885 137.731ZM115.803 137.267C115.686 137.33 115.569 137.392 115.45 137.453C115.568 137.392 115.686 137.33 115.803 137.267ZM115.344 137.507C115.196 137.581 115.048 137.654 114.899 137.724C115.048 137.654 115.196 137.581 115.344 137.507ZM124.226 125.587C123.961 125.526 123.702 125.463 123.448 125.397C122.845 129.524 121.422 135.379 118.147 137.712C116.385 138.979 113.819 139.397 111.347 139.119C111.834 138.962 113.363 138.45 114.885 137.731C113.036 138.604 111.177 139.166 111.177 139.166C111.177 139.166 99.2916 142.89 89.3542 144.884C89.3697 144.899 89.3697 144.93 89.3852 144.946C89.3852 144.946 102.8 154.51 124.695 151.885L123.99 125.534C124.067 125.553 124.148 125.569 124.226 125.587ZM117.23 136.369C117.104 136.464 116.972 136.558 116.835 136.65C116.971 136.557 117.104 136.464 117.23 136.369ZM138.347 118.425C138.321 118.431 138.281 118.439 138.228 118.45C138.279 118.44 138.322 118.431 138.347 118.425ZM148.934 101.687C148.501 101.3 131.593 84.3918 107.73 86.2312L107.359 86.448C107.406 86.7721 107.421 87.097 107.406 87.4371C107.282 90.1105 106.896 92.3671 105.906 93.1549C104.902 93.9436 105.736 95.2731 105.396 97.653C105.072 100.033 100.559 101.409 98.5961 100.28C97.3343 99.5552 96.6966 98.8376 95.7716 98.3388C95.7606 98.311 95.7476 98.2841 95.7369 98.2559C95.7059 98.1783 95.6288 98.1322 95.5516 98.1632C95.5304 98.1718 95.5124 98.1853 95.4965 98.2016C95.0414 97.9922 94.5086 97.8326 93.8049 97.7456C92.6305 97.5913 91.4556 96.7872 90.4355 95.9524L90.2191 96.0765C90.2191 96.0765 85.8325 98.1853 81.4524 103.087C81.4532 103.032 81.4561 102.978 81.4561 102.923C81.4561 102.707 81.4561 102.49 81.4406 102.289C81.4406 102.197 81.3634 102.119 81.2708 102.119C81.2708 102.119 81.2708 102.119 81.2552 102.119C81.1626 102.135 81.1005 102.212 81.1005 102.305C81.116 102.506 81.116 102.707 81.116 102.923C81.116 103.112 81.1099 103.3 81.1005 103.487C79.3677 105.488 77.6585 107.932 76.2371 110.859C76.2008 110.857 76.1628 110.863 76.124 110.882C75.4129 111.315 74.6096 111.733 73.7748 112.104C73.6821 112.149 73.6511 112.258 73.6821 112.335C73.7131 112.397 73.7748 112.443 73.8523 112.443C73.8678 112.443 73.8985 112.428 73.914 112.428C74.6451 112.096 75.339 111.739 75.9914 111.361C74.8749 113.763 73.9658 116.487 73.391 119.542C72.8089 119.433 72.2546 119.301 71.7349 119.151C71.6268 119.12 71.5186 119.073 71.4104 119.042C71.3333 119.011 71.2251 119.058 71.1941 119.151C71.163 119.243 71.2096 119.336 71.3022 119.367C71.4104 119.398 71.5186 119.445 71.6268 119.476C72.157 119.637 72.7306 119.772 73.3278 119.882C73.1959 120.62 73.0767 121.371 72.9869 122.149C72.8167 123.555 73.4196 124.096 74.3161 124.715C74.4087 124.777 74.5479 124.869 74.7177 124.962C78.4423 126.445 85.6598 128.27 85.6598 128.27C85.6598 128.27 86.2628 131.917 87.051 135.858C88.9023 135.858 100.904 135.846 104.529 135.746C103.958 134.959 103.635 134.048 103.635 133.045C103.696 127.759 106.648 120.974 106.648 120.974H105.087V114.543C105.223 114.497 105.358 114.45 105.489 114.406C105.566 114.375 105.613 114.282 105.582 114.189C105.551 114.097 105.458 114.05 105.365 114.081C105.275 114.112 105.18 114.145 105.087 114.177V112.196C105.087 112.196 105.134 100.959 114.097 100.959L133.2 101.933C133.2 101.933 136.397 104.049 137.913 109.456C138.921 109.052 142.114 107.753 144.745 106.431C146.414 105.597 147.867 104.731 148.439 104.081C149.938 102.242 149.382 102.073 148.934 101.687ZM130.666 126.431C130.446 126.422 130.231 126.409 130.016 126.396L130.213 150.988C135.305 149.946 140.783 148.236 146.6 145.625C146.6 145.625 147.944 136.893 144.559 125.147C140.634 126.183 135.611 126.631 130.666 126.431ZM115.303 83.1717C116.123 83.2027 116.911 83.2333 117.668 83.2643C117.745 83.2643 117.807 83.2027 117.823 83.1247C117.823 83.0476 117.761 82.9704 117.668 82.9704C116.926 82.9394 116.138 82.9088 115.319 82.8778C115.242 82.8778 115.164 82.9239 115.164 83.0166C115.164 83.0937 115.226 83.1554 115.303 83.1717ZM110.574 82.9394L112.939 83.0476C112.939 83.0476 112.939 83.0476 112.954 83.0476C113.031 83.0476 113.093 82.9859 113.093 82.9088C113.093 82.8316 113.032 82.7692 112.954 82.7545L110.589 82.6459C110.512 82.6459 110.45 82.7075 110.435 82.7855C110.435 82.8623 110.497 82.9394 110.574 82.9394ZM105.876 83.1554C105.876 83.1554 105.891 83.1554 105.907 83.1554C106.648 83.0317 107.437 82.9545 108.225 82.9239C108.318 82.9239 108.38 82.8467 108.364 82.7688C108.364 82.692 108.287 82.6304 108.225 82.6304C107.406 82.6614 106.618 82.7378 105.845 82.8619C105.768 82.8774 105.721 82.9545 105.736 83.0317C105.736 83.1096 105.798 83.1554 105.876 83.1554ZM101.378 84.5625C101.409 84.5625 101.425 84.5625 101.455 84.5469C102.12 84.222 102.861 83.9289 103.619 83.6815C103.696 83.6656 103.742 83.5885 103.711 83.5113C103.696 83.4342 103.619 83.3876 103.526 83.4031C102.753 83.6509 102.012 83.944 101.316 84.2845C101.239 84.3302 101.223 84.4082 101.254 84.4845C101.285 84.5314 101.332 84.5625 101.378 84.5625ZM80.6527 99.7083C80.6837 99.77 80.7454 99.832 80.8225 99.832C80.838 99.832 80.8536 99.8169 80.8691 99.8169C80.9617 99.7855 81.0083 99.6928 80.9772 99.6001C80.7144 98.7188 80.3592 97.8844 79.8955 97.1121C79.849 97.0345 79.7408 97.0194 79.6636 97.0652C79.5865 97.1121 79.5554 97.2203 79.602 97.2974C80.0498 98.0236 80.4053 98.8425 80.6527 99.7083ZM94.9952 96.1691C95.0107 96.1691 95.0107 96.1691 95.0262 96.1691C95.1034 96.1536 95.1654 96.092 95.1499 96.014C95.0728 95.5046 95.0418 94.9943 95.0418 94.4844C95.0418 94.222 95.0418 93.9436 95.0728 93.6811C95.0728 93.6035 95.0111 93.5268 94.9336 93.5268C94.8409 93.5268 94.7789 93.5725 94.7789 93.6652C94.7478 93.9281 94.7478 94.206 94.7478 94.4844C94.7478 95.0098 94.7789 95.5356 94.856 96.045C94.8715 96.1226 94.9332 96.1691 94.9952 96.1691ZM97.638 87.4061C97.6845 87.4061 97.7306 87.3905 97.7617 87.3595C98.2564 86.7876 98.8434 86.2467 99.4619 85.783C99.5235 85.7214 99.539 85.6279 99.4929 85.5663C99.4464 85.5046 99.3537 85.4895 99.292 85.5352C98.643 86.0304 98.0556 86.5713 97.5302 87.1583C97.4837 87.2199 97.4837 87.3126 97.5457 87.3746C97.5759 87.3905 97.607 87.4061 97.638 87.4061ZM95.3042 91.4861C95.3197 91.5016 95.3353 91.5016 95.3508 91.5016C95.4124 91.5016 95.4745 91.4555 95.49 91.3935C95.7218 90.6513 96.0309 89.9402 96.4019 89.2606C96.4485 89.1834 96.4174 89.0903 96.3558 89.0593C96.2786 89.0136 96.1856 89.0446 96.1549 89.1063C95.7533 89.8014 95.4438 90.5432 95.212 91.3159C95.1961 91.3935 95.2271 91.4706 95.3042 91.4861ZM75.7534 93.8199C76.5571 94.1909 77.2833 94.6702 77.9479 95.2568C77.9789 95.2878 78.0096 95.3037 78.0561 95.3037C78.1026 95.3037 78.1488 95.2878 78.1798 95.2568C78.2414 95.1796 78.2414 95.0714 78.1643 95.0098C77.4997 94.3918 76.727 93.897 75.8922 93.5105C75.815 93.4794 75.7068 93.5104 75.6758 93.6031C75.6297 93.6811 75.6762 93.7889 75.7534 93.8199ZM136.26 76.186C136.292 76.2007 136.307 76.217 136.338 76.217C136.384 76.217 136.43 76.186 136.461 76.1394C136.879 75.3977 137.188 74.656 137.373 73.9139C137.389 73.8371 137.342 73.7596 137.265 73.744C137.188 73.713 137.11 73.7751 137.08 73.8522C136.91 74.5637 136.616 75.274 136.214 75.9851C136.168 76.0619 136.198 76.1549 136.26 76.186ZM137.234 71.5491C137.25 71.6258 137.311 71.6875 137.389 71.6875C137.389 71.6875 137.389 71.6875 137.404 71.6875C137.481 71.6724 137.543 71.6107 137.528 71.5177C137.435 70.7449 137.219 69.9722 136.848 69.2149C136.817 69.1533 136.74 69.1068 136.663 69.1533C136.585 69.1843 136.554 69.277 136.585 69.3386C136.941 70.0648 137.157 70.807 137.234 71.5491ZM120.032 83.3407C120.62 83.3566 121.176 83.3566 121.717 83.3566C121.949 83.3566 122.181 83.3566 122.397 83.3566C122.474 83.3566 122.536 83.295 122.536 83.217C122.536 83.1243 122.475 83.0627 122.397 83.0627C121.656 83.0786 120.867 83.0627 120.032 83.0472C119.955 83.0472 119.878 83.1096 119.878 83.186C119.878 83.279 119.94 83.3407 120.032 83.3407ZM135.24 67.3449C135.271 67.3915 135.318 67.4066 135.349 67.4066C135.38 67.4066 135.426 67.3911 135.457 67.3604C135.503 67.3143 135.518 67.2216 135.457 67.1596C134.977 66.6187 134.622 66.3248 134.607 66.3248C134.545 66.2632 134.452 66.2787 134.39 66.3407C134.344 66.4175 134.359 66.495 134.421 66.5571C134.421 66.5571 134.777 66.8351 135.24 67.3449ZM124.762 83.2643C125.642 83.2027 126.415 83.11 127.126 82.9704C127.203 82.9549 127.25 82.8778 127.25 82.8006C127.219 82.7235 127.157 82.6765 127.065 82.6765C126.369 82.8161 125.612 82.9088 124.746 82.9704C124.669 82.9704 124.607 83.0476 124.607 83.1247C124.607 83.2023 124.684 83.2643 124.762 83.2643ZM129.367 82.352C129.383 82.352 129.414 82.352 129.429 82.352C130.186 82.0585 130.882 81.7185 131.562 81.2702C131.624 81.2392 131.655 81.1465 131.608 81.0694C131.562 81.0078 131.469 80.9918 131.407 81.0224C130.743 81.456 130.063 81.7956 129.321 82.0736C129.244 82.1046 129.213 82.1822 129.228 82.2593C129.259 82.3214 129.305 82.352 129.367 82.352ZM133.339 79.848C133.37 79.848 133.401 79.8333 133.432 79.8023C133.973 79.3071 134.498 78.7352 135.07 78.0707C135.117 78.009 135.117 77.9164 135.055 77.8698C134.993 77.8082 134.9 77.8237 134.838 77.8853C134.282 78.5348 133.757 79.0908 133.231 79.5856C133.169 79.648 133.169 79.7407 133.231 79.8023C133.262 79.8329 133.293 79.848 133.339 79.848ZM47.9493 101.996C47.9183 101.918 47.8256 101.872 47.7329 101.903C47.6403 101.934 47.5937 102.027 47.6248 102.119C47.9183 102.954 48.2738 103.788 48.6759 104.608C48.7069 104.669 48.7531 104.7 48.8306 104.7C48.8461 104.7 48.8771 104.7 48.8923 104.684C48.9849 104.639 49.0159 104.546 48.9694 104.453C48.5832 103.649 48.2277 102.83 47.9493 101.996ZM63.992 96.4932C63.9148 96.4475 63.8067 96.4781 63.7601 96.5549C63.2964 97.2815 62.9102 98.1159 62.6008 99.0127C62.5698 99.0899 62.6163 99.1981 62.709 99.2291C62.7245 99.2291 62.74 99.2291 62.7555 99.2291C62.8327 99.2291 62.8947 99.1981 62.9253 99.1209C63.2188 98.2396 63.6054 97.4362 64.0381 96.741C64.1002 96.6484 64.0691 96.5549 63.992 96.4932ZM62.122 104.345V104.252C62.122 103.386 62.1836 102.521 62.3073 101.702C62.3228 101.609 62.2608 101.516 62.1526 101.501C62.0599 101.485 61.9824 101.547 61.9673 101.64C61.8436 102.49 61.7819 103.371 61.7819 104.252V104.344C61.7819 104.437 61.8591 104.515 61.9517 104.515C62.0444 104.515 62.122 104.437 62.122 104.345ZM66.9131 116.338C66.8515 116.276 66.7429 116.276 66.6813 116.354C66.6041 116.415 66.6196 116.523 66.6813 116.586C67.3458 117.219 68.0725 117.775 68.8452 118.224C68.8762 118.239 68.9069 118.255 68.9379 118.255C68.984 118.255 69.0461 118.224 69.0771 118.177C69.1232 118.085 69.0926 117.992 69.0154 117.93C68.2729 117.497 67.5622 116.956 66.9131 116.338ZM62.3228 106.988C62.3073 106.895 62.2146 106.834 62.122 106.848C62.0293 106.864 61.9673 106.941 61.9828 107.034C62.1065 107.93 62.3073 108.827 62.5702 109.676C62.5857 109.754 62.6629 109.8 62.7249 109.8C62.7404 109.8 62.7559 109.8 62.7865 109.8C62.8637 109.769 62.9257 109.676 62.8947 109.584C62.6473 108.749 62.4465 107.868 62.3228 106.988ZM66.0784 114.159C65.7538 114.205 65.4293 114.221 65.1048 114.236C64.641 113.572 64.2083 112.83 63.8528 112.057C63.8067 111.98 63.6981 111.949 63.6209 111.98C63.5283 112.026 63.4972 112.118 63.5438 112.211C63.8838 112.938 64.27 113.618 64.7182 114.267C64.3937 114.282 64.0691 114.282 63.7446 114.282H63.4201C63.3274 114.282 63.2503 114.36 63.2503 114.453C63.2503 114.545 63.3274 114.622 63.4201 114.622H63.7446C64.1463 114.622 64.5484 114.622 64.9656 114.591C65.0117 114.622 65.0893 114.622 65.1509 114.591V114.576C65.4754 114.56 65.8 114.529 66.109 114.498C66.2171 114.498 66.2788 114.406 66.2637 114.313C66.2637 114.221 66.1865 114.143 66.0784 114.159ZM111.13 107.25C111.872 107.189 112.305 107.065 112.32 107.065C112.397 107.05 112.444 106.972 112.428 106.879C112.397 106.803 112.32 106.756 112.243 106.787C112.243 106.787 111.826 106.895 111.099 106.957C111.022 106.957 110.96 107.034 110.975 107.111C110.975 107.188 111.037 107.25 111.115 107.25H111.13V107.25ZM108.039 113.479C108.055 113.479 108.085 113.479 108.101 113.463C108.92 113.169 109.368 112.984 109.368 112.984C109.461 112.953 109.508 112.845 109.477 112.768C109.43 112.675 109.337 112.628 109.245 112.675C109.245 112.675 108.796 112.845 107.978 113.154C107.885 113.185 107.854 113.278 107.885 113.371C107.9 113.432 107.978 113.479 108.039 113.479ZM108.766 107.235C108.843 107.235 108.905 107.189 108.905 107.111C108.921 107.034 108.858 106.957 108.781 106.941C108.009 106.879 107.236 106.756 106.463 106.555C106.386 106.539 106.308 106.586 106.293 106.663C106.262 106.741 106.324 106.833 106.401 106.848C107.174 107.034 107.978 107.173 108.75 107.235C108.75 107.235 108.75 107.235 108.766 107.235ZM55.7698 112.428C54.9815 111.995 54.2553 111.485 53.6059 110.913C53.5287 110.836 53.4205 110.851 53.3585 110.913C53.2969 110.99 53.312 111.099 53.374 111.161C54.0541 111.748 54.7958 112.273 55.5996 112.721C55.6306 112.737 55.6612 112.737 55.6767 112.737C55.7384 112.737 55.8004 112.706 55.8314 112.66C55.878 112.567 55.847 112.459 55.7698 112.428ZM65.6301 94.7939C65.6767 94.7939 65.7228 94.7779 65.7538 94.7469C66.4339 94.175 67.1911 93.7427 68.0104 93.4647C68.1031 93.4333 68.1496 93.3406 68.1186 93.248C68.0876 93.1549 67.9949 93.1092 67.9022 93.1398C67.0368 93.4333 66.2486 93.8815 65.522 94.484C65.4603 94.5457 65.4448 94.6538 65.5064 94.7318C65.5375 94.7628 65.584 94.7939 65.6301 94.7939ZM46.9602 96.8027C46.9447 96.71 46.883 96.6484 46.7749 96.6484C46.6822 96.6484 46.6046 96.7255 46.6202 96.8182C46.6512 97.6987 46.7438 98.6111 46.9292 99.5071C46.9447 99.5846 47.0063 99.6467 47.0839 99.6467C47.0994 99.6467 47.1149 99.6467 47.1304 99.6467C47.2231 99.6312 47.2696 99.5385 47.2541 99.4454C47.0839 98.549 46.9912 97.6681 46.9602 96.8027ZM68.7521 114.081C68.7676 114.081 68.7677 114.081 68.7832 114.081C69.6641 113.896 70.545 113.664 71.3949 113.386C71.4876 113.355 71.5341 113.262 71.5031 113.169C71.472 113.077 71.3794 113.031 71.2867 113.061C70.4523 113.34 69.5865 113.572 68.7211 113.741C68.6284 113.772 68.5664 113.865 68.5819 113.958C68.5974 114.035 68.675 114.081 68.7521 114.081ZM60.7773 114.066C59.8809 113.927 59.0155 113.727 58.1962 113.463C58.1035 113.432 58.0109 113.479 57.9799 113.572C57.9488 113.664 57.9954 113.757 58.088 113.788C58.9228 114.066 59.8037 114.268 60.7308 114.406H60.7463C60.839 114.406 60.901 114.344 60.9165 114.268C60.9316 114.174 60.87 114.081 60.7773 114.066ZM70.6066 93.0006C70.9312 92.9859 71.2557 92.9696 71.5647 92.9696C72.1366 92.9549 72.693 93.0006 73.2339 93.0933C73.2494 93.0933 73.2494 93.0933 73.2649 93.0933C73.3421 93.0933 73.4196 93.0316 73.4347 92.939C73.4502 92.8463 73.3731 92.7691 73.28 92.7536C72.7391 92.661 72.1672 92.6299 71.5798 92.6299C71.2553 92.6144 70.9153 92.6454 70.5752 92.661C70.4825 92.6765 70.4054 92.7536 70.4205 92.8463C70.4213 92.9385 70.514 93.0006 70.6066 93.0006ZM50.283 106.772C50.2365 106.694 50.1283 106.679 50.0512 106.725C49.974 106.772 49.943 106.879 49.9895 106.957C50.4533 107.699 50.9786 108.44 51.5505 109.167C51.5815 109.214 51.6277 109.228 51.6897 109.228C51.7207 109.228 51.7514 109.213 51.7824 109.197C51.8595 109.136 51.8751 109.027 51.8134 108.95C51.257 108.24 50.7468 107.498 50.283 106.772ZM47.3002 92.6606C47.2076 92.6144 47.1149 92.6761 47.0839 92.7687C47.0684 92.7842 46.8985 93.2635 46.7749 94.113C46.7593 94.2056 46.821 94.2983 46.9141 94.3142H46.9296C47.0222 94.3142 47.0994 94.2526 47.0994 94.1746C47.2386 93.3402 47.3929 92.8765 47.4084 92.8765C47.4394 92.7842 47.3929 92.6916 47.3002 92.6606Z" fill="#072948"/>
<path id="color_x5F_1" d="M5.84961 212.129H33.1124V213.659H5.84961V212.129ZM105.088 120.974H113.693C113.561 120.895 113.438 120.821 113.325 120.758C111.238 119.599 111.069 117.59 111.903 117.59C112.738 117.59 117.668 120.511 119.167 120.511C120.666 120.511 118.997 118.254 119.492 117.265C120.001 116.261 120.836 116.091 121.161 117.42C121.501 118.765 121.918 120.017 123.17 120.588C123.294 120.646 123.537 120.672 123.87 120.674L123.541 112.103C123.541 112.103 123.557 112.056 123.557 111.964L123.464 109.275C123.402 108.78 123.309 108.255 123.155 107.698C122.459 105.875 120.157 101.64 114.098 100.959C105.134 100.959 105.088 112.195 105.088 112.195V120.974ZM36.4818 213.598H107.761V212.067H36.4818V213.598ZM81.3177 89.8639C81.3487 89.9096 81.394 89.9712 81.425 90.017C81.4267 90.0149 81.9839 88.7356 84.0527 89.5075C84.5666 89.7047 85.0071 90.0121 85.379 90.3619C86.493 91.4106 86.9885 92.8426 86.9898 92.8459L88.7202 92.9545C88.7202 92.9545 85.2736 88.5033 85.15 86.1688C85.0418 83.8354 87.3755 79.4459 92.1667 79.23C95.2577 79.0757 98.0241 78.7197 100.544 77.6224C100.822 77.7461 101.116 77.9009 101.44 78.1013C101.814 78.336 102.153 78.6046 102.457 78.8863C103.769 80.0991 104.431 81.5478 104.438 81.5621L102.986 76.2627H102.939L102.94 76.2623H102.939C103.449 75.9071 103.959 75.5051 104.453 75.0568C107.962 71.8271 111.347 64.2695 102.058 59.4477C102.058 59.4477 97.2208 57.5307 92.7231 59.0301C88.2103 60.5445 87.8858 63.2955 87.4682 67.8858C87.051 72.4606 82.3835 72.7235 80.4514 75.799C78.5524 78.8614 77.4005 85.6095 81.3177 89.8974C81.3185 89.8863 81.3173 89.8745 81.3177 89.8639ZM167.573 213.598H174.064V212.067H167.573V213.598ZM177.696 212.268V213.799H210.94V212.268H177.696ZM137.08 211.094C135.936 210.183 134.329 210.121 133.355 210.352C132.381 210.569 130.542 208.9 130.542 208.9L129.723 208.862V208.868L126.118 208.695L125.874 208.683C125.874 208.683 125.395 208.683 125.117 208.791C124.839 208.9 124.7 211.295 124.839 211.96C124.87 212.067 124.9 212.176 124.931 212.269H113.294V213.799H163.168V212.269H137.621C137.636 211.882 137.528 211.464 137.08 211.094ZM111.517 207.045C111.238 206.921 110.759 206.921 110.759 206.921L110.326 206.943V206.952L106.849 207.115L106.092 207.152C106.092 207.152 104.253 208.822 103.279 208.59C102.305 208.374 100.698 208.436 99.5541 209.347C98.4258 210.259 99.4149 211.573 99.4149 211.573L111.315 211.233C111.315 211.233 111.656 210.878 111.795 210.213C111.934 209.533 111.795 207.153 111.517 207.045Z" fill="#072948"/>
</g>
</svg>
