<svg width="358" height="195" viewBox="0 0 358 195" fill="none" xmlns="http://www.w3.org/2000/svg">
<path
        d="M204.223 142.465C203.899 141.707 204.052 140.904 204.53 140.298C205.349 140.465 206.065 140.98 206.389 141.722C206.713 142.48 206.56 143.283 206.065 143.889C205.247 143.722 204.53 143.208 204.223 142.465ZM207.413 140.723C207.89 140.117 208.044 139.299 207.737 138.556C207.413 137.799 206.697 137.284 205.878 137.117C205.383 137.723 205.23 138.526 205.554 139.284C205.878 140.026 206.594 140.556 207.413 140.723ZM208.999 137.663C209.493 137.057 209.647 136.238 209.323 135.496C208.999 134.739 208.3 134.223 207.464 134.057C206.986 134.663 206.833 135.466 207.14 136.223C207.464 136.966 208.18 137.481 208.999 137.663ZM214.678 130.088C215.241 129.542 215.497 128.755 215.292 127.967C215.07 127.194 214.44 126.604 213.638 126.346C213.075 126.892 212.819 127.68 213.024 128.467C213.245 129.239 213.877 129.83 214.678 130.088ZM216.895 128.073C217.492 127.543 217.799 126.77 217.629 125.982C217.441 125.194 216.844 124.573 216.06 124.285C215.463 124.815 215.156 125.588 215.343 126.376C215.514 127.164 216.128 127.785 216.895 128.073ZM172.956 139.306C172.953 139.306 172.95 139.307 172.947 139.307H172.95L172.956 139.306ZM173.262 139.258C173.251 139.26 173.24 139.261 173.229 139.262H173.239L173.262 139.258ZM197.829 148.01V147.995H197.845C198.024 147.771 198.838 146.878 200.028 146.131C198.676 146.979 197.819 148.006 197.795 148.034C197.795 148.036 197.795 148.04 197.795 148.04L197.812 148.025L197.829 148.01ZM198.783 139.979C198.817 140.023 198.85 140.068 198.884 140.113C198.843 140.056 198.803 140.001 198.759 139.946C198.767 139.957 198.775 139.968 198.783 139.979ZM187.068 141.463C187.71 139.886 188.808 137.417 190.944 136.904C188.806 137.415 187.707 139.883 187.065 141.462C187.066 141.462 187.067 141.463 187.068 141.463ZM200.052 146.116C200.205 146.02 200.366 145.927 200.531 145.838C200.365 145.927 200.206 146.02 200.052 146.116ZM217.816 127.467C217.868 127.421 217.902 127.391 217.953 127.346C217.953 127.346 217.902 127.391 217.816 127.467ZM198.13 139.284C198.193 139.341 198.257 139.399 198.317 139.458C198.283 139.415 198.236 139.371 198.187 139.342C198.171 139.321 198.15 139.304 198.13 139.284ZM174.397 139.127C174.397 139.127 174.396 139.127 174.396 139.127H174.397H174.397ZM210.5 135.148C210.995 134.541 211.148 133.739 210.824 132.981C210.517 132.224 209.801 131.709 208.983 131.542C208.488 132.148 208.335 132.951 208.658 133.709C208.964 134.466 209.681 134.981 210.5 135.148ZM231.665 138.178C231.955 137.405 231.768 136.602 231.239 136.027C230.437 136.224 229.738 136.754 229.465 137.527C229.175 138.284 229.363 139.087 229.874 139.678C230.694 139.48 231.376 138.935 231.665 138.178ZM226.225 141.905C225.406 141.571 224.485 141.647 223.769 142.041C223.905 142.783 224.451 143.45 225.269 143.783C226.105 144.117 227.009 144.026 227.726 143.631C227.59 142.89 227.061 142.223 226.225 141.905ZM231.017 139.541C231.086 139.541 231.137 139.526 231.205 139.511C231.205 139.511 231.137 139.526 231.017 139.541ZM231.563 141.707C232.348 142.132 233.269 142.147 234.036 141.829C233.985 141.071 233.558 140.359 232.774 139.95C232.006 139.526 231.085 139.511 230.318 139.829C230.352 140.571 230.796 141.299 231.563 141.707ZM233.729 139.269C234.411 138.981 234.855 138.405 234.957 137.784C234.343 137.465 233.576 137.405 232.893 137.693C232.194 137.981 231.751 138.557 231.648 139.178C232.263 139.496 233.03 139.556 233.729 139.269ZM228.203 142.768C228.937 143.223 229.858 143.298 230.642 143.026C230.677 142.284 230.284 141.541 229.551 141.071C228.818 140.617 227.896 140.541 227.112 140.799C227.077 141.556 227.47 142.299 228.203 142.768ZM217.22 132.451C216.691 131.876 215.855 131.527 214.951 131.603C214.048 131.679 213.297 132.149 212.904 132.8C213.416 133.39 214.251 133.739 215.156 133.663C216.06 133.587 216.81 133.118 217.22 132.451ZM219.181 142.829C219.318 142.026 218.976 141.269 218.362 140.768C217.594 141.071 217.015 141.707 216.878 142.511C216.742 143.298 217.066 144.056 217.697 144.571C218.464 144.253 219.044 143.616 219.181 142.829ZM228.528 138.89C228.783 138.117 228.544 137.314 227.999 136.754C227.197 136.981 226.549 137.556 226.293 138.329C226.054 139.102 226.276 139.89 226.822 140.465C227.623 140.223 228.289 139.663 228.528 138.89ZM217.39 129.436C216.487 129.36 215.651 129.694 215.105 130.27C215.498 130.921 216.248 131.406 217.152 131.497C218.055 131.573 218.891 131.239 219.42 130.663C219.028 129.997 218.294 129.512 217.39 129.436ZM213.791 144.48C213.655 145.268 213.996 146.041 214.61 146.54C215.378 146.222 215.957 145.586 216.094 144.798C216.23 144.01 215.906 143.238 215.292 142.738C214.525 143.056 213.945 143.677 213.791 144.48ZM219.573 140.981C219.437 141.768 219.778 142.541 220.392 143.041C221.16 142.723 221.739 142.102 221.876 141.299C222.013 140.511 221.688 139.738 221.057 139.238C220.307 139.556 219.727 140.193 219.573 140.981ZM220.017 126.043C220.46 125.482 220.528 124.8 220.272 124.209C219.556 124.194 218.857 124.482 218.413 125.027C217.97 125.588 217.902 126.27 218.158 126.86C218.874 126.876 219.573 126.588 220.017 126.043ZM217.373 128.012C217.816 128.648 218.584 129.088 219.505 129.103C220.408 129.133 221.21 128.739 221.705 128.133C221.262 127.497 220.477 127.058 219.573 127.043C218.67 127.012 217.851 127.406 217.373 128.012ZM39.3646 131.648C38.58 132.072 38.1534 132.785 38.1022 133.542C38.87 133.86 39.7905 133.845 40.5583 133.421C41.3429 133.012 41.7863 132.284 41.8206 131.542C41.0529 131.224 40.1323 131.239 39.3646 131.648ZM41.1215 131.254C41.0529 131.239 41.0017 131.239 40.9337 131.224C40.9337 131.224 41.0023 131.239 41.1215 131.254ZM46.8693 135.496C47.6882 135.162 48.2165 134.496 48.3531 133.754C47.6539 133.36 46.7327 133.284 45.9139 133.602C45.0781 133.936 44.5492 134.602 44.4133 135.345C45.1293 135.739 46.0336 135.829 46.8693 135.496ZM42.2641 131.391C42.7755 130.8 42.9632 129.997 42.6732 129.24C42.4 128.467 41.7009 127.922 40.8994 127.725C40.3706 128.316 40.1828 129.119 40.4729 129.876C40.7635 130.648 41.4452 131.194 42.2641 131.391ZM45.317 132.163C45.8627 131.602 46.0847 130.815 45.8459 130.027C45.5902 129.254 44.9421 128.693 44.1401 128.467C43.5944 129.027 43.3555 129.815 43.6112 130.603C43.8501 131.375 44.5156 131.936 45.317 132.163ZM38.4097 130.981C39.1088 131.27 39.8766 131.209 40.4903 130.891C40.388 130.27 39.9446 129.694 39.2454 129.406C38.5631 129.118 37.796 129.163 37.1817 129.497C37.284 130.118 37.7274 130.693 38.4097 130.981ZM42.5884 132.785C41.8549 133.254 41.4626 133.997 41.4969 134.739C42.2815 135.012 43.1852 134.936 43.9361 134.467C44.6696 134.012 45.045 133.27 45.0276 132.512C44.2424 132.254 43.3218 132.315 42.5884 132.785ZM57.5287 138.253C58.1424 137.738 58.4836 136.981 58.3301 136.193C58.1936 135.39 57.6135 134.754 56.8464 134.451C56.2327 134.95 55.9084 135.708 56.045 136.511C56.1815 137.299 56.7616 137.935 57.5287 138.253ZM217.455 127.777C217.526 127.72 217.59 127.659 217.661 127.602C217.602 127.652 217.532 127.712 217.455 127.777ZM60.445 140.435C61.0594 139.935 61.3999 139.162 61.2639 138.375C61.1273 137.572 60.5473 136.935 59.797 136.632C59.1659 137.132 58.8247 137.89 58.9613 138.678C59.0979 139.48 59.6779 140.117 60.445 140.435ZM44.4981 148.783C44.4813 148.722 44.4813 148.752 44.4981 148.783V148.783ZM323.061 165.857C322.907 164.766 319.36 164.357 315.505 165.175C311.634 165.994 313.186 163.388 312.726 160.782C312.265 158.192 311.02 159.146 304.693 161.615C298.382 164.084 304.078 163.252 303.771 164.766C303.464 166.267 300.838 165.585 300.07 163.797C299.303 162.024 300.531 162.024 299.61 160.509C298.689 159.01 296.063 161.616 295.909 162.297C295.756 162.979 294.357 165.858 291.901 165.448C289.428 165.039 288.354 165.721 285.728 168.736C283.101 171.751 278.939 172.841 276.16 169.554C273.379 166.266 273.84 164.903 271.998 162.842C270.139 160.782 263.811 163.796 261.048 164.357C258.268 164.902 254.721 161.888 255.642 158.191C256.563 154.479 253.476 154.903 251.02 155.449C248.547 155.994 249.007 157.767 246.841 156.267C244.692 154.752 246.994 153.116 247.148 151.464C247.301 149.828 245.459 149.828 243.293 151.464C241.145 153.116 241.298 155.312 239.286 152.706C237.29 150.101 233.572 150.101 231.576 155.585C231.405 156.039 231.218 156.464 230.996 156.858C230.093 156.555 229.291 156.085 228.574 155.449C226.767 153.843 224.959 155.797 223.492 157.797C223.049 156.025 221.855 155.237 218.921 153.934C216.533 152.873 213.821 153.873 212.201 154.706C211.86 154.585 211.519 154.464 211.161 154.358C211.434 153.555 211.877 152.283 212.593 150.268C212.798 150.494 213.054 150.707 213.378 150.858C214.179 151.237 215.1 151.207 215.834 150.858C215.766 150.116 215.271 149.419 214.487 149.04C213.94 148.782 213.344 148.722 212.781 148.813C212.781 148.768 212.781 148.738 212.764 148.707C213.498 148.086 214.231 147.51 214.964 146.965C215.067 147.662 215.544 148.313 216.295 148.677C217.079 149.07 218.001 149.04 218.751 148.692C218.683 147.949 218.188 147.252 217.404 146.858C216.721 146.54 215.971 146.51 215.289 146.722C216.209 146.071 217.114 145.465 218.017 144.919C218.12 145.647 218.58 146.329 219.365 146.707C220.166 147.086 221.087 147.071 221.837 146.722C221.752 145.964 221.274 145.267 220.473 144.889C219.739 144.541 218.904 144.541 218.188 144.813C219.058 144.298 219.893 143.829 220.729 143.404C220.814 144.132 221.292 144.813 222.076 145.177C222.861 145.57 223.782 145.54 224.532 145.192C224.448 144.45 223.97 143.753 223.185 143.359C222.503 143.041 221.736 143.01 221.053 143.223C225.692 140.889 229.598 139.874 230.809 139.602C228.285 140.117 225.931 140.844 223.8 141.707C224.345 141.374 224.754 140.874 224.891 140.253C225.061 139.465 224.771 138.693 224.174 138.162C223.407 138.45 222.793 139.056 222.605 139.844C222.435 140.616 222.725 141.389 223.288 141.919C218.717 143.828 215.118 146.267 212.645 148.236C212.628 148.191 212.611 148.145 212.594 148.1C212.884 147.781 213.088 147.403 213.174 146.979C213.31 146.176 212.969 145.418 212.338 144.918C211.639 145.206 211.11 145.767 210.922 146.464C209.694 145.797 208.04 145.418 206.488 145.221C206.59 144.737 206.676 144.388 206.727 144.236C207.205 144.721 207.938 145.024 208.723 145.009C209.627 144.994 210.412 144.569 210.872 143.933C210.377 143.327 209.575 142.934 208.671 142.949C207.989 142.964 207.392 143.207 206.932 143.585C207.239 142.676 207.58 141.782 207.938 140.934C208.433 141.495 209.2 141.858 210.053 141.843C210.957 141.828 211.742 141.404 212.202 140.783C211.725 140.161 210.923 139.768 210.019 139.783C209.251 139.798 208.57 140.101 208.092 140.571C208.535 139.601 208.996 138.677 209.474 137.813C209.951 138.404 210.753 138.798 211.64 138.783C212.544 138.768 213.328 138.344 213.789 137.723C213.312 137.101 212.51 136.708 211.606 136.723C210.77 136.738 210.037 137.101 209.559 137.647C210.019 136.828 210.497 136.041 210.992 135.314C211.469 135.905 212.254 136.283 213.141 136.283C214.045 136.268 214.847 135.844 215.29 135.207C214.813 134.601 214.011 134.192 213.107 134.207C212.339 134.222 211.658 134.54 211.18 135.01C213.729 131.219 216.38 128.71 217.455 127.778C215.636 129.274 214.062 130.877 212.732 132.496C213.022 131.98 213.09 131.359 212.869 130.753C212.596 129.995 211.914 129.45 211.095 129.238C210.583 129.829 210.378 130.632 210.668 131.389C210.941 132.147 211.606 132.692 212.408 132.904C208.656 137.586 206.78 142.358 205.91 145.161C205.006 145.07 204.17 145.024 203.505 145.024C202.419 145.024 201.423 145.365 200.574 145.815C200.54 146.542 200.523 147.39 200.523 148.586C200.523 152.359 199.773 154.131 202.774 155.237C205.759 156.358 207.021 155.904 207.26 158.131C207.516 160.343 198.766 160.343 208.266 162.115C217.749 163.888 214.423 161.979 219.079 163.16C223.753 164.342 221.245 163.751 223.753 166.402C226.242 169.069 228.408 167.887 230.063 167.584C231.735 167.296 233.065 166.266 232.741 168.629C232.399 170.993 231.905 171.887 233.559 172.326C235.231 172.765 235.572 171.432 236.237 172.917C236.902 174.386 234.889 174.25 236.902 175.128C238.897 176.023 240.227 175.28 242.718 175.72C245.225 176.174 248.38 177.946 248.38 178.537V179.052H297.739C307.171 178.537 315.835 175.537 322.947 170.795C323.015 170.204 323.066 169.765 323.066 169.553C323.066 168.872 323.219 166.948 323.061 165.857ZM248.38 179.042V179.052H73.9871C55.9421 175.265 41.326 163.63 34.9302 148.419C35.2027 147.873 36.4994 145.571 38.8188 146.54C41.4452 147.631 40.5072 149.555 40.9849 150.646C41.4452 151.737 44.9927 155.994 44.6858 151.328C44.5492 149.449 44.4981 148.904 44.4981 148.783C44.4981 148.828 44.5324 148.813 44.5324 147.904C44.5324 145.571 46.3741 144.48 47.1419 144.889C47.9265 145.298 48.2333 145.57 48.2333 147.086C48.2333 148.586 49.6148 148.313 49.9217 145.995C50.2285 143.661 47.2953 143.389 50.3819 141.737C51.5757 141.101 52.5991 140.556 53.418 140.192C53.5546 139.526 54.0149 138.92 54.7315 138.571C55.4138 138.253 56.1641 138.223 56.8464 138.435C55.9252 137.768 55.0215 137.177 54.1178 136.617C54.0155 137.359 53.5552 138.041 52.7706 138.42C51.9692 138.798 51.048 138.768 50.2977 138.42C50.3831 137.678 50.8603 136.981 51.6623 136.602C52.3958 136.253 53.2315 136.238 53.9475 136.526C53.0775 136.011 52.2417 135.541 51.406 135.102C51.3206 135.844 50.8434 136.51 50.0588 136.889C49.2742 137.268 48.3531 137.253 47.6028 136.904C47.6882 136.162 48.1653 135.465 48.9499 135.071C49.6322 134.753 50.3994 134.723 51.0817 134.935C46.4427 132.586 42.5366 131.587 41.326 131.299C43.8501 131.814 46.2039 132.556 48.3356 133.42C47.7899 133.086 47.3808 132.586 47.2442 131.965C47.0733 131.178 47.3633 130.405 47.9608 129.875C48.7285 130.163 49.3422 130.768 49.53 131.556C49.7002 132.329 49.4108 133.102 48.8476 133.632C57.9384 137.419 63.2254 143.358 63.2254 143.358L65.1183 145.388C65.8349 145.342 66.5677 145.312 67.2675 145.297C66.4829 141.161 65.6129 136.601 65.4083 135.949C64.9137 136.434 64.1971 136.737 63.4125 136.722C62.5088 136.707 61.7242 136.283 61.2633 135.646C61.7579 135.04 62.5593 134.646 63.4637 134.661C64.146 134.677 64.7429 134.919 65.2031 135.298C64.8963 134.374 64.5551 133.494 64.1971 132.646C63.7025 133.207 62.9348 133.57 62.0822 133.555C61.1785 133.54 60.3939 133.116 59.933 132.495C60.4107 131.874 61.2122 131.48 62.1159 131.495C62.8837 131.495 63.5654 131.813 64.0431 132.283C63.5997 131.313 63.1394 130.389 62.6616 129.526C62.1839 130.116 61.3825 130.511 60.4956 130.495C59.5919 130.48 58.8073 130.056 58.3464 129.419C58.8241 128.813 59.6256 128.419 60.5293 128.419C61.365 128.434 62.0985 128.798 62.5762 129.359C62.1159 128.526 61.6382 127.753 61.1436 127.025C60.6659 127.617 59.8813 127.995 58.9944 127.98C58.0907 127.965 57.2886 127.541 56.8452 126.92C57.3229 126.299 58.1244 125.905 59.0281 125.92C59.7958 125.935 60.4775 126.238 60.9553 126.722C58.2266 122.662 55.3608 120.072 54.474 119.299C56.3843 120.859 58.0215 122.526 59.4029 124.208C59.1129 123.678 59.0449 123.072 59.2664 122.465C59.5395 121.708 60.2212 121.162 61.0401 120.951C61.5515 121.541 61.7567 122.345 61.4667 123.102C61.1935 123.859 60.5287 124.405 59.7272 124.602C65.5431 131.889 66.8734 139.357 66.8734 139.357L68.0503 145.296C69.2103 145.296 70.2843 145.357 71.2223 145.418C71.6826 144.479 71.8361 143.554 72.1435 142.691C72.7578 140.919 73.525 139.403 75.8445 140.237C76.2199 140.373 76.4925 140.509 76.697 140.646C80.3637 135.253 88.2096 128.95 100.08 131.162C103.628 131.829 106.323 132.859 108.403 134.071C108.863 132.995 108.796 132.313 110.859 132.01C113.639 131.601 114.714 131.056 115.021 132.283C115.329 133.51 115.806 134.207 117.187 134.343C118.569 134.479 118.415 133.934 121.195 133.101C122.44 132.738 123.48 132.616 124.418 132.783V137.494H126.055C126.874 136.222 127.522 135.98 129.535 135.98C132.144 135.98 132.298 137.085 134.157 138.449C135.999 139.828 137.091 139.676 139.086 138.449C141.099 137.222 139.717 137.631 142.633 135.98C145.567 134.343 145.106 132.42 148.347 133.101C151.588 133.798 149.899 133.51 151.588 135.161C153.293 136.813 154.061 138.585 155.442 135.707C156.84 132.829 153.446 131.329 157.301 130.632C161.156 129.95 161.156 130.086 161.616 132.283C162.077 134.48 163.782 135.026 164.857 134.344C165.932 133.647 167.33 131.193 168.098 132.829C168.865 134.481 167.33 136.95 167.33 138.313C167.33 139.51 168.37 138.935 169.564 140.025C170.292 139.829 171.055 139.647 171.868 139.488C171.712 139.523 171.556 139.558 171.4 139.593C171.007 140.274 171.042 141.123 170.308 142.82C169.063 145.698 165.073 144.592 159.58 142.153C154.088 139.714 153.338 141.487 152.093 144.592C150.831 147.698 149.586 146.365 143.343 146.365C137.101 146.365 128.863 151.682 126.373 155.894C123.866 160.12 124.872 158.56 122.877 161.227C120.864 163.878 119.125 161 117.368 161C115.628 161 115.628 161.893 113.888 165.438C112.131 168.983 112.882 167.211 110.631 168.544C108.379 169.877 109.386 169.423 105.395 170.983C101.387 172.528 105.139 172.755 104.389 174.316C103.638 175.861 100.142 175.634 97.8906 176.755C96.1 177.633 95.4177 178.664 95.23 179.042H248.38ZM55.8747 140.374C55.8915 140.42 55.9258 140.45 55.9427 140.511C56.1815 141.101 56.4715 141.359 56.6593 141.587C56.8981 141.238 57.2218 140.951 57.6484 140.753C58.2453 140.465 58.9108 140.405 59.5245 140.541C58.7567 139.875 57.9721 139.254 57.1707 138.678C57.0684 139.375 56.6075 140.011 55.8747 140.374ZM63.9077 145.116C62.0148 143.041 60.4282 141.344 60.0702 141.026C59.9168 141.662 59.4559 142.238 58.7567 142.571C58.0913 142.89 57.3241 142.92 56.6587 142.707C56.5732 142.935 56.4373 143.192 56.2495 143.526C55.0215 145.707 53.6232 146.677 54.8681 147.631C55.5335 148.147 56.5227 148.025 57.273 148.071C57.9042 147.495 58.6201 146.995 59.4222 146.631C60.1725 146.283 61.0257 146.041 61.9125 145.844C61.708 145.162 61.8446 144.95 62.578 145.025C63.0545 145.071 63.498 145.071 63.9077 145.116ZM51.7471 134.754C52.3609 134.254 52.702 133.482 52.566 132.694C52.4126 131.891 51.8326 131.255 51.0823 130.952C50.4511 131.452 50.1274 132.209 50.2634 133.012C50.3994 133.799 50.9794 134.436 51.7471 134.754ZM59.2345 124.512C58.8422 123.861 58.0919 123.376 57.1875 123.315C56.2838 123.239 55.4481 123.588 54.9192 124.163C55.3284 124.83 56.0793 125.3 56.983 125.376C57.8867 125.436 58.7224 125.104 59.2345 124.512ZM64.4023 130.27C64.0954 131.012 64.2489 131.815 64.7266 132.436C65.5455 132.255 66.2615 131.739 66.5858 130.981C66.9101 130.239 66.7561 129.436 66.2615 128.83C65.4426 128.997 64.726 129.512 64.4023 130.27ZM62.8163 127.194C62.492 127.952 62.646 128.755 63.1406 129.361C63.9595 129.194 64.6755 128.679 64.9998 127.922C65.3066 127.179 65.1532 126.361 64.6755 125.755C63.8391 125.922 63.14 126.451 62.8163 127.194ZM61.6394 126.861C62.4583 126.694 63.1743 126.164 63.4811 125.422C63.8054 124.664 63.6514 123.861 63.1568 123.255C62.3379 123.422 61.6219 123.937 61.3151 124.694C60.9908 125.452 61.1448 126.255 61.6394 126.861ZM57.4607 121.801C58.2621 121.543 58.8933 120.952 59.1153 120.164C59.3199 119.391 59.0642 118.604 58.501 118.058C57.6996 118.316 57.0684 118.907 56.8464 119.679C56.6418 120.468 56.8975 121.255 57.4607 121.801ZM172.03 139.456H172.047H172.064V139.448C172.061 139.448 172.058 139.449 172.054 139.449C172.043 139.451 172.033 139.454 172.021 139.456H172.03ZM65.7495 133.436C65.4252 134.193 65.5786 134.996 66.0738 135.602C66.8927 135.436 67.6087 134.92 67.9155 134.163C68.2398 133.421 68.0858 132.617 67.6087 131.996C66.7898 132.163 66.0738 132.678 65.7495 133.436ZM56.7952 118.089C56.9655 117.301 56.6761 116.528 56.0786 115.998C55.2941 116.286 54.6972 116.907 54.5095 117.694C54.3392 118.482 54.646 119.255 55.2429 119.785C56.0107 119.498 56.625 118.877 56.7952 118.089ZM172.217 139.426L172.27 139.415C172.214 139.424 172.16 139.431 172.104 139.441H172.149L172.217 139.426ZM52.634 120.816C53.5377 120.786 54.3223 120.361 54.7658 119.725C54.288 119.119 53.4698 118.725 52.5654 118.756C51.6617 118.771 50.8771 119.211 50.4337 119.847C50.9283 120.452 51.7297 120.847 52.634 120.816ZM53.7766 132.466C53.1623 132.981 52.8218 133.739 52.9577 134.541C53.0943 135.329 53.6743 135.966 54.4415 136.284C55.0726 135.769 55.3963 135.011 55.2604 134.208C55.1238 133.421 54.5444 132.785 53.7766 132.466ZM54.3223 119.18C54.2369 119.104 54.1858 119.058 54.1858 119.058C54.2369 119.104 54.2712 119.134 54.3223 119.18ZM54.7489 121.15C53.8452 121.226 53.1118 121.71 52.7195 122.377C53.2483 122.952 54.0841 123.286 54.9878 123.195C55.8915 123.119 56.6424 122.634 57.0347 121.983C56.4884 121.392 55.6527 121.058 54.7489 121.15ZM53.9812 118.574C54.2369 117.984 54.1689 117.302 53.7255 116.741C53.282 116.195 52.5829 115.908 51.8663 115.923C51.6106 116.513 51.6786 117.195 52.122 117.741C52.5654 118.301 53.2652 118.589 53.9812 118.574Z"
        fill="#072948"
    />
<path
        d="M283.737 124.376C283.276 125.452 281.059 127.558 280.923 127.694C280.803 127.83 277.324 131.284 277.324 131.284L275.243 129.133C275.243 129.133 279.03 126.316 279.081 126.225C279.149 126.149 278.501 125.316 278.535 124.422C278.552 123.543 279.03 123.043 279.269 122.907C279.524 122.755 280.275 122.422 280.462 122.513C280.65 122.589 280.65 123.179 280.462 123.24C280.275 123.285 280.121 123.346 280.019 123.71C279.933 124.058 280.121 124.255 280.155 124.391C280.19 124.543 282.151 123.315 282.526 122.846C282.901 122.376 282.833 120.346 283.021 120.24C283.208 120.134 283.839 120.134 283.924 120.346C284.027 120.573 284.214 123.285 283.737 124.376ZM257.813 111.09C256.431 110.772 254.947 110.862 254.947 110.862C254.947 110.862 253.31 110.772 252.832 111.65C252.355 112.544 252.15 113.12 252.15 113.12C252.15 113.12 251.997 111.56 251.621 111.423C251.246 111.287 249.882 111.241 249.711 112.832C249.558 114.423 250.086 114.529 250.189 115.559C250.308 116.59 248.926 117.392 247.647 117.817C246.658 118.15 246.215 117.726 246.078 117.529C246.299 118.953 246.299 120.013 246.231 120.725C247.443 120.998 248.79 121.392 248.79 121.392C248.79 121.392 250.683 121.726 252.61 122.589C253.088 121.574 253.616 120.741 254.128 120.665C255.459 120.483 257.233 121.286 257.727 120.225C258.222 119.165 258.426 118.408 258.648 118.165C258.853 117.908 260.2 118.029 260.337 117.15C260.473 116.271 260.2 113.529 261.036 112.151C261.189 111.893 261.292 111.59 261.36 111.272C261.343 111.272 261.326 111.272 261.309 111.287C259.45 111.559 259.194 111.423 257.813 111.09ZM77.0069 172.492H83.0959L85.3131 166.811H78.3036L77.0069 172.492ZM72.2314 79.5023C72.794 78.5627 72.726 78.0779 71.7711 78.0175C70.8162 77.9416 69.7416 79.4718 69.5539 79.7599C69.3836 80.0629 68.8036 78.7145 68.6327 78.3056C68.4625 77.8968 68.2061 71.6399 67.3193 72.0637C66.4324 72.4881 66.4492 77.8513 66.4492 78.8358C66.4492 79.5028 68.6321 82.6384 70.099 84.6838C71.2079 84.3503 72.5208 84.0478 73.7145 83.7747C72.8626 82.1537 71.8902 80.0474 72.2314 79.5023ZM113.096 166.993C113.284 166.629 113.523 166.145 113.881 165.447C113.932 165.326 113.983 165.205 114.052 165.084L112.738 165.281L113.096 166.993ZM97.2517 68.5492C97.2517 71.1097 96.2282 71.1097 94.7445 68.8827C93.3973 66.8373 90.4804 68.322 88.9966 66.6861C89.0478 68.4284 89.8492 68.8982 89.9346 70.2615C90.0201 71.7463 90.0201 72.9124 90.4804 72.9124C90.9407 72.9124 91.5038 72.7457 91.6915 74.2304C91.8793 75.7151 92.425 76.4575 94.9322 76.3816C96.8768 76.3212 97.712 78.397 97.9683 79.3211C98.156 79.2906 98.3437 79.2607 98.5483 79.2452C98.6337 75.0032 99.6061 71.8975 99.7595 71.0493C100.032 69.4887 101.175 68.5192 100.254 67.368C99.3329 66.2168 97.2517 65.9886 97.2517 68.5492Z"
        fill="#FFD2BB"
    />
<path
        d="M248.38 179.052V178.537C248.38 177.946 245.225 176.174 242.718 175.719C240.228 175.28 238.897 176.022 236.902 175.128C234.89 174.25 236.902 174.386 236.237 172.917C235.573 171.432 235.231 172.765 233.56 172.326C231.905 171.887 232.4 170.993 232.741 168.629C233.065 166.266 231.735 167.296 230.064 167.584C228.409 167.887 226.243 169.069 223.753 166.402C221.246 163.751 223.753 164.342 219.08 163.16C214.423 161.979 217.75 163.888 208.266 162.115C198.766 160.343 207.516 160.343 207.26 158.131C207.022 155.903 205.759 156.358 202.775 155.237C199.773 154.131 200.523 152.358 200.523 148.586C200.523 147.389 200.54 146.541 200.575 145.814C199.091 146.601 198.05 147.738 197.846 147.995H197.829V148.01L197.812 148.025L197.795 148.04C197.795 148.04 197.795 147.086 199.33 143.389C199.365 143.328 199.381 143.267 199.398 143.207C199.433 143.146 199.449 143.101 199.466 143.04C199.483 142.98 199.501 142.919 199.501 142.873C199.517 142.813 199.535 142.752 199.552 142.707C199.552 142.646 199.569 142.585 199.569 142.54C199.585 142.48 199.585 142.419 199.585 142.373C199.602 142.313 199.602 142.267 199.602 142.206C199.602 142.146 199.602 142.101 199.602 142.04C199.602 141.994 199.602 141.933 199.585 141.888C199.585 141.828 199.585 141.782 199.569 141.721C199.569 141.676 199.552 141.615 199.552 141.57C199.535 141.51 199.535 141.464 199.517 141.418C199.501 141.358 199.483 141.312 199.483 141.267C199.466 141.207 199.449 141.161 199.432 141.115C199.415 141.055 199.398 141.009 199.364 140.964C199.347 140.918 199.33 140.858 199.313 140.812C199.279 140.767 199.262 140.721 199.245 140.676C199.211 140.615 199.194 140.569 199.159 140.524C199.125 140.479 199.108 140.433 199.074 140.388C199.04 140.342 199.023 140.297 198.989 140.251C198.954 140.206 198.921 140.161 198.886 140.115C198.852 140.07 198.818 140.024 198.784 139.979C198.75 139.933 198.716 139.888 198.682 139.843C198.647 139.797 198.596 139.752 198.563 139.706C198.528 139.676 198.495 139.63 198.443 139.585C198.409 139.54 198.358 139.494 198.324 139.464C198.29 139.418 198.239 139.373 198.188 139.342C198.153 139.297 198.102 139.251 198.069 139.221C198.017 139.176 197.966 139.13 197.932 139.1C197.881 139.054 197.83 139.024 197.779 138.978C197.727 138.948 197.693 138.902 197.642 138.872C197.591 138.827 197.54 138.796 197.489 138.751C197.437 138.72 197.386 138.69 197.335 138.645C197.284 138.614 197.233 138.584 197.182 138.539C197.131 138.508 197.063 138.478 197.011 138.448C196.96 138.402 196.909 138.372 196.858 138.341C196.79 138.311 196.739 138.281 196.687 138.25C196.636 138.205 196.568 138.175 196.517 138.145C196.466 138.114 196.398 138.084 196.347 138.054C196.295 138.023 196.227 137.993 196.176 137.963C196.108 137.948 196.057 137.917 196.006 137.887C195.938 137.857 195.887 137.827 195.818 137.796C195.767 137.781 195.699 137.751 195.647 137.72C195.579 137.69 195.528 137.675 195.46 137.644C195.409 137.614 195.341 137.599 195.289 137.569C195.221 137.554 195.17 137.523 195.102 137.508C195.05 137.478 194.983 137.463 194.914 137.432C194.863 137.417 194.795 137.387 194.744 137.372C194.676 137.341 194.625 137.326 194.556 137.311C194.488 137.281 194.437 137.266 194.368 137.251C194.317 137.236 194.249 137.221 194.197 137.19C194.129 137.175 194.061 137.16 194.01 137.145C193.942 137.13 193.89 137.114 193.822 137.099C193.771 137.084 193.703 137.069 193.652 137.054C193.584 137.039 193.532 137.023 193.464 137.008C193.413 136.993 193.345 136.993 193.294 136.978C193.226 136.963 193.174 136.947 193.106 136.947C193.055 136.932 192.987 136.917 192.936 136.902C192.884 136.902 192.816 136.887 192.765 136.887C192.714 136.872 192.646 136.872 192.594 136.857C192.543 136.857 192.475 136.842 192.424 136.842C192.373 136.842 192.305 136.827 192.254 136.827C192.203 136.827 192.152 136.812 192.1 136.812C192.032 136.812 191.981 136.812 191.93 136.812C189.132 136.69 187.802 139.66 187.069 141.463C185.602 140.706 183.965 140.069 182.191 139.645L182.14 139.599L182.072 139.569L182.021 139.539L181.953 139.493L181.901 139.463L181.833 139.432L181.765 139.387L181.697 139.356L181.629 139.326L181.561 139.295L181.493 139.265L181.425 139.234L181.34 139.204L181.272 139.173L181.204 139.143L181.119 139.113L181.051 139.082L180.965 139.052L180.88 139.021L180.812 138.991L180.726 138.976L180.641 138.945L180.555 138.915L180.47 138.899L180.385 138.869L180.299 138.854L180.214 138.839L180.128 138.808L180.026 138.793L179.94 138.778L179.855 138.764L179.77 138.749L179.667 138.734L179.582 138.719L179.48 138.704L179.394 138.689H179.292L179.206 138.674H179.104L179.002 138.659H178.916H178.814H178.712H178.61H178.524H178.422H178.32L178.217 138.674H178.115L178.03 138.689L177.927 138.704H177.825L177.723 138.719L177.62 138.734L177.518 138.764L177.416 138.779L177.314 138.794L177.211 138.824L177.109 138.839L177.007 138.87L176.904 138.9L176.802 138.931L176.7 138.961L176.614 139.007H176.546H176.478H176.41H176.342H176.274H176.206H176.138H176.07L176.003 139.022H175.935H175.867H175.799H175.731L175.645 139.037H175.57H175.503H175.435H175.367L175.299 139.052H175.231H175.163L175.095 139.067H175.027H174.959L174.891 139.082H174.805H174.737L174.669 139.096H174.601L174.533 139.111H174.465L174.397 139.126H174.312L174.244 139.141H174.176L174.108 139.156H174.04L173.972 139.171H173.886L173.818 139.186H173.75L173.682 139.202H173.597L173.529 139.217L173.461 139.232H173.393L173.325 139.247L173.24 139.262H173.172L173.104 139.277L173.018 139.292L172.95 139.307H172.882L172.814 139.322L172.729 139.336L172.661 139.351H172.593L172.507 139.366L172.439 139.381L172.371 139.396L172.286 139.411L172.218 139.426L172.15 139.441H172.064V139.456H172.048H172.031H172.014C171.809 139.502 171.605 139.547 171.4 139.592C171.008 140.274 171.042 141.123 170.309 142.82C169.064 145.698 165.073 144.592 159.581 142.153C154.089 139.714 153.338 141.487 152.094 144.592C150.831 147.698 149.586 146.365 143.344 146.365C137.101 146.365 128.864 151.682 126.373 155.894C123.866 160.12 124.872 158.56 122.877 161.227C120.864 163.878 119.125 160.999 117.368 160.999C115.629 160.999 115.629 161.893 113.889 165.438C112.132 168.983 112.883 167.211 110.631 168.544C108.38 169.877 109.386 169.422 105.395 170.983C101.387 172.528 105.14 172.755 104.389 174.316C103.639 175.861 100.143 175.634 97.8911 176.755C96.1005 177.633 95.4182 178.664 95.2305 179.042H248.38V179.052Z"
        fill="#072948"
    />
<path
        d="M278.842 132.891C278.842 132.891 266.51 146.859 265.112 147.389C263.714 147.919 257.351 144.556 257.351 144.556C257.351 144.556 259.944 155.342 258.341 155.873C257.778 156.07 256.891 156.115 255.68 156.176C255.117 154.691 252.883 155.024 251.024 155.448C249.625 155.751 249.164 156.448 248.653 156.736C248.414 156.766 248.193 156.797 247.971 156.827C247.681 156.766 247.339 156.599 246.845 156.266C244.696 154.751 246.998 153.115 247.152 151.463C247.305 149.827 245.463 149.827 243.297 151.463C241.148 153.115 241.302 155.311 239.29 152.705C237.738 150.676 235.145 150.236 233.133 152.705C232.979 150.221 233.167 146.176 233.61 141.964C233.747 141.919 233.883 141.888 234.037 141.828C234.02 141.479 233.9 141.146 233.73 140.828C233.781 140.282 233.849 139.722 233.918 139.176C234.498 138.858 234.873 138.343 234.958 137.783C234.702 137.647 234.429 137.571 234.139 137.525C234.736 133.193 235.555 129.223 236.442 127.223C238.83 121.921 243.605 120.694 244.407 120.512C245.208 120.33 248.79 121.391 248.79 121.391C248.79 121.391 254.964 122.451 256.345 125.814C257.744 129.178 263.714 136.601 263.714 136.601L273.674 127.405L278.842 132.891ZM67.251 68.2307L68.9736 79.5323L70.4405 79.3655L68.7347 68.0485L67.251 68.2307ZM103.647 117.589C98.0871 117.589 86.4043 116.756 86.4043 115.771L73.9026 166.811H90.9752L102.471 131.209L107.298 166.145L114.018 165.13C115.621 161.857 115.672 161.009 117.361 161.009C119.118 161.009 120.857 163.888 122.87 161.236C123.296 160.661 123.586 160.282 123.808 159.994C121.181 150.131 113.967 122.468 113.302 115.272C113.301 115.271 109.224 117.589 103.647 117.589Z"
        fill="#091118"
    />
<path
        d="M213.382 150.858C213.502 150.904 213.604 150.949 213.724 150.994V154.04C213.161 154.252 212.649 154.479 212.205 154.706C211.864 154.585 211.523 154.464 211.165 154.358C211.438 153.555 211.882 152.283 212.598 150.268C212.802 150.494 213.058 150.706 213.382 150.858ZM212.786 148.813C213.092 148.752 213.417 148.767 213.724 148.813V147.919C213.399 148.177 213.092 148.434 212.769 148.707C212.786 148.737 212.786 148.767 212.786 148.813ZM211.643 138.784C210.756 138.799 209.955 138.405 209.477 137.814C208.999 138.678 208.539 139.602 208.095 140.572C208.573 140.102 209.255 139.799 210.023 139.784C210.926 139.769 211.728 140.162 212.205 140.784C211.745 141.405 210.961 141.829 210.056 141.844C209.204 141.859 208.436 141.496 207.941 140.935C207.583 141.783 207.242 142.677 206.935 143.586C207.396 143.207 207.993 142.965 208.675 142.95C209.579 142.935 210.381 143.328 210.875 143.934C210.415 144.57 209.63 144.995 208.726 145.01C207.941 145.025 207.208 144.722 206.73 144.237C206.679 144.389 206.594 144.738 206.491 145.222C208.043 145.419 209.698 145.798 210.926 146.464C211.113 145.768 211.642 145.207 212.341 144.919C212.973 145.419 213.314 146.177 213.177 146.98C213.092 147.404 212.887 147.782 212.597 148.101C212.614 148.146 212.632 148.192 212.648 148.237C212.989 147.965 213.347 147.692 213.723 147.404V137.799C213.263 138.374 212.512 138.768 211.643 138.784ZM213.11 134.208C213.314 134.208 213.536 134.223 213.724 134.269V133.405C213.399 133.253 213.127 133.057 212.905 132.799C213.092 132.481 213.382 132.193 213.724 131.996V131.648C212.905 132.617 212.035 133.739 211.182 135.011C211.66 134.542 212.342 134.223 213.11 134.208ZM210.995 135.314C210.5 136.041 210.023 136.829 209.562 137.647C210.04 137.101 210.773 136.738 211.609 136.723C212.462 136.708 213.246 137.071 213.724 137.647V136.208C213.536 136.253 213.349 136.268 213.144 136.284C212.257 136.284 211.472 135.905 210.995 135.314ZM183.365 9.61597L240.944 72.6847H213.724V126.376C213.707 126.376 213.672 126.361 213.638 126.345C213.076 126.891 212.819 127.679 213.024 128.467C213.144 128.891 213.4 129.269 213.724 129.558V131.345C213.382 131.724 213.041 132.118 212.734 132.496C213.024 131.981 213.092 131.36 212.871 130.754C212.598 129.997 211.916 129.451 211.097 129.239C210.586 129.83 210.381 130.633 210.671 131.39C210.944 132.148 211.609 132.693 212.41 132.905C208.658 137.586 206.782 142.358 205.912 145.161C205.008 145.071 204.172 145.025 203.507 145.025C200.266 145.025 197.793 148.04 197.793 148.04C197.793 148.04 197.793 147.085 199.328 143.389C200.88 139.677 195.321 136.95 191.926 136.814C189.129 136.692 187.799 139.662 187.065 141.465C185.599 140.708 183.961 140.071 182.188 139.647C180.994 138.874 178.759 138.238 176.611 139.011C175.161 139.026 173.643 139.162 172.057 139.45C171.17 139.617 170.351 139.814 169.566 140.026C168.372 138.935 167.332 139.511 167.332 138.314C167.332 136.951 168.867 134.481 168.1 132.83C167.332 131.194 165.934 133.648 164.859 134.345C163.785 135.027 162.079 134.481 161.619 132.284C161.158 130.088 161.158 129.951 157.303 130.633C153.449 131.33 156.843 132.829 155.444 135.708C154.643 137.389 154.046 137.48 153.346 136.951V72.6847H124.829L182.409 9.61597H183.365ZM208.658 133.709C208.965 134.466 209.681 134.981 210.5 135.148C210.994 134.542 211.148 133.739 210.824 132.982C210.517 132.224 209.801 131.709 208.982 131.543C208.488 132.148 208.334 132.951 208.658 133.709ZM207.14 136.223C207.464 136.966 208.18 137.481 208.999 137.663C209.494 137.056 209.647 136.238 209.323 135.496C208.999 134.739 208.3 134.223 207.464 134.057C206.987 134.663 206.833 135.466 207.14 136.223ZM205.554 139.284C205.878 140.026 206.594 140.556 207.413 140.723C207.891 140.117 208.044 139.298 207.737 138.556C207.413 137.799 206.697 137.284 205.878 137.117C205.384 137.723 205.23 138.526 205.554 139.284ZM204.224 142.465C204.53 143.207 205.247 143.723 206.065 143.889C206.56 143.283 206.713 142.481 206.39 141.723C206.065 140.98 205.349 140.465 204.53 140.298C204.053 140.905 203.899 141.707 204.224 142.465ZM284.435 114.013L279.882 124.028L280.871 124.391L285.425 114.377L284.435 114.013ZM255.68 156.176C256.891 156.115 257.778 156.07 258.341 155.873C258.921 155.691 258.954 154.161 258.75 152.283C262.263 149.843 273.093 142.465 276.487 141.723C280.154 140.92 293.048 159.463 295.573 163.13C295.283 163.66 294.856 164.281 294.259 164.766L293.338 165.312C292.911 165.463 292.434 165.539 291.905 165.448C290.217 165.176 289.177 165.403 287.863 166.524C285.135 162.812 277.698 152.98 276.316 154.298C275.242 155.329 272.564 158.874 270.125 162.146C267.448 162.04 263.183 163.934 261.052 164.358C258.272 164.904 254.724 161.889 255.645 158.192C255.868 157.297 255.851 156.645 255.68 156.176ZM248.654 156.736C248.415 156.767 248.193 156.797 247.971 156.827C248.244 156.888 248.448 156.842 248.654 156.736ZM101.14 91.622C98.9909 87.1225 98.4626 82.7896 98.5474 79.2446C97.5071 79.3809 96.6202 79.5327 96.2279 79.6684C94.9319 80.1687 83.3682 94.4546 83.3682 94.4546L75.5741 83.3198C75.5741 83.3198 68.769 84.6228 68.769 85.774C68.769 86.9252 76.7852 100.636 78.269 102.12C79.7527 103.605 88.8435 103.272 88.8435 103.272C88.8435 103.272 86.4043 114.786 86.4043 115.771C86.4043 116.755 98.0871 117.588 103.647 117.588C109.224 117.588 113.301 115.271 113.301 115.271C113.301 115.271 113.164 107.68 112.943 100.56C107.741 98.8184 103.067 95.6213 101.14 91.622Z"
        fill="#A71010"
    />
<path
        d="M254.946 110.862C254.946 110.862 253.309 110.772 252.832 111.65C252.354 112.544 252.149 113.12 252.149 113.12C252.149 113.12 251.996 111.56 251.62 111.423C251.245 111.287 249.881 111.241 249.71 112.832C249.557 114.423 250.086 114.529 250.188 115.559C250.307 116.59 248.925 117.392 247.646 117.817C246.384 118.241 246.009 117.438 246.009 117.438C246.009 117.438 244.747 115.378 244.219 114.575C243.69 113.772 242.786 109.075 243.587 106.909C244.372 104.758 246.589 102.077 248.448 101.834C250.308 101.607 249.301 101.365 251.041 100.895C252.781 100.425 256.004 100.516 257.181 101.41C258.341 102.304 258.665 102.395 260.933 102.213C263.202 102.031 265.436 102.682 265.964 104.273C266.493 105.879 266.749 107.424 265.845 108.651C264.958 109.878 263.15 111 261.309 111.287C259.449 111.56 259.194 111.424 257.812 111.09C256.431 110.772 254.946 110.862 254.946 110.862ZM83.8971 172.356C84.1017 172.856 84.204 177.886 84.204 178.37C84.204 178.871 83.1979 179.052 83.1979 179.052C83.1979 179.052 65.0338 178.961 64.7949 178.87C64.5392 178.779 64.1806 177.703 65.4941 177.158C66.8076 176.628 74.4483 174.734 75.0963 174.067C75.642 173.522 76.3586 172.704 76.5975 172.416C76.6655 172.356 76.6998 172.31 76.6998 172.31H82.7545C82.7545 172.31 83.6925 171.871 83.8971 172.356ZM97.2514 68.5492C97.2514 65.9886 99.332 66.2163 100.253 67.3675C101.174 68.5187 100.031 69.4882 99.7586 71.0488C99.4854 72.6089 96.4157 81.7293 101.14 91.6221C105.881 101.515 127.44 106.484 132.266 96.5914C137.076 86.7136 128.463 74.5938 119.645 71.4577C109.634 67.8971 113.949 58.8226 106.257 56.5197C98.5474 54.2167 91.9644 55.2017 88.246 62.3677C88.246 62.3677 87.3249 63.6856 88.6215 66.1548C89.9175 68.6245 93.2605 66.6551 94.7442 68.8821C96.2279 71.1092 97.2514 71.1092 97.2514 68.5492Z"
        fill="#072948"
    />
</svg>
