<svg width="27" height="27" viewBox="0 0 27 27" fill="none" xmlns="http://www.w3.org/2000/svg">
<g id="Group 11">
<circle id="Ellipse 6" cx="13.5708" cy="13.3527" r="12.3212" stroke="#F9F9F9" stroke-width="1.29697"/>
<g id="Vector">
<path d="M12.3106 7.19442C12.7636 5.80036 14.7358 5.80036 15.1887 7.19442L15.788 9.03869C15.9905 9.66213 16.5715 10.0842 17.227 10.0842H19.1662C20.632 10.0842 21.2415 11.9599 20.0556 12.8215L18.4868 13.9613C17.9565 14.3466 17.7345 15.0296 17.9371 15.6531L18.5363 17.4973C18.9893 18.8914 17.3937 20.0506 16.2079 19.1891L14.6391 18.0492C14.1087 17.6639 13.3906 17.6639 12.8603 18.0492L11.2914 19.1891C10.1056 20.0506 8.51002 18.8914 8.96298 17.4973L9.56222 15.6531C9.76479 15.0296 9.54288 14.3466 9.01254 13.9613L7.44372 12.8215C6.25786 11.9599 6.86731 10.0842 8.33311 10.0842H10.2723C10.9278 10.0842 11.5088 9.66213 11.7114 9.03869L12.3106 7.19442Z" fill="#F9F9F9"/>
</g>
</g>
</svg>
