<svg width="268" height="192" viewBox="0 0 268 192" fill="none" xmlns="http://www.w3.org/2000/svg">
<path d="M99.0642 49.5449C99.0642 49.5449 100.404 55.4142 96.3585 56.7692C96.3585 56.7692 102.892 55.7467 104.13 51.9108C104.13 51.9108 126.846 50.9649 126.987 41.4767C127.153 31.0178 122.75 26.568 105.471 26.9902C91.4197 27.3353 88.9314 44.4686 99.0642 49.5449ZM104.858 46.848H102.854V44.7763H104.858V46.848ZM115.565 46.848H113.574V44.7763H115.565V46.848ZM111.161 32.6295C111.621 32.4504 112.195 32.2844 112.897 32.1437C113.599 32.003 114.262 31.9389 114.888 31.9389C114.888 31.9389 114.888 31.9389 114.888 31.9389C116.292 31.9389 117.402 32.2844 118.219 32.9619C119.023 33.6394 119.431 34.5474 119.431 35.6598C119.431 36.312 119.316 36.8745 119.087 37.3729C118.87 37.8849 118.564 38.3188 118.194 38.7031C117.824 39.0865 117.403 39.432 116.93 39.764C116.445 40.0838 115.948 40.4036 115.412 40.7103V42.9224H113.651H113.65V39.9305C114.084 39.6873 114.543 39.4189 115.028 39.1248C115.526 38.8438 115.934 38.5493 116.241 38.2556C116.623 37.9232 116.917 37.5651 117.121 37.2069C117.338 36.8366 117.44 36.3756 117.44 35.8131C117.44 35.072 117.185 34.5222 116.688 34.164C116.19 33.7928 115.539 33.6142 114.748 33.6142C114.046 33.6142 113.382 33.7292 112.745 33.9466C112.119 34.1766 111.621 34.3941 111.251 34.6241H111.162H111.162H111.161V32.6295ZM100.454 34.6236V32.6295V32.629C100.901 32.45 101.488 32.284 102.19 32.1432C102.892 32.0025 103.556 31.9384 104.181 31.9384C105.585 31.9384 106.695 32.284 107.511 32.9615C108.316 33.639 108.724 34.547 108.724 35.6593C108.724 36.3115 108.609 36.874 108.379 37.3725C108.15 37.8844 107.856 38.3183 107.486 38.7027C107.116 39.0861 106.695 39.4316 106.223 39.7636C105.738 40.0834 105.241 40.4032 104.704 40.7099V42.9215L102.943 42.9219V39.93V39.9295C103.377 39.6864 103.824 39.418 104.321 39.1239C104.819 38.8429 105.215 38.5484 105.534 38.2547C105.917 37.9223 106.21 37.5642 106.414 37.206C106.619 36.8357 106.734 36.3747 106.734 35.8127C106.734 35.0716 106.478 34.5217 105.981 34.1636C105.483 33.7923 104.832 33.6137 104.041 33.6137C103.339 33.6137 102.675 33.7287 102.037 33.9461C101.412 34.1762 100.914 34.3936 100.544 34.6236H100.454ZM153.34 102.659H105.917V129.037H153.34V102.659ZM140.565 122.298L139.416 123.769L129.628 116.123L119.737 123.654L118.601 122.158L128.096 114.921L118.691 107.569L119.853 106.086L129.641 113.745L139.519 106.214L140.654 107.71L131.173 114.947L140.565 122.298ZM78.8764 73.6784C78.8809 73.6698 78.8863 73.6599 78.8909 73.6513C79.1493 73.1651 79.6886 72.2584 80.5463 71.3207C80.5463 71.3464 81.8861 82.8026 74.1781 81.5621C66.4957 80.3343 68.2952 72.0108 68.2952 71.9851C68.4321 72.1096 68.5617 72.2314 68.6842 72.3505C68.6851 72.3514 68.6864 72.3527 68.6873 72.3536C68.6891 72.3554 68.6914 72.3577 68.6932 72.3595C68.6945 72.3608 68.6959 72.3622 68.6977 72.364C68.8053 72.4682 68.9057 72.5688 69.002 72.6666C69.0029 72.6675 69.0038 72.6685 69.0047 72.6694C69.0376 72.7032 69.07 72.7361 69.1015 72.7691C69.1029 72.7704 69.1038 72.7718 69.1051 72.7731C69.1713 72.8417 69.2348 72.9084 69.2947 72.972C69.2951 72.9725 69.2956 72.9729 69.296 72.9734C69.3496 73.0307 69.4005 73.0857 69.4486 73.1389C69.4495 73.1398 69.45 73.1407 69.4509 73.1416C69.4851 73.1791 69.5202 73.2174 69.5513 73.2521C69.5517 73.2526 69.5517 73.2526 69.5522 73.253C69.6148 73.323 69.6719 73.3884 69.7237 73.4479C69.7246 73.4488 69.7255 73.4497 69.726 73.4506C69.739 73.4655 69.7539 73.4826 69.766 73.4966C69.7665 73.4971 69.7665 73.4971 69.7669 73.4975C69.8264 73.567 69.8786 73.6292 69.9209 73.6802C69.9232 73.6834 69.9268 73.6874 69.929 73.6901C70.0204 73.8011 70.0686 73.8642 70.0686 73.8642C70.0686 73.8642 70.7448 77.7384 72.6208 78.9022C73.207 79.2658 73.812 79.4421 74.3987 79.4448C75.6894 79.4516 76.891 78.6198 77.6105 77.0993C77.8752 76.5431 78.0764 76.0722 78.229 75.6789C78.6869 74.4993 78.7081 74.0176 78.7081 74.0176C78.7081 74.0176 78.7535 73.9157 78.8422 73.7424C78.8535 73.7217 78.8638 73.7019 78.8764 73.6784ZM83.0607 88.5181V105.907C83.0607 106.93 82.2183 107.774 81.1973 107.774H66.0108C64.9772 107.774 64.1474 106.93 64.1474 105.907V88.5181C64.1474 87.482 64.9772 86.6511 66.0108 86.6511H81.1973C82.2183 86.6511 83.0607 87.482 83.0607 88.5181ZM45.8856 84.6948C45.8856 84.6948 40.0302 90.7517 39.1258 92.3851C39.1244 92.3873 39.1231 92.3896 39.1217 92.3918C37.7562 91.215 36.8756 90.3972 36.8756 90.3972C38.1128 87.2406 43.2524 82.9979 43.2569 82.9938C43.2569 82.9938 43.2704 83.0029 43.2902 83.0164C43.4847 83.1463 44.589 83.8829 45.8856 84.6948ZM104.017 82.9451C104.017 82.9447 104.015 82.9429 104.015 82.9429C104.198 82.84 104.375 82.7417 104.546 82.6465C105.502 82.1129 106.222 81.7169 106.434 81.6C106.476 81.577 106.503 81.5617 106.503 81.5617C107.014 81.9392 107.458 82.3678 107.844 82.8229C108.321 83.3854 108.71 83.988 109.026 84.5843C110.107 86.6276 110.332 88.5943 110.332 88.5943C110.332 88.5943 110.29 88.6367 110.229 88.6985C110.221 88.7062 110.215 88.7129 110.206 88.7215C109.92 89.0079 109.147 89.7761 108.073 90.7811C108.073 90.7802 108.073 90.7793 108.073 90.7788C108.211 87.8654 104.062 82.997 104.017 82.9451ZM199.269 143.831H187.043V141.951H199.269V143.831ZM187.044 146.938V145.058H199.269V146.938H187.044ZM187.044 150.032V148.152H199.269V150.032H187.044Z" fill="white"/>
<path d="M65.105 53.2276L66.6614 51.0796C67.3758 50.0823 68.2947 49.251 69.3414 48.6118C69.3414 48.6118 69.341 48.6118 69.341 48.6123C70.3958 49.0047 71.3386 49.4891 72.1836 50.0363C72.2021 50.0485 72.2219 50.0593 72.2403 50.0715C72.4092 50.182 72.5708 50.2966 72.7315 50.412C72.7761 50.4441 72.8234 50.4743 72.8675 50.5063C73.0079 50.6091 73.1417 50.716 73.2763 50.8225C73.3361 50.8699 73.3987 50.9154 73.4572 50.9632C73.5747 51.0593 73.686 51.1585 73.7985 51.2569C73.8687 51.3178 73.9417 51.3778 74.0101 51.4396C74.1105 51.5302 74.2046 51.6236 74.3009 51.7161C74.3761 51.7882 74.454 51.859 74.5274 51.9317C74.6129 52.0174 74.6935 52.1049 74.7759 52.1915C74.8542 52.2736 74.9348 52.3548 75.0105 52.4378C75.0834 52.5176 75.1514 52.5993 75.2216 52.68C75.3013 52.7716 75.3832 52.8622 75.4602 52.9547C75.5228 53.0296 75.5804 53.1058 75.6412 53.1811C75.7204 53.2804 75.8019 53.3791 75.878 53.4793C75.932 53.5501 75.982 53.6214 76.0342 53.6926C76.1117 53.7977 76.1905 53.9028 76.2643 54.0084C76.3111 54.0756 76.3543 54.1428 76.4003 54.21C76.4745 54.3201 76.5502 54.4297 76.6209 54.5397C76.6614 54.6024 76.6983 54.6651 76.7375 54.7278C76.8091 54.842 76.8811 54.9565 76.9486 55.0702C76.9837 55.1293 77.0157 55.1884 77.0499 55.2475C77.117 55.3643 77.185 55.4811 77.2485 55.5966C77.2791 55.6525 77.307 55.708 77.3367 55.7639C77.3997 55.8821 77.4632 56.0003 77.5222 56.1171C77.5487 56.1699 77.5731 56.2213 77.5987 56.2741C77.6572 56.3927 77.7158 56.5109 77.7698 56.6277C77.7932 56.6783 77.8144 56.7274 77.8373 56.7775C77.8909 56.8948 77.944 57.012 77.9935 57.1271C78.0138 57.1744 78.0323 57.22 78.0521 57.2669C78.1007 57.3819 78.1489 57.4974 78.1939 57.6097C78.2123 57.6566 78.229 57.7017 78.247 57.7477C78.2898 57.8578 78.333 57.9683 78.3722 58.0752C78.3888 58.1203 78.4037 58.1636 78.4199 58.2087C78.4577 58.3134 78.4955 58.418 78.5297 58.5191C78.545 58.5642 78.5586 58.6066 78.5734 58.6508C78.6058 58.7482 78.6382 58.8461 78.668 58.9399C78.6815 58.9828 78.6932 59.0234 78.7062 59.0658C78.7341 59.1564 78.7621 59.2475 78.7873 59.3341C78.7999 59.3774 78.8107 59.418 78.8228 59.46C78.8458 59.5403 78.8687 59.6215 78.889 59.6972C78.9012 59.7424 78.9115 59.7843 78.9228 59.8276C78.9403 59.8957 78.9588 59.9652 78.9746 60.0292C78.9858 60.0748 78.9953 60.1163 79.0056 60.1596C79.0191 60.216 79.0331 60.2733 79.0448 60.3256C79.0556 60.3725 79.0646 60.4149 79.074 60.4586C79.0835 60.501 79.0934 60.5452 79.1015 60.5845C79.1114 60.6323 79.12 60.6747 79.1285 60.7176C79.1339 60.7455 79.1402 60.7762 79.1452 60.8024C79.1551 60.8533 79.1632 60.8984 79.1708 60.9408C79.1726 60.9517 79.1753 60.9652 79.1771 60.9756C79.2042 61.1303 79.2163 61.2191 79.2177 61.2286C79.2177 61.2286 79.2177 61.2286 79.2177 61.2282V61.2286C79.2136 61.2345 79.2096 61.2403 79.2055 61.2462L79.2181 61.2327L78.1462 62.9206C78.1471 62.9192 72.162 52.6272 65.105 53.2276ZM142.007 162.805H111.991V167.319H142.007V162.805ZM177.587 124.23L176.911 127.337H163.013L162.426 124.23L164.892 137.387H174.739L177.587 124.23Z" fill="#A71010"/>
<path d="M67.0446 170.617L65.7683 177.125C65.7683 177.125 64.2754 178.11 61.4422 178.788C60.2505 179.075 59.7494 178.772 59.5707 178.323C59.5702 178.322 59.5702 178.321 59.5698 178.32C59.5504 178.271 59.5347 178.22 59.5225 178.168C59.4744 177.962 59.4811 177.739 59.5086 177.533C59.5086 176.793 59.5662 176.083 59.5662 175.439L59.6936 170.617H67.0446V170.617ZM41.6866 76.1406C41.5462 75.271 40.4999 75.1943 39.9893 75.7825C39.4919 76.3707 39.4919 78.4803 39.4919 78.4803C39.4919 78.4803 38.9557 78.2629 38.3303 77.7004C37.7176 77.1379 35.1784 73.3278 34.5913 72.9313C34.0043 72.5348 33.1619 72.7396 33.1237 73.6088C33.098 74.4784 34.1956 76.4861 34.1956 76.4861C34.1956 76.4861 32.5366 74.7089 31.4133 74.6192C30.2905 74.5425 29.6904 75.6674 30.5458 76.2556C31.3881 76.8565 32.3196 78.3784 32.3196 78.3784C32.3196 78.3784 32.4218 78.5953 31.8856 78.1226C31.3624 77.6368 30.2009 77.0743 29.1038 77.3044C28.0061 77.5349 27.7257 78.7365 28.8485 79.2223C29.9844 79.6955 30.1757 80.1813 30.1757 80.1813C30.1757 80.1813 29.6908 80.0663 28.7463 80.1813C27.7891 80.2967 27.2786 81.3324 27.8148 82.0352C28.351 82.7388 29.1803 82.0992 30.9798 82.6621C32.7793 83.2242 33.4555 85.1809 34.8083 86.3059C36.1324 87.4069 38.55 87.577 38.6527 87.5837C39.5914 86.429 40.6903 85.3248 41.5795 84.4885C41.7506 84.3266 41.9167 84.1705 42.0693 84.0298C42.0693 84.0298 42.1584 82.4059 41.6866 81.511C41.2018 80.6283 41.8271 77.0229 41.6866 76.1406ZM121.282 81.6256C120.376 81.2801 119.891 81.2801 119.891 81.2801C119.891 81.2801 120.197 80.8583 121.397 80.6666C122.609 80.4749 122.622 79.2219 121.614 78.7487C120.606 78.2629 119.342 78.5317 118.717 78.8768C118.079 79.2088 118.245 79.0175 118.245 79.0175C118.245 79.0175 119.508 77.7645 120.465 77.3932C121.435 77.0098 121.129 75.7825 120.005 75.5908C118.895 75.3986 116.866 76.7284 116.866 76.7284C116.866 76.7284 118.41 75.0531 118.589 74.197C118.768 73.3404 117.989 72.9439 117.326 73.1866C116.662 73.4297 113.293 76.5236 112.553 76.9201C111.825 77.3166 111.251 77.4063 111.251 77.4063C111.251 77.4063 111.749 75.3603 111.404 74.6571C111.047 73.9665 110.013 73.8005 109.669 74.6187C109.324 75.4239 109.069 79.0811 108.392 79.8227C107.716 80.5769 107.422 82.175 107.422 82.175C107.554 82.373 107.698 82.5931 107.845 82.8227C108.322 83.3852 108.711 83.9878 109.027 84.5841C109.259 85.0235 109.452 85.4588 109.611 85.8724C109.705 86.0587 109.797 86.2454 109.886 86.4331V86.4457C109.886 86.4457 112.349 86.8932 113.931 86.1263C115.514 85.3464 116.637 83.6076 118.512 83.4921C120.401 83.3771 121.052 84.2084 121.741 83.6586C122.431 83.0961 122.188 81.958 121.282 81.6256ZM87.4827 175.258L87.4089 170.016H80.0322L81.3378 176.755C81.3378 176.755 82.8312 177.739 85.6769 178.417C85.8084 178.449 85.9317 178.472 86.047 178.49C86.1623 178.507 86.2694 178.518 86.3689 178.522C87.29 178.564 87.5696 178.092 87.6142 177.583C87.6142 177.199 87.4827 176.2 87.4827 175.258ZM80.8791 63.5586C81.5548 63.2771 82.1833 62.817 82.6011 62.255C83.0189 61.6925 83.226 61.0276 83.0603 60.337C82.7348 59.0204 80.8849 59.1422 80.229 59.7953C80.1911 59.8332 80.1551 59.8724 80.1259 59.9139C80.1092 59.9383 80.0867 59.9703 80.0687 59.996C79.8436 60.3203 79.5334 60.7592 79.2187 61.2265C79.2187 61.227 79.2191 61.2315 79.2191 61.2315L78.1472 62.9194C78.0418 63.1539 77.8505 63.3871 77.6524 63.5865C77.322 63.9194 76.9731 64.1594 76.9731 64.1594C76.9731 64.1594 77.1387 63.4052 76.0924 62.702C75.0588 61.9988 72.8892 61.6275 70.0178 59.5693C67.914 58.0623 67.3899 56.5675 67.249 55.876C67.2742 56.5039 67.1585 57.7678 65.9857 59.0578C64.3393 60.8607 65.4243 65.6682 65.9857 66.9849C66.5476 68.302 68.6149 69.8365 71.0906 69.9132C71.0906 69.9132 71.8434 72.662 71.7668 73.8641H71.7664V73.8645H70.0696C70.0705 73.8695 70.7471 77.7392 72.6218 78.902C74.0282 79.7744 75.5432 79.5683 76.6543 78.4776C77.0244 78.114 77.3499 77.6526 77.611 77.0996C77.8757 76.5434 78.077 76.0725 78.2296 75.6792C78.6874 74.4996 78.7086 74.0179 78.7086 74.0179H76.9096L76.0798 67.2415C76.0798 67.2415 78.1729 64.7606 78.5173 63.6357C78.5173 63.6357 79.5257 64.1219 80.8791 63.5586Z" fill="#FFD2BB"/>
<path d="M86.9596 178.459C86.9933 178.449 87.0208 178.434 87.0514 178.421C87.0212 178.434 86.9933 178.449 86.9596 178.459ZM109.312 85.1685C109.33 85.2069 109.348 85.2457 109.365 85.284C109.348 85.2452 109.33 85.2073 109.312 85.1685ZM87.4561 178.092C87.4751 178.062 87.4904 178.03 87.5057 177.998C87.4904 178.03 87.4751 178.061 87.4561 178.092ZM40.9514 85.0932C40.9123 85.1316 40.8731 85.1699 40.833 85.2091C40.8735 85.1694 40.9118 85.132 40.9514 85.0932ZM96.7809 99.0835C96.7975 99.0785 96.8137 99.074 96.8299 99.0673C96.8362 99.0655 96.8425 99.0623 96.8488 99.0596C96.8263 99.0682 96.8038 99.0758 96.7809 99.0835ZM97.1906 98.9225C97.2396 98.9031 97.2882 98.885 97.3409 98.862C97.3769 98.8467 97.4161 98.8287 97.4535 98.8106C97.3648 98.8508 97.2779 98.8859 97.1906 98.9225ZM88.4133 100.901C88.4997 102.476 88.5902 104.177 88.6758 105.886C88.5938 104.218 88.5069 102.559 88.4196 101.011C88.4178 100.974 88.4155 100.937 88.4133 100.901ZM96.1303 99.286C96.1983 99.2721 96.264 99.2536 96.3455 99.2333C96.3572 99.2288 96.3725 99.2238 96.386 99.2193C96.2987 99.2454 96.215 99.2648 96.1303 99.286ZM95.0192 99.425C90.6036 99.1945 87.9748 93.3387 87.9748 93.3387C87.9748 93.3387 87.9748 93.341 87.9748 93.3414L87.9743 93.3401V93.3405C87.9874 93.3694 90.6135 99.1954 95.0183 99.4254C95.0602 99.4254 95.1029 99.4223 95.1444 99.4218C95.1029 99.4223 95.0593 99.4272 95.0192 99.425ZM88.0725 94.9617C88.0765 95.0284 88.0806 95.0988 88.0851 95.1692C88.0815 95.1083 88.0783 95.046 88.0752 94.9883C88.0725 94.9788 88.0729 94.9707 88.0725 94.9617ZM95.8575 99.351C95.8624 99.3505 95.8674 99.3501 95.8732 99.3487C95.875 99.3487 95.8768 99.3478 95.8786 99.3474C95.8714 99.3487 95.8642 99.3496 95.8575 99.351ZM153.34 129.037H105.917V129.038L153.34 129.037ZM28.8485 79.2226C28.8129 79.2072 28.7832 79.1892 28.7508 79.1725C28.8458 79.504 28.943 79.8306 29.0434 80.1518C29.7912 80.0913 30.1757 80.1811 30.1757 80.1811C30.1757 80.1811 29.9844 79.6957 28.8485 79.2226ZM109.886 143.435H175.43V168.355H109.886V143.435ZM111.992 156.591H142.007V152.078H111.992V156.591ZM111.992 161.782H142.007V157.269H111.992V161.782ZM111.992 167.319H142.007V162.805H111.992V167.319ZM40.0852 85.9701C40.1203 85.9331 40.155 85.897 40.1901 85.8605C40.155 85.897 40.1203 85.9335 40.0852 85.9701ZM59.4604 97.4164C59.459 97.4258 59.4568 97.4398 59.4545 97.4547C59.4514 97.4768 59.4469 97.5034 59.4419 97.5359C59.4388 97.5571 59.4352 97.5797 59.4311 97.6045C59.428 97.6239 59.4248 97.6442 59.4212 97.6649C59.4212 97.6663 59.4208 97.6672 59.4208 97.669C59.419 97.6798 59.4176 97.6897 59.4158 97.701C59.4167 97.6947 59.4176 97.6861 59.4185 97.6798C59.4181 97.6829 59.4172 97.6879 59.4167 97.6911C59.4163 97.6947 59.4163 97.6978 59.4158 97.701C59.396 97.8521 59.3726 98.0506 59.3357 98.2987C59.3357 98.2987 59.3357 98.2986 59.3357 98.3113C59.3231 98.4132 59.2974 98.5413 59.2848 98.6821C59.2722 98.8102 59.2465 98.9509 59.2339 99.1043C59.2339 99.1043 59.2339 99.1092 59.2339 99.1124C59.3749 98.0447 59.4635 97.3952 59.464 97.3916C59.464 97.392 59.4626 97.401 59.4604 97.4164ZM62.9671 68.977C62.7703 68.9288 62.5848 68.9035 62.3994 68.8783C62.3908 68.8769 62.3822 68.876 62.3737 68.8751C62.5691 68.9035 62.7658 68.9355 62.9671 68.977ZM88.0374 94.3496C88.0374 94.4136 88.0374 94.4903 88.05 94.5539V94.5805C88.0405 94.4213 88.032 94.2765 88.0239 94.1457C88.0243 94.1497 88.0243 94.1534 88.0248 94.1574C88.0248 94.2219 88.0248 94.2855 88.0374 94.3496ZM88.7834 108.094C88.7865 108.156 88.7892 108.219 88.7924 108.28C88.7915 108.261 88.7906 108.242 88.7901 108.223C88.7901 108.21 88.7901 108.21 88.7901 108.21C88.7879 108.171 88.7856 108.132 88.7834 108.094ZM230.38 165.071C209.68 186.027 195.272 185.158 195.272 185.158L71.01 184.775H47.6051C47.6051 184.775 24.6593 182.498 24.7872 160.263C24.9146 137.977 41.3008 144.472 43.9935 119.36C46.0266 100.496 35.2865 96.9062 29.825 82.4287C30.159 82.4599 30.5399 82.5248 30.9798 82.6624C32.7792 83.2244 33.4555 85.1812 34.8083 86.3061C36.1324 87.4072 38.55 87.5772 38.6527 87.584C38.6603 87.5745 38.6689 87.5655 38.677 87.5556C37.899 88.5087 37.2287 89.497 36.8761 90.3973C36.8761 90.3973 37.7568 91.2151 39.1222 92.3919C39.1236 92.3897 39.1249 92.3874 39.1263 92.3852C40.0308 90.7518 45.8862 84.6949 45.8862 84.6949C44.5896 83.883 43.4852 83.1464 43.2907 83.0165C43.2709 83.003 43.2574 82.9939 43.2574 82.9939C43.2556 82.9953 42.515 83.6074 41.5291 84.538C41.5453 84.5226 41.5637 84.5041 41.5799 84.4888C41.751 84.3269 41.9171 84.1708 42.0697 84.0301C42.0697 84.0301 42.1589 82.4062 41.6871 81.5113C41.2022 80.6285 41.8275 77.0232 41.6871 76.1409C41.5466 75.2712 40.5003 75.1945 39.9898 75.7827C39.4923 76.3709 39.4923 78.4806 39.4923 78.4806C39.4923 78.4806 38.9561 78.2632 38.3308 77.7007C37.718 77.1382 35.1789 73.328 34.5918 72.9315C34.0047 72.535 33.1624 72.7398 33.1241 73.609C33.0984 74.4787 34.1961 76.4864 34.1961 76.4864C34.1961 76.4864 32.537 74.7092 31.4138 74.6194C30.291 74.5427 29.6908 75.6677 30.5462 76.2559C31.3886 76.8567 32.32 78.3786 32.32 78.3786C32.32 78.3786 32.4222 78.5956 31.886 78.1229C31.3629 77.6371 30.2014 77.0746 29.1042 77.3046C28.7787 77.3727 28.5275 77.5279 28.3609 77.7228C27.3885 73.8251 26.791 69.212 26.791 63.5615C26.791 34.3193 71.2914 -9.71614 126.193 16.9812C167.426 37.0298 151.882 66.4894 163.279 86.5763C174.688 106.663 196.472 101.229 219.278 107.648C242.082 114.067 240.359 154.982 230.38 165.071ZM99.0643 49.5451C99.0643 49.5451 100.404 55.4143 96.3586 56.7694C96.3586 56.7694 102.892 55.7468 104.131 51.9109C104.131 51.9109 126.846 50.965 126.987 41.4768C127.153 31.0179 122.75 26.5682 105.471 26.9904C91.4198 27.3354 88.9315 44.4688 99.0643 49.5451ZM101.105 103.415C100.289 101.393 99.447 99.7186 98.7321 98.1588C98.6173 98.2229 98.5025 98.2865 98.3746 98.3505C98.3107 98.3889 98.2341 98.4277 98.1707 98.4655C98.0685 98.517 97.9663 98.5684 97.8645 98.6194C97.7754 98.6577 97.6984 98.696 97.6218 98.7344C97.5944 98.7448 97.571 98.7569 97.5458 98.7691C100.903 97.2188 105.404 93.2783 108.073 90.7803C108.073 90.7807 108.073 90.7807 108.073 90.7812C109.147 89.7762 109.92 89.008 110.206 88.7216C110.215 88.713 110.221 88.7063 110.229 88.6986C110.29 88.6368 110.332 88.5944 110.332 88.5944C110.332 88.5944 110.189 87.358 109.592 85.828C109.598 85.8424 109.605 85.8578 109.611 85.8727C109.705 86.0589 109.797 86.2457 109.886 86.4333V86.446C109.886 86.446 112.349 86.8934 113.931 86.1266C115.514 85.3467 116.637 83.6078 118.512 83.4924C120.401 83.3773 121.052 84.2087 121.741 83.6588C122.431 83.0963 122.188 81.9583 121.282 81.6259C120.376 81.2803 119.891 81.2803 119.891 81.2803C119.891 81.2803 120.197 80.8586 121.397 80.6669C122.609 80.4752 122.622 79.2221 121.614 78.749C120.606 78.2632 119.342 78.532 118.717 78.8771C118.079 79.209 118.245 79.0178 118.245 79.0178C118.245 79.0178 119.508 77.7647 120.465 77.3935C121.435 77.0101 121.129 75.7827 120.005 75.591C118.895 75.3989 116.866 76.7286 116.866 76.7286C116.866 76.7286 118.41 75.0534 118.589 74.1972C118.768 73.3407 117.989 72.9442 117.326 73.1868C116.662 73.43 113.293 76.5238 112.553 76.9203C111.825 77.3168 111.251 77.4066 111.251 77.4066C111.251 77.4066 111.749 75.3605 111.404 74.6573C111.047 73.9667 110.013 73.8007 109.669 74.619C109.324 75.4241 109.069 79.0814 108.392 79.8229C107.716 80.5771 107.422 82.1753 107.422 82.1753C107.554 82.3733 107.698 82.5934 107.845 82.823C108.322 83.3855 108.711 83.9881 109.027 84.5844C109.031 84.5934 109.035 84.602 109.04 84.6106C109.035 84.6015 109.031 84.593 109.026 84.5844C108.71 83.9881 108.321 83.3855 107.844 82.823C107.458 82.3679 107.014 81.9393 106.504 81.5618C106.504 81.5618 106.476 81.5771 106.434 81.6002C106.222 81.717 105.502 82.113 104.546 82.6466C104.375 82.7418 104.198 82.8401 104.015 82.943C104.015 82.943 104.017 82.9448 104.018 82.9452L104.018 82.9457C101.61 84.3133 98.2251 86.321 97.5332 87.1758C97.3972 87.3436 97.268 87.4969 97.1437 87.6341C96.4914 88.3549 95.9772 88.644 95.4028 88.4081C95.9768 88.6436 96.4909 88.354 97.1428 87.6336C97.2671 87.4965 97.3963 87.3436 97.5318 87.1758C99.6248 80.578 101.476 78.43 99.3952 72.9063C97.3148 67.3825 92.4143 69.2364 89.492 63.7131C86.5692 58.1893 88.6496 55.0309 84.4253 50.2365C80.9925 46.3493 73.9103 45.7994 69.3416 48.6118C68.2948 49.251 67.376 50.0823 66.6615 51.0796L65.1051 53.2276C63.8801 54.1608 62.348 55.2222 61.6718 57.7409C60.9956 60.2597 61.9654 61.6788 62.0802 64.428C62.1184 65.2336 62.0675 66.806 61.8762 68.8142C61.9298 68.8178 61.9811 68.8273 62.0329 68.8336C58.5388 68.4488 55.9537 70.1466 54.5009 73.1864C52.931 76.4981 50.9019 86.676 50.6084 87.1749C50.314 87.6422 43.7931 83.3476 43.2912 83.016C43.4857 83.146 44.59 83.8825 45.8866 84.6945C45.8866 84.6945 40.0312 90.7514 39.1267 92.3847C41.6335 94.5462 45.7561 97.936 48.9854 99.7939C48.9858 99.7939 48.9858 99.7944 48.9863 99.7944C49.0867 99.8566 49.1871 99.9094 49.287 99.9644C49.3829 100.018 49.4784 100.07 49.5725 100.121C49.617 100.143 49.6562 100.165 49.699 100.188C50.0141 100.352 50.3189 100.5 50.6084 100.626C51.9793 101.219 53.2313 101.449 54.3271 101.454C53.2304 101.45 51.9784 101.219 50.607 100.626C50.4409 100.549 50.2752 100.472 50.0965 100.396C50.0709 100.383 50.0326 100.357 49.9943 100.345C49.8984 100.292 49.7989 100.24 49.699 100.188C49.6562 100.165 49.617 100.143 49.5725 100.121C49.5684 100.118 49.5644 100.116 49.5603 100.114C49.5347 100.102 49.5094 100.088 49.4838 100.076C49.418 100.041 49.3528 100.001 49.287 99.9644C49.1871 99.9094 49.0867 99.8566 48.9863 99.7944C48.9858 99.7944 48.9858 99.7939 48.9854 99.7939C48.9732 99.793 48.9602 99.7818 48.9602 99.7818C48.7688 99.6794 48.5775 99.5648 48.3857 99.4498C47.3138 101.419 46.6245 103.439 46.6245 105.74C46.6245 110.995 50.7592 115.47 57.3318 116.187C57.5114 112.914 58.2899 106.418 58.8513 101.982C58.8639 101.969 58.8639 101.943 58.8639 101.931C58.9404 101.278 59.0169 100.678 59.0935 100.14C59.0935 100.128 59.0935 100.115 59.0935 100.115C59.1191 99.9356 59.1443 99.7691 59.1574 99.6031C59.17 99.5905 59.17 99.5905 59.17 99.5774C59.1804 99.4421 59.2015 99.3212 59.2222 99.2026C58.5964 103.947 56.9973 116.485 57.3584 118.066C57.4421 118.433 57.8216 118.652 58.438 118.771C57.8212 118.652 57.4421 118.433 57.3584 118.066L57.3579 170.617H59.6936L59.5662 175.439C59.5662 176.083 59.5086 176.793 59.5086 177.533C59.4811 177.74 59.4743 177.962 59.5225 178.168C59.5158 178.14 59.5149 178.11 59.5104 178.081C59.3204 178.064 59.1457 178.024 58.9958 177.955C58.8657 178.098 58.7176 178.253 58.5321 178.431C57.2431 179.671 55.278 180.029 53.2489 180.489C51.2198 180.936 51.0028 182.037 51.1941 182.714C51.3855 183.392 58.5321 183.724 60.0893 183.072C61.6335 182.433 61.5827 181.921 62.3354 181.193C63.1012 180.451 63.1778 180.208 63.6883 180.63C64.1988 181.052 64.1349 183.251 64.1349 183.251L66.3553 183.187C66.3553 183.187 66.2788 178.367 66.3553 178.009C66.4449 177.637 65.7683 177.126 65.7683 177.126C65.7683 177.126 64.2749 178.11 61.4422 178.788C60.2753 179.07 59.7728 178.784 59.5847 178.35C59.7728 178.784 60.2753 179.069 61.4422 178.788C64.2754 178.11 65.7683 177.126 65.7683 177.126L67.0446 170.617H69.2902C69.2902 170.617 70.9619 133.87 73.8972 134.075C77.0496 134.305 77.9937 170.017 77.9937 170.017H80.0322L81.3378 176.755C81.3378 176.755 82.8312 177.74 85.6769 178.418C85.8084 178.449 85.9317 178.473 86.047 178.49C86.1622 178.507 86.2694 178.518 86.3689 178.522C86.3702 178.522 86.3711 178.522 86.3725 178.522C86.3711 178.522 86.3707 178.522 86.3689 178.522C86.2694 178.518 86.1618 178.507 86.047 178.49C85.9322 178.473 85.8088 178.449 85.6769 178.418C82.8312 177.74 81.3374 176.755 81.3374 176.755C81.3374 176.755 80.6612 177.254 80.7503 177.625C80.8268 177.995 80.7503 182.816 80.7503 182.816L82.9707 182.867C82.9707 182.867 82.9068 180.668 83.4173 180.246C83.9279 179.824 84.0044 180.079 84.7702 180.808C85.536 181.537 85.4721 182.048 87.0163 182.701C88.5731 183.34 95.7197 183.008 95.9111 182.33C96.1159 181.652 95.8863 180.553 93.8572 180.105C91.8281 179.657 89.863 179.287 88.574 178.046C88.3381 177.825 88.1562 177.632 88.0085 177.461C87.9068 177.481 87.8001 177.493 87.6849 177.493C87.6623 177.493 87.643 177.488 87.6209 177.487C87.62 177.514 87.6155 177.54 87.6137 177.567C87.6106 177.172 87.4827 176.188 87.4827 175.258L87.4089 170.017H90.4491L88.9432 118.885C88.344 119.026 83.4691 119.268 75.0588 118.514C83.4687 119.268 88.3444 119.026 88.9441 118.884C89.1755 118.83 89.0841 115.02 88.8847 110.359C90.0822 110.538 91.1388 110.909 92.0181 111.534C97.7992 115.587 103.721 109.948 101.105 103.415ZM181.467 137.386H175.43H174.739L177.587 124.23L176.911 127.337L177.587 124.23H172.75C172.754 124.227 173.798 123.27 175.557 122.491C177.331 121.698 177.331 119.819 175.787 120.011C174.243 120.189 171.703 121.315 171.741 119.934C171.768 118.539 172.904 118.309 175.864 117.184C178.825 116.059 176.018 113.988 174.741 115.011C173.465 116.021 170.989 116.136 172.559 114.436C174.141 112.748 174.665 110.152 173.644 110.83C172.636 111.508 171.321 111.392 171.806 108.171C172.303 104.936 170.159 105.984 170.351 108.58C170.529 111.175 170.006 110.651 168.768 108.58C167.53 106.508 167.492 110.076 168.921 112.786C170.351 115.497 167.722 116.29 166.637 114.257C165.539 112.224 164.123 114.512 166.254 116.993C168.398 119.474 166.969 121.212 165.859 120.189C164.761 119.179 163.14 120.151 164.799 122.031C166.433 123.896 166.922 124.225 166.93 124.23H162.426L164.892 137.386L138.779 137.387V134.612H130.701V130.048H154.846V101.637H104.424V130.048H128.557V134.612H120.478V137.387H103.862V183.148L109.886 183.161V171.372H175.43V183.365L181.467 183.378V137.386ZM184.338 128.385L187.95 126.799L190.426 132.617V122.976L187.439 124.498L186.419 119.537L182.258 120.944L184.338 128.385ZM201.145 137.386H185.168V183.391L196.079 183.429C196.079 183.429 197.891 183.532 201.145 182.739V137.386ZM203.162 124.754L198.989 123.347L197.98 128.308L194.994 126.787V136.427L197.47 130.623L201.069 132.195L203.162 124.754ZM60.3239 118.887C62.8518 118.858 66.7137 118.391 70.8291 118.361C66.7137 118.391 62.8518 118.858 60.3239 118.887Z" fill="#E2E2E2"/>
<path d="M58.438 118.771C57.8212 118.652 57.4416 118.433 57.3579 118.066V170.617H59.6936H67.0446H69.2902C69.2902 170.617 70.9619 133.87 73.8972 134.075C77.0496 134.305 77.9937 170.016 77.9937 170.016H90.4491L88.9432 118.885C88.3439 119.026 83.4691 119.268 75.0588 118.514C74.8967 118.499 74.7346 118.488 74.5721 118.476C67.9 117.977 61.0469 119.272 58.438 118.771Z" fill="#A71010"/>
<path d="M197.47 130.622L194.994 136.427V126.787L197.98 128.308L198.989 123.347L203.162 124.754L201.069 132.195L197.47 130.622ZM190.425 132.617V122.976L187.439 124.497L186.419 119.537L182.258 120.943L184.338 128.385L187.95 126.799L190.425 132.617ZM88.8787 110.358C88.8805 110.358 88.8823 110.359 88.8845 110.359C89.084 115.02 89.1753 118.83 88.9439 118.884C88.3443 119.026 83.469 119.268 75.0591 118.514C74.897 118.499 74.7345 118.488 74.5719 118.476C67.8999 117.977 61.0463 119.272 58.4378 118.771C57.8215 118.652 57.442 118.433 57.3582 118.066C56.9972 116.485 58.5963 103.947 59.2221 99.2025C59.2266 99.1754 59.2293 99.1429 59.2338 99.1168C59.2338 99.1123 59.2338 99.1141 59.2338 99.1123C59.3752 98.0419 59.4638 97.391 59.4638 97.391C59.4638 97.391 59.4512 97.4041 59.4512 97.4293C59.4512 97.4555 59.4386 97.4934 59.4386 97.5444C59.4328 97.58 59.4265 97.6224 59.4206 97.6689C59.4188 97.6797 59.4175 97.6896 59.4157 97.7009C59.4166 97.6946 59.4175 97.686 59.4184 97.6797C59.3729 97.958 59.2955 98.405 59.1946 98.8669C59.1933 98.8741 59.1915 98.8809 59.1901 98.8881C59.1744 98.9594 59.1582 99.0306 59.1415 99.1019C59.1374 99.1199 59.1329 99.1375 59.1284 99.1551C59.1131 99.2196 59.0974 99.2841 59.0812 99.3473C58.9159 99.9995 57.1295 101.465 54.3274 101.454C53.2312 101.449 51.9791 101.219 50.6083 100.626C50.3188 100.5 50.014 100.352 49.6988 100.188C49.6561 100.165 49.6169 100.143 49.5723 100.12C49.4782 100.07 49.3828 100.018 49.2869 99.9643C49.1869 99.9093 49.0865 99.8565 48.9861 99.7943L48.9852 99.7938C45.7559 97.9359 41.6333 94.5461 39.1266 92.3846C40.0311 90.7513 45.8865 84.6944 45.8865 84.6944C44.5899 83.8824 43.4855 83.1458 43.291 83.0159C43.793 83.3475 50.3138 87.6421 50.6083 87.1748C50.9018 86.6759 52.9309 76.498 54.5008 73.1863C55.9554 70.1425 58.545 68.4438 62.0458 68.8344C62.1502 68.8461 62.2542 68.8574 62.3609 68.8727C62.5671 68.9025 62.7747 68.9359 62.9872 68.9805C63.07 68.9977 63.1497 69.0238 63.2316 69.0437C65.4917 69.5899 67.4496 71.1475 68.685 72.3505C68.5621 72.2318 68.4324 72.1096 68.296 71.9851C68.296 72.0108 66.4966 80.3343 74.1789 81.5621C81.8869 82.8026 80.5471 71.3464 80.5471 71.3207C79.6895 72.258 79.1501 73.1646 78.8917 73.6513C79.5004 72.502 81.6771 68.9981 85.8681 68.3802C90.8965 67.626 92.3255 69.3518 93.6783 73.9423C95.0186 78.5197 93.8188 87.0995 94.8016 87.9944C95.6502 88.7887 96.2742 88.5947 97.1436 87.634C97.2678 87.4968 97.397 87.3435 97.533 87.1757C98.225 86.3209 101.611 84.3132 104.018 82.9456C104.063 82.997 108.212 87.8658 108.075 90.7788C105.403 93.2795 100.894 97.2273 97.5348 98.7744C97.5118 98.7848 97.4889 98.7947 97.4668 98.8051C97.3678 98.8497 97.2723 98.8881 97.1755 98.9287C97.1463 98.94 97.1134 98.9553 97.0864 98.9643C97.0058 98.9995 96.9347 99.032 96.8559 99.0572C96.8203 99.0708 96.7861 99.0812 96.7505 99.0942C96.688 99.1163 96.6254 99.1389 96.5628 99.1569C96.5025 99.1772 96.4462 99.1971 96.3922 99.2174C96.2972 99.2462 96.2067 99.267 96.1149 99.29C96.1027 99.2922 96.091 99.2959 96.0779 99.2977C96.0055 99.322 95.9451 99.3337 95.8848 99.3464C95.8632 99.3509 95.8434 99.3522 95.8222 99.3563C95.7421 99.3734 95.666 99.3874 95.5926 99.3874C95.5688 99.3937 95.5417 99.3996 95.5165 99.4041C95.5125 99.4046 95.5084 99.4055 95.5044 99.4059C95.4801 99.41 95.4567 99.4131 95.4395 99.4131C95.4242 99.4145 95.4116 99.4145 95.3968 99.4154C95.2671 99.4253 95.1397 99.4312 95.0191 99.4249C90.6034 99.1944 87.9746 93.3386 87.9746 93.3386V93.3413L87.9742 93.34C87.9742 93.34 87.9742 93.34 87.9742 93.3657C87.9742 93.3783 87.9742 93.404 87.9742 93.4297C87.9742 93.4424 87.9742 93.4554 87.9742 93.4681C87.9863 93.5898 87.999 93.8077 88.0219 94.1154C88.0305 94.2556 88.0399 94.4135 88.0503 94.5876C88.0503 94.593 88.0503 94.6016 88.0503 94.6061C88.0503 94.6828 88.0629 94.7726 88.0629 94.8492C88.0629 94.8862 88.0674 94.9178 88.0719 94.9516C88.0773 95.0432 88.0831 95.1388 88.089 95.2372C88.1138 95.6806 88.1453 96.1839 88.1777 96.755V96.7676C88.216 97.4582 88.2542 98.225 88.3051 99.0437C88.3051 99.0563 88.3051 99.0563 88.3051 99.0694C88.3389 99.6238 88.3726 100.2 88.4068 100.786C88.5018 102.514 88.6022 104.4 88.6954 106.282C88.7143 106.674 88.7337 107.066 88.7517 107.457C88.7517 107.483 88.7517 107.508 88.7517 107.534C88.7612 107.709 88.7711 107.877 88.781 108.049C88.7868 108.17 88.7922 108.291 88.7981 108.411C88.8233 109.065 88.8566 109.717 88.8796 110.347C88.8787 110.345 88.8787 110.345 88.8787 110.358ZM83.0606 88.518C83.0606 87.4819 82.2183 86.6511 81.1972 86.6511H66.0108C64.9771 86.6511 64.1474 87.4819 64.1474 88.518V105.907C64.1474 106.93 64.9771 107.774 66.0108 107.774H81.1972C82.2183 107.774 83.0606 106.93 83.0606 105.907V88.518ZM175.557 122.491C177.331 121.698 177.331 119.819 175.787 120.011C174.243 120.189 171.703 121.315 171.741 119.934C171.768 118.539 172.904 118.309 175.864 117.184C178.825 116.059 176.017 113.988 174.741 115.011C173.465 116.021 170.989 116.136 172.559 114.435C174.141 112.748 174.665 110.152 173.643 110.83C172.635 111.508 171.321 111.392 171.806 108.171C172.303 104.936 170.159 105.984 170.351 108.58C170.529 111.175 170.006 110.651 168.768 108.58C167.53 106.508 167.492 110.075 168.921 112.786C170.351 115.497 167.721 116.29 166.637 114.256C165.539 112.223 164.123 114.512 166.254 116.993C168.398 119.473 166.969 121.212 165.858 120.189C164.761 119.179 163.14 120.151 164.799 122.031C166.434 123.897 166.923 124.225 166.929 124.23H172.75C172.753 124.227 173.798 123.27 175.557 122.491Z" fill="#072948"/>
<path d="M71.0901 69.9136C71.0901 69.9136 71.8428 72.6615 71.7663 73.8641V73.8645H70.069C70.069 73.8645 70.0208 73.8014 69.9294 73.6904C69.9285 73.6895 69.9285 73.6891 69.9276 73.6881C69.9258 73.6859 69.9227 73.6827 69.9209 73.6805C69.8785 73.6291 69.8268 73.5673 69.7669 73.4978C69.7534 73.482 69.7381 73.4644 69.7237 73.4482C69.6719 73.3882 69.6147 73.3232 69.5521 73.2533C69.5197 73.2168 69.4837 73.178 69.4486 73.1392C69.4004 73.086 69.3496 73.0309 69.296 72.9737C69.2348 72.9078 69.169 72.8397 69.101 72.7689C69.0695 72.7359 69.0371 72.703 69.0042 72.6692C68.9066 72.569 68.8025 72.4662 68.6931 72.3593C68.6913 72.3575 68.6891 72.3552 68.6873 72.3534C67.4524 71.1504 65.4926 69.5902 63.2308 69.044C63.1488 69.0241 63.0691 68.998 62.9863 68.9808C62.7819 68.9294 62.5906 68.9041 62.3992 68.878C62.3857 68.8762 62.3736 68.8753 62.3601 68.873C62.2534 68.8577 62.1494 68.8464 62.0449 68.8347C61.9891 68.8283 61.9337 68.818 61.8761 68.8139C62.0674 66.8058 62.1183 65.2333 62.08 64.4277C61.9652 61.6785 60.9955 60.2594 61.6717 57.7407C62.3479 55.2219 63.8795 54.1605 65.1045 53.2273C72.1616 52.6269 78.1471 62.9189 78.1471 62.9189C78.0417 63.1535 77.8504 63.3867 77.6527 63.586C77.3223 63.9189 76.9734 64.1589 76.9734 64.1589C76.9734 64.1589 77.1391 63.4047 76.0928 62.7015C75.0591 61.9983 72.8895 61.6271 70.0181 59.5688C67.9143 58.0618 67.3902 56.567 67.2493 55.8755C67.2493 55.8751 67.2489 55.8742 67.2489 55.8737C67.2363 55.631 67.2106 55.4772 67.2106 55.4772C67.2106 55.4772 67.198 55.631 67.2489 55.8737C67.2745 56.5007 67.1597 57.7664 65.9856 59.0578C64.3392 60.8607 65.4242 65.6682 65.9856 66.9848C66.5466 68.3024 68.6144 69.8369 71.0901 69.9136ZM85.8672 68.3795C90.8956 67.6254 92.3246 69.3511 93.6775 73.9416C95.0177 78.5191 93.8179 87.0988 94.8007 87.9937C95.6494 88.7881 96.2734 88.5941 97.1427 87.6333C97.267 87.4962 97.3962 87.3433 97.5317 87.1755C99.6247 80.5778 101.476 78.4298 99.3951 72.906C97.3147 67.3822 92.4142 69.2361 89.4919 63.7128C86.5691 58.189 88.6495 55.0307 84.4252 50.2363C80.9924 46.349 73.9102 45.7991 69.3414 48.6115C69.3414 48.6115 69.341 48.6115 69.341 48.612C70.3958 49.0044 71.3386 49.4888 72.1836 50.036C72.2021 50.0482 72.2219 50.059 72.2403 50.0712C72.4092 50.1817 72.5708 50.2963 72.7315 50.4117C72.7761 50.4438 72.8234 50.474 72.8675 50.506C73.0079 50.6088 73.1417 50.7157 73.2763 50.8222C73.3362 50.8696 73.3987 50.9151 73.4573 50.9629C73.5748 51.059 73.686 51.1582 73.7985 51.2566C73.8687 51.3179 73.9417 51.3775 74.0101 51.4393C74.1105 51.5299 74.2046 51.6233 74.3009 51.7158C74.3761 51.7879 74.454 51.8587 74.5274 51.9314C74.6129 52.0171 74.6935 52.1046 74.7759 52.1912C74.8542 52.2733 74.9348 52.3545 75.0105 52.4375C75.0834 52.5173 75.1514 52.599 75.2216 52.6797C75.3013 52.7713 75.3832 52.8619 75.4602 52.9544C75.5228 53.0293 75.5804 53.1055 75.6412 53.1808C75.7209 53.2801 75.8019 53.3788 75.878 53.479C75.932 53.5498 75.982 53.6211 76.0342 53.6923C76.1117 53.7974 76.1905 53.9025 76.2643 54.0081C76.3111 54.0753 76.3543 54.1425 76.4003 54.2097C76.4746 54.3198 76.5502 54.4294 76.6209 54.5394C76.6614 54.6021 76.6983 54.6648 76.7375 54.7275C76.8091 54.8417 76.8811 54.9562 76.9486 55.0699C76.9837 55.129 77.0157 55.1881 77.0499 55.2472C77.117 55.364 77.185 55.4808 77.2485 55.5963C77.2791 55.6522 77.307 55.7077 77.3367 55.7636C77.3997 55.8818 77.4632 56 77.5222 56.1168C77.5487 56.1696 77.5731 56.221 77.5987 56.2738C77.6572 56.3924 77.7158 56.5106 77.7698 56.6274C77.7932 56.678 77.8144 56.7271 77.8373 56.7772C77.8909 56.8945 77.944 57.0117 77.9936 57.1268C78.0138 57.1741 78.0323 57.2197 78.0521 57.2666C78.1007 57.3816 78.1489 57.4966 78.1939 57.6094C78.2124 57.6563 78.229 57.7014 78.247 57.7474C78.2898 57.8575 78.333 57.9676 78.3722 58.0749C78.3888 58.12 78.4037 58.1633 78.4199 58.2084C78.4577 58.3131 78.4951 58.4177 78.5298 58.5188C78.5451 58.5639 78.5586 58.6063 78.5734 58.6505C78.6058 58.7484 78.6383 58.8458 78.668 58.9396C78.6815 58.9825 78.6932 59.0231 78.7062 59.0655C78.7341 59.1566 78.7621 59.2472 78.7873 59.3338C78.7999 59.3771 78.8107 59.4177 78.8228 59.4597C78.8458 59.5404 78.8688 59.6212 78.889 59.6969C78.9012 59.7421 78.9115 59.784 78.9228 59.8273C78.9403 59.8959 78.9588 59.9649 78.9746 60.0289C78.9858 60.0745 78.9953 60.116 79.0056 60.1593C79.0191 60.2157 79.0331 60.273 79.0448 60.3253C79.0556 60.3722 79.0646 60.4146 79.0741 60.4583C79.0835 60.5007 79.093 60.5449 79.1015 60.5842C79.1114 60.632 79.12 60.6744 79.1285 60.7173C79.1344 60.7457 79.1402 60.7759 79.1452 60.8021C79.1551 60.853 79.1632 60.8981 79.1709 60.9405C79.1727 60.9518 79.1754 60.9644 79.1772 60.9753C79.2042 61.13 79.2163 61.2188 79.2177 61.2283C79.2177 61.2283 79.2177 61.2283 79.2177 61.2279C79.5328 60.7606 79.843 60.3212 80.0677 59.9974C80.0857 59.9712 80.1073 59.9405 80.1239 59.9162C80.1537 59.8747 80.1897 59.835 80.2279 59.7966C80.8839 59.1435 82.7338 59.0212 83.0593 60.3384C83.225 61.0289 83.0179 61.6938 82.6001 62.2563C82.1823 62.8188 81.5538 63.2793 80.8771 63.5608C79.5243 64.1233 78.5162 63.6375 78.5162 63.6375C78.1718 64.7624 76.0793 67.2424 76.0788 67.2428L76.9086 74.0192H78.708C78.708 74.0192 78.7531 73.9173 78.8417 73.7441C78.8526 73.7229 78.8629 73.7026 78.8755 73.6791C78.88 73.6706 78.8854 73.6606 78.8899 73.6521C79.4995 72.5018 81.6763 68.9979 85.8672 68.3795ZM65.7681 177.126C65.7681 177.126 64.2748 178.11 61.4421 178.788C60.2504 179.076 59.7493 178.773 59.5706 178.323C59.5701 178.322 59.5701 178.321 59.5697 178.32C59.5503 178.271 59.5346 178.22 59.5224 178.168C59.5157 178.14 59.5148 178.109 59.5103 178.08C59.3203 178.063 59.1456 178.024 58.9957 177.955C58.8656 178.098 58.7174 178.253 58.532 178.43C57.243 179.671 55.2778 180.029 53.2488 180.489C51.2197 180.936 51.0027 182.036 51.194 182.714C51.3853 183.391 58.532 183.724 60.0892 183.072C61.6334 182.432 61.5826 181.921 62.3353 181.192C63.1011 180.45 63.1777 180.208 63.6882 180.629C64.1987 181.052 64.1348 183.251 64.1348 183.251L66.3552 183.187C66.3552 183.187 66.2787 178.366 66.3552 178.009C66.4448 177.637 65.7681 177.126 65.7681 177.126ZM58.8511 101.981C58.8638 101.969 58.8638 101.943 58.8638 101.93C58.9403 101.278 59.0168 100.677 59.0934 100.14C59.0934 100.127 59.0934 100.114 59.0934 100.114C59.119 99.9353 59.1442 99.7689 59.1573 99.6029C59.1699 99.5902 59.1699 99.5902 59.1699 99.5771C59.1802 99.4418 59.2014 99.3209 59.2221 99.2023C59.2266 99.1752 59.2293 99.1428 59.2338 99.1166C59.2338 99.1121 59.2338 99.1139 59.2338 99.1121C59.2338 99.1089 59.2338 99.104 59.2338 99.104C59.2464 98.9506 59.2721 98.8099 59.2847 98.6818C59.2973 98.541 59.323 98.4129 59.3356 98.311C59.3356 98.2984 59.3356 98.2984 59.3356 98.2984C59.3725 98.0503 59.3955 97.8518 59.4153 97.7007C59.4162 97.6944 59.4171 97.6858 59.418 97.6795C59.3725 97.9578 59.2951 98.4048 59.1942 98.8667C59.1929 98.8739 59.1911 98.8807 59.1897 98.8879C59.1739 98.9592 59.1577 99.0305 59.1411 99.1017C59.137 99.1198 59.1325 99.1374 59.128 99.1549C59.1127 99.2194 59.097 99.284 59.0808 99.3471C58.9155 99.9994 57.1291 101.464 54.327 101.454C53.2303 101.45 51.9783 101.219 50.6069 100.625C50.4408 100.549 50.2751 100.472 50.0964 100.395C50.0707 100.382 50.0325 100.357 49.9942 100.344C49.8983 100.292 49.7984 100.24 49.6984 100.187C49.6556 100.165 49.6165 100.143 49.5719 100.12C49.5679 100.118 49.5643 100.116 49.5602 100.114C49.5345 100.101 49.5093 100.088 49.4837 100.076C49.4179 100.04 49.3522 100 49.2865 99.9642C49.1865 99.9091 49.0861 99.8564 48.9857 99.7941C48.9853 99.7941 48.9853 99.7937 48.9848 99.7937C48.9727 99.7928 48.9601 99.7815 48.9601 99.7815C48.7687 99.6791 48.5774 99.5645 48.3856 99.4495C47.3137 101.418 46.6244 103.439 46.6244 105.74C46.6244 110.995 50.7591 115.47 57.3317 116.186C57.5113 112.913 58.2897 106.418 58.8511 101.981ZM111.25 34.6239C111.621 34.3939 112.119 34.1765 112.744 33.9464C113.382 33.729 114.046 33.614 114.748 33.614C115.539 33.614 116.19 33.7926 116.688 34.1638C117.185 34.522 117.44 35.0718 117.44 35.8129C117.44 36.3754 117.338 36.8364 117.121 37.2067C116.917 37.5649 116.623 37.923 116.241 38.2555C115.934 38.5491 115.526 38.8437 115.028 39.1247C114.543 39.4188 114.084 39.6872 113.65 39.9303V42.9222H115.411V40.7102C115.947 40.4034 116.445 40.0836 116.93 39.7638C117.402 39.4319 117.823 39.0863 118.193 38.7029C118.563 38.3186 118.869 37.8847 119.086 37.3727C119.316 36.8743 119.431 36.3118 119.431 35.6596C119.431 34.5472 119.022 33.6392 118.218 32.9617C117.402 32.2842 116.291 31.9387 114.888 31.9387C114.262 31.9387 113.599 32.0028 112.897 32.1435C112.195 32.2842 111.621 32.4502 111.161 32.6293V34.6239H111.25ZM93.8571 180.104C91.828 179.657 89.8629 179.287 88.5739 178.046C88.338 177.825 88.1561 177.632 88.0084 177.461C87.9067 177.481 87.8 177.493 87.6847 177.493C87.6622 177.493 87.6429 177.488 87.6208 177.487C87.6037 178.031 87.348 178.567 86.3683 178.522C86.2688 178.518 86.1612 178.507 86.0464 178.49C85.9316 178.472 85.8083 178.449 85.6764 178.417C82.8306 177.739 81.3373 176.755 81.3373 176.755C81.3373 176.755 80.661 177.254 80.7502 177.624C80.8267 177.995 80.7502 182.816 80.7502 182.816L82.9706 182.867C82.9706 182.867 82.9067 180.668 83.4172 180.246C83.9277 179.823 84.0043 180.079 84.7701 180.808C85.5359 181.537 85.472 182.048 87.0162 182.7C88.573 183.339 95.7196 183.007 95.9109 182.329C96.1158 181.652 95.8862 180.552 93.8571 180.104ZM113.574 46.8478H115.565V44.7761H113.574V46.8478ZM176.911 127.336L177.587 124.229H162.426L163.013 127.336H176.911ZM175.43 137.386H181.467V183.377L175.43 183.365V171.372H109.886V183.161L103.862 183.148V137.387H120.478V134.612H128.556V130.048H104.424V101.637H154.846V130.048H130.701V134.612H138.779V137.387L175.43 137.386ZM153.34 129.037V102.659H105.917V129.037H153.34ZM175.43 143.434H109.886V168.355H175.43V143.434ZM142.007 157.269H111.991V161.782H142.007V157.269ZM201.145 137.386V182.739C197.891 183.532 196.079 183.429 196.079 183.429L185.167 183.39V137.386H201.145ZM199.269 148.152H187.043V150.032H199.269V148.152ZM199.269 145.058H187.043V146.937H199.269V145.058ZM199.269 141.95H187.043V143.83H199.269V141.95ZM142.007 152.078H111.991V156.591H142.007V152.078ZM105.981 34.1634C106.478 34.5215 106.734 35.0714 106.734 35.8125C106.734 35.8125 106.734 35.8125 106.734 35.8129C106.734 36.3754 106.619 36.836 106.414 37.2063C106.21 37.5644 105.917 37.9226 105.534 38.255C105.214 38.5487 104.819 38.8432 104.321 39.1242C103.824 39.4183 103.377 39.6867 102.943 39.9298V42.9218H104.704V40.7097C105.241 40.403 105.738 40.0832 106.223 39.7634C106.695 39.4314 107.116 39.0859 107.486 38.7025C107.856 38.3182 108.15 37.8842 108.379 37.3723C108.609 36.8738 108.724 36.3114 108.724 35.6596C108.724 34.5472 108.316 33.6392 107.511 32.9617C106.695 32.2842 105.585 31.9387 104.181 31.9387C103.555 31.9387 102.892 32.0028 102.19 32.1435C101.488 32.2842 100.901 32.4502 100.454 32.6293V34.6239H100.544C100.914 34.3939 101.411 34.1765 102.037 33.9464C102.675 33.729 103.338 33.614 104.04 33.614C104.832 33.614 105.483 33.7926 105.981 34.1634ZM98.7319 98.1585C98.6171 98.2226 98.5023 98.2862 98.3745 98.3502C98.3106 98.3886 98.234 98.4274 98.1705 98.4653C98.0683 98.5167 97.9661 98.5681 97.8644 98.6191C97.7753 98.6574 97.6983 98.6958 97.6217 98.7341C97.5898 98.7463 97.5637 98.7603 97.5339 98.7742C97.511 98.7846 97.488 98.7945 97.466 98.8049C97.425 98.8248 97.3809 98.8446 97.3408 98.8618C97.2827 98.887 97.2292 98.9069 97.1747 98.9285C97.1454 98.9398 97.1125 98.9551 97.0855 98.9642C97.005 98.9993 96.9338 99.0318 96.855 99.0571C96.8465 99.0598 96.8388 99.0647 96.8303 99.067C96.8037 99.0783 96.7767 99.0841 96.7501 99.0936C96.6876 99.1157 96.625 99.1383 96.5624 99.1563C96.5021 99.1766 96.4458 99.1964 96.3918 99.2168C96.3769 99.2222 96.3589 99.2276 96.3454 99.233C96.2576 99.2551 96.1883 99.2754 96.1144 99.2894C96.1023 99.2916 96.0906 99.2952 96.0775 99.297C96.005 99.3214 95.9447 99.3331 95.8844 99.3457C95.8808 99.3466 95.8767 99.348 95.8731 99.3485C95.8547 99.353 95.8398 99.3516 95.8218 99.3552C95.7417 99.3724 95.6656 99.3863 95.5922 99.3863C95.5683 99.3927 95.5413 99.3985 95.5161 99.403C95.5116 99.4039 95.5085 99.4044 95.504 99.4048C95.4796 99.4089 95.4562 99.4121 95.4391 99.4121C95.4238 99.4134 95.4112 99.4134 95.3964 99.4143C95.2626 99.4238 95.1442 99.4251 95.0182 99.4251C90.6133 99.1951 87.9873 93.3691 87.9742 93.3402L87.9738 93.3389C87.9738 93.3389 87.9738 93.3389 87.9738 93.3646V93.467C87.9859 93.5888 87.9985 93.8066 88.0215 94.1143C88.0228 94.1292 88.0233 94.1418 88.0246 94.1571C88.0246 94.2216 88.0246 94.2852 88.0373 94.3493C88.0373 94.4133 88.0373 94.49 88.0499 94.5536V94.6046C88.0499 94.6813 88.0625 94.771 88.0625 94.8477C88.0625 94.8847 88.067 94.9163 88.0715 94.9501C88.0733 94.9627 88.0715 94.9745 88.0751 94.9884C88.0791 95.0674 88.0841 95.1522 88.0886 95.2352C88.1133 95.6786 88.1448 96.182 88.1773 96.753V96.7656C88.2155 97.4562 88.2538 98.2231 88.3047 99.0417C88.3047 99.0544 88.3047 99.0544 88.3047 99.0674C88.3384 99.6218 88.3722 100.198 88.4064 100.784C88.4109 100.86 88.4154 100.934 88.4195 101.011C88.5136 102.68 88.6077 104.479 88.695 106.28C88.7139 106.672 88.7333 107.064 88.7513 107.455V107.532C88.7607 107.707 88.7706 107.875 88.7805 108.047C88.7837 108.101 88.7868 108.155 88.7895 108.21C88.7895 108.21 88.7895 108.21 88.7895 108.222C88.7918 108.285 88.7949 108.347 88.7972 108.409C88.8224 109.063 88.8557 109.714 88.8787 110.345C88.8787 110.345 88.8787 110.345 88.8787 110.358C88.8805 110.358 88.8823 110.359 88.8845 110.359C90.0821 110.538 91.1387 110.909 92.018 111.534C97.7991 115.587 103.721 109.948 101.105 103.414C100.289 101.393 99.4469 99.7183 98.7319 98.1585ZM104.857 44.7761H102.854V46.8478H104.857V44.7761ZM139.519 106.214L129.641 113.745L119.853 106.086L118.691 107.569L128.096 114.921L118.601 122.158L119.737 123.654L129.628 116.123L139.416 123.769L140.565 122.298L131.172 114.946L140.654 107.709L139.519 106.214ZM59.4189 97.6795C59.4193 97.6754 59.4198 97.6727 59.4207 97.6687C59.427 97.6222 59.4333 97.5798 59.4387 97.5442C59.4387 97.4932 59.4513 97.4553 59.4513 97.4292C59.4513 97.4039 59.4639 97.3908 59.4639 97.3908C59.4639 97.3908 59.4625 97.4003 59.4603 97.4161C59.4589 97.4256 59.4567 97.4395 59.4544 97.4544C59.4513 97.4765 59.4468 97.5031 59.4418 97.5356C59.4387 97.5568 59.4351 97.5794 59.431 97.6042C59.427 97.6285 59.4234 97.6515 59.4189 97.6795ZM79.2186 61.227C79.2186 61.2274 79.219 61.2315 79.219 61.2315L79.2064 61.245C79.2105 61.2387 79.2145 61.2328 79.2186 61.227Z" fill="#072948"/>
</svg>
