<svg width="192" height="219" viewBox="0 0 192 219" fill="none" xmlns="http://www.w3.org/2000/svg">
<path d="M146.018 192.924C138.838 202.333 127.945 205.102 127.945 205.102H109.178C109.178 205.102 123.356 193.519 116.726 193.111C112.353 192.842 109.277 194.167 107.683 195.103C107.641 195.067 107.595 195.027 107.553 194.991C108.314 194.331 109.59 193.227 111.728 191.377C113.313 190.006 114.876 187.558 116.016 184.824C118.771 188.94 120.351 193.252 120.352 193.254C120.35 193.249 120.3 193.085 118.784 188.078C117.216 182.902 116.968 165.607 123.818 171.054C128.039 174.411 129.125 181.807 129.338 186.992C129.34 186.75 129.344 186.502 129.347 186.24C129.43 179.885 137.683 168.496 139.086 177.904C140.489 187.313 134.134 196.39 134.134 196.39C137.106 192.181 153.199 183.516 146.018 192.924ZM106.638 195.782C106.425 195.967 106.424 195.967 106.424 195.967C106.424 195.967 106.506 195.897 106.651 195.785C106.647 195.784 106.642 195.783 106.638 195.782Z" fill="#A71010"/>
<path d="M137.015 46.2146L137.432 52.8024L135.454 52.9277L135.037 46.3398L137.015 46.2146ZM141.878 45.9075L142.027 48.2604L144.005 48.1352L143.857 45.7823L141.878 45.9075ZM151.289 48.6262L143.185 64.9658L124.982 66.117L114.884 50.9293L122.988 34.5898L141.19 33.4385L151.289 48.6262ZM126.236 54.1459L126.007 50.5282L124.66 49.3735L122.048 49.5388L121.898 47.1712L123.876 47.046L123.947 48.1636L125.85 48.0433L125.741 46.308L124.394 45.1528L121.147 45.3582L119.956 46.6738L120.184 50.2769L121.531 51.4321L124.144 51.2814L124.293 53.6344L122.315 53.7596L122.245 52.6567L120.342 52.777L120.451 54.5123L121.798 55.6675L125.045 55.462L126.236 54.1459ZM130.371 46.6499L132.305 46.5276L132.186 44.6598L126.417 45.0247L126.536 46.8925L128.469 46.7702L129.003 55.2111L130.906 55.0908L130.371 46.6499ZM139.374 53.2998L138.879 45.4766L137.533 44.3214L134.286 44.5268L133.095 45.8424L133.59 53.6657L134.938 54.8355L138.185 54.6301L139.374 53.2998ZM144.757 49.9477L145.947 48.6321L145.72 45.0438L144.374 43.8886L139.858 44.1742L140.51 54.4829L142.413 54.3626L142.144 50.1125L144.757 49.9477Z" fill="#A71010"/>
<path d="M83.3842 182.699C83.3803 182.407 83.3764 182.107 83.3725 181.789C83.3397 179.282 82.2775 176.142 80.7907 173.405C81.8246 173.063 83.2175 172.677 84.8314 172.411C83.8914 175.898 83.5119 179.613 83.3842 182.699ZM99.6367 175.857C99.6113 175.835 99.5854 175.816 99.5594 175.795L99.0459 181.29C99.7996 180.078 100.636 178.855 101.552 177.694C100.983 177.068 100.352 176.453 99.6367 175.857ZM62.7687 190.051C53.8949 178.423 73.7846 189.133 77.4566 194.335C77.4566 194.335 69.6026 183.115 71.3368 171.487C71.9443 167.414 73.5905 166.497 75.4773 167.359C71.8875 162.991 65.7085 159.44 57.8511 161.725C45.899 165.2 48.3645 179.769 48.3645 179.769C21.7905 178.057 29.3727 203.719 29.3727 203.719L29.76 205.101H85.1068C85.1068 205.102 71.6425 201.679 62.7687 190.051ZM69.2138 48.355C62.3178 49.449 70.4677 61.2983 60.9596 66.7672C51.4515 72.236 52.4967 77.3405 53.5413 87.9138C54.586 98.4872 61.482 102.498 58.7656 108.696C56.0493 114.894 53.9595 116.17 56.0493 125.832C58.1391 135.494 63.1541 131.666 62.5271 140.781C61.9001 149.896 68.3784 148.802 68.3784 148.802C68.4723 148.768 68.5452 148.735 68.6352 148.701V121.764L62.4493 113.664C62.3056 113.475 62.3638 113.221 62.5799 113.095C62.7971 112.971 63.0881 113.021 63.2319 113.209L68.6352 120.285V98.5517C68.6352 98.3253 68.846 98.1414 69.1052 98.1414C69.3649 98.1414 69.5752 98.3253 69.5752 98.5517V109.102L75.5033 100.913C75.6417 100.72 75.9312 100.664 76.1518 100.784C76.3714 100.906 76.4369 101.159 76.298 101.351L69.5752 110.638V148.33C74.9252 146.063 72.5473 144.653 75.4827 142.605C78.6172 140.417 80.2889 137.136 79.6624 133.49C79.2359 131.009 79.1029 128.948 80.3094 125.589C77.3212 122.382 73.9685 118.441 73.9685 116.902C73.9685 115.303 77.1666 109.806 80.2219 104.763C79.8976 103.888 79.6267 102.959 79.4535 101.952C78.1995 94.6597 84.8867 93.5661 85.3048 81.8987C85.7225 70.2313 80.0805 73.3306 78.2 64.58C76.3186 55.829 76.1097 47.2609 69.2138 48.355Z" fill="#072948"/>
<path d="M92.8103 202.309C92.827 202.623 89.0009 203.201 87.7445 203.35C86.4881 203.499 86.1579 204.424 86.1579 204.672C86.1579 204.92 86.3399 205.102 86.3399 205.102H85.1069C85.1069 205.102 71.6432 201.679 62.7689 190.051C53.8951 178.423 73.7848 189.133 77.4568 194.335C77.4568 194.335 69.6027 183.115 71.337 171.487C73.0713 159.859 83.2709 173.935 83.3732 181.789C83.3771 182.106 83.381 182.407 83.3849 182.699C83.6147 177.148 84.657 169.558 88.3192 164.933L91.3632 194.251H92.3761L92.7443 200.297C92.6049 200.341 92.4098 200.423 92.3482 200.556C92.2484 200.771 92.7937 201.995 92.8103 202.309ZM114.885 171.413L114.036 188.615C117.606 183.137 119.857 173.614 114.885 171.413ZM108.405 200.637L108.404 200.638L107.999 194.93C106.971 195.493 106.425 195.967 106.425 195.967C106.425 195.967 106.43 195.963 107.977 194.624L107.951 194.251H106.827L104.525 174.479C102.396 176.397 100.553 178.864 99.0471 181.287L97.8356 194.252H97.2189L96.765 200.638L96.7645 200.637C96.9127 200.855 97.0374 201.138 97.0751 201.251C97.1411 201.449 97.0751 205.102 97.0751 205.102H108.094C108.094 205.102 108.028 201.449 108.094 201.251C108.132 201.138 108.256 200.855 108.405 200.637ZM116.727 193.111C115.677 193.047 114.709 193.081 113.81 193.174L113.757 194.251H112.793L112.424 200.298C112.564 200.341 112.759 200.423 112.82 200.557C112.92 200.771 112.374 201.995 112.358 202.309C112.358 202.31 112.361 202.312 112.361 202.314C116.098 198.859 121.246 193.389 116.727 193.111Z" fill="#091118"/>
<path d="M120.352 193.254C120.351 193.249 120.301 193.085 118.784 188.078C118.273 186.389 117.902 183.411 117.872 180.353C117.732 180.315 117.581 180.278 117.431 180.241C117.129 181.77 116.636 183.338 116.016 184.823C118.771 188.939 120.351 193.252 120.352 193.254ZM144.317 185.655C144.317 185.655 146.244 174.266 136.901 171.549C132.452 170.256 128.693 171.357 125.891 173.359C128.416 177.139 129.166 182.789 129.338 186.992C129.341 186.75 129.344 186.502 129.348 186.24C129.43 179.885 137.683 168.496 139.086 177.904C140.489 187.313 134.134 196.39 134.134 196.39C137.105 192.181 153.198 183.516 146.018 192.924C138.838 202.333 127.945 205.102 127.945 205.102H123.791H118.828H108.468H108.093H97.0741H86.3394H85.3446C85.3485 205.223 85.3446 205.335 85.3514 205.459H158.861L159.164 204.378C159.164 204.378 165.091 184.317 144.317 185.655ZM76.1519 100.784C75.9313 100.663 75.6418 100.72 75.5034 100.912L69.5753 109.102V98.5512C69.5753 98.3248 69.3645 98.1409 69.1053 98.1409C68.8456 98.1409 68.6353 98.3248 68.6353 98.5512V120.284L63.232 113.209C63.0882 113.021 62.7972 112.971 62.5801 113.094C62.3639 113.221 62.3057 113.475 62.4495 113.664L68.6353 121.764V162.198C68.9552 162.331 69.2687 162.473 69.5758 162.625V110.638L76.2986 101.35C76.4371 101.159 76.3715 100.906 76.1519 100.784Z" fill="#F9F9F9"/>
<path d="M126.007 50.5284L126.236 54.1461L125.046 55.4617L121.799 55.6671L120.452 54.5119L120.343 52.7766L122.246 52.6563L122.316 53.7592L124.294 53.634L124.145 51.281L121.532 51.4317L120.185 50.2765L119.957 46.6735L121.148 45.3579L124.395 45.1524L125.742 46.3076L125.851 48.0429L123.948 48.1632L123.877 47.0457L121.899 47.1709L122.049 49.5385L124.661 49.3732L126.007 50.5284ZM132.186 44.6599L126.417 45.0248L126.535 46.8926L128.469 46.7703L129.003 55.2113L130.906 55.091L130.372 46.65L132.305 46.5277L132.186 44.6599ZM138.879 45.4767L139.374 53.3L138.185 54.6302L134.938 54.8357L133.59 53.6658L133.095 45.8425L134.285 44.5269L137.532 44.3215L138.879 45.4767ZM137.432 52.8031L137.015 46.2152L135.037 46.3404L135.454 52.9283L137.432 52.8031ZM144.757 49.9478L142.144 50.1131L142.413 54.3632L140.51 54.4835L139.858 44.1748L144.374 43.8892L145.72 45.0444L145.947 48.6327L144.757 49.9478ZM144.006 48.1348L143.857 45.7819L141.879 45.9071L142.027 48.26L144.006 48.1348ZM90.2503 124.504C90.3192 124.726 91.895 129.98 87.6689 133.399L88.1678 134.016C92.8194 130.253 91.026 124.326 91.0074 124.267L90.2503 124.504ZM111.175 125.955L110.418 125.717C110.4 125.777 108.606 131.704 113.258 135.466L113.757 134.849C109.531 131.432 111.106 126.177 111.175 125.955ZM135.813 65.4324L132.354 65.6511L133.395 82.105C133.536 81.8786 133.639 81.7363 133.667 81.7436C133.799 81.7769 134.188 82.2723 134.064 83.0162C133.94 83.7601 133.617 85.6176 133.617 85.6176L133.884 89.8383L137.342 89.6197L136.736 80.0372L135.813 65.4324ZM101.838 91.1026L97.627 137.852C99.2933 137.969 101.009 138.088 102.7 138.203L104.424 91.1671C103.619 91.3153 102.747 91.3246 101.838 91.1026Z" fill="#F9F9F9"/>
<path d="M108.614 89.0527C107.397 90.1106 102.947 93.3889 98.5586 89.2141C98.6017 87.9469 98.5611 86.4288 98.1547 86.0449C97.4264 85.3573 97.4264 82.1201 95.97 81.5131C94.5135 80.9062 93.7853 78.2358 94.3516 77.5076C94.4323 77.4039 94.5355 77.3359 94.648 77.2851C94.6646 77.2777 94.6837 77.2763 94.7008 77.2699L94.67 77.376C94.67 77.376 95.7054 78.0495 96.0692 79.0653C96.4336 80.0811 96.5314 80.3007 96.5314 80.3007C96.5314 80.3007 96.7975 77.6641 97.3237 76.6483C97.8495 75.6325 98.2138 74.9669 99.2658 75.1419C100.318 75.317 101.329 75.9827 102.664 74.7918C104 73.6009 105.901 72.8301 106.832 74.4763C107.763 76.1225 107.277 76.8229 108.329 77.0684C109.381 77.3134 109.745 78.5043 109.745 79.3451C109.745 80.1858 109.745 80.3002 109.745 80.3002L111.238 78.9924L111.293 78.6462C111.338 78.6799 111.383 78.7132 111.431 78.7567C111.808 79.099 112.25 79.774 112.154 81.0671C111.992 83.2518 108.836 85.3152 108.836 85.3152L108.614 89.0527ZM137.608 80.4875C137.286 79.8679 136.736 80.0371 136.736 80.0371L137.342 89.6196L133.884 89.8382L133.617 85.6179C133.617 85.6179 133.939 83.7599 134.063 83.0165C134.187 82.2727 133.798 81.7767 133.666 81.744C133.534 81.7107 131.782 84.901 131.683 85.595C131.584 86.289 132.923 89.016 132.923 89.016L131.895 93.538L135.814 94.0848L136.74 90.7513C136.74 90.7513 138.476 89.6851 138.575 89.0904C138.675 88.4952 137.931 81.1072 137.608 80.4875ZM92.7435 200.3C92.8252 200.275 92.8927 200.259 92.8927 200.259C93.8185 201.531 95.6031 200.903 95.653 200.854C95.7024 200.805 96.149 200.391 96.4131 200.358C96.527 200.344 96.6522 200.473 96.7642 200.638L97.2181 194.251H92.3752L92.7435 200.3ZM108.403 200.637C108.515 200.472 108.64 200.343 108.754 200.358C109.019 200.391 109.465 200.804 109.514 200.853C109.564 200.903 111.349 201.531 112.275 200.258C112.275 200.258 112.342 200.274 112.424 200.299L112.792 194.251H107.949L108.403 200.637Z" fill="#FFD2BB"/>
<path d="M176.144 50.41C170.139 32.9441 152.183 11.1788 108.565 6.79323C69.0433 2.81949 27.2376 35.2115 36.3887 67.8841C45.5398 100.557 50.3743 108.329 32.3465 130.592C20.1504 145.654 16.8198 169.223 30.3154 187.241C32.7363 182.665 37.9019 179.096 48.3642 179.77C48.3642 179.77 45.8983 165.2 57.8508 161.726C61.9449 160.535 65.5816 160.931 68.6354 162.199C68.6354 162.199 68.6349 162.199 68.6349 162.198V148.701C68.5449 148.735 68.4716 148.767 68.3782 148.802C68.3782 148.802 61.8999 149.896 62.5269 140.781C63.1539 131.666 58.1384 135.494 56.0491 125.832C53.9592 116.17 56.0491 114.894 58.7654 108.696C61.4822 102.498 54.5862 98.4871 53.5411 87.9138C52.4964 77.3404 51.4513 72.2359 60.9594 66.7671C70.4675 61.2983 62.3175 49.4484 69.2135 48.3549C76.1095 47.2613 76.3183 55.8294 78.1988 64.5795C80.0793 73.33 85.7218 70.2307 85.3036 81.8981C84.8854 93.5655 78.1988 94.6591 79.4523 101.951C79.6254 102.959 79.8964 103.887 80.2206 104.763C82.7218 100.635 85.127 96.811 85.6029 95.6803C86.6608 93.1679 98.0978 88.752 98.0978 88.752C98.2509 88.9164 98.404 89.0655 98.5576 89.2093C98.6006 87.9436 98.5595 86.4294 98.1531 86.046C97.4249 85.3583 97.4249 82.1211 95.9684 81.5142C94.5119 80.9073 93.7837 78.2369 94.35 77.5087C94.4307 77.405 94.5339 77.337 94.6464 77.2861C94.5315 76.7936 93.9681 74.2744 94.2229 73.1388C94.5061 71.8779 95.7199 71.4573 95.6793 70.3017C95.6387 69.1455 97.2571 67.1843 98.6735 67.0092C100.09 66.8341 101.141 66.2037 101.465 65.1527C101.789 64.1016 103.286 64.2767 104.581 64.1369C105.875 63.997 105.956 63.2614 107.251 63.1563C108.545 63.0511 109.962 63.752 110.204 64.6973C110.447 65.6432 111.985 65.7131 112.875 66.3436C113.765 66.974 113.077 68.9004 113.644 69.636C114.21 70.3716 117.083 70.0283 117.487 71.7239C117.892 73.419 114.736 73.7697 113.199 75.0305C111.724 76.2395 111.844 78.1117 111.429 78.7587C111.806 79.1011 112.248 79.776 112.152 81.0691C111.99 83.2538 108.834 85.3173 108.834 85.3173L108.612 89.0533C108.824 88.8699 108.939 88.752 108.939 88.752C108.939 88.752 119.781 93.6442 121.5 95.4954C123.219 97.3465 125.07 108.321 125.07 108.321L130.755 93.3797L136.441 94.173C136.441 94.173 129.697 124.981 125.599 124.452C121.5 123.923 117.401 113.94 117.401 113.94L116.475 139.128L114.368 181.822L114.471 179.738L114.881 171.414C117.723 172.672 118.203 176.322 117.428 180.242C117.577 180.279 117.728 180.316 117.869 180.354C117.807 174.039 119.2 167.385 123.815 171.055C124.615 171.691 125.301 172.473 125.891 173.357C128.693 171.357 132.45 170.257 136.897 171.55C146.241 174.267 144.313 185.656 144.313 185.656C150.99 185.226 154.905 187.008 157.149 189.622C169.616 175.784 172.841 158.643 168.193 147.022C149.583 100.486 187.926 84.6824 176.144 50.41ZM138.575 89.09C138.476 89.6852 136.741 90.7509 136.741 90.7509L135.815 94.0844L131.895 93.5376L132.923 89.0156C132.923 89.0156 131.584 86.2886 131.684 85.5946C131.762 85.0468 132.867 82.9501 133.395 82.104C133.395 82.1045 133.395 82.1045 133.395 82.105L132.354 65.651L135.812 65.4324L136.736 80.0367C136.736 80.0367 137.286 79.8675 137.609 80.4876C137.931 81.1073 138.674 88.4953 138.575 89.09ZM143.184 64.9658L124.982 66.1171L114.883 50.9294L122.987 34.5898L141.19 33.4386L151.288 48.6268L143.184 64.9658ZM85.3515 205.459H134.652C121.907 210.966 105.548 213.81 85.2615 212.026C73.1227 210.958 62.9861 208.522 54.6224 205.102H85.1065H85.3447C85.3486 205.222 85.3447 205.335 85.3515 205.459Z" fill="#E2E2E2"/>
<path d="M113.757 194.251H106.826L101.839 151.411L97.8351 194.251H91.3627L85.4062 136.88C85.7403 136.991 91.3021 137.407 97.6273 137.852C99.2936 137.969 101.009 138.087 102.7 138.203C109.841 138.693 116.478 139.128 116.478 139.128L113.757 194.251ZM96.4134 200.358C96.1488 200.391 95.7028 200.804 95.6529 200.854C95.6035 200.903 93.8184 201.532 92.8925 200.259C92.8925 200.259 92.4465 200.341 92.3472 200.556C92.2479 200.771 92.7932 201.994 92.8099 202.308C92.8265 202.622 89 203.2 87.744 203.349C86.4881 203.498 86.1575 204.424 86.1575 204.671C86.1575 204.919 86.3394 205.101 86.3394 205.101H97.0741C97.0741 205.101 97.1402 201.449 97.0741 201.25C97.0081 201.051 96.678 200.325 96.4134 200.358ZM117.424 203.35C116.168 203.201 112.341 202.622 112.358 202.308C112.374 201.994 112.92 200.771 112.82 200.557C112.721 200.342 112.275 200.259 112.275 200.259C111.35 201.532 109.565 200.904 109.515 200.854C109.465 200.805 109.019 200.392 108.754 200.358C108.49 200.325 108.159 201.052 108.093 201.251C108.027 201.45 108.093 205.102 108.093 205.102H118.828C118.828 205.102 119.01 204.92 119.01 204.672C119.01 204.424 118.68 203.498 117.424 203.35Z" fill="#A71010"/>
<path d="M100.397 138.044C100.259 138.035 100.122 138.025 99.9851 138.016C100.123 138.026 100.259 138.035 100.397 138.044ZM102.7 138.203C102.581 138.195 102.461 138.187 102.341 138.178C102.46 138.187 102.581 138.195 102.7 138.203ZM100.397 138.044C101.045 138.089 101.694 138.134 102.341 138.178C101.694 138.134 101.045 138.089 100.397 138.044ZM136.444 94.1724C136.444 94.1724 129.7 124.98 125.601 124.451C121.502 123.922 117.404 113.939 117.404 113.939L116.478 139.128C116.478 139.128 109.841 138.693 102.7 138.203L104.424 91.1675C107.05 90.6848 108.942 88.7515 108.942 88.7515C108.942 88.7515 119.784 93.6437 121.503 95.4948C123.222 97.346 125.073 108.32 125.073 108.32L130.758 93.3791L136.444 94.1724ZM113.758 134.85C109.531 131.431 111.107 126.177 111.176 125.955L110.419 125.717C110.4 125.777 108.607 131.704 113.259 135.466L113.758 134.85ZM101.838 91.1024L97.6273 137.852C91.3021 137.408 85.7403 136.991 85.4063 136.88C84.613 136.615 84.8776 130.269 84.8776 130.269C84.8776 130.269 73.9692 119.678 73.9692 116.902C73.9692 113.992 84.547 98.1921 85.6048 95.6802C86.6627 93.1678 98.0997 88.7519 98.0997 88.7519C99.3572 90.1033 100.629 90.807 101.838 91.1024ZM91.0072 124.266L90.2501 124.504C90.319 124.726 91.8948 129.98 87.6687 133.399L88.1676 134.015C92.8192 130.252 91.0257 124.326 91.0072 124.266Z" fill="#072948"/>
<path d="M117.489 71.7229C117.085 70.0277 114.212 70.3706 113.645 69.635C113.079 68.8994 113.767 66.973 112.877 66.3425C111.986 65.7121 110.449 65.6422 110.206 64.6963C109.964 63.7504 108.547 63.0501 107.253 63.1552C105.958 63.2604 105.877 63.9959 104.582 64.1358C103.288 64.2757 101.791 64.1006 101.467 65.1516C101.143 66.2027 100.091 66.8331 98.6752 67.0082C97.2594 67.1833 95.6405 69.1449 95.6811 70.3006C95.7217 71.4563 94.5078 71.8769 94.2246 73.1378C93.9698 74.2729 94.5332 76.7926 94.6482 77.2851C94.6643 77.2778 94.6839 77.2763 94.7005 77.27L94.6697 77.3761C94.6697 77.3761 95.7046 78.0495 96.0689 79.0653C96.4333 80.0812 96.5306 80.3008 96.5306 80.3008C96.5306 80.3008 96.7972 77.6641 97.3229 76.6483C97.8492 75.6325 98.213 74.9669 99.265 75.142C100.317 75.3171 101.328 75.9827 102.664 74.7918C103.999 73.6009 105.9 72.8301 106.831 74.4764C107.762 76.1226 107.276 76.8229 108.328 77.0685C109.38 77.3135 109.744 78.5044 109.744 79.3451C109.744 80.1858 109.744 80.3003 109.744 80.3003L111.238 78.9925L111.292 78.6462C111.337 78.68 111.382 78.7132 111.43 78.7567C111.845 78.1097 111.725 76.2375 113.2 75.0285C114.738 73.7682 117.893 73.418 117.489 71.7229Z" fill="#072948"/>
</svg>
