<svg width="266" height="150" viewBox="0 0 266 150" fill="none" xmlns="http://www.w3.org/2000/svg">
<path d="M203.357 140.683C201.781 140.267 199.891 140.582 199.891 140.267C199.891 139.952 200.004 139.535 199.374 138.376C198.744 137.229 196.639 138.691 194.332 138.174C192.026 137.645 192.769 137.544 192.026 135.44C191.295 133.347 187.942 135.553 186.467 135.238C185.671 135.066 184.96 135.112 183.72 135.172C182.683 135.223 181.278 135.284 179.131 135.238C178.663 135.227 178.26 135.213 177.909 135.197C174.723 135.055 175.958 134.705 174.72 133.763C173.359 132.717 173.157 131.457 174.418 129.049C175.665 126.629 170.637 125.268 167.171 125.898C163.717 126.529 165.923 127.473 164.978 128.633C164.032 129.78 163.503 130.511 162.457 130.511C161.411 130.511 161.927 130.726 160.881 132.818C159.835 134.923 159.52 133.977 157.945 134.608C156.369 135.238 155.638 139.536 155.638 139.536L155.714 139.662C156.344 139.548 157.239 139.309 158.436 139.006C161.234 138.313 159.558 137.885 161.65 137.052C163.755 136.208 163.465 137.607 167.662 138.867C169.368 139.38 169.758 139.73 169.742 140.049C169.727 140.344 169.367 140.612 169.375 140.959C169.379 141.161 169.509 141.39 169.906 141.666C171.041 142.454 171.19 142.527 171.18 142.848C171.176 142.976 171.146 143.143 171.143 143.411C171.142 143.545 171.148 143.704 171.167 143.896C171.305 145.447 171.998 145.586 172.843 145.295C173.334 145.132 174.582 146.278 175.502 147.236H177.909H183.72H196.176H208.186C207.1 146.063 205.9 143.79 205.073 140.821C204.468 140.827 203.868 140.822 203.357 140.683Z" fill="#E4F2F3"/>
<path d="M183.72 101.118V135.172C182.683 135.223 181.278 135.284 179.132 135.238C178.663 135.227 178.261 135.213 177.909 135.197V101.118H183.72ZM70.4465 143.947L68.7826 142.359C68.808 142.359 68.7702 142.346 68.6941 142.346V119.608H66.1227V142.359L64.4718 143.947V146.342L64.9538 147.237L66.2366 149.619H67.2072H67.6986H68.6692L69.9614 147.237L70.4465 146.342V143.947ZM115.192 128.344C115.195 128.34 116.058 127.472 117.074 127.376C117.123 127.372 117.172 127.373 117.221 127.372C117.258 127.372 117.294 127.368 117.33 127.369C117.59 127.38 117.855 127.448 118.115 127.6C118.722 127.952 119.369 128.04 119.906 128.027C120.596 128.01 121.102 127.826 121.102 127.826C121.064 127.814 121.039 127.814 121.014 127.814V101.118H120.321H115.191V121.6V128.341L115.192 128.344ZM67.4598 57.5084C71.6568 58.0758 75.4003 53.0842 75.4003 53.0842L75.4754 52.9463L75.4759 52.9454C75.4318 52.9357 75.3949 52.9285 75.3522 52.9197C73.9196 52.612 73.226 52.5688 73.1997 52.5675L73.1944 52.5671C73.185 52.6311 73.1624 52.6973 73.1339 52.7649C73.1272 52.78 73.1201 52.7956 73.1126 52.8112C73.0823 52.8739 73.0463 52.9374 73.001 53.0024C72.9974 53.0077 72.9947 53.0126 72.9912 53.0179C72.9405 53.0895 72.8796 53.1624 72.8124 53.2358C72.8004 53.2491 72.7875 53.262 72.7751 53.2754C72.7128 53.3412 72.6452 53.4074 72.5714 53.4741C72.5648 53.4799 72.559 53.4857 72.5523 53.4915C72.5488 53.4946 72.5456 53.4977 72.5421 53.5008C72.4572 53.5759 72.3651 53.6515 72.2673 53.7271C72.2553 53.7365 72.2424 53.7454 72.2304 53.7547C72.1406 53.8232 72.0459 53.8912 71.9467 53.9592C71.9258 53.9735 71.9058 53.9877 71.8845 54.0019C71.2895 54.4021 70.5532 54.7876 69.8004 55.1024C69.7715 55.1144 69.7426 55.1251 69.7137 55.1371C69.6848 55.1487 69.6563 55.1589 69.6279 55.1704C69.4865 55.2274 69.3451 55.2825 69.2041 55.3336C68.9876 55.4123 68.7733 55.4835 68.563 55.5466C68.438 55.584 68.3157 55.6173 68.1948 55.6489C68.1401 55.6631 68.0859 55.6773 68.032 55.6898C67.892 55.7231 67.7541 55.7529 67.6221 55.7765C67.6145 55.7778 67.6056 55.7801 67.5981 55.7814H67.5976C67.5892 55.7801 67.5803 55.7774 67.5714 55.7756C67.4682 55.7569 67.3633 55.7338 67.2579 55.708C67.1694 55.6858 67.0805 55.6609 66.9911 55.6338C66.9702 55.6275 66.9498 55.6218 66.9289 55.6155C65.3219 55.1211 63.6087 53.8948 62.9542 52.8996C62.8079 52.6773 62.7092 52.4657 62.6825 52.2776H62.6816C62.6772 52.278 62.0485 52.367 60.8928 52.6177C61.4477 53.5382 63.8173 57.0171 67.4598 57.5084Z" fill="#072948"/>
<path d="M114.863 82.4517L108.46 101.118H103.267V82.4517H114.863ZM75.3998 119.608L75.4002 96.7693H73.711L79.6728 85.8795H78.4629L72.4882 96.7693H68.1276L74.0889 85.8795H72.8791L66.9173 96.7693H62.1026L68.0644 85.8795H66.8546L60.8928 96.7693H60.8923H59.6451V96.9458V119.608H64.3339H66.1227H68.6941H71.8453H75.3998ZM79.9374 94.6395H80.5674H81.6893H81.8556C81.8569 94.6288 81.8582 94.6181 81.8596 94.6075C81.8658 94.5603 81.8716 94.5145 81.8783 94.4634C82.017 93.3162 82.1935 91.9298 82.1935 91.9298C82.1935 91.9298 82.266 91.8645 82.3834 91.7689C82.4034 91.7524 82.4229 91.7368 82.4461 91.7186C82.4687 91.7008 82.4941 91.6812 82.5194 91.6617C82.5519 91.6368 82.5875 91.6101 82.6244 91.583C82.6448 91.5679 82.6617 91.5545 82.6835 91.5385H81.0672H79.9378H79.9374V94.6395ZM89.1202 91.8306C89.1389 91.8796 89.1589 91.9311 89.1798 91.9854C89.194 92.0232 89.2082 92.0605 89.2233 92.101C89.2531 92.1797 89.2838 92.2633 89.3163 92.3513C89.3278 92.3834 89.3394 92.4145 89.3514 92.4474C89.3888 92.5501 89.427 92.6573 89.4661 92.7693C89.4737 92.7902 89.4808 92.8115 89.4879 92.8329C89.531 92.9574 89.5751 93.0859 89.6191 93.2184C89.6222 93.2282 89.6253 93.238 89.6289 93.2477C89.7249 93.5385 89.8205 93.8449 89.909 94.1548C89.9099 94.1575 89.9103 94.1601 89.9112 94.1628C89.9539 94.3122 89.9944 94.4625 90.0326 94.6119C90.0348 94.6212 90.0375 94.6301 90.0402 94.6395H96.1843V91.5385H89.0059C89.0175 91.5674 89.0335 91.6088 89.0473 91.6435C89.0517 91.6546 89.0557 91.6652 89.0606 91.6768C89.0793 91.7248 89.0984 91.7742 89.1202 91.8306ZM151.63 82.4517L145.239 101.118H160.251L166.654 82.4517H151.63ZM121.014 101.118H133.379L139.782 82.4517H126.724L120.321 101.118H121.014ZM184.715 101.118L191.106 82.4513H178.514V82.4517L172.111 101.118H177.909H183.72H184.715ZM45.6863 91.5385H45.6854H39.516V94.6395H44.6592C44.9802 93.3647 45.4898 92.0334 45.6863 91.5385ZM67.8755 81.0022H66.6402C63.9933 81.0022 61.8505 83.1449 61.8505 85.7915H72.6523C72.6523 83.1449 70.522 81.0018 67.8755 81.0022ZM55.838 95.4967C55.9728 95.5643 56.1142 95.631 56.2582 95.696C56.2733 95.7031 56.2876 95.7102 56.3031 95.7173C56.32 95.7249 56.3378 95.7315 56.3552 95.7391C56.4761 95.7924 56.6006 95.8427 56.726 95.8912C56.754 95.9018 56.7807 95.9147 56.8091 95.9254L56.81 95.9236L62.317 85.88H61.1075H61.1071L55.838 95.4967ZM54.6282 94.6395H55.7629V91.5385H54.1293H52.0172C52.0399 91.555 52.0572 91.5688 52.0786 91.5843C52.115 91.611 52.151 91.6377 52.1835 91.6626C52.2071 91.6804 52.2311 91.6986 52.2524 91.7155C52.2889 91.7444 52.3222 91.7711 52.3516 91.7951C52.3814 91.8195 52.4063 91.8404 52.428 91.8587C52.4365 91.8658 52.4463 91.8742 52.4534 91.88C52.4872 91.9094 52.5108 91.9298 52.5108 91.9298C52.5108 91.9298 52.6873 93.3162 52.826 94.4634C52.8336 94.5261 52.8402 94.5803 52.8473 94.6395H53.7331H54.6282Z" fill="#091118"/>
<path d="M139.782 82.4519L151.63 82.4514L145.239 101.118H133.379L139.782 82.4519ZM126.724 82.4519H114.863L108.461 101.119H115.191H120.321L126.724 82.4519ZM66.9173 96.7694L72.8791 85.8796H68.0645L62.1027 96.7694H66.9173ZM78.4625 85.8796H74.0894L68.1276 96.7694H72.4883L78.4625 85.8796ZM66.8542 85.8796H62.317L56.8101 95.9237C56.8474 95.9384 56.8852 95.9526 56.923 95.9669C57.0142 96.0011 57.1053 96.0349 57.1965 96.0674C57.216 96.0745 57.2356 96.0816 57.2552 96.0882C57.3806 96.1323 57.5055 96.175 57.6291 96.2154C57.6909 96.2359 57.751 96.2545 57.8119 96.2741C57.8803 96.2959 57.9488 96.3181 58.016 96.339C58.076 96.3577 58.1342 96.375 58.1929 96.3924C58.2596 96.4124 58.3259 96.4324 58.3903 96.4511C58.4441 96.4666 58.4962 96.4813 58.5482 96.496C58.6153 96.5151 58.6811 96.5333 58.7452 96.5507C58.7892 96.5627 58.8332 96.5747 58.8755 96.5858C58.9444 96.604 59.0102 96.6209 59.0738 96.6369C59.1071 96.6454 59.1418 96.6543 59.1734 96.6623C59.2463 96.6801 59.3134 96.6961 59.3775 96.7108C59.3948 96.7148 59.4139 96.7197 59.4304 96.7232C59.5109 96.7414 59.5838 96.757 59.6456 96.769H60.8928L66.8542 85.8796ZM178.514 82.4519H166.654L160.251 101.119H172.112L178.514 82.4519ZM184.715 101.119H196.563V82.4519H191.106L184.715 101.119ZM55.7629 95.4649C55.7758 95.4715 55.7883 95.4782 55.8016 95.4844L55.8372 95.4964L55.8381 95.4969L61.1067 85.8796H55.7629V91.5386V94.6396V95.4649ZM75.8489 96.685C75.904 96.6739 75.9645 96.6605 76.0214 96.6481C76.129 96.6254 76.238 96.6018 76.3527 96.5756C76.4327 96.5574 76.5159 96.5364 76.5986 96.5164C76.696 96.4929 76.7947 96.468 76.8947 96.4422C76.9917 96.4168 77.0899 96.3902 77.1891 96.3626C77.278 96.3377 77.3678 96.3119 77.4576 96.2852C77.5657 96.2532 77.6742 96.2208 77.7822 96.1865C77.8645 96.1603 77.9459 96.1323 78.0277 96.1047C78.1411 96.0665 78.2544 96.0282 78.366 95.9873C78.439 95.9606 78.5092 95.9313 78.5813 95.9033C78.8698 95.7908 79.15 95.6712 79.4047 95.54C79.4345 95.5244 79.4639 95.5089 79.4928 95.4929C79.6279 95.4208 79.7547 95.3457 79.8738 95.2679C79.8947 95.2541 79.9161 95.2408 79.9361 95.227V94.6387V91.5382V85.8787H79.672L73.7111 96.7694H75.3998C75.5363 96.7459 75.6888 96.717 75.8489 96.685ZM78.2958 96.0158C78.282 96.0207 78.2687 96.0251 78.2549 96.03C78.2682 96.0251 78.282 96.0207 78.2958 96.0158ZM78.9014 95.7779C78.8712 95.7908 78.8392 95.8023 78.8089 95.8152C78.8392 95.8023 78.8716 95.7908 78.9014 95.7779ZM79.4038 95.5413C79.4043 95.5409 79.4047 95.5409 79.4056 95.5404C79.3963 95.5453 79.3852 95.5498 79.3758 95.5547C79.3847 95.5502 79.395 95.5462 79.4038 95.5413Z" fill="#FEBE40"/>
<path d="M52.4279 91.8582C52.4364 91.8653 52.4462 91.8737 52.4533 91.8795C52.4893 91.9106 52.5102 91.9293 52.5102 91.9293C52.5102 91.9293 52.6867 93.3157 52.8255 94.4629C52.9642 95.6096 53.0398 96.1512 52.7752 96.5674C52.5235 96.9961 52.2083 97.0338 50.3799 97.3366C48.552 97.639 49.0691 97.4247 47.2287 97.6515C45.3883 97.8782 45.5146 98.2562 44.6071 97.2731C44.2362 96.8653 44.3727 95.7755 44.6591 94.639C44.9801 93.3642 45.4897 92.0329 45.6862 91.538H45.6853C45.736 91.41 45.7667 91.3366 45.7667 91.3366L38.4438 76.6909L42.616 70.3004L46.7209 73.5659L48.1598 74.7144L46.1073 77.3841L49.6996 90.6434C50.6254 90.635 51.5547 91.2001 52.0785 91.5838C52.1149 91.6105 52.1509 91.6372 52.1834 91.6621C52.207 91.6799 52.231 91.6981 52.2523 91.715C52.2888 91.7439 52.3221 91.7706 52.3515 91.7946C52.3813 91.819 52.4066 91.8399 52.4279 91.8582ZM66.9292 55.6151C66.9501 55.6213 66.9705 55.6276 66.9914 55.6334C67.0808 55.66 67.1697 55.6854 67.2582 55.7076C67.3636 55.7334 67.4685 55.757 67.5717 55.7752C67.5806 55.777 67.5895 55.7792 67.5979 55.781C67.6059 55.7797 67.6144 55.7774 67.6219 55.7761C67.754 55.7525 67.8918 55.7227 68.0319 55.6894C68.0568 55.6832 68.0817 55.6774 68.107 55.6712C68.1359 55.664 68.1657 55.6556 68.1946 55.648C68.3156 55.6169 68.4378 55.5836 68.5628 55.5458C68.6001 55.5342 68.6375 55.5226 68.6753 55.5111C68.8496 55.4568 69.0261 55.3973 69.204 55.3328C69.3449 55.2817 69.4863 55.2265 69.6277 55.1696C69.826 55.0896 70.0235 55.0051 70.2187 54.9161C70.2284 54.9117 70.2387 54.9073 70.2489 54.9028C70.4583 54.8063 70.6651 54.7054 70.8656 54.6013C70.9016 54.5827 70.9376 54.5635 70.9732 54.5444C71.0506 54.5031 71.1275 54.4617 71.2031 54.419C71.2911 54.3697 71.377 54.3194 71.4614 54.2692C71.4935 54.2501 71.5264 54.2309 71.5579 54.2118C71.6709 54.1425 71.7803 54.0722 71.8852 54.002C71.9065 53.9877 71.9265 53.9735 71.9474 53.9593C72.0466 53.8912 72.1413 53.8232 72.2311 53.7547C72.2431 53.7454 72.256 53.7365 72.268 53.7272C72.3658 53.6516 72.4579 53.576 72.5428 53.5008C72.5464 53.4977 72.5495 53.4946 72.553 53.4915C72.5788 52.3101 72.7047 51.1304 73.0568 50.9037C73.7754 50.4626 74.3552 50.0464 74.4935 48.4083C74.6322 46.7569 75.3885 46.0766 75.9306 45.6982C76.485 45.3198 77.2667 44.463 77.1658 43.1273C77.064 41.7907 76.3076 41.35 75.7278 41.627C75.501 41.7284 75.4126 41.8667 75.3623 42.0179C75.3623 42.0681 75.3499 42.0935 75.3499 42.1313C75.3374 42.3585 75.3245 42.4968 75.3245 42.4968C75.3245 42.4968 75.3245 42.4087 75.3499 42.1313C75.3499 42.1264 75.3499 42.1228 75.3499 42.1184C75.3499 42.0877 75.3499 42.0632 75.3499 42.0303C75.3499 42.0428 75.3374 42.0557 75.3374 42.0557L75.3499 41.8289C75.3463 41.6808 75.3343 41.5163 75.3121 41.3447C75.3067 41.3055 75.3009 41.2664 75.2943 41.2268C75.2845 41.1659 75.2738 41.1041 75.2605 41.0419C75.236 40.9285 75.2089 40.8142 75.1716 40.6999C75.1684 40.6906 75.1653 40.6813 75.1622 40.6719C75.1395 40.6043 75.1138 40.5368 75.0857 40.4701C75.0742 40.4425 75.0608 40.4154 75.048 40.3878C75.0231 40.3336 74.9977 40.2793 74.9688 40.2268C74.9239 40.1455 74.8759 40.065 74.8198 39.9885C74.3961 39.4042 74.3543 39.6212 73.7812 40.0476C73.3654 40.3576 72.6718 40.7773 71.3409 41.085C68.1897 41.816 67.7864 40.3038 64.6357 39.6733C61.472 39.0307 60.7913 40.4047 60.6152 41.3122C60.4262 42.2317 60.2875 42.3585 60.2875 42.3585C60.2875 42.3585 60.2622 42.1819 60.2244 41.9423C60.1741 41.8289 60.0856 41.7031 59.8967 41.627C59.3168 41.35 58.5605 41.7907 58.46 43.1273C58.3591 44.463 59.1408 45.3203 59.6952 45.6982C60.2497 46.0766 60.9936 46.7569 61.1323 48.4083C61.2711 50.0468 61.8509 50.4626 62.5694 50.9037C62.8713 51.0846 62.9989 51.9495 63.0536 52.9081C63.0559 52.9499 63.059 52.9913 63.0612 53.0335C63.7753 53.9997 65.3978 55.138 66.9292 55.6151ZM88.5838 77.3854L84.9916 90.6447C84.0667 90.6367 83.1449 91.1997 82.6243 91.5834C82.5874 91.6105 82.5518 91.6372 82.5193 91.6621C82.494 91.6816 82.4686 91.7012 82.446 91.719C82.4228 91.7372 82.4033 91.7532 82.3833 91.7692C82.2637 91.8666 82.1934 91.9311 82.1934 91.9311C82.1934 91.9311 82.0169 93.3175 81.8781 94.4647C81.8715 94.5158 81.8661 94.5594 81.8595 94.6079C81.8581 94.6185 81.8568 94.6292 81.8555 94.6399C81.8163 94.94 81.7857 95.197 81.767 95.4184L81.871 96.4589C81.8888 96.4963 81.9057 96.5341 81.9279 96.5692C82.1801 96.9974 82.4953 97.0352 84.3228 97.338C86.1507 97.6404 85.6336 97.426 87.474 97.6528C89.314 97.8796 89.1881 98.2575 90.0956 97.2744C90.4696 96.8636 90.326 95.7591 90.0321 94.6123C89.9938 94.4629 89.9534 94.3126 89.9107 94.1632C89.9098 94.1605 89.9093 94.1579 89.9084 94.1552C89.82 93.8453 89.7239 93.5385 89.6283 93.2481C89.6252 93.2384 89.6221 93.2286 89.6185 93.2188C89.5745 93.0858 89.5305 92.9578 89.4874 92.8333C89.4798 92.8119 89.4727 92.791 89.4656 92.7697C89.4264 92.6576 89.3882 92.5509 89.3509 92.4478C89.3389 92.4149 89.3273 92.3833 89.3157 92.3517C89.2837 92.2637 89.2526 92.1805 89.2228 92.1014C89.2077 92.0609 89.1935 92.024 89.1792 91.9858C89.1583 91.9311 89.1388 91.8795 89.1196 91.8311C89.0979 91.7746 89.0787 91.7248 89.0596 91.6772C89.0552 91.6656 89.0507 91.655 89.0463 91.6439C88.9702 91.4513 88.9231 91.3379 88.9231 91.3379L96.2464 76.6927L92.2508 70.5543L90.2468 72.151L86.7323 74.9563L88.5838 77.3854Z" fill="#FFD2BB"/>
<path d="M50.4312 76.5281L50.4316 76.5277C50.4316 76.5277 50.4476 76.4992 50.4712 76.4579C50.8696 75.7571 54.1737 69.9843 54.742 70.3395C55.2902 70.6824 54.316 87.0711 54.1293 91.5389H52.0172C52.0399 91.5554 52.0572 91.5691 52.0786 91.5847C51.5543 91.201 50.6255 90.6363 49.6997 90.6443L46.1074 77.3849L48.1599 74.7153L50.4312 76.5281ZM82.6244 91.5838C83.1451 91.2001 84.0668 90.6372 84.9917 90.6452L88.584 77.3858L86.7333 74.9563L84.7649 76.5277V76.5272L84.7645 76.5277C84.7645 76.5277 84.7387 76.4819 84.6973 76.4089C84.2002 75.5366 81.0116 69.9905 80.4545 70.3391C79.9058 70.6824 80.8805 87.0729 81.0672 91.5393H82.6835C82.6617 91.5549 82.6453 91.5682 82.6244 91.5838ZM92.4501 67.8331C90.9868 65.3275 88.1149 60.6983 85.1993 57.6009C91.1696 59.5062 97.4213 61.946 103.91 64.9073C120.064 72.2742 135.123 65.4996 149.339 55.0593C149.963 55.4928 150.819 55.7565 152.046 55.7312C154.491 55.6809 154.869 55.668 156.81 58.6427C158.764 61.6174 159.054 57.2812 166.263 59.1972C173.46 61.126 167.435 61.2519 170.372 66.4698C173.309 71.6877 173.8 68.4738 179.699 70.9949C185.61 73.5032 181.438 72.8353 185.295 76.5277C189.14 80.2209 184.577 78.4312 194.03 79.3641C203.471 80.2965 202.953 82.1996 204.29 83.4855C204.579 83.7629 204.744 83.7376 204.806 83.4855C207.239 87.8595 209.898 93.9218 212.52 102.303H208.487C208.487 102.303 211.663 105.555 212.117 110.294C212.571 115.021 205.097 121.235 204.189 130.411C203.807 134.297 204.258 137.895 205.073 140.821C204.468 140.827 203.869 140.822 203.357 140.683C201.781 140.267 199.891 140.582 199.891 140.267C199.891 139.951 200.004 139.535 199.374 138.376C198.744 137.229 196.639 138.691 194.332 138.174C192.026 137.645 192.769 137.544 192.026 135.44C191.295 133.347 187.942 135.553 186.467 135.238C185.671 135.066 184.96 135.112 183.72 135.172V101.118H184.715L191.106 82.4517H178.514V82.4521H166.654H151.63L145.239 101.119H160.251H172.111L177.909 101.118V135.197C174.723 135.055 175.958 134.705 174.72 133.763C173.359 132.717 173.157 131.456 174.418 129.049C175.666 126.629 170.637 125.268 167.171 125.898C163.717 126.528 165.923 127.473 164.978 128.633C164.032 129.78 163.503 130.511 162.457 130.511C161.411 130.511 161.927 130.726 160.882 132.818C159.835 134.923 159.52 133.977 157.945 134.608C156.369 135.238 155.638 139.536 155.638 139.536L155.714 139.662C156.344 139.548 157.239 139.309 158.436 139.006C161.235 138.313 159.558 137.885 161.65 137.052C163.755 136.208 163.465 137.607 167.662 138.867C169.368 139.38 169.758 139.73 169.742 140.049C169.757 139.73 169.366 139.38 167.662 138.868C163.465 137.608 163.755 136.209 161.65 137.053C159.558 137.886 161.235 138.314 158.436 139.007C155.638 139.713 154.378 140.129 154.668 139.146C154.945 138.175 157.315 137.469 154.806 137.469C152.286 137.469 150.332 137.331 151.164 136.209C152.008 135.1 151.58 136.348 152.147 133.411C152.701 130.474 153.684 129.781 152.286 129.226C150.886 128.659 150.042 127.55 150.193 126.012C150.331 124.462 149.626 121.387 148.933 121.387C148.227 121.387 146.412 121.954 146.273 123.075C146.134 124.185 145.567 126.567 145.013 126.844C144.458 127.122 143.752 126.982 143.614 127.689C143.475 128.381 143.059 130.196 142.631 130.336C142.215 130.474 140.4 129.642 139.278 130.474C138.169 131.319 138.446 131.735 136.341 132.302C134.249 132.856 133.127 130.902 131.728 131.041C130.329 131.179 131.173 132.579 129.774 132.856C128.375 133.134 128.237 132.995 127.115 131.041C125.993 129.087 126.976 128.521 125.3 128.521C123.623 128.521 122.779 128.104 121.103 127.827C121.103 127.827 120.596 128.01 119.906 128.027C120.596 128.01 121.102 127.827 121.102 127.827C121.064 127.814 121.039 127.814 121.014 127.814V101.119H133.379H145.239L151.63 82.4517H139.782V82.4521H126.724H114.863H103.267V101.119H108.46H115.191V121.6V128.341C114.587 125.406 115.758 124.323 113.969 124.046C112.154 123.769 110.755 122.646 109.923 123.352C109.078 124.045 111.032 125.167 108.662 126.012C106.28 126.843 106.141 125.86 104.604 125.583C103.066 125.306 103.204 123.352 100.835 124.184C98.4524 125.029 98.3141 123.769 97.7468 125.167C97.1923 126.567 96.2087 126.567 95.0998 126.844C93.978 127.121 92.4404 126.567 92.1629 127.121C91.8855 127.688 92.0242 129.226 91.1798 129.364C90.3479 129.504 89.9197 128.521 88.6591 129.504C87.4114 130.474 92.4404 131.041 86.8441 132.024C86.3443 132.111 85.8898 132.183 85.455 132.25L83.5381 113.103H84.5853L83.7258 101.932H82.4194L81.8716 96.4589C81.8894 96.4963 81.9063 96.534 81.9285 96.5692C82.1806 96.9974 82.4959 97.0352 84.3234 97.338C86.1513 97.6403 85.6342 97.426 87.4746 97.6528C89.3145 97.8795 89.1887 98.2575 90.0962 97.2744C90.4701 96.8635 90.3265 95.759 90.0326 94.6123C90.0348 94.6216 90.0375 94.6305 90.0402 94.6399H96.1843V91.5389H89.0059C89.0175 91.5678 89.0335 91.6092 89.0473 91.6438C88.9712 91.4513 88.9241 91.3379 88.9241 91.3379L96.2474 76.6926L92.2518 70.5543L90.2478 72.151L93.4493 69.5956C93.4493 69.5956 93.367 69.4431 93.2207 69.1812C92.9713 68.7277 92.7138 68.275 92.4533 67.8308L92.4501 67.8331ZM191.106 82.4521L184.715 101.118L196.563 101.119V82.4521H191.106ZM238.51 64.6414C238.955 64.131 239.182 63.5605 239.282 62.9469C243.293 89.0378 236.184 117.484 228.628 128.381C227.96 129.344 227.24 130.258 226.484 131.133C226.466 130.893 226.447 130.653 226.423 130.411C225.516 121.235 218.042 115.021 218.495 110.294C218.949 105.555 222.112 102.303 222.112 102.303H216.201H214.412H213.315C210.29 92.5985 207.227 85.9306 204.491 81.3805C204.101 79.9434 203.395 78.1662 202.652 77.1079C202.652 77.1079 200.95 75.6584 198.202 73.5032C197.887 73.2257 197.585 72.999 197.307 72.7971C189.669 66.8228 175.565 56.5382 166.541 54.483C160.549 53.1184 156.002 52.4977 152.908 52.3545C176.638 33.8386 198.029 7.40441 218.281 23.2378C227.302 30.2876 233.071 39.9707 236.456 50.6835C232.18 56.8917 228.862 64.0558 226.486 70.1626C222.957 78.7709 218.306 91.8039 217.537 102.303H218.293C218.709 96.6185 220.285 90.1774 222.2 84.1027C223.65 83.9888 230.456 83.2832 232.473 80.485C234.741 77.3463 230.342 74.4476 231.477 70.3008C232.598 66.1541 236.001 67.5405 238.51 64.6414ZM217.953 74.1835C218.104 70.9692 217.713 66.3688 216.629 61.5031C216.478 60.5702 216.365 60.0411 216.352 60.0033L216.276 60.0158C214.902 54.4826 212.621 48.7604 209.218 44.4874C200.307 33.3201 191.295 30.4344 191.295 30.4344C191.295 30.4344 189.492 33.434 193.98 36.0049C198.479 38.5763 200.95 42.1179 200.912 45.1433C200.874 48.1553 197.017 54.3946 201.227 59.2216C205.45 64.0491 203.168 65.0322 204.076 73.3382C204.971 81.6446 214.285 80.2582 216.831 78.5317C217.008 78.4054 217.171 78.1786 217.323 77.8509C217.436 85.0609 216.882 93.7194 214.676 102.303H215.457C218.016 92.1947 218.331 82.023 217.953 74.1835ZM50.091 142.876C50.3431 142.246 50.9483 142.359 50.9483 142.359C50.9483 142.359 51.1879 142.208 51.3516 142.246C51.4472 142.261 51.3031 143.331 51.959 144.029C51.7446 143.798 51.6175 143.527 51.5401 143.266L51.5779 142.901C51.5654 142.687 51.5276 142.536 51.5276 142.536L51.6286 142.497L52.5757 135.019L50.7713 135.049L52.3796 113.103H50.9701L52.0172 101.932H53.1986L53.7331 94.6399H52.8474C52.8402 94.5807 52.8336 94.5265 52.826 94.4638C52.6873 93.3166 52.5108 91.9302 52.5108 91.9302C52.5108 91.9302 52.4872 91.9093 52.4534 91.8804C52.4894 91.9115 52.5108 91.9302 52.5108 91.9302C52.5108 91.9302 52.6873 93.3166 52.826 94.4638C52.9647 95.6105 53.0399 96.1521 52.7753 96.5683C52.5237 96.9969 52.2084 97.0347 50.38 97.3375C48.5521 97.6399 49.0692 97.4256 47.2288 97.6523C45.3884 97.8791 45.5147 98.257 44.6072 97.2739C44.2363 96.8662 44.3729 95.7764 44.6592 94.6399H39.516V91.5389H45.6854C45.7361 91.4108 45.7668 91.3375 45.7668 91.3375L38.444 76.6917L42.6161 70.3013L46.721 73.5668L41.7468 69.5961C41.7468 69.5961 41.7534 69.5841 41.7561 69.5788C41.8024 69.4916 42.2675 68.6192 43.0327 67.3395L43.0354 67.3417C45.3106 63.5027 50.1546 55.977 53.8718 54.6725C56.7167 53.6738 58.9128 53.0762 60.4014 52.7276C38.391 51.656 23.27 61.5671 19.173 84.204C13.7821 113.94 37.8161 138.577 45.7655 145.807C46.9398 145.657 48.1079 145.478 48.6668 145.094C49.6624 144.401 49.8513 143.506 50.091 142.876ZM64.4717 143.947L66.1227 142.359V119.608H64.3339H59.6451V96.9462H59.6446V96.7697H59.6451C59.5833 96.7577 59.5099 96.7421 59.4299 96.7239C59.5099 96.7417 59.5828 96.7577 59.6446 96.7697L59.6442 119.609H64.333L60.7536 134.885L58.9728 134.914L56.9474 142.863L56.9977 143.116C56.9901 143.168 56.9732 143.232 56.9452 143.301C57.0292 143.104 57.0106 142.964 57.0106 142.964C57.0106 142.964 57.9305 143.418 57.9061 144.161C57.8843 144.602 57.5677 146.078 57.3067 147.237H64.9537L64.4717 146.342V143.947ZM72.5136 147.237L71.3286 146.417C71.3286 146.417 71.3286 146.001 72.7275 144.048C74.1263 142.081 72.2988 142.787 72.7275 141.112C73.1432 139.422 74.265 140.683 75.6643 139.713C77.0632 138.73 76.4963 137.885 77.2019 137.331C77.4265 137.151 77.6964 137.032 77.972 136.931L77.4896 135.049H75.8911L71.8453 119.608H68.6941V142.346C68.7701 142.346 68.8079 142.359 68.7826 142.359L70.4464 143.947V146.342L69.9613 147.237H79.133H72.5136Z" fill="#E2E2E2"/>
<path d="M79.4585 143.228C79.4727 143.308 79.5056 143.413 79.5732 143.529C79.4212 143.272 79.4452 143.078 79.4452 143.078C79.4452 143.078 78.5377 143.532 78.563 144.275C78.5772 144.701 78.8751 146.097 79.1326 147.237H72.5136L71.3286 146.417C71.3286 146.417 71.3286 146.001 72.7275 144.048C74.1263 142.081 72.2988 142.787 72.7275 141.111C73.1432 139.422 74.265 140.683 75.6643 139.713C77.0632 138.729 76.4963 137.885 77.2019 137.331C77.4265 137.151 77.6964 137.032 77.9721 136.93L79.5216 142.977L79.4585 143.228ZM236.456 50.6835C232.179 56.8916 228.862 64.0557 226.485 70.1625C222.956 78.7708 218.305 91.8038 217.536 102.303H218.293C218.709 96.6185 220.284 90.1773 222.2 84.1026C223.649 83.9888 230.456 83.2831 232.472 80.4849C234.741 77.3462 230.342 74.4476 231.477 70.3008C232.598 66.154 236.001 67.5404 238.51 64.6413C238.955 64.1309 239.182 63.5604 239.282 62.9468C239.747 60.0886 237.409 56.2673 241.03 52.9574C245.429 48.9369 246.677 47.6763 246.803 43.2775C246.924 39.1925 251.793 37.1133 252.505 36.8381C246.145 39.0498 240.804 44.3713 236.456 50.6835ZM215.457 102.303H214.676C216.882 93.7194 217.436 85.0608 217.323 77.8509C217.171 78.1786 217.008 78.4053 216.831 78.5316C214.285 80.2582 204.971 81.6446 204.076 73.3382C203.168 65.0322 205.45 64.0491 201.227 59.2216C197.017 54.3945 200.874 48.1552 200.912 45.1432C200.95 42.1178 198.479 38.5762 193.98 36.0048C189.492 33.4339 191.295 30.4343 191.295 30.4343C191.295 30.4343 200.307 33.3201 209.218 44.4873C212.621 48.7604 214.902 54.4825 216.276 60.0157L216.352 60.0032C216.365 60.041 216.478 60.5702 216.629 61.503C217.713 66.3688 218.104 70.9691 217.953 74.1834C218.331 82.023 218.016 92.1947 215.457 102.303ZM152.046 55.7311C150.819 55.756 149.963 55.4923 149.339 55.0592C148.713 54.6244 148.321 54.0183 148.025 53.3616C147.708 52.6595 149.343 52.1899 152.907 52.3545C156.002 52.4976 160.549 53.1184 166.54 54.483C175.565 56.5381 189.669 66.8228 197.307 72.797C197.584 72.9989 197.887 73.2257 198.202 73.5031C200.949 75.6583 202.651 77.1079 202.651 77.1079C203.395 78.1661 204.101 79.9434 204.491 81.3805C207.226 85.9305 210.289 92.5984 213.314 102.303H212.52C209.898 93.9217 207.239 87.8594 204.806 83.4854C204.744 83.7375 204.58 83.7629 204.29 83.4854C202.953 82.1995 203.471 80.2964 194.03 79.364C184.577 78.4311 189.14 80.2208 185.295 76.5276C181.438 72.8353 185.61 73.5031 179.699 70.9949C173.8 68.4737 173.309 71.6876 170.372 66.4697C167.435 61.2518 173.46 61.126 166.263 59.1971C159.054 57.2811 158.764 61.6173 156.81 58.6426C154.869 55.668 154.491 55.6808 152.046 55.7311ZM169.742 140.049C169.727 140.344 169.367 140.612 169.375 140.959C169.379 141.161 169.509 141.39 169.906 141.666C171.04 142.454 171.19 142.528 171.18 142.848C171.176 142.976 171.146 143.143 171.144 143.411C171.142 143.545 171.148 143.705 171.167 143.897C171.305 145.448 171.999 145.586 172.843 145.296C173.334 145.132 174.582 146.279 175.502 147.237H94.2279C94.1198 146.85 93.841 146.485 93.2221 146.317C91.7979 145.926 88.8107 145.901 87.8023 145.208C86.7938 144.514 86.6173 143.62 86.3652 142.989C86.1255 142.359 85.5079 142.473 85.5079 142.473C85.5079 142.473 85.2682 142.321 85.1171 142.359C85.0219 142.375 85.1593 143.433 84.5155 144.131C84.7249 143.902 84.8521 143.636 84.9285 143.379L84.8783 143.014C84.9036 142.8 84.9414 142.649 84.9414 142.649L84.828 142.611L83.8827 135.049H85.7351L85.455 132.25C85.8899 132.183 86.3447 132.111 86.8441 132.024C92.4404 131.041 87.4114 130.474 88.6591 129.504C89.9197 128.52 90.3479 129.504 91.1798 129.364C92.0242 129.226 91.8855 127.688 92.1629 127.121C92.4404 126.567 93.978 127.121 95.0998 126.844C96.2087 126.567 97.1923 126.567 97.7468 125.167C98.3141 123.769 98.4524 125.029 100.835 124.184C103.204 123.352 103.066 125.306 104.604 125.583C106.141 125.86 106.28 126.843 108.662 126.012C111.032 125.167 109.078 124.045 109.923 123.352C110.755 122.646 112.154 123.769 113.969 124.046C115.758 124.323 114.587 125.407 115.191 128.341V128.344L115.192 128.343C115.192 128.343 115.191 128.343 115.191 128.344C115.191 128.344 116.056 127.472 117.074 127.376C117.123 127.371 117.172 127.373 117.221 127.372C117.258 127.371 117.294 127.367 117.33 127.369C117.59 127.38 117.855 127.448 118.115 127.6C118.722 127.952 119.369 128.04 119.906 128.026C120.596 128.01 121.103 127.826 121.103 127.826C122.779 128.104 123.623 128.52 125.3 128.52C126.976 128.52 125.993 129.087 127.115 131.041C128.237 132.994 128.375 133.133 129.774 132.856C131.173 132.578 130.329 131.179 131.728 131.041C133.127 130.902 134.249 132.856 136.341 132.301C138.446 131.734 138.169 131.318 139.278 130.474C140.4 129.642 142.215 130.474 142.631 130.335C143.059 130.196 143.475 128.381 143.614 127.688C143.752 126.982 144.458 127.121 145.013 126.844C145.567 126.567 146.134 124.184 146.273 123.075C146.412 121.953 148.227 121.386 148.933 121.386C149.626 121.386 150.331 124.461 150.193 126.012C150.042 127.549 150.886 128.658 152.286 129.226C153.685 129.78 152.701 130.474 152.147 133.41C151.58 136.347 152.008 135.099 151.164 136.208C150.332 137.33 152.286 137.469 154.806 137.469C157.315 137.469 154.945 138.175 154.668 139.145C154.378 140.129 155.638 139.713 158.436 139.007C161.235 138.313 159.558 137.885 161.65 137.053C163.755 136.208 163.465 137.607 167.662 138.868C169.366 139.38 169.758 139.73 169.742 140.049Z" fill="#A71010"/>
<path d="M57.9062 144.161C57.8844 144.602 57.5678 146.078 57.3068 147.237C57.1196 148.068 56.9609 148.737 56.9609 148.737H42.6299C42.6299 148.737 42.4405 148.699 42.3147 148.371C42.2013 148.044 41.798 146.594 43.2347 146.203C43.8745 146.029 44.822 145.927 45.7656 145.807C46.9399 145.657 48.108 145.478 48.6669 145.094C49.6624 144.401 49.8514 143.506 50.0911 142.876C50.3432 142.246 50.9484 142.359 50.9484 142.359C50.9484 142.359 51.188 142.208 51.3517 142.246C51.4473 142.261 51.3032 143.331 51.959 144.029C52.365 144.468 52.9577 144.614 53.5509 144.62C53.5824 144.62 53.6158 144.619 53.6482 144.618C54.6358 144.605 56.4259 144.268 56.9044 143.388C56.9062 143.385 56.9084 143.381 56.9102 143.377C56.9244 143.351 56.9346 143.326 56.9449 143.301C57.0289 143.104 57.0102 142.964 57.0102 142.964C57.0102 142.964 57.9306 143.418 57.9062 144.161ZM93.2221 146.317C91.7979 145.926 88.8108 145.901 87.8024 145.208C86.7939 144.514 86.6174 143.62 86.3653 142.989C86.1256 142.359 85.508 142.473 85.508 142.473C85.508 142.473 85.2683 142.321 85.1171 142.359C85.022 142.375 85.1594 143.433 84.5155 144.131C84.5058 144.141 84.4951 144.152 84.4849 144.162C84.4159 144.233 84.3417 144.301 84.2545 144.362C84.2136 144.391 84.17 144.418 84.1247 144.445C84.0793 144.471 84.0313 144.495 83.9811 144.519C83.9233 144.546 83.8628 144.57 83.7988 144.592C83.7645 144.604 83.7312 144.617 83.6952 144.628C83.604 144.654 83.5049 144.675 83.4008 144.692C83.3626 144.698 83.3234 144.704 83.283 144.709C83.1696 144.722 83.0495 144.731 82.921 144.733C82.8855 144.733 82.8472 144.732 82.8103 144.731C82.6703 144.729 82.5244 144.722 82.3661 144.704C82.3586 144.703 82.3523 144.704 82.3448 144.703C82.3141 144.699 82.2883 144.694 82.2581 144.69C82.1202 144.673 81.9873 144.654 81.8628 144.633C81.8045 144.623 81.7507 144.613 81.6956 144.602C81.5969 144.583 81.5008 144.564 81.4106 144.543C81.3666 144.533 81.323 144.523 81.2807 144.513C81.1709 144.485 81.066 144.457 80.969 144.426C80.9548 144.422 80.9393 144.418 80.9255 144.413C80.2011 144.183 79.8299 143.886 79.6404 143.631C79.6333 143.622 79.6267 143.612 79.6204 143.603C79.6026 143.578 79.588 143.554 79.5737 143.53C79.4217 143.272 79.4457 143.078 79.4457 143.078C79.4457 143.078 78.5382 143.532 78.5635 144.275C78.5777 144.701 78.8757 146.097 79.1331 147.237C79.3332 148.121 79.5084 148.85 79.5084 148.85H93.8393C93.8393 148.85 94.0158 148.825 94.1417 148.485C94.2137 148.298 94.3707 147.748 94.2279 147.237C94.1199 146.85 93.8411 146.485 93.2221 146.317ZM53.8719 54.6724C56.7167 53.6738 58.9129 53.0762 60.4015 52.7276C61.9004 52.3763 62.6821 52.2776 62.6821 52.2776C62.6777 52.278 62.0489 52.367 60.8933 52.6177C61.4478 53.5382 63.8173 57.0171 67.4598 57.5084C71.6568 58.0758 75.4003 53.0842 75.4003 53.0842L75.4755 52.9463C76.7938 53.2389 78.7107 53.7547 81.3239 54.672C82.5382 55.098 83.873 56.1918 85.1994 57.6009C88.1149 60.6983 90.9869 65.3275 92.4502 67.8331L92.4534 67.8308C92.7139 68.2755 92.9714 68.7277 93.2208 69.1812C93.2968 69.3195 93.3751 69.4569 93.4489 69.5956L84.765 76.5272L84.7645 76.5277C84.7645 76.5277 84.7387 76.4819 84.6974 76.4089C84.2003 75.5365 81.0117 69.9905 80.4546 70.3391C79.9059 70.6824 80.8806 87.0729 81.0673 91.5393H79.9379V85.8799H79.6733L73.7111 96.7697L79.6729 85.8799H78.463H78.4626H74.0895L68.1277 96.7697L74.089 85.8799H72.8792H68.0645H66.8547L60.8929 96.7697H60.8924L66.8542 85.8799H62.3171H62.3166H61.1072H55.763V91.5389H54.1294C54.3161 87.0711 55.2903 70.6824 54.7421 70.3395C54.1734 69.9843 50.8692 75.7571 50.4713 76.4578C50.4481 76.4992 50.4317 76.5277 50.4317 76.5277L41.7473 69.5956C41.7473 69.5956 41.754 69.5832 41.7562 69.5787C41.8024 69.4916 42.2675 68.6192 43.0328 67.3395L43.0355 67.3417C45.3111 63.5027 50.1547 55.977 53.8719 54.6724ZM61.8506 85.7918H72.6524C72.6524 83.1453 70.5221 81.0021 67.8756 81.0026H66.6403C63.9934 81.0026 61.8506 83.1453 61.8506 85.7918ZM55.2476 101.932H53.1987H52.0173L50.9701 113.103H52.3797H54.3881L55.2476 101.932ZM81.3546 113.103H83.5382H84.5853L83.7258 101.932H82.4195H80.3074L81.3546 113.103Z" fill="#A71010"/>
<path d="M226.423 130.411C226.447 130.653 226.466 130.893 226.483 131.133C227.094 139.519 223.89 146.433 221.721 147.855H208.89C208.665 147.707 208.429 147.497 208.186 147.236C207.1 146.063 205.9 143.79 205.073 140.821C204.258 137.895 203.806 134.297 204.189 130.411C205.097 121.234 212.571 115.021 212.117 110.294C211.663 105.555 208.487 102.303 208.487 102.303H212.52H213.314H214.411H216.201H222.112C222.112 102.303 218.949 105.555 218.495 110.294C218.041 115.021 225.515 121.234 226.423 130.411ZM74.8198 39.9884C74.8754 40.0649 74.9234 40.1454 74.9688 40.2267C74.9977 40.2797 75.0231 40.3339 75.048 40.3877C75.0608 40.4148 75.0737 40.442 75.0857 40.47C75.1138 40.5367 75.1395 40.6043 75.1622 40.6718C75.1653 40.6812 75.1684 40.6905 75.1716 40.6999C75.2089 40.8141 75.2365 40.9284 75.2605 41.0418C75.2743 41.1049 75.2841 41.165 75.2943 41.2268C75.3009 41.2663 75.3067 41.3055 75.3121 41.3446C75.3521 41.6416 75.3601 41.916 75.3499 42.1183C75.3623 41.9795 75.3877 41.7906 75.413 41.5385C75.501 40.7697 75.6398 40.442 77.2405 40.0387C78.8412 39.6225 84.2734 37.606 85.2819 34.0515C86.2904 30.485 83.4544 28.1528 79.522 29.6148C75.602 31.0768 73.0813 29.3876 68.7833 29.1106C64.4978 28.8332 63.7166 30.6606 61.6619 32.4001C59.6076 34.1391 58.914 33.7238 58.4604 35.6896C58.0065 37.6558 59.7837 40.3028 59.7837 40.3028C60.1492 41.084 60.2879 42.357 60.2879 42.357C60.2879 42.357 60.4267 42.2308 60.6156 41.3108C60.7922 40.4033 61.4729 39.0293 64.6361 39.6718C67.7873 40.3023 68.1906 41.8141 71.3414 41.0836C72.6722 40.7768 73.3659 40.3575 73.7816 40.0476C74.3543 39.6211 74.3961 39.4042 74.8198 39.9884ZM59.3524 96.7083C59.3039 96.6972 59.2559 96.6865 59.2026 96.6736C59.1501 96.6612 59.0927 96.646 59.0358 96.6318C59.0007 96.6229 58.9669 96.6145 58.93 96.6051C58.8531 96.5851 58.7717 96.5629 58.689 96.5402C58.6708 96.5353 58.6534 96.5304 58.6352 96.5255C58.5387 96.4989 58.4387 96.47 58.3364 96.4397C58.3297 96.4379 58.3231 96.4357 58.3164 96.4339C58.1065 96.3721 57.8855 96.3014 57.6614 96.2272C57.5609 96.1938 57.46 96.1596 57.3582 96.124C57.3235 96.112 57.2901 96.1013 57.2555 96.0893C57.2359 96.0822 57.2163 96.0755 57.1968 96.0684C57.1052 96.0355 57.0145 96.0022 56.9233 95.968C56.8855 95.9537 56.8482 95.939 56.8104 95.9248L56.809 95.9266C56.7806 95.9159 56.7539 95.9035 56.7259 95.8924C56.6005 95.8443 56.476 95.7937 56.3551 95.7403C56.3382 95.7327 56.3204 95.7261 56.303 95.7185C56.1296 95.6438 55.9638 95.566 55.8046 95.4868C55.8041 95.4864 55.8032 95.4864 55.8028 95.486C55.8024 95.486 55.8019 95.4855 55.8015 95.4855C55.7886 95.4788 55.7757 95.4722 55.7628 95.466C55.7615 95.4651 55.7601 95.4646 55.7583 95.4637C55.6392 95.4033 55.5262 95.3419 55.4191 95.2801C55.4048 95.2716 55.3902 95.2632 55.3759 95.2547C55.2839 95.2005 55.199 95.1454 55.1185 95.0898C55.098 95.0755 55.0763 95.0613 55.0562 95.0471C54.9851 94.9955 54.9224 94.9435 54.8633 94.8915C54.8446 94.875 54.8232 94.859 54.8059 94.8426C54.7357 94.7759 54.6743 94.7087 54.6281 94.6416L54.6276 94.6411H53.733L53.1981 101.933H55.247L54.3875 113.105H52.379L50.7708 135.05L52.5751 135.02L51.628 142.499L51.5271 142.537C51.5271 142.537 51.5649 142.688 51.5773 142.902L51.5395 143.268C51.6174 143.528 51.7445 143.799 51.9584 144.03C51.9628 144.035 51.9673 144.039 51.9717 144.044C52.0424 144.119 52.1216 144.189 52.2123 144.253C52.2519 144.281 52.2937 144.308 52.3377 144.332C52.3813 144.358 52.4275 144.382 52.476 144.405C52.5382 144.433 52.604 144.46 52.6738 144.484C52.7036 144.494 52.7321 144.505 52.7632 144.515C52.8584 144.543 52.9624 144.564 53.0718 144.582C53.1051 144.587 53.1394 144.592 53.1745 144.597C53.2919 144.611 53.4164 144.62 53.5507 144.622C53.5822 144.622 53.6156 144.621 53.6481 144.62C53.797 144.618 53.9526 144.611 54.1225 144.592C54.1229 144.592 54.1234 144.592 54.1238 144.592C54.1283 144.591 54.1318 144.59 54.1363 144.59C54.3039 144.57 54.4591 144.546 54.608 144.521C54.6658 144.512 54.7196 144.501 54.7748 144.49C54.8695 144.473 54.9611 144.454 55.0482 144.434C55.0989 144.422 55.1492 144.411 55.1972 144.399C55.2919 144.375 55.3822 144.35 55.4671 144.324C55.4951 144.316 55.5249 144.308 55.552 144.299C55.7864 144.224 55.9842 144.142 56.1496 144.056C56.1554 144.053 56.1603 144.05 56.1661 144.047C56.584 143.827 56.797 143.588 56.9046 143.39C56.9064 143.386 56.9086 143.383 56.9104 143.379C56.9246 143.352 56.9349 143.328 56.9451 143.303C56.9736 143.233 56.9905 143.17 56.9976 143.117L56.9473 142.865L58.8224 134.918L58.9727 134.915L60.7535 134.886L64.3329 119.61H59.6441V96.7696C59.5854 96.759 59.5178 96.7452 59.4431 96.7292C59.4151 96.723 59.3822 96.715 59.3524 96.7083ZM84.8782 143.014C84.9035 142.8 84.9413 142.649 84.9413 142.649L84.8279 142.611L83.8826 135.049H85.735L85.4549 132.25L83.538 113.103H81.3544L80.3072 101.932H82.4193L81.8715 96.4588L81.7674 95.4184L81.6896 94.6398H80.5678C80.5233 94.7043 80.4695 94.767 80.4122 94.8288C80.3948 94.847 80.3766 94.8652 80.3583 94.8835C80.3148 94.927 80.2676 94.9702 80.2178 95.0128C80.1952 95.0324 80.1734 95.052 80.1498 95.0707C80.0836 95.124 80.0129 95.1765 79.9382 95.2276C79.9382 95.2276 79.9377 95.2276 79.9377 95.2281C79.9173 95.2418 79.8959 95.2552 79.8755 95.269C79.7563 95.3463 79.6296 95.4215 79.4944 95.494C79.4651 95.51 79.4362 95.5255 79.4064 95.5411C79.4059 95.5415 79.4055 95.5415 79.405 95.542C79.0987 95.7007 78.7607 95.8461 78.4077 95.9773C78.4068 95.9777 78.4064 95.9777 78.4055 95.9782C78.3566 95.9964 78.3054 96.0093 78.2561 96.0271C78.0111 96.1151 77.7625 96.1952 77.514 96.2694C77.453 96.2876 77.393 96.3112 77.3325 96.3286C77.3254 96.3308 77.3179 96.3326 77.3107 96.3348C77.1431 96.3828 76.9768 96.4273 76.8141 96.4686C76.8025 96.4717 76.7905 96.4749 76.779 96.478C76.614 96.5198 76.453 96.558 76.2974 96.5931C76.2774 96.5976 76.2583 96.6016 76.2383 96.606C76.112 96.634 75.991 96.6594 75.8741 96.6825C75.8381 96.6896 75.8016 96.6972 75.7665 96.7038C75.6376 96.7287 75.513 96.7514 75.401 96.7701H75.4014V119.609H75.401H71.8469H71.8465L75.8923 135.049H77.4908L77.9733 136.931L79.5229 142.977L79.4597 143.229C79.4739 143.308 79.5069 143.413 79.5744 143.53C79.5887 143.554 79.6033 143.578 79.6211 143.603C79.6273 143.613 79.634 143.622 79.6411 143.631C79.831 143.887 80.2018 144.183 80.9262 144.414C80.9399 144.418 80.9555 144.422 80.9697 144.427C81.0671 144.457 81.1716 144.485 81.2814 144.513C81.3237 144.523 81.3668 144.533 81.4113 144.544C81.5015 144.565 81.5976 144.584 81.6963 144.602C81.7514 144.613 81.8052 144.624 81.8635 144.634C81.9884 144.654 82.1209 144.674 82.2588 144.691C82.2886 144.695 82.3152 144.699 82.3459 144.703C82.353 144.704 82.3597 144.704 82.3668 144.705C82.5251 144.722 82.671 144.729 82.811 144.731C82.8479 144.732 82.8862 144.734 82.9217 144.733C83.0507 144.731 83.1703 144.723 83.2837 144.709C83.3237 144.704 83.3628 144.698 83.4015 144.692C83.5055 144.675 83.6047 144.654 83.6959 144.628C83.7323 144.618 83.7652 144.605 83.7995 144.593C83.8635 144.57 83.9244 144.546 83.9818 144.519C84.032 144.496 84.08 144.471 84.1254 144.445C84.1707 144.419 84.2143 144.392 84.2552 144.363C84.3419 144.301 84.4171 144.233 84.4855 144.163C84.4958 144.152 84.5064 144.142 84.5162 144.131C84.7257 143.903 84.8528 143.636 84.9293 143.38L84.8782 143.014Z" fill="#072948"/>
</svg>
