<svg width="288" height="288" viewBox="0 0 288 288" fill="none" xmlns="http://www.w3.org/2000/svg">
<path d="M71.6434 223.066H25.9431C25.9431 223.066 26.1831 220.184 27.3157 219.84C28.4478 219.497 29.0656 220.63 29.0656 220.63C29.0656 220.63 28.6195 219.12 29.4773 218.571C30.3351 218.022 31.3303 219.909 31.3303 219.909C31.3303 219.909 30.3695 217.507 31.502 217.095C32.6341 216.684 34.3159 218.159 34.3159 218.159C34.3159 218.159 33.8354 216.752 34.5558 216.272C35.2762 215.791 36.9231 217.095 36.9231 217.095C36.9231 217.095 36.0653 215.483 36.4427 214.248C36.82 213.012 37.9865 214.145 37.9865 214.145C37.9865 214.145 36.2709 210.919 37.1287 210.439C37.9865 209.958 39.5652 211.022 39.5652 211.022C39.5652 211.022 38.4326 208.792 39.3934 208.277C40.3542 207.762 41.3494 209.546 41.3494 209.546C41.3494 209.546 41.1777 206.699 42.1385 206.287C43.0994 205.875 43.8541 207.762 43.8541 207.762C43.8541 207.762 44.4719 203.164 45.4323 202.787C46.3931 202.409 47.2509 204.434 47.2509 204.434C47.2509 204.434 48.4377 202.099 50.055 200.051L51.7479 160.425C49.6298 152.033 40.6939 136.483 40.6939 136.483C46.8697 144.915 51.4102 156.027 51.8853 157.21L54.0043 107.601L53.8844 128.16C57.3919 119.803 62.6688 113.629 62.6688 113.629C59.4143 118.032 55.5303 127.454 53.864 131.692L53.5926 178.305C56.3266 174.674 59.781 172.648 59.781 172.648C57.0944 175.335 54.9453 178.339 53.58 180.452L53.5075 192.892L53.4828 197.161C53.9284 197.013 54.3706 196.977 54.7997 197.091C58.1622 197.983 54.8684 206.836 54.8684 206.836C54.8684 206.836 55.7606 205.463 56.927 205.669C58.0935 205.875 57.3315 208.003 57.3315 208.003C57.3315 208.003 58.9856 206.047 60.1525 206.15C61.319 206.253 60.3587 208.552 60.3587 208.552C60.3587 208.552 60.8734 207.968 62.2116 208.552C63.5498 209.135 62.4859 212.669 62.4859 212.669C62.4859 212.669 64.0641 209.856 65.5054 210.302C66.9466 210.748 65.7453 213.63 65.7453 213.63C65.7453 213.63 68.1469 211.537 69.1765 211.914C70.206 212.292 69.6913 215.174 69.6913 215.174C69.6913 215.174 70.4804 212.875 72.2303 213.081C72.3996 213.101 72.5443 213.155 72.6768 213.225C72.9361 213.582 73.194 213.907 73.4408 214.2C73.7935 215.18 73.6715 216.444 73.6715 216.444C73.6715 216.444 73.8476 215.779 74.1607 215.003C74.688 215.557 75.0542 215.866 75.0542 215.866C75.0542 215.866 74.2734 215.503 73.8375 216.085C73.4016 216.666 74.7819 217.883 74.7819 217.883C74.7819 217.883 73.2201 217.429 72.8205 217.883C72.4209 218.337 73.4379 219.445 73.4379 219.445C73.0745 219.281 72.2574 219.063 71.9303 219.445C71.6033 219.826 72.2937 221.007 72.2937 221.007C71.567 220.535 71.0585 221.007 71.0585 221.007C70.7314 221.734 71.6434 223.066 71.6434 223.066ZM71.6434 223.066H97.1071C97.1071 223.066 97.0795 223.063 97.0398 223.057L71.6434 223.066ZM271.145 223.041L266.35 222.133C266.35 222.133 266.059 221.079 264.861 221.37C263.662 221.66 262.718 222.278 260.756 221.733C258.795 221.188 255.925 220.861 255.925 220.861C255.925 220.861 257.015 219.772 256.579 219.154C256.143 218.536 254.363 219.299 254.363 219.299C254.363 219.299 255.017 218.536 254.036 217.846C253.055 217.156 250.839 219.771 250.73 219.771C250.622 219.771 251.166 218.536 250.186 217.955C249.205 217.374 248.261 218.318 248.261 218.318C248.261 218.318 249.241 216.248 248.261 216.248C247.28 216.248 246.336 217.664 246.336 217.664C246.336 217.664 246.59 215.848 245.863 215.448C245.649 215.33 245.396 215.363 245.147 215.465C245.147 215.465 245.172 213.729 243.24 214.572H242.377L242.503 214.114C241.976 214.199 241.541 214.359 241.541 214.359C241.541 214.359 242.158 212.652 241.541 212.325C240.923 211.997 239.828 212.833 239.828 212.833C239.828 212.833 239.942 211.671 239.361 211.344C238.78 211.017 237.763 212.093 237.763 212.093C237.763 212.093 238.671 210.508 239.506 208.292C240.342 206.077 239.288 205.35 239.288 205.35C235.183 203.279 229.335 211.017 229.335 211.017C229.335 211.017 229.371 209.455 229.044 209.273C228.717 209.092 228.354 209.346 228.354 209.346C228.354 209.346 228.79 207.929 227.919 207.857C227.047 207.784 226.175 209.418 226.175 209.418C226.175 209.418 227.483 206.149 226.175 205.786C224.867 205.423 223.378 208.401 223.378 208.401C223.378 207.202 222.506 206.04 221.961 206.149C221.417 206.259 220.908 207.421 220.908 207.421C220.908 207.421 219.855 204.914 219.128 204.914C218.402 204.914 218.002 206.113 218.002 206.113C218.002 206.113 214.478 200.301 212.117 201.028C209.756 201.754 211.428 205.931 211.428 205.931C211.428 205.931 211.018 205.566 210.516 205.285C210.416 204.476 210.103 203.276 209.153 202.35C208.913 202.117 208.662 201.883 208.408 201.648C207.881 201.16 207.346 200.663 206.909 200.151C206.94 199.984 207.09 199.623 207.798 199.367C208.227 199.212 208.785 199.285 209.432 199.369C210.444 199.501 211.705 199.666 212.901 198.886C214.55 197.809 214.299 195.903 213.936 195.045L213.133 195.385C213.162 195.455 213.8 197.006 212.655 197.982C212.565 197.64 212.384 197.254 212.019 196.976C211.696 196.729 211.806 196.388 211.831 196.323L211.428 196.16L211.026 195.99C210.88 196.336 210.789 197.133 211.49 197.668C211.747 197.865 211.832 198.202 211.859 198.436C211.101 198.706 210.313 198.605 209.546 198.505C208.818 198.409 208.13 198.319 207.502 198.547C206.902 198.763 206.546 199.062 206.335 199.355C206.106 198.962 205.96 198.558 205.942 198.139C205.918 197.572 205.986 197.134 206.05 196.711C206.176 195.889 206.296 195.112 205.639 193.851C204.643 191.938 201.346 191.439 201.208 191.415L201.075 192.194C201.105 192.199 204.069 192.725 204.866 194.254C205.391 195.261 205.306 195.814 205.189 196.579C205.143 196.883 205.094 197.219 205.076 197.608C204.64 197.516 203.915 197.378 202.807 197.213C202.704 195.791 201.983 195.271 201.897 195.214L201.408 195.936C201.427 195.95 201.808 196.24 201.919 197.08C199.872 196.737 199.699 195.582 199.693 195.532L198.825 195.617C198.833 195.697 199.035 197.565 201.96 197.971C203.713 198.214 204.675 198.409 205.105 198.507C205.329 199.979 206.591 201.151 207.816 202.286C208.065 202.516 208.311 202.745 208.545 202.973C209.161 203.573 209.446 204.341 209.578 204.968C209.461 204.964 209.351 204.98 209.249 205.022C208.45 205.349 208.595 206.366 208.595 206.366C208.595 206.366 207.36 205.313 206.961 205.676C206.561 206.039 207.179 207.528 207.179 207.528C207.179 207.528 203.946 202.951 202.021 202.152C200.096 201.353 198.388 202.152 198.388 202.152C197.626 202.297 197.122 203.242 197.122 203.242C195.368 207.183 197.096 210.864 198.809 213.222C199.18 213.417 199.422 213.778 199.573 214.197C199.831 214.504 200.075 214.774 200.292 215.001C200.766 213.826 201.556 212.391 202.548 212.598C204.195 212.941 203.886 216.441 203.886 216.441C203.886 216.441 204.916 214.657 205.911 215.069C206.906 215.48 206.322 218.465 206.322 218.465C206.322 218.465 207.043 217.299 208.518 217.573C209.994 217.848 209.994 220.352 209.994 220.352C209.994 220.352 210.268 219.632 211.538 219.701C212.807 219.769 213.631 220.97 214.557 221.485C215.484 222 215.964 221.965 217.988 222.308C219.85 222.624 222.721 222.997 223.171 223.054L235.533 223.05C235.533 223.04 235.534 223.028 235.535 223.017H241.36C241.343 223.027 241.325 223.039 241.308 223.049L243.761 223.048V223.017H245.01V223.048L271.145 223.041Z" fill="#788F9C"/>
<path d="M149.548 113.38C149.548 115.061 148.737 116.423 147.736 116.423C146.736 116.423 145.925 115.061 145.925 113.38C145.925 111.7 146.736 110.337 147.736 110.337C148.736 110.337 149.548 111.7 149.548 113.38ZM153.854 111.353C152.854 111.353 152.043 112.715 152.043 114.396C152.043 116.077 152.854 117.439 153.854 117.439C154.855 117.439 155.666 116.077 155.666 114.396C155.666 112.715 154.855 111.353 153.854 111.353Z" fill="#CCE4EE"/>
<path d="M150.395 113.367L152.108 113.716L151.977 114.359L150.354 114.029C150.177 115.398 149.453 116.424 148.585 116.424C148.438 116.424 148.297 116.392 148.16 116.336C148.956 116.015 149.547 114.815 149.547 113.38C149.547 111.945 148.956 110.745 148.16 110.424C148.297 110.369 148.438 110.337 148.585 110.337C149.582 110.337 150.391 111.692 150.395 113.367ZM161.042 111.796L160.69 111.241L156.488 113.902C156.347 112.457 155.603 111.352 154.702 111.352C154.556 111.352 154.414 111.385 154.278 111.439C155.073 111.761 155.666 112.96 155.666 114.395C155.666 115.83 155.074 117.03 154.278 117.351C154.414 117.407 154.556 117.439 154.702 117.439C155.648 117.439 156.423 116.221 156.505 114.669L161.042 111.796Z" fill="#072948"/>
<path d="M157.024 142.752L154.929 138.651L155.562 138.327L155.088 137.401L151.858 139.051L152.331 139.978L152.964 139.654L155.059 143.756L157.024 142.752Z" fill="#73CFE8"/>
<path d="M118.816 184.956H113.037L114.708 179.345H120.487L118.816 184.956ZM106.384 216.579C106.384 216.579 106.789 216.045 107.162 216.207C107.194 216.222 107.264 216.255 107.359 216.303V191.388H101.956V220.364C101.956 221.856 103.165 223.066 104.657 223.066C106.149 223.066 107.359 221.856 107.359 220.364V217.681L106.384 216.579ZM187.572 220.364C187.572 221.856 188.781 223.066 190.273 223.066C191.765 223.066 192.975 221.856 192.975 220.364V191.388H187.572V220.364ZM189.354 179.345L187.684 184.956H193.462L195.133 179.345H189.354Z" fill="#072948"/>
<path d="M66.0599 168.63C72.9294 187.133 65.0347 192.631 53.508 192.893L53.5806 180.453C54.9459 178.339 57.0949 175.335 59.7815 172.648C59.7815 172.648 56.3272 174.674 53.5932 178.306L53.8646 131.693C55.5308 127.454 59.4148 118.032 62.6694 113.629C62.6694 113.629 57.393 119.804 53.8849 128.161L54.0049 107.602L51.8858 157.211C51.4107 156.028 46.8697 144.916 40.6944 136.483C40.6944 136.483 49.6303 152.033 51.7484 160.426L50.3633 192.845C49.8233 192.818 49.28 192.785 48.7309 192.74C48.7309 192.74 36.4877 189.915 37.4292 179.743C38.3712 169.572 44.5871 169.195 40.8197 160.53C37.0523 151.866 27.6346 150.359 31.7784 138.493C35.9222 126.626 44.9635 129.263 43.8333 119.657C42.7032 110.05 38.9363 103.834 44.3984 97.6188C49.8611 91.4028 55.3233 89.7076 55.8883 78.0295C56.4534 66.3509 65.4948 73.5088 65.1179 82.1733C64.741 90.8378 63.0458 95.7348 67.0014 101.763C70.957 107.79 74.7732 115.927 68.8258 123.685C64.4933 129.336 63.234 132.277 68.1315 138.304C73.0291 144.332 76.796 148.476 72.464 155.445C68.132 162.414 63.6737 162.203 66.0599 168.63ZM85.1949 220.364V205.845C85.0439 205.721 84.7391 205.483 84.386 205.285C84.2863 204.477 83.9733 203.276 83.0231 202.35C82.7836 202.117 82.532 201.884 82.2785 201.649C81.7512 201.16 81.2165 200.664 80.7797 200.152C80.8101 199.983 80.9606 199.622 81.6679 199.367C82.0976 199.212 82.6559 199.285 83.3022 199.369C83.8731 199.444 84.5224 199.529 85.1949 199.449V198.568C84.6051 198.658 84.0042 198.582 83.4154 198.505C82.6878 198.41 82.0003 198.32 81.3718 198.547C80.7719 198.764 80.4158 199.062 80.2044 199.355C79.9761 198.963 79.83 198.559 79.8121 198.14C79.7883 197.573 79.8556 197.135 79.9204 196.711C80.0462 195.889 80.1652 195.112 79.5092 193.852C78.5963 192.099 75.7674 191.466 75.1912 191.353C75.1574 191.348 75.124 191.344 75.0906 191.338L74.9445 192.194C74.9745 192.199 77.9392 192.724 78.7361 194.254C79.261 195.261 79.1763 195.814 79.0593 196.579C79.0128 196.883 78.9639 197.219 78.9456 197.608C78.5096 197.516 77.7854 197.379 76.677 197.213C76.5735 195.79 75.8531 195.271 75.767 195.214L75.2783 195.936C75.2967 195.949 75.6779 196.24 75.7887 197.08C73.7422 196.737 73.569 195.582 73.5627 195.531L72.6953 195.617C72.7025 195.696 72.9052 197.565 75.8298 197.971C77.5827 198.214 78.545 198.409 78.9746 198.506C79.1976 199.98 80.4604 201.151 81.6858 202.286C81.934 202.516 82.1803 202.744 82.4144 202.973C83.0303 203.573 83.3158 204.341 83.4474 204.968C83.3308 204.964 83.22 204.98 83.1184 205.022C82.3191 205.349 82.4648 206.366 82.4648 206.366C82.4648 206.366 81.2296 205.313 80.83 205.675C80.4304 206.039 81.0477 207.528 81.0477 207.528C81.0477 207.528 77.8149 202.951 75.8898 202.152C73.9648 201.353 72.2574 202.152 72.2574 202.152C71.4945 202.297 70.9908 203.241 70.9908 203.241C68.0169 209.925 75.0548 215.864 75.0548 215.864C75.0548 215.864 74.2739 215.501 73.838 216.083C73.4021 216.664 74.7824 217.88 74.7824 217.88C74.7824 217.88 73.2207 217.426 72.8211 217.88C72.4214 218.335 73.4384 219.443 73.4384 219.443C73.0751 219.279 72.2579 219.061 71.9309 219.443C71.6038 219.824 72.2942 221.004 72.2942 221.004C71.5675 220.532 71.059 221.004 71.059 221.004C70.732 221.731 71.644 223.063 71.644 223.063L87.7886 223.058C86.3468 223.003 85.1949 221.819 85.1949 220.364ZM112.295 218.87L113.133 218.129L113.251 218.263L115.392 216.396L115.226 216.176L117.088 214.066C116.308 214.029 115.411 214.359 115.411 214.359C115.411 214.359 116.028 212.652 115.411 212.325C114.794 211.998 113.699 212.833 113.699 212.833C113.699 212.833 113.812 211.671 113.231 211.344C112.65 211.017 111.633 212.094 111.633 212.094C111.633 212.094 112.541 210.509 113.377 208.293C114.212 206.077 113.158 205.35 113.158 205.35C111.347 204.436 109.196 205.433 107.359 206.832V216.302C108.342 216.794 112.295 218.87 112.295 218.87ZM85.1949 196.117L84.8959 195.992C84.7628 196.307 84.6777 196.997 85.1949 197.522V196.117ZM85.1949 201.546C84.2877 202.64 84.9264 204.863 85.1949 205.649V201.546ZM107.359 217.682V220.364C107.359 221.781 106.268 222.941 104.88 223.055L112.112 223.052L107.359 217.682ZM187.572 220.364V208.319C186.802 208.2 186.488 208.552 186.488 208.552C186.488 208.552 187.449 206.253 186.282 206.15C185.116 206.046 183.461 208.002 183.461 208.002C183.461 208.002 184.223 205.875 183.057 205.669C181.89 205.463 180.998 206.836 180.998 206.836C180.998 206.836 184.292 197.983 180.929 197.091C179.127 196.613 177.089 198.756 175.585 200.848V220.364C175.585 221.856 174.376 223.065 172.884 223.065H190.273C188.781 223.066 187.572 221.856 187.572 220.364ZM217.987 222.311C215.963 221.968 215.482 222.002 214.556 221.488C213.629 220.973 212.806 219.772 211.536 219.703C210.267 219.635 209.993 220.355 209.993 220.355C209.993 220.355 209.993 217.85 208.517 217.576C207.041 217.301 206.321 218.468 206.321 218.468C206.321 218.468 206.904 215.483 205.909 215.071C204.914 214.659 203.885 216.443 203.885 216.443C203.885 216.443 204.194 212.944 202.547 212.601C200.9 212.258 199.802 216.443 199.802 216.443C199.802 216.443 200.11 213.287 198.36 213.081C196.611 212.875 195.821 215.174 195.821 215.174C195.821 215.174 196.336 212.292 195.307 211.914C194.736 211.705 193.746 212.254 192.975 212.785V220.364C192.975 221.856 191.765 223.065 190.273 223.065H223.237C223.237 223.065 220.012 222.654 217.987 222.311ZM101.955 220.364V207.894C101.906 207.876 101.851 207.862 101.789 207.857C100.917 207.785 100.045 209.419 100.045 209.419C100.045 209.419 101.353 206.15 100.045 205.787C98.7376 205.423 97.2484 208.402 97.2484 208.402C97.2484 207.203 96.3766 206.041 95.8318 206.15C95.2871 206.259 94.7786 207.421 94.7786 207.421C94.7786 207.421 93.7253 204.915 92.9987 204.915C92.272 204.915 91.8729 206.114 91.8729 206.114C91.8729 206.114 91.3615 205.271 90.5985 204.268V220.364C90.5985 221.819 89.4475 223.002 88.0068 223.06L104.437 223.055C103.048 222.942 101.955 221.782 101.955 220.364ZM138.731 221.37C137.899 221.572 137.189 221.93 136.175 221.949L132.724 223.021C132.724 223.021 132.404 222.432 132.705 222.159C132.781 222.09 133.108 221.827 133.554 221.473C131.763 221.087 129.795 220.862 129.795 220.862C129.795 220.862 130.885 219.772 130.449 219.154C130.013 218.537 128.233 219.299 128.233 219.299C128.233 219.299 128.887 218.537 127.906 217.846C126.926 217.156 124.71 219.772 124.601 219.772C124.492 219.772 125.037 218.536 124.056 217.955C123.075 217.374 122.131 218.319 122.131 218.319C122.131 218.319 123.112 216.248 122.131 216.248C122.115 216.248 122.1 216.251 122.084 216.252L120.832 216.927C120.456 217.291 120.206 217.664 120.206 217.664C120.206 217.664 120.23 217.493 120.242 217.245L117.257 218.854L117 218.515L114.829 220.046L113.693 218.762L115.226 220.493L112.335 223.051L145.016 223.04L140.221 222.132C140.221 222.133 139.93 221.079 138.731 221.37ZM170.182 220.364V206.544C170.054 207.245 169.984 207.763 169.984 207.763C169.984 207.763 169.23 205.875 168.269 206.287C167.308 206.699 167.48 209.546 167.48 209.546C167.48 209.546 166.484 207.762 165.524 208.277C164.563 208.792 165.695 211.022 165.695 211.022C165.695 211.022 164.117 209.958 163.259 210.438C162.402 210.919 164.117 214.144 164.117 214.144C164.117 214.144 162.951 213.012 162.573 214.247C162.196 215.483 163.054 217.096 163.054 217.096C163.054 217.096 161.407 215.792 160.686 216.272C159.966 216.753 160.446 218.16 160.446 218.16C160.446 218.16 158.765 216.684 157.632 217.096C156.5 217.508 157.46 219.909 157.46 219.909C157.46 219.909 156.465 218.022 155.607 218.571C154.75 219.12 155.196 220.63 155.196 220.63C155.196 220.63 154.578 219.498 153.446 219.841C152.314 220.184 152.073 223.066 152.073 223.066H172.884C171.392 223.066 170.182 221.856 170.182 220.364Z" fill="#A4BFCD"/>
<path d="M146.235 184.957L139.875 191.388H135.455L145.113 184.957H146.235ZM108.043 179.345H130.451C136.391 175.139 142.567 170.998 142.567 170.998L142.723 169.331C142.723 169.331 142.77 160.804 142.984 151.787C139.329 153.897 135.746 155.36 132.838 155.025C131.923 154.92 128.888 152.413 129.639 149.674C130.228 147.522 134.036 142.169 134.036 142.169L138.159 144.012L133.141 141.768C133.141 141.768 133.772 140.64 134.859 138.981H118.012C116.138 138.981 114.48 140.199 113.919 141.988L103.95 173.771C103.082 176.534 105.146 179.345 108.043 179.345ZM208.062 184.957H167.362C166.059 186.528 163.357 188.837 160.079 191.388H170.182V220.364C170.182 221.856 171.392 223.066 172.884 223.066C174.376 223.066 175.585 221.856 175.585 220.364V191.388H208.062C209.716 191.388 211.056 190.047 211.056 188.393V187.951C211.057 186.297 209.716 184.957 208.062 184.957ZM119.654 187.903C119.77 187.479 120.995 186.389 122.82 184.957H75.614C73.9599 184.957 72.6193 186.297 72.6193 187.951V188.393C72.6193 190.047 73.9599 191.388 75.614 191.388H85.1948V220.364C85.1948 221.856 86.4043 223.066 87.8964 223.066C89.3885 223.066 90.598 221.856 90.598 220.364V191.388H120.685C119.961 189.726 119.516 188.408 119.654 187.903ZM224.386 138.981H192.898L186.697 160.572L186.101 163.721C186.101 163.721 186.489 165.576 186.53 166.353C186.571 167.129 185.997 170.66 185.225 171.076C184.452 171.493 182.815 173.303 182.323 173.735C181.831 174.167 180.546 174.693 180.373 174.079C180.2 173.465 180.684 171.68 180.897 171.308C181.11 170.935 181.613 167.523 181.613 167.523C181.613 167.523 181.324 167.6 181.032 168.051C180.741 168.502 180.493 169.318 179.92 169.472C179.346 169.627 178.067 169.647 177.948 169.287C177.828 168.927 178.549 168.735 179.088 167.965C179.628 167.195 179.841 165.772 180.425 164.616C181.009 163.461 182.461 163.032 182.461 163.032L182.954 160.425L184.797 141.767L179.518 140.257L179.168 141.267L171.271 141.696V169.329V169.409C171.271 169.409 172.335 173.598 170.284 179.344H214.416C216.29 179.344 217.948 178.127 218.509 176.338L228.478 144.554C229.346 141.792 227.282 138.981 224.386 138.981Z" fill="#A71010"/>
<path d="M141.309 223.639C141.309 223.97 141.04 224.239 140.709 224.239H21.7612C21.4298 224.239 21.1608 223.97 21.1608 223.639C21.1608 223.307 21.4298 223.038 21.7612 223.038H140.709C141.04 223.038 141.309 223.307 141.309 223.639ZM192.13 223.038H149.514C149.229 223.038 148.998 223.307 148.998 223.639C148.998 223.97 149.229 224.239 149.514 224.239H192.13C192.415 224.239 192.645 223.97 192.645 223.639C192.645 223.307 192.415 223.038 192.13 223.038ZM273.221 223.038H199.384C198.891 223.038 198.491 223.307 198.491 223.639C198.491 223.97 198.891 224.239 199.384 224.239H273.221C273.714 224.239 274.113 223.97 274.113 223.639C274.113 223.307 273.714 223.038 273.221 223.038Z" fill="#103842"/>
<path d="M153.105 139.931L155.002 143.644C148.5 148.136 139.104 155.746 132.837 155.025C131.922 154.919 128.888 152.412 129.638 149.673C130.228 147.521 134.036 142.168 134.036 142.168L141.071 145.313L153.105 139.931ZM165.67 135.887C165.028 135.758 162.597 135.554 161.797 135.192C160.997 134.83 157.842 136.514 157.249 137.017C156.655 137.52 155.415 138.953 155.415 138.953L155.152 139.085L156.85 142.41C156.924 142.362 157.001 142.311 157.074 142.265C157.074 142.265 158.296 143.161 159.569 142.924C160.842 142.688 162.103 141.995 163.042 141.957C163.982 141.92 164.571 142.376 164.785 142.063C164.999 141.75 164.207 140.745 163.737 140.383C163.268 140.02 162.468 140.318 161.932 140.359C161.397 140.401 161.161 140.218 161.161 140.218C161.161 140.218 164.179 138.549 164.604 138.493C165.03 138.436 166.742 137.739 167.125 137.23C167.51 136.72 166.312 136.017 165.67 135.887ZM155.666 114.396C155.666 114.298 155.663 114.2 155.657 114.105C155.663 114.201 155.666 114.298 155.666 114.396ZM150.395 113.367L152.09 113.712C152.275 112.361 152.994 111.353 153.854 111.353C154.001 111.353 154.143 111.385 154.279 111.441C154.279 111.441 154.278 111.44 154.278 111.44C154.414 111.385 154.556 111.353 154.702 111.353C155.603 111.353 156.347 112.458 156.488 113.903L159.151 112.217C157.803 111.479 154.154 111.293 152.422 110.466C150.616 109.604 150.534 107.757 150.534 107.757C150.534 107.757 149.418 108.94 148.524 108.997C148.572 109.439 148.624 109.887 148.662 110.344C149.624 110.412 150.392 111.736 150.395 113.367ZM149.995 120.829C151.115 121.781 152.383 122.445 153.279 123.005C154.123 123.532 153.931 124.729 152.592 125.623C152.712 126.835 153.14 127.928 154.754 128.41C157.74 129.301 160.771 127.479 161.775 125.276C160.805 124.679 160.351 122.81 160.351 122.81C160.351 122.81 160.756 116.938 161.194 116.391C161.632 115.843 162.453 115.46 163.657 113.873C164.861 112.285 164.15 108.672 162.288 109.165C160.427 109.658 160.865 111.519 160.865 111.519L161.041 111.797L160.861 111.911C160.798 113.935 160.058 114.325 160.058 114.325C160.058 114.325 160.399 113.422 159.7 112.646L156.505 114.67C156.423 116.222 155.647 117.44 154.702 117.44C154.556 117.44 154.414 117.408 154.277 117.352C154.141 117.408 154 117.44 153.853 117.44C152.853 117.44 152.042 116.078 152.042 114.397C152.042 114.233 152.051 114.074 152.066 113.917L151.977 114.36L150.353 114.03C150.176 115.399 149.452 116.425 148.584 116.425C148.506 116.425 148.43 116.415 148.354 116.397C148.544 118.41 149.248 120.194 149.995 120.829ZM113.251 218.263L114.829 220.046L117 218.515L115.392 216.396L113.251 218.263ZM192.954 135.835L182.504 131.634L179.519 140.259L184.798 141.769L182.955 160.426L182.462 163.033C182.462 163.033 181.01 163.462 180.426 164.618C179.841 165.774 179.629 167.196 179.089 167.966C178.55 168.736 177.829 168.929 177.949 169.288C178.068 169.649 179.347 169.628 179.921 169.474C180.494 169.319 180.742 168.504 181.033 168.052C181.325 167.601 181.613 167.525 181.613 167.525C181.613 167.525 181.111 170.937 180.898 171.309C180.685 171.682 180.201 173.466 180.374 174.08C180.547 174.694 181.832 174.168 182.324 173.736C182.817 173.304 184.453 171.494 185.226 171.078C185.998 170.661 186.572 167.131 186.531 166.354C186.491 165.578 186.102 163.722 186.102 163.722L186.698 160.573L193.504 136.874C193.629 136.436 193.386 135.977 192.954 135.835ZM136.258 215.805L137.08 217.451L137.186 217.418L139.677 216.644L138.921 214.75L136.258 215.805Z" fill="#FFD2BB"/>
<path d="M85.1949 201.546C84.2877 202.64 84.9263 204.863 85.1949 205.649V205.845C85.0439 205.721 84.7391 205.483 84.3859 205.286C84.2863 204.477 83.9732 203.276 83.0231 202.35C82.7836 202.117 82.532 201.884 82.2785 201.649C81.7511 201.16 81.2165 200.664 80.7796 200.151C80.8101 199.983 80.9606 199.622 81.6679 199.367C82.0975 199.212 82.6554 199.285 83.3022 199.369C83.8731 199.444 84.5224 199.528 85.1949 199.448V201.546ZM107.359 206.832C109.197 205.434 111.347 204.437 113.159 205.351C113.159 205.351 114.212 206.078 113.377 208.293C112.542 210.509 111.633 212.094 111.633 212.094C111.633 212.094 112.65 211.018 113.232 211.345C113.813 211.672 113.699 212.834 113.699 212.834C113.699 212.834 114.794 211.998 115.411 212.325C116.029 212.652 115.411 214.36 115.411 214.36C115.411 214.36 116.309 214.029 117.089 214.067L126.777 203.093C126.777 203.093 122.598 195.813 120.632 191.261C120.651 191.304 120.667 191.344 120.686 191.388H107.359V206.832H107.359ZM74.1607 215.004C73.943 214.775 73.6987 214.505 73.4393 214.198C73.4398 214.199 73.4408 214.199 73.4413 214.2C73.794 215.181 73.6721 216.444 73.6721 216.444C73.6721 216.444 73.8477 215.78 74.1607 215.004ZM131.161 178.843C130.924 179.01 130.687 179.177 130.451 179.345H120.487L118.816 184.956H122.82C122.804 184.969 122.79 184.98 122.774 184.993C124.976 183.262 128.069 181.023 131.161 178.843ZM200.291 215.003C200.291 215.003 200.29 215.003 200.29 215.004C200.073 214.776 199.829 214.507 199.571 214.2C199.924 215.181 199.802 216.444 199.802 216.444C199.802 216.444 199.978 215.779 200.291 215.003ZM252.709 156.795C228.394 147.79 232.945 133.276 224.342 91.9163C216.537 54.3928 165.035 35.3037 131.22 41.7848C96.7622 48.3887 76.3494 76.6067 80.5522 107.756C82.3893 121.372 77.6247 131.706 70.0561 140.68C73.9057 145.516 76.2048 149.428 72.464 155.445C68.1315 162.415 63.6732 162.203 66.0599 168.63C72.9294 187.133 65.0347 192.631 53.508 192.893L53.4833 197.161C53.9289 197.014 54.3711 196.978 54.8002 197.092C58.1627 197.984 54.8689 206.837 54.8689 206.837C54.8689 206.837 55.7611 205.464 56.9275 205.67C58.094 205.876 57.332 208.004 57.332 208.004C57.332 208.004 58.9861 206.048 60.1531 206.151C61.3195 206.254 60.3592 208.553 60.3592 208.553C60.3592 208.553 60.8739 207.97 62.2121 208.553C63.5504 209.136 62.4865 212.67 62.4865 212.67C62.4865 212.67 64.0646 209.857 65.5059 210.303C66.9472 210.749 65.7459 213.631 65.7459 213.631C65.7459 213.631 68.148 211.538 69.177 211.915C70.2065 212.293 69.6918 215.175 69.6918 215.175C69.6918 215.175 70.4809 212.876 72.2308 213.082C72.4001 213.102 72.5448 213.156 72.6773 213.226C70.9642 210.868 69.2365 207.186 70.9903 203.245C70.9903 203.245 71.4944 202.3 72.2569 202.155C72.2569 202.155 73.9643 201.356 75.8893 202.155C77.8144 202.955 81.0472 207.531 81.0472 207.531C81.0472 207.531 80.4299 206.042 80.8295 205.679C81.2291 205.316 82.4643 206.369 82.4643 206.369C82.4643 206.369 82.3191 205.352 83.1179 205.025C83.2195 204.984 83.3307 204.968 83.4469 204.971C83.3153 204.344 83.0298 203.576 82.4139 202.976C82.1798 202.748 81.9335 202.52 81.6853 202.29C80.4599 201.154 79.1971 199.983 78.9741 198.51C78.5445 198.412 77.5822 198.218 75.8293 197.974C72.9047 197.568 72.7015 195.7 72.6948 195.621L73.5622 195.535C73.5685 195.585 73.7417 196.74 75.7882 197.083C75.6774 196.243 75.2962 195.953 75.2778 195.939L75.7664 195.218C75.8521 195.274 76.5729 195.794 76.6765 197.216C77.7854 197.382 78.5091 197.519 78.9451 197.611C78.9634 197.222 79.0123 196.886 79.0587 196.582C79.1758 195.817 79.2605 195.264 78.7356 194.257C77.9392 192.728 74.974 192.202 74.944 192.197L75.0901 191.341C75.1235 191.347 75.1568 191.352 75.1907 191.357C75.7669 191.469 78.5957 192.102 79.5087 193.855C80.1652 195.115 80.0462 195.892 79.9199 196.715C79.8551 197.138 79.7883 197.576 79.8116 198.143C79.829 198.562 79.9756 198.966 80.2039 199.359C80.4153 199.066 80.7714 198.767 81.3713 198.55C81.9998 198.323 82.6873 198.413 83.4149 198.508C84.0037 198.585 84.6046 198.661 85.1944 198.571V197.525C84.6772 196.999 84.7623 196.31 84.8954 195.995L85.1944 196.12V191.391H75.614C73.9599 191.391 72.6193 190.05 72.6193 188.396V187.954C72.6193 186.3 73.9599 184.959 75.614 184.959H113.037L114.708 179.348H108.043C105.147 179.348 103.082 176.537 103.949 173.774L113.918 141.991C114.48 140.202 116.137 138.984 118.012 138.984H134.848C137.592 134.925 143.6 127.588 152.553 125.02C152.56 125.224 152.572 125.426 152.592 125.625C153.931 124.732 154.123 123.534 153.279 123.008C152.383 122.448 151.115 121.784 149.995 120.832C149.248 120.197 148.543 118.413 148.355 116.399C148.289 116.384 148.224 116.365 148.16 116.339C148.212 116.318 148.26 116.284 148.309 116.256C148.128 116.358 147.938 116.426 147.736 116.426C146.735 116.426 145.925 115.064 145.925 113.383C145.925 111.702 146.735 110.34 147.736 110.34C147.938 110.34 148.129 110.408 148.311 110.511C148.26 110.482 148.212 110.448 148.16 110.427C148.297 110.372 148.438 110.34 148.585 110.34C148.645 110.34 148.702 110.359 148.76 110.369C148.727 110.364 148.696 110.348 148.663 110.346C148.625 109.889 148.572 109.441 148.525 108.999C148.449 109.003 148.375 109.003 148.303 108.99C147.386 108.826 144.171 107.102 142.529 105.582C140.887 104.063 139.819 101.929 139.942 101.723C140.066 101.518 141.051 101.805 141.256 101.477C141.461 101.148 140.927 100.902 139.162 100.204C137.397 99.5057 136.329 97.946 136.247 97.6426C136.165 97.3393 151.998 98.1651 154.954 97.7273C157.91 97.2894 165.957 98.439 168.256 103.913C170.555 109.387 169.242 114.806 167.052 117.598C164.862 120.389 160.352 122.812 160.352 122.812C160.352 122.812 160.805 124.675 161.771 125.275C161.809 125.19 161.851 125.106 161.884 125.02C162.474 125.199 163.462 125.421 164.276 125.693L164.239 125.588L182.772 130.864L182.504 131.637L192.955 135.838C193.387 135.98 193.629 136.438 193.504 136.875L192.898 138.984H224.386C227.282 138.984 229.347 141.795 228.48 144.558L218.51 176.341C217.949 178.131 216.292 179.348 214.417 179.348H195.134L193.463 184.959H208.063C209.717 184.959 211.057 186.3 211.057 187.954V188.395C211.057 190.05 209.717 191.39 208.063 191.39H192.975V212.788C193.746 212.257 194.737 211.708 195.307 211.917C196.337 212.294 195.822 215.177 195.822 215.177C195.822 215.177 196.611 212.878 198.361 213.084C198.53 213.104 198.675 213.158 198.807 213.228C197.094 210.869 195.367 207.188 197.12 203.247C197.12 203.247 197.625 202.302 198.387 202.157C198.387 202.157 200.094 201.358 202.019 202.157C203.945 202.957 207.177 207.533 207.177 207.533C207.177 207.533 206.56 206.044 206.959 205.681C207.359 205.317 208.594 206.371 208.594 206.371C208.594 206.371 208.449 205.354 209.248 205.027C209.349 204.986 209.46 204.97 209.577 204.973C209.445 204.346 209.159 203.578 208.544 202.978C208.309 202.75 208.063 202.522 207.815 202.292C206.59 201.156 205.327 199.984 205.104 198.512C204.674 198.414 203.712 198.22 201.959 197.976C199.034 197.57 198.831 195.701 198.824 195.622L199.691 195.537C199.698 195.587 199.871 196.743 201.917 197.085C201.807 196.245 201.425 195.955 201.407 195.941L201.896 195.219C201.981 195.276 202.702 195.796 202.806 197.218C203.915 197.384 204.639 197.52 205.074 197.613C205.093 197.224 205.141 196.888 205.188 196.584C205.305 195.819 205.39 195.266 204.865 194.259C204.068 192.73 201.103 192.204 201.073 192.199L201.206 191.42C201.346 191.444 204.641 191.943 205.638 193.857C206.294 195.117 206.175 195.894 206.049 196.716C205.984 197.14 205.917 197.577 205.941 198.145C205.958 198.564 206.105 198.968 206.333 199.36C206.545 199.068 206.901 198.769 207.501 198.552C208.129 198.325 208.816 198.415 209.544 198.51C210.312 198.61 211.1 198.712 211.858 198.441C211.83 198.208 211.746 197.87 211.489 197.673C210.788 197.138 210.879 196.341 211.025 195.996L211.426 196.165L211.83 196.328C211.805 196.394 211.695 196.734 212.018 196.981C212.382 197.259 212.564 197.645 212.654 197.987C213.798 197.011 213.161 195.46 213.132 195.391L213.934 195.051C214.298 195.908 214.549 197.814 212.899 198.891C211.704 199.671 210.444 199.507 209.43 199.374C208.784 199.29 208.225 199.217 207.796 199.372C207.089 199.627 206.938 199.988 206.908 200.157C207.345 200.669 207.879 201.165 208.407 201.654C208.66 201.889 208.912 202.122 209.151 202.356C210.101 203.282 210.415 204.482 210.514 205.291C211.016 205.571 211.426 205.937 211.426 205.937C211.426 205.937 209.755 201.76 212.116 201.033C214.477 200.307 218.001 206.119 218.001 206.119C218.001 206.119 218.4 204.92 219.127 204.92C219.854 204.92 220.907 207.426 220.907 207.426C220.907 207.426 221.415 206.264 221.96 206.155C222.505 206.046 223.377 207.208 223.377 208.407C223.377 208.407 224.866 205.428 226.173 205.792C227.481 206.155 226.173 209.424 226.173 209.424C226.173 209.424 227.045 207.789 227.917 207.862C228.789 207.935 228.353 209.351 228.353 209.351C228.353 209.351 228.716 209.097 229.043 209.279C229.37 209.46 229.334 211.023 229.334 211.023C229.334 211.023 235.182 203.286 239.287 205.356C239.287 205.356 240.34 206.082 239.505 208.298C238.669 210.514 237.761 212.099 237.761 212.099C237.761 212.099 238.778 211.023 239.36 211.35C239.941 211.677 239.827 212.839 239.827 212.839C239.827 212.839 240.921 212.003 241.539 212.33C242.156 212.657 241.539 214.365 241.539 214.365C241.539 214.365 241.975 214.205 242.502 214.119L242.375 214.578H243.238C245.17 213.736 245.145 215.471 245.145 215.471C245.395 215.369 245.648 215.336 245.862 215.454C246.589 215.854 246.334 217.67 246.334 217.67C246.334 217.67 247.279 216.253 248.259 216.253C249.24 216.253 248.259 218.324 248.259 218.324C248.259 218.324 249.204 217.38 250.184 217.961C251.165 218.542 250.62 219.777 250.729 219.777C250.838 219.777 253.054 217.162 254.034 217.852C255.015 218.542 254.361 219.305 254.361 219.305C254.361 219.305 256.141 218.542 256.577 219.16C257.013 219.777 255.924 220.867 255.924 220.867C255.924 220.867 256.288 220.909 256.84 220.986C276.27 197.761 275.094 165.086 252.709 156.795ZM101.789 207.857C101.851 207.863 101.906 207.876 101.955 207.894V191.388H90.598V204.268C91.361 205.271 91.8724 206.114 91.8724 206.114C91.8724 206.114 92.272 204.915 92.9982 204.915C93.7248 204.915 94.7781 207.422 94.7781 207.422C94.7781 207.422 95.2866 206.259 95.8313 206.15C96.3761 206.041 97.2479 207.203 97.2479 208.402C97.2479 208.402 98.7371 205.423 100.045 205.787C101.353 206.15 100.045 209.419 100.045 209.419C100.045 209.419 100.918 207.784 101.789 207.857ZM188.274 222.181C188.128 222.02 188.002 221.843 187.898 221.652C188.002 221.843 188.128 222.021 188.274 222.181ZM187.898 221.652C187.69 221.269 187.572 220.83 187.572 220.364V191.387H175.586V200.849C177.09 198.756 179.128 196.613 180.93 197.091C184.292 197.983 180.999 206.836 180.999 206.836C180.999 206.836 181.891 205.463 183.057 205.669C184.224 205.875 183.462 208.003 183.462 208.003C183.462 208.003 185.116 206.047 186.283 206.15C187.449 206.253 186.489 208.552 186.489 208.552C186.489 208.552 186.803 208.201 187.572 208.319V220.364C187.572 220.83 187.69 221.269 187.898 221.652ZM198.492 223.639C198.492 223.367 198.762 223.14 199.13 223.066H192.247C192.473 223.129 192.645 223.356 192.645 223.639C192.645 223.97 192.414 224.239 192.13 224.239H149.513C149.229 224.239 148.998 223.97 148.998 223.639C148.998 223.307 149.229 223.038 149.513 223.038H152.076C152.102 222.763 152.374 220.165 153.446 219.841C154.578 219.498 155.196 220.63 155.196 220.63C155.196 220.63 154.75 219.12 155.607 218.571C156.465 218.022 157.46 219.91 157.46 219.91C157.46 219.91 156.5 217.508 157.632 217.096C158.764 216.685 160.446 218.16 160.446 218.16C160.446 218.16 159.966 216.753 160.686 216.272C161.406 215.792 163.054 217.096 163.054 217.096C163.054 217.096 162.196 215.483 162.573 214.248C162.951 213.012 164.118 214.145 164.118 214.145C164.118 214.145 162.402 210.919 163.26 210.439C164.118 209.958 165.696 211.022 165.696 211.022C165.696 211.022 164.564 208.792 165.524 208.277C166.485 207.762 167.48 209.546 167.48 209.546C167.48 209.546 167.308 206.699 168.269 206.287C169.23 205.875 169.984 207.762 169.984 207.762C169.984 207.762 170.054 207.244 170.183 206.544V191.387H160.08C160.08 191.387 160.081 191.387 160.081 191.386C150.908 198.527 137.247 207.555 137.247 207.555L139.47 214.532L135.305 216.183L131.853 210.986L117.258 218.854L120.242 217.245C120.23 217.493 120.206 217.664 120.206 217.664C120.206 217.664 120.457 217.29 120.832 216.927L122.084 216.252C122.1 216.251 122.116 216.248 122.132 216.248C123.112 216.248 122.132 218.318 122.132 218.318C122.132 218.318 123.076 217.374 124.057 217.955C125.037 218.536 124.492 219.771 124.601 219.771C124.71 219.771 126.926 217.156 127.907 217.846C128.887 218.536 128.234 219.299 128.234 219.299C128.234 219.299 130.014 218.537 130.45 219.154C130.885 219.771 129.796 220.861 129.796 220.861C129.796 220.861 131.764 221.086 133.554 221.473C134.875 220.424 137.242 218.572 137.242 218.572L136.91 217.504L137.187 217.418L137.081 217.451L136.259 215.805L138.922 214.75L139.678 216.644L137.186 217.418L139.926 216.567L141.12 220.413L136.175 221.949C137.189 221.931 137.899 221.572 138.731 221.371C139.93 221.08 140.221 222.134 140.221 222.134L145.016 223.042L140.729 223.043C141.051 223.055 141.309 223.315 141.309 223.639C141.309 223.971 141.04 224.24 140.709 224.24H31.2539C77.6528 273.063 228.857 247.649 251.358 226.756C252.241 225.936 253.091 225.095 253.914 224.24H199.384C198.891 224.239 198.492 223.97 198.492 223.639ZM31.5021 217.095C32.6342 216.684 34.3159 218.159 34.3159 218.159C34.3159 218.159 33.8355 216.752 34.5559 216.272C35.2762 215.791 36.9231 217.095 36.9231 217.095C36.9231 217.095 36.0653 215.483 36.4427 214.248C36.8201 213.012 37.9865 214.145 37.9865 214.145C37.9865 214.145 36.2709 210.919 37.1287 210.439C37.9865 209.958 39.5652 211.022 39.5652 211.022C39.5652 211.022 38.4326 208.792 39.3934 208.277C40.3543 207.762 41.349 209.546 41.349 209.546C41.349 209.546 41.1772 206.699 42.1381 206.287C43.0989 205.875 43.8536 207.763 43.8536 207.763C43.8536 207.763 44.4715 203.165 45.4318 202.787C46.3927 202.41 47.2504 204.434 47.2504 204.434C47.2504 204.434 48.4372 202.1 50.0546 200.051L51.6008 163.851L50.3623 192.844C49.8224 192.817 49.279 192.785 48.7294 192.74C48.7294 192.74 36.4862 189.915 37.4277 179.743C38.1152 172.318 41.6093 170.11 41.9828 166.09C39.5497 168.229 37.1897 170.41 34.9729 172.666C16.5559 191.413 24.3867 212.205 28.3714 219.942C28.8252 220.191 29.0647 220.629 29.0647 220.629C29.0647 220.629 28.6186 219.119 29.4764 218.571C30.3342 218.022 31.3294 219.909 31.3294 219.909C31.3294 219.909 30.37 217.507 31.5021 217.095ZM167.882 184.256C167.749 184.468 167.572 184.703 167.362 184.956H187.684L189.355 179.345H170.285V179.344C169.735 180.887 168.962 182.54 167.882 184.256ZM145.113 184.957H146.235L148.398 182.769L145.113 184.957ZM135.455 191.388L133.02 193.009L134.071 197.257L139.876 191.388H135.455Z" fill="#E2E2E2"/>
<path d="M171.272 169.41L142.723 169.331L142.567 170.998C142.567 170.998 120.169 186.016 119.654 187.903C119.139 189.791 126.777 203.092 126.777 203.092L115.226 216.177L117.257 218.854L131.852 210.987L135.304 216.184L139.469 214.533L137.246 207.555C137.246 207.555 164.589 189.487 167.882 184.256C172.988 176.146 171.272 169.41 171.272 169.41ZM134.071 197.257L133.02 193.009L148.398 182.769L134.071 197.257ZM113.324 218.345L115.226 220.494L112.21 223.163L106.383 216.58C106.383 216.58 106.789 216.045 107.161 216.207C107.534 216.37 112.294 218.87 112.294 218.87L113.132 218.129L113.324 218.345ZM139.925 216.567L141.12 220.413L132.724 223.021C132.724 223.021 132.403 222.432 132.704 222.159C133.005 221.886 137.24 218.572 137.24 218.572L136.908 217.504L137.185 217.418L139.925 216.567Z" fill="#091118"/>
<path d="M164.239 125.585L164.276 125.69C163.462 125.418 162.474 125.196 161.884 125.017C161.008 127.334 157.856 129.335 154.755 128.409C152.875 127.849 152.603 126.458 152.553 125.017C139.92 128.641 133.141 141.768 133.141 141.768L138.159 144.011L141.071 145.313L153.106 139.931L153.977 141.637L152.964 139.654L152.332 139.978L151.858 139.051L155.089 137.4L155.562 138.327L154.93 138.65L157.025 142.752L155.06 143.756L155.003 143.644C151.518 146.051 147.203 149.352 142.984 151.788C142.77 160.804 142.723 169.33 142.723 169.33L171.272 169.41V141.697L179.17 141.268L182.772 130.861L164.239 125.585ZM167.126 137.23C166.742 137.739 165.03 138.436 164.605 138.493C164.18 138.549 161.161 140.218 161.161 140.218C161.161 140.218 161.397 140.401 161.933 140.359C162.468 140.318 163.268 140.02 163.738 140.383C164.208 140.745 165 141.75 164.786 142.063C164.572 142.377 163.982 141.92 163.043 141.957C162.103 141.995 160.843 142.688 159.569 142.924C158.296 143.16 157.075 142.265 157.075 142.265C157.002 142.312 156.925 142.362 156.85 142.41L155.152 139.085L155.416 138.953C155.416 138.953 156.656 137.52 157.249 137.017C157.842 136.514 160.998 134.829 161.797 135.192C162.597 135.554 165.029 135.758 165.671 135.887C166.312 136.017 167.51 136.72 167.126 137.23Z" fill="#072948"/>
<path d="M160.866 111.519C160.866 111.519 160.428 109.658 162.289 109.165C164.151 108.673 164.862 112.286 163.658 113.873C162.454 115.46 161.633 115.843 161.195 116.391C160.757 116.938 160.352 122.81 160.352 122.81C160.352 122.81 164.863 120.387 167.052 117.595C169.242 114.804 170.556 109.384 168.257 103.91C165.958 98.4366 157.911 97.2871 154.955 97.7249C151.999 98.1627 136.165 97.3369 136.248 97.6402C136.33 97.9436 137.397 99.5038 139.162 100.201C140.928 100.9 141.461 101.146 141.256 101.474C141.051 101.803 140.066 101.516 139.943 101.721C139.82 101.926 140.887 104.061 142.529 105.58C144.171 107.099 147.386 108.823 148.303 108.987C149.221 109.151 150.535 107.756 150.535 107.756C150.535 107.756 150.617 109.603 152.423 110.465C154.23 111.328 158.13 111.492 159.32 112.313C160.511 113.134 160.059 114.325 160.059 114.325C160.059 114.325 160.893 113.886 160.866 111.519Z" fill="#072948"/>
</svg>
