<svg width="665" height="396" viewBox="0 0 665 396" fill="none" xmlns="http://www.w3.org/2000/svg">
<path d="M664.922 0H0V395.879H664.922V0Z" fill="url(#paint0_radial_369_7345)"/>
<g opacity="0.1">
<path d="M375.96 77.8728C406.774 106.507 454.965 104.739 483.599 73.9257C512.233 43.112 510.466 -5.07958 479.652 -33.7133C448.838 -62.347 400.647 -60.5798 372.013 -29.7662C343.379 1.04749 345.146 49.2391 375.96 77.8728Z" stroke="#F9F9F9" stroke-width="8.0172"/>
<path d="M448.013 -11.1092C455.93 -15.5158 464.861 -7.21691 461.046 1.00169L455.999 11.8745C454.293 15.5499 455.148 19.906 458.116 22.6643L466.897 30.8242C473.534 36.9921 468.401 48.0501 459.406 46.9616L447.506 45.5215C443.483 45.0347 439.604 47.1936 437.898 50.8691L432.851 61.7419C429.036 69.9605 416.933 68.4959 415.189 59.6045L412.881 47.8417C412.101 43.8654 408.849 40.8436 404.827 40.3568L392.926 38.9167C383.931 37.8282 381.584 25.865 389.501 21.4583L399.975 15.6286C403.516 13.6579 405.385 9.63146 404.605 5.65513L402.297 -6.10766C400.552 -14.999 411.205 -20.9281 417.842 -14.7602L426.623 -6.60036C429.592 -3.84199 433.999 -3.3087 437.539 -5.2794L448.013 -11.1092Z" fill="#F9F9F9"/>
<path d="M591.084 208.893C626.367 185.993 636.406 138.825 613.506 103.541C590.606 68.2574 543.438 58.2186 508.154 81.1189C472.871 104.019 462.832 151.187 485.732 186.47C508.632 221.754 555.8 231.793 591.084 208.893Z" stroke="#F9F9F9" stroke-width="8.0172"/>
<path d="M522.36 117.316C520.017 108.563 530.243 101.926 537.283 107.63L546.597 115.176C549.746 117.727 554.179 117.961 557.578 115.755L567.632 109.229C575.233 104.296 584.705 111.97 581.456 120.429L577.157 131.618C575.704 135.401 576.852 139.689 580 142.24L589.314 149.786C596.354 155.49 591.982 166.871 582.934 166.394L570.963 165.764C566.917 165.55 563.193 167.967 561.74 171.75L557.441 182.939C554.192 191.398 542.017 190.756 539.675 182.004L536.575 170.424C535.527 166.51 532.078 163.715 528.032 163.502L516.061 162.872C507.013 162.395 503.861 150.618 511.461 145.685L521.516 139.159C524.915 136.953 526.507 132.81 525.459 128.895L522.36 117.316Z" fill="#F9F9F9"/>
<path d="M618.705 439.433C653.988 416.533 664.027 369.365 641.127 334.081C618.227 298.797 571.059 288.759 535.775 311.659C500.492 334.559 490.453 381.727 513.353 417.011C536.253 452.294 583.421 462.333 618.705 439.433Z" stroke="#F9F9F9" stroke-width="8.0172"/>
<path d="M549.981 347.856C547.639 339.103 557.865 332.466 564.905 338.17L574.219 345.716C577.367 348.267 581.8 348.501 585.199 346.295L595.254 339.769C602.854 334.836 612.327 342.51 609.077 350.969L604.779 362.158C603.325 365.941 604.473 370.229 607.622 372.78L616.935 380.326C623.975 386.03 619.603 397.411 610.555 396.934L598.585 396.304C594.538 396.09 590.815 398.507 589.361 402.29L585.063 413.479C581.813 421.938 569.639 421.296 567.296 412.544L564.197 400.964C563.149 397.05 559.7 394.255 555.653 394.042L543.683 393.412C534.635 392.935 531.482 381.158 539.083 376.225L549.138 369.699C552.537 367.493 554.129 363.35 553.081 359.435L549.981 347.856Z" fill="#F9F9F9"/>
<path d="M394.149 210.681C358.865 233.582 348.827 280.749 371.727 316.033C394.628 351.317 441.795 361.355 477.079 338.455C512.363 315.554 522.401 268.387 499.501 233.103C476.6 197.819 429.433 187.781 394.149 210.681Z" stroke="#F9F9F9" stroke-width="8.0172"/>
<path d="M462.873 302.259C465.216 311.011 454.99 317.649 447.95 311.945L438.636 304.398C435.487 301.847 431.054 301.614 427.655 303.82L417.601 310.346C410 315.279 400.528 307.604 403.777 299.146L408.076 287.956C409.529 284.174 408.381 279.885 405.233 277.335L395.919 269.788C388.879 264.084 393.251 252.704 402.299 253.181L414.27 253.811C418.316 254.024 422.04 251.607 423.493 247.825L427.792 236.635C431.041 228.177 443.216 228.818 445.558 237.571L448.658 249.15C449.706 253.065 453.155 255.859 457.201 256.072L469.172 256.703C478.22 257.18 481.372 268.956 473.772 273.889L463.717 280.415C460.318 282.621 458.726 286.765 459.774 290.679L462.873 302.259Z" fill="#F9F9F9"/>
</g>
<defs>
<radialGradient id="paint0_radial_369_7345" cx="0" cy="0" r="1" gradientUnits="userSpaceOnUse" gradientTransform="translate(333.765 178.268) rotate(90) scale(249.576 419.19)">
<stop stop-color="#28669F"/>
<stop offset="1" stop-color="#072948"/>
</radialGradient>
</defs>
</svg>
