<svg width="18" height="19" viewBox="0 0 18 19" fill="none" xmlns="http://www.w3.org/2000/svg">
<g id="Outline / Essentional, UI / Bolt">
<path id="Vector" fill-rule="evenodd" clip-rule="evenodd" d="M15.3958 8.28007C15.1178 7.7986 14.6083 7.64033 14.1219 7.57232C13.6316 7.50377 12.9755 7.50379 12.1818 7.50381L12.1367 7.50381C11.6641 7.50381 11.3551 7.49915 11.13 7.46786C10.9265 7.43955 10.8617 7.39766 10.8341 7.37322C10.8139 7.35214 10.7778 7.30285 10.7533 7.12512C10.7244 6.91556 10.7231 6.6282 10.7231 6.16765V5.88679C10.7231 4.69615 10.7231 3.74234 10.6315 3.06233C10.5455 2.42403 10.341 1.70715 9.63289 1.49014C8.93719 1.27694 8.35368 1.7341 7.90012 2.20541C7.41694 2.7075 6.84298 3.48409 6.12434 4.45642L3.7716 7.63965C3.31385 8.25893 2.93226 8.77518 2.70489 9.20207C2.47698 9.63 2.31111 10.1381 2.56392 10.645L2.5648 10.6468L2.56746 10.6523L2.57049 10.6583L2.57347 10.664L2.57673 10.6701L2.58005 10.6762L2.58319 10.6819L2.58651 10.6877L2.58955 10.6929L2.59066 10.6947C2.86629 11.1721 3.37356 11.3392 3.86433 11.4141C4.37007 11.4913 5.04491 11.4963 5.86334 11.4963C6.3408 11.4963 6.64524 11.4974 6.86883 11.5259C7.06634 11.5511 7.12541 11.5899 7.15073 11.6123C7.17316 11.6357 7.21249 11.6904 7.24023 11.8746C7.27197 12.0854 7.27695 12.3772 7.27694 12.8325L7.27694 13.1132C7.2769 14.3039 7.27687 15.2577 7.3685 15.9377C7.4545 16.576 7.65895 17.2929 8.36709 17.5099C9.06279 17.7231 9.6463 17.266 10.0999 16.7947C10.5831 16.2926 11.157 15.516 11.8757 14.5436L14.2002 11.3986C14.6733 10.7586 15.0624 10.2238 15.2919 9.77874C15.5164 9.34318 15.673 8.83214 15.4226 8.3299L15.4217 8.32809L15.419 8.32264L15.416 8.31661L15.413 8.31084L15.4097 8.30469L15.4064 8.29856L15.4032 8.29289L15.3999 8.28705L15.3969 8.28183L15.3958 8.28007ZM8.71073 2.9855C8.28476 3.42814 7.75394 4.14433 7.00113 5.16287L4.70452 8.27015C4.21126 8.93753 3.88123 9.3866 3.69784 9.73092C3.60858 9.89851 3.57507 10.0042 3.56553 10.0682C3.55964 10.1078 3.56324 10.1256 3.56794 10.137C3.58608 10.1638 3.66485 10.2456 4.03412 10.302C4.43755 10.3636 5.01762 10.3713 5.86334 10.3713L5.89782 10.3713C6.33067 10.3713 6.70782 10.3712 7.01111 10.4099C7.33599 10.4513 7.65871 10.5455 7.92591 10.7968L7.93028 10.8009L7.93456 10.8051C8.19707 11.0628 8.30378 11.3823 8.35269 11.7071C8.39943 12.0175 8.40195 12.3993 8.40194 12.8325L8.40194 13.0647C8.40192 14.3148 8.40318 15.1919 8.48342 15.7875C8.52338 16.0841 8.57713 16.258 8.6286 16.3551C8.66717 16.4279 8.68937 16.4327 8.6956 16.4341L8.69672 16.4343L8.69786 16.4347C8.70571 16.4374 8.73336 16.4469 8.81861 16.404C8.92512 16.3505 9.07725 16.2349 9.28926 16.0146C9.71524 15.5719 10.2461 14.8557 10.9989 13.8372L13.2955 10.73C13.786 10.0664 14.1128 9.61075 14.2919 9.26323C14.4455 8.96537 14.4288 8.86451 14.4185 8.83772C14.4017 8.81312 14.326 8.73681 13.9661 8.68648C13.5633 8.63015 12.9869 8.62881 12.1367 8.62881C11.6845 8.62881 11.2924 8.62626 10.9751 8.58214C10.6475 8.53659 10.324 8.43797 10.0591 8.18885L10.0548 8.18474L10.0505 8.18054C9.78557 7.92052 9.6834 7.60143 9.63887 7.27903C9.59803 6.98328 9.59806 6.61704 9.5981 6.20391L9.5981 5.93538C9.5981 4.68521 9.59682 3.80812 9.51657 3.21257C9.47661 2.91602 9.42286 2.74207 9.37139 2.64494C9.33282 2.57214 9.31062 2.56737 9.30439 2.56603L9.30326 2.56576L9.30213 2.56539C9.29428 2.56267 9.26663 2.55313 9.18138 2.59603C9.07487 2.64962 8.92274 2.76519 8.71073 2.9855Z" fill="#050505"/>
</g>
</svg>
