<svg width="18" height="19" viewBox="0 0 18 19" fill="none" xmlns="http://www.w3.org/2000/svg">
<g id="Outline / School / Book Bookmark">
<path id="Vector" fill-rule="evenodd" clip-rule="evenodd" d="M7.45886 1.4375H10.5412C11.5669 1.43748 12.3936 1.43747 13.0438 1.52489C13.7189 1.61566 14.2873 1.80983 14.7388 2.26126C15.1902 2.7127 15.3844 3.28111 15.4751 3.95619C15.5625 4.60641 15.5625 5.43315 15.5625 6.45885V12.5412C15.5625 13.5668 15.5625 14.3936 15.4751 15.0438C15.3844 15.7189 15.1902 16.2873 14.7388 16.7387C14.2873 17.1902 13.7189 17.3843 13.0438 17.4751C12.3936 17.5625 11.5669 17.5625 10.5412 17.5625H7.45887C6.43317 17.5625 5.60643 17.5625 4.9562 17.4751C4.28112 17.3843 3.71272 17.1902 3.26128 16.7387C2.80984 16.2873 2.61567 15.7189 2.52491 15.0438C2.49589 14.8279 2.4765 14.5926 2.46355 14.337C2.43424 14.2445 2.42853 14.1434 2.45159 14.0426C2.4375 13.5986 2.43751 13.0994 2.43752 12.5412V6.45884C2.4375 5.43315 2.43749 4.60641 2.52491 3.95619C2.61567 3.28111 2.80984 2.7127 3.26128 2.26126C3.71272 1.80983 4.28112 1.61566 4.9562 1.52489C5.60643 1.43747 6.43317 1.43748 7.45886 1.4375ZM3.58258 14.1868C3.59399 14.4522 3.61186 14.6855 3.63988 14.8939C3.71387 15.4442 3.8492 15.7357 4.05677 15.9432C4.26435 16.1508 4.55578 16.2862 5.10611 16.3601C5.67262 16.4363 6.42346 16.4375 7.50002 16.4375H10.5C11.5766 16.4375 12.3274 16.4363 12.8939 16.3601C13.4443 16.2862 13.7357 16.1508 13.9433 15.9432C14.1508 15.7357 14.2862 15.4442 14.3602 14.8939C14.4223 14.4317 14.4345 13.8468 14.4369 13.0625H10.3125V15.1482C10.3125 15.1547 10.3125 15.1614 10.3125 15.1684C10.3127 15.2518 10.3128 15.3707 10.2969 15.4728C10.2774 15.5976 10.2132 15.8386 9.96368 15.9851C9.7234 16.1261 9.48839 16.0738 9.37668 16.039C9.2793 16.0088 9.17251 15.9579 9.09289 15.92C9.08659 15.917 9.08045 15.914 9.0745 15.9112L8.25002 15.5196L7.42553 15.9112C7.41959 15.914 7.41345 15.917 7.40715 15.92C7.32753 15.9579 7.22074 16.0088 7.12335 16.039C7.01165 16.0738 6.77663 16.1261 6.53635 15.9851C6.28685 15.8386 6.22267 15.5976 6.20316 15.4728C6.1872 15.3707 6.18738 15.2518 6.1875 15.1684C6.18751 15.1614 6.18752 15.1547 6.18752 15.1482V13.0625H5.92335C5.18966 13.0625 4.93316 13.0673 4.73659 13.12C4.1971 13.2646 3.76702 13.6656 3.58258 14.1868ZM7.31252 13.0625V14.7194L7.87451 14.4525C7.87588 14.4518 7.8781 14.4507 7.88111 14.4491C7.91788 14.4304 8.07276 14.3512 8.25002 14.3512C8.42728 14.3512 8.58216 14.4304 8.61892 14.4491C8.62194 14.4507 8.62416 14.4518 8.62553 14.4525L9.18752 14.7194V13.0625H7.31252ZM5.92335 11.9375C5.89397 11.9375 5.86503 11.9375 5.8365 11.9375C5.22303 11.9373 4.80442 11.9371 4.44542 12.0333C4.12444 12.1193 3.82669 12.2598 3.56252 12.4444V6.5C3.56252 5.42344 3.56371 4.6726 3.63988 4.10609C3.71387 3.55576 3.8492 3.26433 4.05677 3.05676C4.26435 2.84919 4.55578 2.71385 5.10611 2.63986C5.67262 2.5637 6.42346 2.5625 7.50002 2.5625H10.5C11.5766 2.5625 12.3274 2.5637 12.8939 2.63986C13.4443 2.71385 13.7357 2.84919 13.9433 3.05676C14.1508 3.26433 14.2862 3.55576 14.3602 4.10609C14.4363 4.6726 14.4375 5.42344 14.4375 6.5V11.9375H5.92335ZM5.43752 5.75C5.43752 5.43934 5.68936 5.1875 6.00002 5.1875H12C12.3107 5.1875 12.5625 5.43934 12.5625 5.75C12.5625 6.06066 12.3107 6.3125 12 6.3125H6.00002C5.68936 6.3125 5.43752 6.06066 5.43752 5.75ZM5.43752 8.375C5.43752 8.06434 5.68936 7.8125 6.00002 7.8125H9.75002C10.0607 7.8125 10.3125 8.06434 10.3125 8.375C10.3125 8.68566 10.0607 8.9375 9.75002 8.9375H6.00002C5.68936 8.9375 5.43752 8.68566 5.43752 8.375Z" fill="#050505"/>
</g>
</svg>
