<svg width="18" height="19" viewBox="0 0 18 19" fill="none" xmlns="http://www.w3.org/2000/svg">
<g id="Outline / Security / Lock">
<path id="Vector" fill-rule="evenodd" clip-rule="evenodd" d="M3.9375 7.47708V6.5C3.9375 3.70406 6.20406 1.4375 9 1.4375C11.7959 1.4375 14.0625 3.70406 14.0625 6.5V7.47708C14.2326 7.48904 14.393 7.50461 14.5438 7.52489C15.2189 7.61565 15.7873 7.80982 16.2387 8.26126C16.6902 8.7127 16.8843 9.28111 16.9751 9.95619C17.0625 10.6064 17.0625 11.4332 17.0625 12.4588V12.5412C17.0625 13.5668 17.0625 14.3936 16.9751 15.0438C16.8843 15.7189 16.6902 16.2873 16.2387 16.7387C15.7873 17.1902 15.2189 17.3843 14.5438 17.4751C13.8936 17.5625 13.0668 17.5625 12.0412 17.5625H5.95885C4.93316 17.5625 4.10641 17.5625 3.45619 17.4751C2.78111 17.3843 2.2127 17.1902 1.76126 16.7387C1.30983 16.2873 1.11566 15.7189 1.02489 15.0438C0.937473 14.3936 0.937485 13.5669 0.9375 12.5412V12.4588C0.937485 11.4332 0.937473 10.6064 1.02489 9.95619C1.11566 9.28111 1.30983 8.7127 1.76126 8.26126C2.2127 7.80982 2.78111 7.61565 3.45619 7.52489C3.60703 7.50461 3.76738 7.48904 3.9375 7.47708ZM5.0625 6.5C5.0625 4.32538 6.82538 2.5625 9 2.5625C11.1746 2.5625 12.9375 4.32538 12.9375 6.5V7.44008C12.6574 7.43749 12.3588 7.4375 12.0412 7.4375H5.95885C5.64121 7.4375 5.34265 7.43749 5.0625 7.44008V6.5ZM2.55676 9.05676C2.76433 8.84918 3.05576 8.71385 3.60609 8.63986C4.1726 8.56369 4.92344 8.5625 6 8.5625H12C13.0766 8.5625 13.8274 8.56369 14.3939 8.63986C14.9442 8.71385 15.2357 8.84918 15.4432 9.05676C15.6508 9.26433 15.7862 9.55576 15.8601 10.1061C15.9363 10.6726 15.9375 11.4234 15.9375 12.5C15.9375 13.5766 15.9363 14.3274 15.8601 14.8939C15.7862 15.4442 15.6508 15.7357 15.4432 15.9432C15.2357 16.1508 14.9442 16.2861 14.3939 16.3601C13.8274 16.4363 13.0766 16.4375 12 16.4375H6C4.92344 16.4375 4.1726 16.4363 3.60609 16.3601C3.05576 16.2861 2.76433 16.1508 2.55676 15.9432C2.34919 15.7357 2.21385 15.4442 2.13986 14.8939C2.0637 14.3274 2.0625 13.5766 2.0625 12.5C2.0625 11.4234 2.0637 10.6726 2.13986 10.1061C2.21385 9.55576 2.34919 9.26433 2.55676 9.05676Z" fill="#050505"/>
</g>
</svg>
