<svg width="18" height="19" viewBox="0 0 18 19" fill="none" xmlns="http://www.w3.org/2000/svg">
<g id="Outline / Arrows Action / Logout 2">
<g id="Vector">
<path d="M11.209 1.4375C10.1833 1.43749 9.35657 1.43747 8.70635 1.52489C8.03127 1.61566 7.46286 1.80983 7.01142 2.26126C6.61773 2.65496 6.4188 3.13877 6.31437 3.70727C6.2129 4.25969 6.19349 4.93572 6.18897 5.74687C6.18724 6.05753 6.43768 6.31076 6.74833 6.31249C7.05899 6.31422 7.31223 6.06379 7.31396 5.75313C7.31852 4.93301 7.33982 4.3517 7.42086 3.91051C7.49895 3.4854 7.62433 3.23935 7.80692 3.05676C8.01449 2.84919 8.30592 2.71385 8.85625 2.63986C9.42276 2.5637 10.1736 2.5625 11.2502 2.5625H12.0002C13.0767 2.5625 13.8276 2.5637 14.3941 2.63986C14.9444 2.71385 15.2358 2.84919 15.4434 3.05676C15.651 3.26433 15.7863 3.55576 15.8603 4.10609C15.9365 4.6726 15.9377 5.42344 15.9377 6.5V12.5C15.9377 13.5766 15.9365 14.3274 15.8603 14.8939C15.7863 15.4442 15.651 15.7357 15.4434 15.9432C15.2358 16.1508 14.9444 16.2862 14.3941 16.3601C13.8276 16.4363 13.0767 16.4375 12.0002 16.4375H11.2502C10.1736 16.4375 9.42276 16.4363 8.85625 16.3601C8.30592 16.2862 8.01449 16.1508 7.80692 15.9432C7.62433 15.7607 7.49895 15.5146 7.42086 15.0895C7.33982 14.6483 7.31852 14.067 7.31396 13.2469C7.31223 12.9362 7.05899 12.6858 6.74833 12.6875C6.43768 12.6892 6.18724 12.9425 6.18897 13.2531C6.19349 14.0643 6.2129 14.7403 6.31437 15.2927C6.4188 15.8612 6.61773 16.345 7.01142 16.7387C7.46286 17.1902 8.03127 17.3843 8.70635 17.4751C9.35657 17.5625 10.1833 17.5625 11.209 17.5625H12.0413C13.067 17.5625 13.8937 17.5625 14.544 17.4751C15.2191 17.3843 15.7875 17.1902 16.2389 16.7387C16.6903 16.2873 16.8845 15.7189 16.9753 15.0438C17.0627 14.3936 17.0627 13.5668 17.0627 12.5412V6.45885C17.0627 5.43316 17.0627 4.60641 16.9753 3.95619C16.8845 3.28111 16.6903 2.7127 16.2389 2.26126C15.7875 1.80983 15.2191 1.61566 14.544 1.52489C13.8938 1.43747 13.067 1.43749 12.0413 1.4375H11.209Z" fill="#050505"/>
<path d="M11.25 8.9375C11.5607 8.9375 11.8125 9.18934 11.8125 9.5C11.8125 9.81066 11.5607 10.0625 11.25 10.0625H3.02058L4.49107 11.3229C4.72694 11.5251 4.75426 11.8802 4.55208 12.1161C4.34991 12.3519 3.9948 12.3793 3.75893 12.1771L1.13393 9.92708C1.00925 9.82022 0.9375 9.66421 0.9375 9.5C0.9375 9.33579 1.00925 9.17978 1.13393 9.07292L3.75893 6.82292C3.9948 6.62074 4.34991 6.64806 4.55208 6.88393C4.75426 7.1198 4.72694 7.47491 4.49107 7.67708L3.02058 8.9375H11.25Z" fill="#050505"/>
</g>
</g>
</svg>
