<svg width="18" height="19" viewBox="0 0 18 19" fill="none" xmlns="http://www.w3.org/2000/svg">
<g id="Outline / Essentional, UI / Question Circle">
<path id="Vector" fill-rule="evenodd" clip-rule="evenodd" d="M9 2.5625C5.16852 2.5625 2.0625 5.66852 2.0625 9.5C2.0625 13.3315 5.16852 16.4375 9 16.4375C12.8315 16.4375 15.9375 13.3315 15.9375 9.5C15.9375 5.66852 12.8315 2.5625 9 2.5625ZM0.9375 9.5C0.9375 5.0472 4.5472 1.4375 9 1.4375C13.4528 1.4375 17.0625 5.0472 17.0625 9.5C17.0625 13.9528 13.4528 17.5625 9 17.5625C4.5472 17.5625 0.9375 13.9528 0.9375 9.5ZM9 6.3125C8.53401 6.3125 8.15625 6.69026 8.15625 7.15625C8.15625 7.46691 7.90441 7.71875 7.59375 7.71875C7.28309 7.71875 7.03125 7.46691 7.03125 7.15625C7.03125 6.06894 7.91269 5.1875 9 5.1875C10.0873 5.1875 10.9688 6.06894 10.9688 7.15625C10.9688 7.87875 10.5792 8.50968 10.0014 8.85152C9.85388 8.93883 9.73207 9.03415 9.65271 9.12768C9.57566 9.21847 9.5625 9.2777 9.5625 9.3125V10.25C9.5625 10.5607 9.31066 10.8125 9 10.8125C8.68934 10.8125 8.4375 10.5607 8.4375 10.25V9.3125C8.4375 8.93308 8.60361 8.62523 8.79494 8.39976C8.98397 8.17702 9.21967 8.0069 9.4286 7.88329C9.67833 7.73554 9.84375 7.46492 9.84375 7.15625C9.84375 6.69026 9.46599 6.3125 9 6.3125ZM9 13.25C9.41421 13.25 9.75 12.9142 9.75 12.5C9.75 12.0858 9.41421 11.75 9 11.75C8.58579 11.75 8.25 12.0858 8.25 12.5C8.25 12.9142 8.58579 13.25 9 13.25Z" fill="#050505"/>
</g>
</svg>
